<?xml version="1.0" standalone="no"?>
<!DOCTYPE svg PUBLIC "-//W3C//DTD SVG 1.1//EN" "http://www.w3.org/Graphics/SVG/1.1/DTD/svg11.dtd" >
<svg xmlns="http://www.w3.org/2000/svg" xmlns:xlink="http://www.w3.org/1999/xlink" version="1.1">
<metadata>
Created by FontForge 20201107 at Thu Apr 18 22:51:54 2024
 By 
Copyright (c) 2013 by Mattia Bonanomi. All rights reserved.
</metadata>
<defs>
<font id="MTTMilano-BoldItalic" horiz-adv-x="1114" >
  <font-face 
    font-family="MTT Milano"
    font-weight="700"
    font-style="italic"
    font-stretch="normal"
    units-per-em="2048"
    panose-1="0 0 8 0 0 0 0 0 0 0"
    ascent="1556"
    descent="-492"
    x-height="901"
    cap-height="1423"
    bbox="-260 -674 2367 1882"
    underline-thickness="102"
    underline-position="-204"
    slope="-8"
    unicode-range="U+000D-FB02"
  />
<missing-glyph horiz-adv-x="1628" 
d="M946 1448q123 0 232 -37.5t191 -106.5t137.5 -160.5t76.5 -206t4 -237.5q-27 -198 -146.5 -365t-300 -263.5t-378.5 -96.5q-153 0 -283.5 59t-216.5 159.5t-125.5 239.5t-17.5 292q28 198 148 364.5t300.5 262.5t378.5 96zM1167 1004l125 161q-96 57 -180 86t-178 29
q-143 0 -253 -83.5t-130 -217.5q-15 -115 35.5 -190t169.5 -121l162 -62q125 -50 110 -151q-6 -53 -53 -90t-125 -37q-148 0 -342 131l-125 -166q100 -66 212.5 -106t195.5 -40q163 0 286 90.5t144 241.5q14 103 -31.5 175t-163.5 120l-201 84q-98 40 -84 131q6 41 44.5 76
t119.5 35q59 0 118 -22t144 -74z" />
    <glyph glyph-name="fi" unicode="fi" horiz-adv-x="1228" 
d="M1147 901l-127 -901h-221l98 705h-424l-100 -705h-221l100 705h-201l129 196h99l2 21q18 126 60.5 226t110.5 175t168.5 115.5t227.5 40.5l-19 -209q-134 0 -218.5 -94.5t-110.5 -274.5h647zM1100 1444q66 0 107 -45t32 -111q-9 -57 -54 -98t-102 -41q-66 0 -106 49
t-31 115q7 56 51.5 93.5t102.5 37.5z" />
    <glyph glyph-name="fl" unicode="fl" horiz-adv-x="1275" 
d="M848 1479l-19 -209q-134 0 -218.5 -94.5t-110.5 -274.5h272l-27 -196h-272l-100 -705h-221l100 705h-201l129 196h99l2 21q18 126 60.5 226t110.5 175t168.5 115.5t227.5 40.5zM1270 1454l-205 -1454h-221l205 1454h221z" />
    <glyph glyph-name="f_f" unicode="ff" horiz-adv-x="1363" 
d="M1499 1479l-18 -209q-134 0 -219 -94.5t-111 -274.5h272l-26 -196h-273l-100 -705h-221l100 705h-430l-100 -705h-221l100 705h-201l129 196h99l2 21q18 126 60.5 226t110.5 175t168.5 115.5t227.5 40.5l-19 -209q-134 0 -218.5 -94.5t-110.5 -274.5h430l2 21
q18 126 60.5 226t110.5 175t168.5 115.5t227.5 40.5z" />
    <glyph glyph-name="f_f_i" unicode="ffi" horiz-adv-x="1880" 
d="M1798 901l-127 -901h-221l98 705h-424l-100 -705h-221l100 705h-430l-100 -705h-221l100 705h-201l129 196h99l2 21q18 126 60.5 226t110.5 175t168.5 115.5t227.5 40.5l-19 -209q-134 0 -218.5 -94.5t-110.5 -274.5h430l2 21q18 126 60.5 226t110.5 175t168.5 115.5
t227.5 40.5l-18 -209q-134 0 -219 -94.5t-111 -274.5h647zM1751 1444q66 0 107 -45t32 -111q-9 -58 -54 -98.5t-101 -40.5q-66 0 -106.5 49t-31.5 115q7 56 51.5 93.5t102.5 37.5z" />
    <glyph glyph-name=".notdef" horiz-adv-x="1628" 
d="M946 1448q123 0 232 -37.5t191 -106.5t137.5 -160.5t76.5 -206t4 -237.5q-27 -198 -146.5 -365t-300 -263.5t-378.5 -96.5q-153 0 -283.5 59t-216.5 159.5t-125.5 239.5t-17.5 292q28 198 148 364.5t300.5 262.5t378.5 96zM1167 1004l125 161q-96 57 -180 86t-178 29
q-143 0 -253 -83.5t-130 -217.5q-15 -115 35.5 -190t169.5 -121l162 -62q125 -50 110 -151q-6 -53 -53 -90t-125 -37q-148 0 -342 131l-125 -166q100 -66 212.5 -106t195.5 -40q163 0 286 90.5t144 241.5q14 103 -31.5 175t-163.5 120l-201 84q-98 40 -84 131q6 41 44.5 76
t119.5 35q59 0 118 -22t144 -74z" />
    <glyph glyph-name=".null" horiz-adv-x="0" 
 />
    <glyph glyph-name="nonmarkingreturn" horiz-adv-x="682" 
 />
    <glyph glyph-name="CR" unicode="&#xd;" horiz-adv-x="512" 
 />
    <glyph glyph-name="space" unicode=" " horiz-adv-x="512" 
 />
    <glyph glyph-name="exclam" unicode="!" horiz-adv-x="753" 
d="M500 461h-238l125 962h258zM342 270q65 0 104.5 -46.5t30.5 -110.5q-8 -55 -52.5 -96.5t-100.5 -41.5q-60 0 -101.5 49.5t-32.5 112.5q6 53 53 93t99 40z" />
    <glyph glyph-name="quotedbl" unicode="&#x22;" horiz-adv-x="913" 
d="M295 901l-47 365q-10 77 35 129.5t112 52.5q75 0 113.5 -58.5t9.5 -136.5l-141 -352h-82zM680 901l-47 365q-10 77 35 129.5t112 52.5q75 0 113.5 -58.5t9.5 -136.5l-141 -352h-82z" />
    <glyph glyph-name="numbersign" unicode="#" horiz-adv-x="1497" 
d="M1225 901l-113 -356h248l-27 -189h-280l-113 -356h-211l113 356h-324l-110 -356h-209l110 356h-229l26 189h263l110 356h-248l27 189h281l104 333h209l-104 -333h325l107 333h211l-107 -333h215l-26 -189h-248zM1014 901h-326l-110 -356h323z" />
    <glyph glyph-name="dollar" unicode="$" horiz-adv-x="1280" 
d="M612 893l287 -119q126 -53 183 -158.5t38 -236.5q-24 -166 -146 -275t-274 -127l-20 -145h-238l25 174q-161 49 -348 162l135 203q260 -162 416 -162q76 0 141 57.5t76 132.5q9 64 -26.5 105.5t-115.5 75.5l-239 94q-125 49 -187.5 149t-42.5 242q22 154 136.5 258.5
t255.5 122.5l20 145h238l-23 -164q122 -30 299 -135l-137 -198q-183 120 -324 120q-104 0 -163 -54.5t-66 -115.5q-16 -103 100 -151z" />
    <glyph glyph-name="percent" unicode="%" horiz-adv-x="1558" 
d="M510 1448q132 0 215 -94t63 -228q-17 -123 -118.5 -207.5t-223.5 -84.5q-130 0 -214 92t-66 225q19 124 120.5 210.5t223.5 86.5zM399 0h-233l1073 1423h234zM512 1290q-71 0 -125.5 -47t-64.5 -117q-8 -59 26.5 -97t95.5 -38q67 0 123.5 47t65.5 113q9 60 -27 99.5
t-94 39.5zM1192 590q132 0 216 -95t65 -227q-17 -119 -120.5 -206t-224.5 -87q-130 0 -214.5 94.5t-65.5 223.5q19 124 120.5 210.5t223.5 86.5zM1194 432q-70 0 -124.5 -48t-63.5 -116q-9 -60 24.5 -97.5t95.5 -37.5q70 0 125 46t64 114q9 59 -26 99t-95 40z" />
    <glyph glyph-name="ampersand" unicode="&#x26;" horiz-adv-x="1323" 
d="M1243 0h-221l-53 127q-171 -79 -285.5 -115.5t-222.5 -36.5q-116 0 -203 40t-132.5 124t-29.5 201q17 114 105 199.5t229 138.5l72 22q-99 35 -156.5 129t-38.5 228q24 170 165.5 279.5t318.5 109.5q108 0 181.5 -55.5t106.5 -135.5l-178 -73q-10 27 -48 48t-75 21
q-88 0 -164 -60t-90 -159q-9 -65 14.5 -113.5t71.5 -71t114 -25.5t142 22l275 98l63 -156l-241 -92zM768 618l-180 -71q-143 -57 -203 -107t-70 -123q-10 -72 32 -109.5t122 -37.5q69 0 143.5 23.5t272.5 105.5z" />
    <glyph glyph-name="quotesingle" unicode="'" horiz-adv-x="528" 
d="M295 901l-47 365q-10 77 35 129.5t112 52.5q75 0 113.5 -58.5t9.5 -136.5l-141 -352h-82z" />
    <glyph glyph-name="parenleft" unicode="(" horiz-adv-x="878" 
d="M780 1569l183 -101q-476 -457 -537 -907q-32 -220 38.5 -448.5t235.5 -444.5l-188 -82q-178 209 -256 482t-45 518q33 239 184 506t385 477z" />
    <glyph glyph-name="parenright" unicode=")" horiz-adv-x="878" 
d="M213 1477l190 84q178 -213 258 -484.5t46 -515.5q-34 -237 -185.5 -506t-384.5 -477l-182 98q229 218 367 450t170 460q63 447 -279 891z" />
    <glyph glyph-name="asterisk" unicode="*" horiz-adv-x="1034" 
d="M696 1192l244 72l27 -160l-248 -57l133 -195l-150 -100l-106 204l-164 -204l-129 100l182 195l-231 57l72 160l227 -72l10 231h189z" />
    <glyph glyph-name="plus" unicode="+" horiz-adv-x="1118" 
d="M698 641h314l-31 -217h-313l-43 -313h-222l43 313h-313l31 217h313l45 313h221z" />
    <glyph glyph-name="comma" unicode="," horiz-adv-x="528" 
d="M18 -274l58 403q7 58 54 100.5t99 42.5q65 0 105 -48.5t31 -112.5q-4 -31 -23 -62l-264 -323h-60z" />
    <glyph glyph-name="hyphen" unicode="-" horiz-adv-x="843" 
d="M707 424h-574l31 217h573z" />
    <glyph glyph-name="period" unicode="." horiz-adv-x="516" 
d="M223 270q65 0 104.5 -47.5t30.5 -111.5q-8 -55 -52.5 -95.5t-100.5 -40.5q-60 0 -101 48.5t-34 111.5q7 53 54 94t99 41z" />
    <glyph glyph-name="slash" unicode="/" horiz-adv-x="1169" 
d="M268 0h-254l965 1423h254z" />
    <glyph glyph-name="zero" unicode="0" horiz-adv-x="1423" 
d="M844 1448q180 0 314 -99.5t193.5 -271t30.5 -377.5q-20 -142 -82 -272.5t-155 -231.5t-220 -161t-266 -60q-141 0 -254 59.5t-182 161.5t-97 239t-7 290q28 200 123.5 362.5t253 261.5t348.5 99zM836 1214q-121 0 -224.5 -70.5t-167.5 -187t-84 -256.5q-19 -134 7 -243.5
t103.5 -178.5t197.5 -69q116 0 218.5 71.5t168.5 189t86 255.5q13 91 -1 178t-50.5 156.5t-102.5 112t-151 42.5z" />
    <glyph glyph-name="one" unicode="1" horiz-adv-x="702" 
d="M453 0h-238l150 1053h-168l14 112l446 299z" />
    <glyph glyph-name="two" unicode="2" horiz-adv-x="1185" 
d="M442 1012h-235q25 184 171 310t333 126q198 0 320 -132.5t95 -328.5q-8 -65 -60 -142t-161 -200l-383 -420h498l-33 -225h-950l739 825q99 114 109 187q12 89 -35.5 145.5t-140.5 56.5q-97 0 -172 -56.5t-95 -145.5z" />
    <glyph glyph-name="three" unicode="3" horiz-adv-x="1181" 
d="M1178 1423l-478 -522q121 -5 209.5 -70.5t126.5 -169t21 -223.5q-28 -198 -180.5 -330.5t-352.5 -132.5q-160 0 -276.5 91t-147.5 233h287q18 -37 63 -62.5t89 -25.5q104 0 182.5 78.5t91.5 173.5q14 96 -35.5 160.5t-140.5 64.5q-114 0 -188 -84h-273l529 594h-476
l33 225h916z" />
    <glyph glyph-name="four" unicode="4" horiz-adv-x="1288" 
d="M1022 492h176l-33 -226h-176l-37 -266h-237l37 266h-772l1177 1198zM494 492h290l56 378z" />
    <glyph glyph-name="five" unicode="5" horiz-adv-x="1128" 
d="M1053 1198h-504l-115 -334q36 25 102 43.5t128 18.5q182 0 280.5 -134.5t69.5 -340.5q-28 -201 -182 -338.5t-349 -137.5q-87 0 -162 30t-126.5 79.5t-83.5 109.5t-41 123h262q25 -46 73 -74t103 -28q97 0 179 72.5t99 187.5q13 98 -34.5 157.5t-139.5 59.5
q-133 0 -245 -104l-222 65l240 770h645z" />
    <glyph glyph-name="six" unicode="6" horiz-adv-x="1146" 
d="M889 1423l-352 -522q16 10 53 17.5t74 7.5q114 0 207.5 -66.5t140 -180t28.5 -243.5q-17 -125 -94 -231t-192.5 -168t-241.5 -62q-112 1 -199.5 42.5t-138.5 109t-72 154t-8 180.5q17 140 121 303l432 659h242zM612 684q-102 0 -182 -73t-94 -175q-12 -95 40 -161
t144 -66q102 0 183 74t96 178q12 93 -41 158t-146 65z" />
    <glyph glyph-name="seven" unicode="7" horiz-adv-x="1089" 
d="M414 0h-277l709 1198h-688l32 225h1051z" />
    <glyph glyph-name="eight" unicode="8" horiz-adv-x="1165" 
d="M713 1448q167 0 272 -121.5t82 -288.5q-23 -143 -152 -254q75 -60 110 -154t22 -200q-28 -190 -178.5 -322.5t-340.5 -132.5q-129 0 -229 64.5t-148 175t-30 240.5q13 97 74 188.5t155 157.5q-42 50 -64 120t-12 142q23 158 152.5 271.5t286.5 113.5zM705 1214
q-75 0 -133 -50.5t-68 -125.5q-8 -66 28 -109.5t101 -43.5q76 0 134 52t69 126q9 66 -27.5 108.5t-103.5 42.5zM627 670q-102 0 -181 -69t-92 -171q-13 -95 39 -158t144 -63q104 0 185.5 71t94.5 175q13 93 -40.5 154t-149.5 61z" />
    <glyph glyph-name="nine" unicode="9" horiz-adv-x="1130" 
d="M299 0l373 522q-16 -9 -53 -16.5t-74 -7.5q-114 0 -207.5 66t-140.5 179.5t-29 243.5q17 125 94 231t192.5 168t241.5 62q112 -1 199.5 -42.5t138.5 -109t72 -153.5t8 -180q-18 -147 -121 -304l-442 -659h-252zM688 1214q-102 0 -182.5 -73.5t-95.5 -177.5
q-12 -94 40.5 -159t145.5 -65q102 0 182 73t94 175q12 95 -40 161t-144 66z" />
    <glyph glyph-name="colon" unicode=":" horiz-adv-x="598" 
d="M356 926q65 0 104.5 -48t31.5 -112q-8 -55 -53 -95t-101 -40q-60 0 -101 48.5t-34 111.5q7 53 54 94t99 41zM264 270q65 0 104.5 -47.5t30.5 -111.5q-8 -55 -52.5 -95.5t-100.5 -40.5q-60 0 -101 48.5t-34 111.5q7 53 54 94t99 41z" />
    <glyph glyph-name="semicolon" unicode=";" horiz-adv-x="528" 
d="M322 926q65 0 104 -48t31 -112q-8 -55 -53 -95t-101 -40q-60 0 -101 48.5t-34 111.5q7 53 54.5 94t99.5 41zM18 -274l58 403q7 58 54 100.5t99 42.5q65 0 105 -48.5t31 -112.5q-4 -31 -23 -62l-264 -323h-60z" />
    <glyph glyph-name="less" unicode="&#x3c;" horiz-adv-x="1161" 
d="M1075 768l-497 -236l428 -235l-29 -221l-827 456l952 457z" />
    <glyph glyph-name="equal" unicode="=" horiz-adv-x="1183" 
d="M1075 629h-913l31 217h913zM1018 219h-914l31 217h914z" />
    <glyph glyph-name="greater" unicode="&#x3e;" horiz-adv-x="1157" 
d="M1036 532l-950 -456l29 221l495 235l-426 236l27 221z" />
    <glyph glyph-name="question" unicode="?" horiz-adv-x="993" 
d="M166 1006l12 79q21 146 146 254.5t286 108.5q112 0 197 -53.5t123.5 -140.5t25.5 -185q-22 -137 -125 -248l-208 -203l-39 -188h-219l20 232l272 276q55 58 64 129q9 63 -26.5 108.5t-92.5 45.5q-69 0 -126 -54t-66 -118l-7 -43h-237zM461 270q65 0 104.5 -46.5
t30.5 -110.5q-8 -55 -53 -96.5t-101 -41.5q-60 0 -101 49.5t-32 112.5q6 53 53 93t99 40z" />
    <glyph glyph-name="at" unicode="@" horiz-adv-x="1925" 
d="M866 -215l-18 -219q-194 0 -348 59.5t-259 174t-148 293.5t-11 407q29 209 121 386.5t226 300.5t306.5 192t360.5 69q193 0 349.5 -68.5t258.5 -192.5t144.5 -307.5t11.5 -404.5q-19 -131 -65.5 -232t-112 -160.5t-141.5 -89.5t-161 -30q-94 0 -155 52.5t-76 109.5
q-36 -57 -114 -102.5t-193 -45.5q-136 0 -218 88t-63 218q17 119 109 183.5t233 72.5q110 6 203 22l14 64q7 47 -28.5 77.5t-77.5 30.5q-118 0 -228 -82l-118 142q107 82 181 108.5t169 26.5q91 0 168.5 -38t121.5 -111.5t31 -166.5l-39 -276q-10 -80 11 -126t63 -46
q29 0 53 3.5t62 22.5t66.5 52t55.5 99.5t40 158.5q22 150 1.5 268t-71.5 204.5t-129 143.5t-170 85t-195 28q-134 0 -262.5 -47t-239 -137t-189.5 -237.5t-105 -332.5q-18 -112 -9.5 -203t31 -162.5t65.5 -125.5t94 -92t116.5 -61.5t133.5 -34.5t144 -11zM1079 313l15 72
q-28 -5 -92.5 -8.5t-69.5 -3.5q-71 -4 -112.5 -36t-47.5 -79q-6 -39 17.5 -62.5t78.5 -23.5q85 0 142.5 41.5t68.5 99.5z" />
    <glyph glyph-name="A" unicode="A" horiz-adv-x="1398" 
d="M971 313h-570l-182 -313h-260l885 1464l469 -1464h-252zM909 530l-127 443l-256 -443h383z" />
    <glyph glyph-name="B" unicode="B" horiz-adv-x="1327" 
d="M295 1423h539q181 0 277.5 -114t72.5 -283q-10 -70 -58 -137t-98 -98q87 -33 153.5 -135.5t49.5 -221.5q-17 -120 -86 -218.5t-183.5 -157t-252.5 -58.5h-615zM500 1198l-45 -319h301q70 0 128.5 53t67.5 119q8 60 -28 103.5t-111 43.5h-313zM426 666l-61 -441h364
q100 0 179 69t93 165q11 84 -45.5 145.5t-152.5 61.5h-377z" />
    <glyph glyph-name="C" unicode="C" horiz-adv-x="1458" 
d="M1149 391l190 -166q-276 -250 -589 -250q-143 0 -270.5 58.5t-216.5 157.5t-132.5 239.5t-21.5 294.5q16 113 66.5 221.5t129.5 198t177 158t215 107t237 38.5q176 0 303 -69t201 -185l-205 -143q-125 163 -307 163q-124 0 -249.5 -68.5t-216 -188.5t-110.5 -257
q-29 -207 87.5 -349t320.5 -142q102 0 208.5 53t182.5 129z" />
    <glyph glyph-name="D" unicode="D" horiz-adv-x="1480" 
d="M295 1423h524q137 0 259.5 -57t208 -153.5t127 -231.5t20.5 -281q-20 -140 -92 -266t-179 -218t-245.5 -149.5t-286.5 -66.5h-537zM500 1198l-135 -973h286q127 0 244 65.5t197.5 181t99.5 253.5q29 204 -83 338.5t-310 134.5h-299z" />
    <glyph glyph-name="E" unicode="E" horiz-adv-x="1236" 
d="M1184 1198h-684l-49 -360h563l-33 -226h-563l-53 -387h694l-33 -225h-932l201 1423h922z" />
    <glyph glyph-name="F" unicode="F" horiz-adv-x="1126" 
d="M1163 1198h-663l-49 -358h522l-33 -226h-522l-86 -614h-238l201 1423h901z" />
    <glyph glyph-name="G" unicode="G" horiz-adv-x="1501" 
d="M856 825h592l-16 -112l-58 -445q-138 -145 -298 -219t-328 -74q-143 0 -271 58.5t-217 157.5t-132.5 239.5t-21.5 294.5q20 141 95 273.5t184.5 231.5t253.5 158.5t293 59.5q177 0 310 -69.5t206 -184.5l-207 -147q-131 167 -317 167q-124 0 -249.5 -68.5t-216 -188.5
t-110.5 -257q-29 -207 87.5 -349t320.5 -142q105 0 210.5 45t180.5 117l35 229h-359z" />
    <glyph glyph-name="H" unicode="H" horiz-adv-x="1525" 
d="M1300 0h-237l84 600h-723l-84 -600h-238l201 1423h238l-84 -598h723l84 598h237z" />
    <glyph glyph-name="I" unicode="I" horiz-adv-x="563" 
d="M344 0h-246l201 1423h246z" />
    <glyph glyph-name="J" unicode="J" horiz-adv-x="653" 
d="M633 1423l-178 -1271q-19 -131 -84.5 -250t-161 -205.5t-218.5 -137.5t-251 -51l20 234q168 0 296.5 123t152.5 299l178 1259h246z" />
    <glyph glyph-name="K" unicode="K" horiz-adv-x="1366" 
d="M788 821l474 -821h-279l-377 653l-209 -194l-65 -459h-238l201 1423h237l-94 -661l699 661h299z" />
    <glyph glyph-name="L" unicode="L" horiz-adv-x="1097" 
d="M365 225h663l-33 -225h-901l201 1423h237z" />
    <glyph glyph-name="M" unicode="M" horiz-adv-x="1765" 
d="M1538 0h-238l130 901l-547 -500l-412 500l-129 -901h-238l205 1464l609 -757l825 757z" />
    <glyph glyph-name="N" unicode="N" horiz-adv-x="1544" 
d="M1149 504l131 919h238l-205 -1464l-840 961l-131 -920h-238l205 1464z" />
    <glyph glyph-name="O" unicode="O" horiz-adv-x="1628" 
d="M946 1448q143 0 271 -59t217 -158.5t132 -239t21 -291.5q-20 -139 -95.5 -272t-185.5 -232.5t-253.5 -160t-290.5 -60.5q-150 0 -279.5 60t-216 160.5t-127.5 239.5t-20 290q20 146 94.5 279t184 231t253 155.5t295.5 57.5zM938 1214q-133 0 -259.5 -69.5t-213 -188.5
t-105.5 -256q-18 -130 29 -242.5t148.5 -180.5t232.5 -68q127 0 253.5 70.5t215 190.5t107.5 255q16 119 -33 232t-150 185t-225 72z" />
    <glyph glyph-name="P" unicode="P" horiz-adv-x="1189" 
d="M295 1423h518q127 0 227 -53t151.5 -152t33.5 -223q-25 -178 -169 -290.5t-347 -112.5h-293l-84 -592h-238zM500 1198l-54 -381h281q104 0 173.5 53.5t82.5 149.5q12 88 -35 133t-155 45h-293z" />
    <glyph glyph-name="Q" unicode="Q" horiz-adv-x="1619" 
d="M1444 -338l-346 393q-166 -80 -336 -80q-150 0 -279.5 60t-216 160.5t-127.5 239.5t-20 290q20 146 94.5 279t184 231t253 155.5t295.5 57.5q143 0 271 -59t217 -158.5t132 -239t21 -291.5q-19 -135 -90.5 -264t-183.5 -231l174 -205zM938 1214q-133 0 -259.5 -69.5
t-213 -188.5t-105.5 -256q-18 -130 29 -242.5t148.5 -180.5t232.5 -68q137 0 263.5 71t210 190t102.5 255q16 119 -33 232t-150 185t-225 72z" />
    <glyph glyph-name="R" unicode="R" horiz-adv-x="1335" 
d="M295 1423h553q211 0 332 -117t92 -311q-19 -139 -113 -242.5t-215 -146.5l225 -606h-266l-221 592h-270l-84 -592h-234zM496 1198l-54 -381h326q117 0 188.5 53.5t85.5 149.5q11 82 -44 130t-171 48h-331z" />
    <glyph glyph-name="S" unicode="S" horiz-adv-x="1245" 
d="M745 575l-210 82q-321 125 -277 428q23 163 156.5 263t310.5 100q129 0 237.5 -38.5t241.5 -115.5l-131 -200q-112 66 -187 93t-143 27q-62 0 -110 -17.5t-75.5 -45t-42 -56t-17.5 -55.5q-15 -99 98 -145l262 -109q303 -125 262 -407q-17 -123 -94 -216.5t-189.5 -140.5
t-242.5 -47q-115 0 -261.5 54.5t-283.5 144.5l131 197q244 -162 432 -162q112 0 184 57t83 137q8 63 -27 103t-107 69z" />
    <glyph glyph-name="T" unicode="T" horiz-adv-x="1095" 
d="M1182 1198h-410l-168 -1198h-237l168 1198h-410l33 225h1056z" />
    <glyph glyph-name="U" unicode="U" horiz-adv-x="1474" 
d="M1464 1423l-121 -852q-39 -280 -218.5 -438t-440.5 -158q-269 0 -410 164t-102 445l119 839h237l-120 -852q-23 -174 62 -268t222 -94q69 0 136 24.5t125 70t99 118.5t54 162l119 839h239z" />
    <glyph glyph-name="V" unicode="V" horiz-adv-x="1396" 
d="M635 -41l-473 1464h262l274 -952l549 952h271z" />
    <glyph glyph-name="W" unicode="W" horiz-adv-x="2107" 
d="M1341 -41l-251 709l-451 -709l-477 1464h256l293 -977l290 463l-182 514h236l96 -276l174 276h244l-332 -524l156 -453l571 977h264z" />
    <glyph glyph-name="X" unicode="X" horiz-adv-x="1441" 
d="M901 768l451 -768h-283l-324 586l-491 -586h-291l668 768l-381 655h272l266 -473l406 473h281z" />
    <glyph glyph-name="Y" unicode="Y" horiz-adv-x="1267" 
d="M784 637l-92 -637h-237l92 637l-389 786h262l268 -585l436 585h271z" />
    <glyph glyph-name="Z" unicode="Z" horiz-adv-x="1202" 
d="M412 225h710l-32 -225h-1102l882 1198h-686l33 225h1075z" />
    <glyph glyph-name="bracketleft" unicode="[" horiz-adv-x="706" 
d="M791 1346h-230l-211 -1506h230l-31 -217h-451l273 1940h450z" />
    <glyph glyph-name="backslash" unicode="\" horiz-adv-x="1128" 
d="M1028 0h-240l-610 1423h234z" />
    <glyph glyph-name="bracketright" unicode="]" horiz-adv-x="706" 
d="M379 -377h-451l31 217h229l211 1506h-229l31 217h450z" />
    <glyph glyph-name="asciicircum" unicode="^" horiz-adv-x="1019" 
d="M926 743h-207l-111 342l-213 -342h-219l477 721z" />
    <glyph glyph-name="underscore" unicode="_" horiz-adv-x="999" 
d="M883 -397h-1000l31 221h999z" />
    <glyph glyph-name="grave" unicode="`" horiz-adv-x="739" 
d="M629 1106l-221 106q-68 32 -96 68.5t-21 83.5q7 53 45 84t88 31q86 0 149 -133l111 -183z" />
    <glyph glyph-name="a" unicode="a" 
d="M905 0h-221l18 117q-30 -55 -109 -98.5t-171 -43.5q-81 0 -146 27.5t-105.5 75t-67 110t-30 132.5t4.5 143q13 88 48.5 168.5t90.5 147.5t137 107t178 40q79 0 156 -44t103 -110l20 129h221zM578 717q-113 0 -192 -82t-95 -197q-14 -107 35 -180.5t153 -73.5
q92 0 174 83.5t97 195.5q13 102 -39.5 178t-132.5 76z" />
    <glyph glyph-name="b" unicode="b" 
d="M512 1454l-96 -670q42 64 124.5 103t155.5 39q81 0 146 -27.5t105.5 -75t67 -110t30 -132.5t-4.5 -143q-12 -87 -47.5 -168.5t-91 -148t-137.5 -106.5t-178 -40q-99 0 -171 48.5t-87 105.5l-21 -129h-221l205 1454h221zM639 717q-90 0 -172.5 -84t-97.5 -195
q-13 -102 38.5 -178t133.5 -76q114 0 192 81.5t94 197.5q14 107 -35.5 180.5t-152.5 73.5z" />
    <glyph glyph-name="c" unicode="c" horiz-adv-x="950" 
d="M733 307l125 -153q-39 -33 -65.5 -52.5t-83 -54.5t-119.5 -53.5t-129 -18.5q-88 0 -166 31.5t-136.5 90.5t-85 152.5t-10.5 207.5q13 94 51 173.5t90.5 133t115.5 91t126.5 54.5t124.5 17q189 0 340 -156l-131 -149q-32 37 -90.5 66.5t-114.5 29.5q-116 0 -199.5 -84
t-99.5 -201q-14 -102 41.5 -175t159.5 -73q73 0 142 39t114 84z" />
    <glyph glyph-name="d" unicode="d" 
d="M905 0h-221l18 117q-30 -55 -109 -98.5t-171 -43.5q-81 0 -146 27.5t-105.5 75t-67 110t-30 132.5t4.5 143q13 88 48.5 168.5t90.5 147.5t137 107t178 40q79 0 156 -44t103 -110l98 682h221zM578 717q-113 0 -192 -82t-95 -197q-14 -107 35 -180.5t153 -73.5
q92 0 174 83.5t97 195.5q13 102 -39.5 178t-132.5 76z" />
    <glyph glyph-name="e" unicode="e" horiz-adv-x="1026" 
d="M776 295l158 -100q-69 -104 -181.5 -162t-256.5 -58q-91 0 -173 32.5t-144 92.5t-91.5 154.5t-13.5 208.5q15 109 66 199.5t121 146.5t149 86.5t157 30.5q203 0 310.5 -129t76.5 -342l-6 -47q-3 -13 -6 -21h-661q-5 -92 57.5 -157.5t173.5 -65.5q83 0 155 37.5t109 93.5z
M309 559h455q0 71 -50.5 124.5t-142.5 53.5q-83 0 -163 -55t-99 -123z" />
    <glyph glyph-name="f" unicode="f" horiz-adv-x="712" 
d="M848 1479l-19 -209q-134 0 -218.5 -94.5t-110.5 -274.5h272l-27 -196h-272l-100 -705h-221l100 705h-201l129 196h99l2 21q18 126 60.5 226t110.5 175t168.5 115.5t227.5 40.5z" />
    <glyph glyph-name="g" unicode="g" 
d="M678 -41l24 158q-30 -55 -109 -98.5t-171 -43.5q-81 0 -146 27.5t-105.5 75t-67 110t-30 132.5t4.5 143q13 88 48.5 168.5t90.5 147.5t137 107t178 40q79 0 156 -44t103 -110l20 129h221l-133 -942q-68 -475 -520 -475q-117 0 -222.5 56t-174.5 143l131 161
q127 -151 307 -151q105 0 173.5 76t84.5 190zM578 717q-113 0 -192 -82t-95 -197q-14 -107 35 -180.5t153 -73.5q92 0 174 83.5t97 195.5q13 102 -39.5 178t-132.5 76z" />
    <glyph glyph-name="h" unicode="h" horiz-adv-x="1103" 
d="M520 1454l-94 -649q38 56 100 88.5t131 32.5q41 0 76 -5t71 -17t62 -33t50 -53.5t34.5 -78t14.5 -106t-9 -137.5l-69 -496h-221l71 508q8 58 -2 101t-33.5 65.5t-49.5 32.5t-56 10q-72 0 -134.5 -59.5t-76.5 -161.5l-70 -496h-221l205 1454h221z" />
    <glyph glyph-name="i" unicode="i" horiz-adv-x="516" 
d="M387 1444q66 0 107 -45t32 -111q-9 -58 -54 -98.5t-101 -40.5q-66 0 -106.5 49t-31.5 115q7 56 51.5 93.5t102.5 37.5zM307 0h-221l127 901h221z" />
    <glyph glyph-name="j" unicode="j" horiz-adv-x="532" 
d="M406 1444q66 0 107 -45t32 -111q-9 -57 -54 -98t-102 -41q-66 0 -106 49t-31 115q7 56 51.5 93.5t102.5 37.5zM453 901l-121 -854q-15 -118 -77.5 -255t-160.5 -228l-170 112q72 76 124.5 184t64.5 199l118 842h222z" />
    <glyph glyph-name="k" unicode="k" horiz-adv-x="1021" 
d="M600 508l338 -508h-266l-301 457l-64 -457h-221l205 1454h221l-127 -899l352 346h279z" />
    <glyph glyph-name="l" unicode="l" horiz-adv-x="522" 
d="M311 0h-221l205 1454h221z" />
    <glyph glyph-name="m" unicode="m" horiz-adv-x="1652" 
d="M442 901l-16 -96q38 55 102 88t129 33q95 0 164 -45t88 -133q48 83 128 130.5t180 47.5q39 0 72 -5t68 -17t60.5 -33t49 -53.5t33.5 -78t14 -106t-9 -137.5l-69 -496h-222l72 508q16 113 -22 161t-109 48q-72 0 -134.5 -59.5t-76.5 -161.5l-70 -496h-219l72 508
q16 113 -23 161t-108 48q-72 0 -134.5 -59.5t-76.5 -161.5l-70 -496h-221l127 901h221z" />
    <glyph glyph-name="n" unicode="n" horiz-adv-x="1103" 
d="M442 901l-16 -96q38 56 100 88.5t131 32.5q41 0 76 -5t71 -17t62 -33t50 -53.5t34.5 -78t14.5 -106t-9 -137.5l-69 -496h-221l71 508q29 209 -141 209q-72 0 -134.5 -59.5t-76.5 -161.5l-70 -496h-221l127 901h221z" />
    <glyph glyph-name="o" unicode="o" horiz-adv-x="1124" 
d="M618 926q131 0 236 -66t157 -179t33 -243q-17 -124 -96.5 -231.5t-197 -169.5t-242.5 -62q-131 0 -235.5 66t-156.5 179t-34 243q17 124 96.5 231.5t197 169.5t242.5 62zM612 717q-111 0 -206.5 -83.5t-110.5 -195.5q-13 -103 52.5 -178.5t166.5 -75.5q111 0 206.5 83.5
t110.5 195.5q13 103 -52.5 178.5t-166.5 75.5z" />
    <glyph glyph-name="p" unicode="p" 
d="M434 901l-18 -117q32 55 110.5 98.5t169.5 43.5q81 0 146 -27.5t105.5 -75t67 -110t30 -132.5t-4.5 -143q-12 -87 -47.5 -168.5t-91 -148t-137.5 -106.5t-178 -40q-79 0 -155.5 44t-102.5 110l-90 -621h-222l197 1393h221zM639 717q-91 0 -173 -83.5t-97 -195.5
q-13 -102 39.5 -178t132.5 -76q113 0 191.5 82t94.5 197q14 107 -35 180.5t-153 73.5z" />
    <glyph glyph-name="q" unicode="q" 
d="M614 -492l88 609q-42 -64 -124.5 -103t-155.5 -39q-81 0 -146 27.5t-105.5 75t-67 110t-30 132.5t4.5 143q13 88 48.5 168.5t90.5 147.5t137 107t178 40q99 0 171.5 -48.5t87.5 -105.5l20 129h221l-196 -1393h-222zM578 717q-114 0 -192.5 -81.5t-94.5 -197.5
q-14 -107 35.5 -180.5t152.5 -73.5q90 0 173 84t98 195q13 102 -38.5 178t-133.5 76z" />
    <glyph glyph-name="r" unicode="r" horiz-adv-x="823" 
d="M434 901l-16 -96q43 59 103.5 90t111.5 31q128 0 231 -90l-143 -170q-58 51 -129 51q-87 0 -144 -66.5t-77 -206.5l-64 -444h-221l127 901h221z" />
    <glyph glyph-name="s" unicode="s" horiz-adv-x="868" 
d="M33 104l102 156q64 -38 150.5 -67t132.5 -29q42 0 74 26t38 66q2 18 -0.5 31t-20.5 31.5t-54 33.5l-142 60q-80 34 -128.5 97t-37.5 146q19 126 114.5 198.5t193.5 72.5q96 0 171.5 -25t168.5 -80l-107 -157q-56 32 -117 52.5t-94 20.5q-45 0 -74 -25t-36 -53
q-18 -57 51 -88l162 -69q86 -36 132 -100t36 -142q-18 -119 -113 -202t-223 -83q-74 0 -182.5 36t-196.5 93z" />
    <glyph glyph-name="t" unicode="t" horiz-adv-x="735" 
d="M492 901h219l-27 -196h-219l-59 -426q-6 -42 6.5 -68.5t44.5 -26.5q30 0 61 17.5t53 46.5l21 -187q-79 -86 -215 -86q-96 0 -156 74t-43 189l66 467h-176l473 563z" />
    <glyph glyph-name="u" unicode="u" horiz-adv-x="1079" 
d="M874 0h-221l17 96q-38 -56 -100.5 -88.5t-131.5 -32.5q-36 0 -66.5 3.5t-63 13t-57.5 24.5t-49 38.5t-38 56t-25 75.5t-9.5 97.5t9.5 122.5l70 495h221l-72 -508q-29 -209 142 -209q72 0 134.5 60t76.5 162l69 495h221z" />
    <glyph glyph-name="v" unicode="v" horiz-adv-x="974" 
d="M424 -41l-354 942h239l168 -506l316 506h247z" />
    <glyph glyph-name="w" unicode="w" horiz-adv-x="1533" 
d="M952 -41l-182 479l-315 -479l-385 942h241l195 -528l188 266l-100 262h215l195 -528l346 528h249z" />
    <glyph glyph-name="x" unicode="x" horiz-adv-x="1044" 
d="M657 475l322 -475h-274l-197 301l-287 -301h-282l456 475l-286 426h274l164 -256l241 256h283z" />
    <glyph glyph-name="y" unicode="y" horiz-adv-x="1005" 
d="M262 -492h-239l321 560l-266 833h241l168 -582l336 582h240z" />
    <glyph glyph-name="z" unicode="z" horiz-adv-x="907" 
d="M383 197h424l-29 -197h-790l549 705h-387l26 196h750z" />
    <glyph glyph-name="braceleft" unicode="{" horiz-adv-x="727" 
d="M782 1563l-20 -191q-30 0 -52.5 -3t-38 -7t-26.5 -14t-17 -18t-10 -25t-6 -29t-5 -37t-5 -41l-37 -262q-8 -60 -28 -115t-43.5 -92.5t-50 -68t-45.5 -46t-33 -22.5q12 -6 30.5 -29t41.5 -68t32 -105.5t0 -141.5l-39 -273q-3 -22 -8 -49t-7.5 -40t-2.5 -29t5.5 -22
t19 -12.5t36 -8.5t57.5 -2l-20 -189h-143q-81 0 -123 72t-27 182l47 344q21 138 -9 215.5t-126 116.5v96q207 74 242 330l49 344q15 111 70.5 175.5t136.5 64.5h155z" />
    <glyph glyph-name="bar" unicode="|" horiz-adv-x="1247" 
d="M682 0h-240l220 1556h239z" />
    <glyph glyph-name="braceright" unicode="}" horiz-adv-x="727" 
d="M260 1563h143q82 0 124.5 -71t27.5 -181l-49 -344q-18 -130 13.5 -207.5t125.5 -114.5v-96q-110 -39 -167.5 -120.5t-78.5 -219.5l-47 -344q-15 -110 -71.5 -176t-137.5 -66h-155l20 189q30 0 52.5 3t38.5 6t26.5 13t16.5 17t10 25t6 29.5t5 38.5t5 44l39 272
q10 74 37.5 139t60 105.5t59 65t44.5 32.5q-12 10 -29.5 32.5t-41 65t-34 108.5t-0.5 140l37 262q3 20 8 46t7.5 38.5t2.5 28.5t-5.5 23t-19 14t-36 9.5t-57.5 2.5z" />
    <glyph glyph-name="asciitilde" unicode="~" horiz-adv-x="1277" 
d="M1055 786l162 -135q-83 -122 -169 -177.5t-198 -55.5q-62 0 -127.5 31t-123.5 61.5t-101 30.5q-73 0 -134 -38t-96 -104l-162 136q83 122 169 177.5t200 55.5q48 0 100 -19.5t89 -43t81.5 -43t79.5 -19.5q74 0 136 38.5t94 104.5z" />
    <glyph glyph-name="exclamdown" unicode="&#xa1;" horiz-adv-x="753" 
d="M434 926q65 0 104 -49t31 -113q-8 -55 -52.5 -94t-100.5 -39q-60 0 -101 47t-34 110q7 54 54.5 96t98.5 42zM371 -522h-258l145 962h238z" />
    <glyph glyph-name="cent" unicode="&#xa2;" horiz-adv-x="1273" 
d="M1057 762l-160 -111q-64 74 -172 74q-106 0 -202.5 -77t-114.5 -206q-9 -63 6.5 -114.5t48 -83.5t74 -49t86.5 -17q119 0 217 98l145 -131q-109 -118 -266 -157l-23 -156h-221l23 160q-149 44 -236 175t-63 300q23 156 144 284t284 164l22 154h221l-24 -158
q138 -36 211 -149z" />
    <glyph glyph-name="sterling" unicode="&#xa3;" horiz-adv-x="1325" 
d="M281 786l16 121q36 257 181 399t351 142q181 0 314.5 -124.5t132.5 -301.5l-234 12q-15 79 -76 128.5t-145 51.5q-116 -1 -191 -85t-95 -234l-17 -109h461l-29 -213h-461l-49 -348h779l-33 -225h-1172l33 225h156l49 348h-156l29 213h156z" />
    <glyph glyph-name="currency" unicode="&#xa4;" horiz-adv-x="1271" 
d="M1290 1124l-180 -159q66 -122 45 -265q-17 -131 -113 -251l132 -148l-160 -145l-133 155q-124 -73 -263 -73q-140 0 -253 77l-179 -157l-127 143l179 160q-66 122 -45 264q17 136 116 256l-129 149l158 142l137 -154q121 70 254 70q144 0 254 -80l180 160zM625 446
q111 0 206.5 83.5t110.5 195.5q13 103 -52.5 178.5t-166.5 75.5q-111 0 -206.5 -83.5t-110.5 -195.5q-13 -103 52.5 -178.5t166.5 -75.5z" />
    <glyph glyph-name="yen" unicode="&#xa5;" horiz-adv-x="1462" 
d="M1053 838h252l-29 -201h-399l-17 -115h400l-29 -200h-400l-47 -322h-233l47 322h-399l28 200h400l16 115h-399l28 201h252l-344 585h258l346 -585l514 585h267z" />
    <glyph glyph-name="brokenbar" unicode="&#xa6;" horiz-adv-x="1247" 
d="M813 934h-240l89 622h239zM682 0h-240l88 623h240z" />
    <glyph glyph-name="section" unicode="&#xa7;" horiz-adv-x="1179" 
d="M160 53l194 -12q-9 -65 2 -109.5t36 -63.5t46 -25.5t43 -6.5q169 0 193 170q8 67 -28.5 103t-123.5 73q-33 13 -58.5 24t-53 24.5t-48 26t-41.5 28t-35.5 32t-27.5 36t-20.5 41.5t-12 48t-4 55.5t5.5 63.5q10 83 63 161t138 138q-52 45 -78 113t-16 141
q20 143 137.5 238.5t273.5 95.5q87 0 160 -40.5t111 -104.5q57 -100 35 -275l-195 12q10 55 2.5 92.5t-18 60.5t-30.5 35.5t-36 16.5t-35 4q-83 0 -136.5 -45t-65.5 -125q-5 -37 3 -65t31.5 -47t43 -29.5t57 -25.5t53.5 -23q3 -1 10 -4q45 -18 71 -30t70 -43t67 -64.5
t37.5 -90.5t4.5 -125q-25 -174 -203 -288q118 -108 95 -273q-20 -146 -131 -236.5t-267 -90.5q-173 0 -259 110t-60 299zM647 725q-79 0 -141.5 -54.5t-73.5 -131.5q-9 -72 30.5 -117t110.5 -45q76 0 135.5 52.5t71.5 133.5q9 68 -29 115t-104 47z" />
    <glyph glyph-name="dieresis" unicode="&#xa8;" horiz-adv-x="1069" 
d="M442 1444q65 0 106 -49t32 -113q-8 -54 -52.5 -93.5t-101.5 -39.5q-61 0 -103.5 48t-33.5 110q7 54 54.5 95.5t98.5 41.5zM885 1444q65 0 105.5 -49t31.5 -113q-8 -54 -52.5 -93.5t-101.5 -39.5q-61 0 -103.5 48t-33.5 110q7 54 55 95.5t99 41.5z" />
    <glyph glyph-name="copyright" unicode="&#xa9;" horiz-adv-x="1505" 
d="M885 1448q123 0 232 -37.5t191 -106.5t137.5 -160.5t76.5 -206t4 -237.5q-27 -198 -147 -365t-300.5 -263.5t-378.5 -96.5q-153 0 -283.5 59t-216.5 159.5t-125.5 239.5t-17.5 292q28 198 148.5 364.5t301 262.5t378.5 96zM879 1239q-149 0 -282 -71t-220.5 -195
t-108.5 -273q-31 -218 95 -364t344 -146q149 0 281 70t219 193t108 272q20 144 -29 261.5t-156.5 185t-250.5 67.5zM932 586l129 -117q-56 -64 -141.5 -105.5t-174.5 -41.5q-160 0 -262.5 120t-79.5 291q22 153 145 266t283 113q97 0 172 -39t117 -104l-143 -103
q-13 22 -56.5 43t-89.5 21q-80 0 -152 -61t-85 -160q-13 -90 35.5 -146.5t118.5 -56.5q52 0 106 27t78 53z" />
    <glyph glyph-name="ordfeminine" unicode="&#xaa;" horiz-adv-x="714" 
d="M698 901h-161l-68 273l-150 -273h-169l352 563zM696 600h-630l24 164h631z" />
    <glyph glyph-name="guillemotleft" unicode="&#xab;" horiz-adv-x="1124" 
d="M582 748l-281 -293l203 -283l-152 -109l-266 392l369 401zM1028 748l-285 -293l203 -285l-149 -107l-267 392l371 401z" />
    <glyph glyph-name="logicalnot" unicode="&#xac;" horiz-adv-x="1183" 
d="M1006 125h-222l41 299h-692l31 217h913z" />
    <glyph glyph-name="softhyphen" unicode="&#xad;" horiz-adv-x="843" 
d="M707 424h-574l31 217h573z" />
    <glyph glyph-name="registered" unicode="&#xae;" horiz-adv-x="1505" 
d="M885 1448q123 0 232 -37.5t191 -106.5t137.5 -160.5t76.5 -206t4 -237.5q-27 -198 -147 -365t-300.5 -263.5t-378.5 -96.5q-153 0 -283.5 59t-216.5 159.5t-125.5 239.5t-17.5 292q28 198 148.5 364.5t301 262.5t378.5 96zM879 1239q-149 0 -282 -71t-220.5 -195
t-108.5 -273q-31 -218 95 -364t344 -146q149 0 281 70t219 193t108 272q20 144 -29 261.5t-156.5 185t-250.5 67.5zM596 1094h281q115 0 190 -67t59 -187q-11 -84 -57.5 -133.5t-126.5 -77.5l76 -307h-164l-70 288h-98l-41 -288h-158zM733 946l-26 -190h116q57 0 98 27
t48 81q7 45 -21.5 63.5t-85.5 18.5h-129z" />
    <glyph glyph-name="macron" unicode="&#xaf;" horiz-adv-x="1136" 
d="M1004 1186h-656l27 196h655z" />
    <glyph glyph-name="degree" unicode="&#xb0;" horiz-adv-x="774" 
d="M518 1448q128 0 200.5 -86t53.5 -211q-15 -115 -104 -193.5t-207 -78.5q-121 0 -197 87t-57 210q15 114 106 193t205 79zM520 1288q-58 0 -101.5 -39t-51.5 -98q-6 -50 19.5 -79.5t74.5 -29.5q58 0 100 37.5t51 96.5q6 50 -18.5 81t-73.5 31z" />
    <glyph glyph-name="plusminus" unicode="&#xb1;" horiz-adv-x="1118" 
d="M721 795h313l-30 -217h-314l-33 -232h-221l33 232h-313l30 217h314l32 231h222zM922 0h-848l30 217h848z" />
    <glyph glyph-name="twosuperior" unicode="&#xb2;" horiz-adv-x="704" 
d="M391 1217h-166q19 98 84.5 164.5t169.5 66.5q115 0 172.5 -64t44.5 -155q-6 -52 -42.5 -109t-94.5 -129q-8 -9 -12 -14l-80 -86h188l-20 -143h-481l278 321q106 124 111 168q6 36 -12 55t-48 19q-36 0 -60 -25.5t-32 -68.5z" />
    <glyph glyph-name="threesuperior" unicode="&#xb3;" horiz-adv-x="694" 
d="M721 1423l-223 -252q68 0 119 -61t38 -158q-14 -93 -87.5 -157t-168.5 -64q-81 0 -142.5 46.5t-74.5 123.5h160q4 -12 20.5 -19.5t34.5 -7.5q44 0 79 32t40 71q5 34 -14 61t-51 27q-57 0 -93 -49h-159l245 272h-188l18 135h447z" />
    <glyph glyph-name="acute" unicode="&#xb4;" horiz-adv-x="739" 
d="M262 1163l152 195q96 121 174 121q59 0 94.5 -38.5t26.5 -101.5q-5 -39 -38 -69t-108 -62l-258 -102z" />
    <glyph glyph-name="paragraph" unicode="&#xb6;" horiz-adv-x="1415" 
d="M1407 1214h-158l-213 -1503h-205l213 1503h-202l-213 -1503h-205l123 821q-167 0 -267 112.5t-87 299.5q6 86 45 171.5t99.5 154t145 111t174.5 42.5h779z" />
    <glyph glyph-name="periodcentered" unicode="&#xb7;" horiz-adv-x="610" 
d="M326 670q65 0 104.5 -48t30.5 -112q-8 -55 -52 -95t-100 -40q-60 0 -102 48.5t-33 111.5q7 53 53.5 94t98.5 41z" />
    <glyph glyph-name="cedilla" unicode="&#xb8;" horiz-adv-x="739" 
d="M389 0l-47 -72q11 4 25 4q76 0 123.5 -62t35.5 -153q-12 -82 -78.5 -135t-148.5 -53q-77 0 -137.5 44t-69.5 118h135q11 -49 64 -49q38 0 68 28.5t36 71.5q6 35 -10.5 61.5t-44.5 26.5q-44 0 -70 -33h-149l129 203h139z" />
    <glyph glyph-name="onesuperior" unicode="&#xb9;" horiz-adv-x="446" 
d="M377 743h-160l68 480h-82l10 84l264 157z" />
    <glyph glyph-name="ordmasculine" unicode="&#xba;" horiz-adv-x="645" 
d="M457 1448q123 0 201 -88t61 -211q-17 -114 -112.5 -193t-207.5 -79q-127 0 -205 86t-59 211q15 115 109 194.5t213 79.5zM461 1307q-69 0 -123.5 -46.5t-63.5 -111.5q-7 -58 27 -95.5t94 -37.5q66 0 121 46t64 112q7 55 -28 94t-91 39zM655 604h-614l22 160h615z" />
    <glyph glyph-name="guillemotright" unicode="&#xbb;" horiz-adv-x="1124" 
d="M598 455l-365 -392l-129 107l281 285l-203 293l152 108zM1042 455l-364 -392l-131 109l280 283l-198 293l151 108z" />
    <glyph glyph-name="onequarter" unicode="&#xbc;" horiz-adv-x="1687" 
d="M346 743h-160l68 480h-82l10 84l264 157zM379 0h-219l1057 1423h217zM1421 246h76l-18 -133h-76l-17 -113h-143l17 115h-383l610 606zM1163 231h127l25 156z" />
    <glyph glyph-name="onehalf" unicode="&#xbd;" horiz-adv-x="1720" 
d="M346 743h-160l68 480h-82l10 84l264 157zM336 0h-219l1057 1423h217zM1241 469h-166q19 98 84.5 164.5t169.5 66.5q115 0 172.5 -64t44.5 -155q-6 -52 -42.5 -109t-94.5 -129q-8 -9 -12 -14l-80 -86h188l-20 -143h-481l278 322q106 124 111 167q6 36 -12 55t-48 19
q-36 0 -60 -25.5t-32 -68.5z" />
    <glyph glyph-name="threequarters" unicode="&#xbe;" horiz-adv-x="1710" 
d="M670 1423l-224 -252q68 0 119.5 -61t38.5 -158q-14 -93 -87.5 -157t-168.5 -64q-81 0 -142.5 46.5t-74.5 123.5h160q4 -12 20.5 -19.5t34.5 -7.5q44 0 79 32t40 71q5 34 -14.5 61t-51.5 27q-56 0 -92 -49h-160l246 272h-188l18 135h447zM457 0h-219l1056 1423h217z
M1444 246h76l-19 -133h-76l-16 -113h-143l16 115h-383l610 606zM1186 231h127l24 156z" />
    <glyph glyph-name="questiondown" unicode="&#xbf;" horiz-adv-x="993" 
d="M555 926q60 0 101.5 -49.5t33.5 -112.5q-7 -53 -54 -93t-99 -40q-65 0 -104.5 46.5t-31.5 110.5q8 55 53 96.5t101 41.5zM614 240l-272 -277q-57 -57 -66 -129q-9 -63 26.5 -108t92.5 -45q69 0 126.5 54t66.5 118l6 43h237l-10 -80q-22 -146 -146.5 -254.5t-285.5 -108.5
q-112 0 -197.5 53.5t-124 140.5t-24.5 185q9 66 42 131.5t83 116.5l209 203l37 188h219z" />
    <glyph glyph-name="Agrave" unicode="&#xc0;" horiz-adv-x="1398" 
d="M961 1522l-230 75q-140 45 -125 152q7 53 45 84t88 31q32 0 61.5 -20t47.5 -42.5t49 -68.5l109 -144zM971 313h-570l-182 -313h-260l885 1464l469 -1464h-252zM909 530l-127 443l-256 -443h383z" />
    <glyph glyph-name="Aacute" unicode="&#xc1;" horiz-adv-x="1398" 
d="M756 1522l-33 67l141 152q46 46 68.5 66.5t53 38.5t56.5 18q59 0 94.5 -38.5t26.5 -101.5q-5 -45 -39.5 -77t-109.5 -54zM971 313h-570l-182 -313h-260l885 1464l469 -1464h-252zM909 530l-127 443l-256 -443h383z" />
    <glyph glyph-name="Acircumflex" unicode="&#xc2;" horiz-adv-x="1398" 
d="M686 1522l-133 104l348 238l289 -238l-154 -104l-153 151zM971 313h-570l-182 -313h-260l885 1464l469 -1464h-252zM909 530l-127 443l-256 -443h383z" />
    <glyph glyph-name="Atilde" unicode="&#xc3;" horiz-adv-x="1398" 
d="M1145 1829l98 -119q-109 -143 -256 -143q-42 0 -85 21.5t-77.5 43t-56.5 21.5q-47 0 -88 -28t-66 -66l-98 118q106 142 256 142q42 0 85 -21t77.5 -42t56.5 -21q48 0 89.5 28t64.5 66zM971 313h-570l-182 -313h-260l885 1464l469 -1464h-252zM909 530l-127 443l-256 -443
h383z" />
    <glyph glyph-name="Adieresis" unicode="&#xc4;" horiz-adv-x="1398" 
d="M649 1548q-61 0 -102.5 48t-32.5 110q7 54 55 95.5t99 41.5q65 0 104 -49t31 -113q-8 -54 -52.5 -93.5t-101.5 -39.5zM1092 1548q-61 0 -103 48t-33 110q7 54 55 95.5t99 41.5q65 0 104 -49t31 -113q-8 -55 -52.5 -94t-100.5 -39zM971 313h-570l-182 -313h-260l885 1464
l469 -1464h-252zM909 530l-127 443l-256 -443h383z" />
    <glyph glyph-name="Aring" unicode="&#xc5;" horiz-adv-x="1398" 
d="M971 313h-570l-182 -313h-260l862 1425q-79 12 -125 73t-34 142q10 81 76.5 137t148.5 56q92 0 148 -63t44 -154q-10 -81 -74.5 -136t-148.5 -57l457 -1423h-252zM788 1616q-4 -29 12.5 -48.5t45.5 -19.5q38 0 69 27t37 65q3 29 -13.5 48.5t-45.5 19.5q-38 0 -68.5 -27
t-36.5 -65zM909 530l-127 443l-256 -443h383z" />
    <glyph glyph-name="AE" unicode="&#xc6;" horiz-adv-x="1937" 
d="M1622 1188h-676l111 -359h616l-33 -235h-510l113 -358h516l-33 -236h-649l-86 283h-610l-170 -283h-252l862 1423h834zM508 514h407l-133 459z" />
    <glyph glyph-name="Ccedilla" unicode="&#xc7;" horiz-adv-x="1458" 
d="M1149 391l190 -166q-258 -234 -544 -248l-33 -49q10 4 24 4q76 0 124 -62t36 -153q-12 -82 -78.5 -135t-148.5 -53q-77 0 -137.5 44t-69.5 118h135q11 -49 64 -49q38 0 68 28.5t36 71.5q6 35 -10.5 61.5t-44.5 26.5q-44 0 -70 -33h-149l116 185q-127 18 -237 82.5
t-186 161t-110.5 227t-14.5 272.5q16 113 66.5 221.5t129.5 198t177 158t215 107t237 38.5q176 0 303 -69t201 -185l-205 -143q-125 163 -307 163q-124 0 -249.5 -68.5t-216 -188.5t-110.5 -257q-29 -207 87.5 -349t320.5 -142q102 0 208.5 53t182.5 129z" />
    <glyph glyph-name="Egrave" unicode="&#xc8;" horiz-adv-x="1236" 
d="M874 1522l-229 75q-140 45 -125 152q7 53 45 84t88 31q32 0 61.5 -20t47.5 -42.5t49 -68.5l109 -144zM1184 1198h-684l-49 -360h563l-33 -226h-563l-53 -387h694l-33 -225h-932l201 1423h922z" />
    <glyph glyph-name="Eacute" unicode="&#xc9;" horiz-adv-x="1236" 
d="M637 1589l141 152q46 46 68.5 66.5t53 38.5t56.5 18q59 0 94.5 -38.5t26.5 -101.5q-5 -45 -39.5 -77t-109.5 -54l-258 -71zM1184 1198h-684l-49 -360h563l-33 -226h-563l-53 -387h694l-33 -225h-932l201 1423h922z" />
    <glyph glyph-name="Ecircumflex" unicode="&#xca;" horiz-adv-x="1236" 
d="M1104 1626l-154 -104l-153 151l-197 -151l-133 104l348 238zM1184 1198h-684l-49 -360h563l-33 -226h-563l-53 -387h694l-33 -225h-932l201 1423h922z" />
    <glyph glyph-name="Edieresis" unicode="&#xcb;" horiz-adv-x="1236" 
d="M582 1843q65 0 104 -49t31 -113q-8 -54 -52.5 -93.5t-101.5 -39.5q-61 0 -102.5 48t-32.5 110q7 54 55 95.5t99 41.5zM1024 1843q65 0 104 -49t31 -113q-8 -55 -52.5 -94t-100.5 -39q-61 0 -103 48t-33 110q7 54 55 95.5t99 41.5zM1184 1198h-684l-49 -360h563l-33 -226
h-563l-53 -387h694l-33 -225h-932l201 1423h922z" />
    <glyph glyph-name="Igrave" unicode="&#xcc;" horiz-adv-x="563" 
d="M545 1522l-230 75q-140 45 -125 152q7 53 45.5 84t88.5 31q24 0 45 -9t42 -31t33.5 -39t36.5 -52l109 -144zM344 0h-246l201 1423h246z" />
    <glyph glyph-name="Iacute" unicode="&#xcd;" horiz-adv-x="563" 
d="M307 1589l142 152q46 46 68.5 66.5t53 38.5t56.5 18q59 0 94.5 -38.5t26.5 -101.5q-5 -45 -40 -77t-110 -54l-258 -71zM344 0h-246l201 1423h246z" />
    <glyph glyph-name="Icircumflex" unicode="&#xce;" horiz-adv-x="563" 
d="M774 1626l-153 -104l-154 151l-197 -151l-133 104l348 238zM344 0h-246l201 1423h246z" />
    <glyph glyph-name="Idieresis" unicode="&#xcf;" horiz-adv-x="563" 
d="M252 1843q65 0 104 -49t31 -113q-8 -54 -52.5 -93.5t-101.5 -39.5q-61 0 -102.5 48t-32.5 110q7 54 55 95.5t99 41.5zM694 1843q65 0 104 -49t31 -113q-8 -55 -52.5 -94t-100.5 -39q-61 0 -102.5 48t-32.5 110q7 54 54.5 95.5t98.5 41.5zM344 0h-246l201 1423h246z" />
    <glyph glyph-name="Eth" unicode="&#xd0;" horiz-adv-x="1482" 
d="M295 1423h524q137 0 260 -57t208.5 -153t127.5 -231.5t21 -281.5q-26 -186 -142 -343t-291 -251.5t-372 -105.5h-537l86 604h-141l33 234h141zM360 225h291q127 0 247.5 65.5t204.5 181.5t103 253q29 202 -89 337.5t-318 135.5h-303l-50 -360h287l-33 -234h-286z" />
    <glyph glyph-name="Ntilde" unicode="&#xd1;" horiz-adv-x="1544" 
d="M1214 1829l99 -119q-109 -143 -256 -143q-42 0 -85 21.5t-77.5 43t-56.5 21.5q-47 0 -88 -28t-66 -66l-98 118q106 142 256 142q42 0 85 -21t77.5 -42t56.5 -21q47 0 88.5 28t64.5 66zM1149 504l131 919h238l-205 -1464l-840 961l-131 -920h-238l205 1464z" />
    <glyph glyph-name="Ograve" unicode="&#xd2;" horiz-adv-x="1628" 
d="M1073 1522l-229 75q-140 45 -125 152q7 53 45 84t88 31q32 0 61.5 -20t47.5 -42.5t49 -68.5l108 -144zM946 1448q143 0 271 -59t217 -158.5t132 -239t21 -291.5q-20 -139 -95.5 -272t-185.5 -232.5t-253.5 -160t-290.5 -60.5q-150 0 -279.5 60t-216 160.5t-127.5 239.5
t-20 290q20 146 94.5 279t184 231t253 155.5t295.5 57.5zM938 1214q-133 0 -259.5 -69.5t-213 -188.5t-105.5 -256q-18 -130 29 -242.5t148.5 -180.5t232.5 -68q127 0 253.5 70.5t215 190.5t107.5 255q16 119 -33 232t-150 185t-225 72z" />
    <glyph glyph-name="Oacute" unicode="&#xd3;" horiz-adv-x="1628" 
d="M836 1589l141 152q46 46 68.5 66.5t53 38.5t56.5 18q59 0 94.5 -38.5t26.5 -101.5q-5 -45 -40 -77t-110 -54l-258 -71zM946 1448q143 0 271 -59t217 -158.5t132 -239t21 -291.5q-20 -139 -95.5 -272t-185.5 -232.5t-253.5 -160t-290.5 -60.5q-150 0 -279.5 60t-216 160.5
t-127.5 239.5t-20 290q20 146 94.5 279t184 231t253 155.5t295.5 57.5zM938 1214q-133 0 -259.5 -69.5t-213 -188.5t-105.5 -256q-18 -130 29 -242.5t148.5 -180.5t232.5 -68q127 0 253.5 70.5t215 190.5t107.5 255q16 119 -33 232t-150 185t-225 72z" />
    <glyph glyph-name="Ocircumflex" unicode="&#xd4;" horiz-adv-x="1628" 
d="M1303 1626l-154 -104l-154 151l-196 -151l-133 104l348 238zM946 1448q143 0 271 -59t217 -158.5t132 -239t21 -291.5q-20 -139 -95.5 -272t-185.5 -232.5t-253.5 -160t-290.5 -60.5q-150 0 -279.5 60t-216 160.5t-127.5 239.5t-20 290q20 146 94.5 279t184 231
t253 155.5t295.5 57.5zM938 1214q-133 0 -259.5 -69.5t-213 -188.5t-105.5 -256q-18 -130 29 -242.5t148.5 -180.5t232.5 -68q127 0 253.5 70.5t215 190.5t107.5 255q16 119 -33 232t-150 185t-225 72z" />
    <glyph glyph-name="Otilde" unicode="&#xd5;" horiz-adv-x="1628" 
d="M1257 1829l99 -119q-109 -143 -256 -143q-42 0 -85 21.5t-77.5 43t-56.5 21.5q-47 0 -88 -28t-66 -66l-98 118q106 142 256 142q42 0 85 -21t77.5 -42t56.5 -21q47 0 88.5 28t64.5 66zM946 1448q143 0 271 -59t217 -158.5t132 -239t21 -291.5q-20 -139 -95.5 -272
t-185.5 -232.5t-253.5 -160t-290.5 -60.5q-150 0 -279.5 60t-216 160.5t-127.5 239.5t-20 290q20 146 94.5 279t184 231t253 155.5t295.5 57.5zM938 1214q-133 0 -259.5 -69.5t-213 -188.5t-105.5 -256q-18 -130 29 -242.5t148.5 -180.5t232.5 -68q127 0 253.5 70.5
t215 190.5t107.5 255q16 119 -33 232t-150 185t-225 72z" />
    <glyph glyph-name="Odieresis" unicode="&#xd6;" horiz-adv-x="1628" 
d="M780 1843q65 0 104 -49t31 -113q-8 -55 -52.5 -94t-100.5 -39q-61 0 -102.5 48t-32.5 110q7 54 54.5 95.5t98.5 41.5zM1223 1843q65 0 104 -49t31 -113q-8 -54 -52.5 -93.5t-101.5 -39.5q-61 0 -102.5 48t-32.5 110q7 54 55 95.5t99 41.5zM946 1448q143 0 271 -59
t217 -158.5t132 -239t21 -291.5q-20 -139 -95.5 -272t-185.5 -232.5t-253.5 -160t-290.5 -60.5q-150 0 -279.5 60t-216 160.5t-127.5 239.5t-20 290q20 146 94.5 279t184 231t253 155.5t295.5 57.5zM938 1214q-133 0 -259.5 -69.5t-213 -188.5t-105.5 -256
q-18 -130 29 -242.5t148.5 -180.5t232.5 -68q127 0 253.5 70.5t215 190.5t107.5 255q16 119 -33 232t-150 185t-225 72z" />
    <glyph glyph-name="multiply" unicode="&#xd7;" horiz-adv-x="1251" 
d="M1176 864l-383 -332l290 -329l-182 -162l-280 342l-375 -342l-144 162l385 329l-292 332l180 160l280 -340l375 340z" />
    <glyph glyph-name="Oslash" unicode="&#xd8;" horiz-adv-x="1628" 
d="M1669 1280l-166 -145q118 -196 84 -435q-20 -139 -95.5 -272t-185.5 -232.5t-253.5 -160t-290.5 -60.5q-236 0 -414 144l-164 -144l-147 168l164 146q-116 198 -82 436q20 146 94.5 279t184 231t253 155.5t295.5 57.5q232 0 412 -143l164 143zM391 455l778 684
q-105 75 -231 75q-133 0 -259.5 -69.5t-213 -188.5t-105.5 -256q-18 -129 31 -245zM1309 965l-777 -684q106 -72 238 -72q127 0 253.5 70.5t215 190.5t107.5 255q15 126 -37 240z" />
    <glyph glyph-name="Ugrave" unicode="&#xd9;" horiz-adv-x="1474" 
d="M995 1522l-229 75q-140 45 -125 152q7 53 45 84t88 31q32 0 61.5 -20t47.5 -42.5t49 -68.5l108 -144zM1464 1423l-121 -852q-39 -280 -218.5 -438t-440.5 -158q-269 0 -410 164t-102 445l119 839h237l-120 -852q-23 -174 62 -268t222 -94q69 0 136 24.5t125 70t99 118.5
t54 162l119 839h239z" />
    <glyph glyph-name="Uacute" unicode="&#xda;" horiz-adv-x="1474" 
d="M758 1589l141 152q46 46 68.5 66.5t53 38.5t56.5 18q59 0 94.5 -38.5t26.5 -101.5q-5 -45 -39.5 -77t-109.5 -54l-258 -71zM1464 1423l-121 -852q-39 -280 -218.5 -438t-440.5 -158q-269 0 -410 164t-102 445l119 839h237l-120 -852q-23 -174 62 -268t222 -94
q69 0 136 24.5t125 70t99 118.5t54 162l119 839h239z" />
    <glyph glyph-name="Ucircumflex" unicode="&#xdb;" horiz-adv-x="1474" 
d="M1225 1626l-154 -104l-153 151l-197 -151l-133 104l348 238zM1464 1423l-121 -852q-39 -280 -218.5 -438t-440.5 -158q-269 0 -410 164t-102 445l119 839h237l-120 -852q-23 -174 62 -268t222 -94q69 0 136 24.5t125 70t99 118.5t54 162l119 839h239z" />
    <glyph glyph-name="Udieresis" unicode="&#xdc;" horiz-adv-x="1474" 
d="M702 1843q65 0 104.5 -49t31.5 -113q-8 -54 -52.5 -93.5t-101.5 -39.5q-61 0 -102.5 48t-32.5 110q7 54 54.5 95.5t98.5 41.5zM1145 1843q65 0 104 -49t31 -113q-8 -54 -52.5 -93.5t-101.5 -39.5q-61 0 -102.5 48t-32.5 110q7 54 55 95.5t99 41.5zM1464 1423l-121 -852
q-39 -280 -218.5 -438t-440.5 -158q-269 0 -410 164t-102 445l119 839h237l-120 -852q-23 -174 62 -268t222 -94q69 0 136 24.5t125 70t99 118.5t54 162l119 839h239z" />
    <glyph glyph-name="Yacute" unicode="&#xdd;" horiz-adv-x="1267" 
d="M655 1589l142 152q46 46 68.5 66.5t53 38.5t56.5 18q59 0 94.5 -38.5t26.5 -101.5q-5 -45 -40 -77t-110 -54l-258 -71zM784 637l-92 -637h-237l92 637l-389 786h262l268 -585l436 585h271z" />
    <glyph glyph-name="Thorn" unicode="&#xde;" horiz-adv-x="1189" 
d="M496 1169h260q86 0 166.5 -38t138.5 -100.5t86.5 -150t15.5 -180.5q-25 -179 -180 -311.5t-342 -132.5h-272l-37 -256h-238l201 1423h237zM465 944l-66 -463h260q88 0 169 74t94 170q12 90 -40.5 154.5t-144.5 64.5h-272z" />
    <glyph glyph-name="germandbls" unicode="&#xdf;" horiz-adv-x="1144" 
d="M86 0l145 1032q29 205 155 326t306 121q111 0 195 -49t125 -141t24 -210q-9 -73 -52.5 -143.5t-98.5 -99.5q24 -9 50.5 -27t57 -50.5t50 -75.5t31 -102t-0.5 -130q-29 -204 -187.5 -326t-389.5 -125l16 209q137 0 233.5 70t114.5 200q18 122 -54.5 188t-207.5 66l12 172
q72 0 136.5 59.5t76.5 143.5q10 74 -29.5 118t-107.5 44q-81 0 -141.5 -67.5t-77.5 -182.5l-143 -1020h-238z" />
    <glyph glyph-name="agrave" unicode="&#xe0;" 
d="M719 1106l-221 106q-68 32 -96 68.5t-21 83.5q7 53 45 84t88 31q87 0 150 -133l110 -183zM905 0h-221l18 117q-30 -55 -109 -98.5t-171 -43.5q-81 0 -146 27.5t-105.5 75t-67 110t-30 132.5t4.5 143q13 88 48.5 168.5t90.5 147.5t137 107t178 40q79 0 156 -44t103 -110
l20 129h221zM578 717q-113 0 -192 -82t-95 -197q-14 -107 35 -180.5t153 -73.5q92 0 174 83.5t97 195.5q13 102 -39.5 178t-132.5 76z" />
    <glyph glyph-name="aacute" unicode="&#xe1;" 
d="M471 1163l152 195q96 121 174 121q59 0 94.5 -38.5t26.5 -101.5q-5 -39 -38 -69t-108 -62l-258 -102zM905 0h-221l18 117q-30 -55 -109 -98.5t-171 -43.5q-81 0 -146 27.5t-105.5 75t-67 110t-30 132.5t4.5 143q13 88 48.5 168.5t90.5 147.5t137 107t178 40q79 0 156 -44
t103 -110l20 129h221zM578 717q-113 0 -192 -82t-95 -197q-14 -107 35 -180.5t153 -73.5q92 0 174 83.5t97 195.5q13 102 -39.5 178t-132.5 76z" />
    <glyph glyph-name="acircumflex" unicode="&#xe2;" 
d="M963 1231l-166 -105l-150 162l-201 -162l-141 105l361 248zM905 0h-221l18 117q-30 -55 -109 -98.5t-171 -43.5q-81 0 -146 27.5t-105.5 75t-67 110t-30 132.5t4.5 143q13 88 48.5 168.5t90.5 147.5t137 107t178 40q79 0 156 -44t103 -110l20 129h221zM578 717
q-113 0 -192 -82t-95 -197q-14 -107 35 -180.5t153 -73.5q92 0 174 83.5t97 195.5q13 102 -39.5 178t-132.5 76z" />
    <glyph glyph-name="atilde" unicode="&#xe3;" 
d="M905 1430l99 -119q-107 -144 -256 -144q-42 0 -85.5 21.5t-78 43t-56.5 21.5q-47 0 -86.5 -27.5t-64.5 -66.5l-98 119q105 141 256 141q42 0 85 -21t77.5 -42t56.5 -21q47 0 87.5 28.5t63.5 66.5zM905 0h-221l18 117q-30 -55 -109 -98.5t-171 -43.5q-81 0 -146 27.5
t-105.5 75t-67 110t-30 132.5t4.5 143q13 88 48.5 168.5t90.5 147.5t137 107t178 40q79 0 156 -44t103 -110l20 129h221zM578 717q-113 0 -192 -82t-95 -197q-14 -107 35 -180.5t153 -73.5q92 0 174 83.5t97 195.5q13 102 -39.5 178t-132.5 76z" />
    <glyph glyph-name="adieresis" unicode="&#xe4;" 
d="M428 1444q65 0 105.5 -49t31.5 -113q-8 -55 -52.5 -94t-100.5 -39q-61 0 -104 48t-34 110q7 54 55 95.5t99 41.5zM870 1444q65 0 106 -49t32 -113q-8 -54 -52.5 -93.5t-101.5 -39.5q-61 0 -103.5 48t-33.5 110q7 54 54.5 95.5t98.5 41.5zM905 0h-221l18 117
q-30 -55 -109 -98.5t-171 -43.5q-81 0 -146 27.5t-105.5 75t-67 110t-30 132.5t4.5 143q13 88 48.5 168.5t90.5 147.5t137 107t178 40q79 0 156 -44t103 -110l20 129h221zM578 717q-113 0 -192 -82t-95 -197q-14 -107 35 -180.5t153 -73.5q92 0 174 83.5t97 195.5
q13 102 -39.5 178t-132.5 76z" />
    <glyph glyph-name="aring" unicode="&#xe5;" 
d="M657 1499q92 0 148.5 -63t44.5 -154q-10 -81 -75.5 -136.5t-149.5 -55.5q-91 0 -148 63.5t-45 153.5q10 81 76 136.5t149 55.5zM664 1374q-38 0 -68.5 -27t-36.5 -65q-4 -29 13 -48.5t46 -19.5q38 0 68.5 27t36.5 66q3 29 -13.5 48t-45.5 19zM905 0h-221l18 117
q-30 -55 -109 -98.5t-171 -43.5q-81 0 -146 27.5t-105.5 75t-67 110t-30 132.5t4.5 143q13 88 48.5 168.5t90.5 147.5t137 107t178 40q79 0 156 -44t103 -110l20 129h221zM578 717q-113 0 -192 -82t-95 -197q-14 -107 35 -180.5t153 -73.5q92 0 174 83.5t97 195.5
q13 102 -39.5 178t-132.5 76z" />
    <glyph glyph-name="ae" unicode="&#xe6;" horiz-adv-x="1607" 
d="M1513 391l-622 -12q-11 -84 47.5 -149.5t151.5 -65.5q69 0 147.5 47.5t118.5 107.5l155 -100q-64 -99 -179 -171.5t-259 -72.5q-89 0 -173 42.5t-140 119.5q-149 -162 -389 -162q-137 0 -222.5 88.5t-66.5 217.5q35 234 328 256l282 8l8 67q8 58 -26 88.5t-88 30.5
q-125 0 -246 -88l-117 152q105 80 186 105.5t181 25.5q82 0 152.5 -35t115.5 -96q69 63 149.5 97t157.5 34q107 0 187 -36t121.5 -93t60 -128.5t12 -142.5t-32.5 -135zM922 545l424 24q0 70 -45 119t-132 49q-90 0 -159 -55.5t-88 -136.5zM668 383l-232 -8
q-124 -11 -139 -119q-6 -37 28 -61.5t91 -24.5q94 0 165.5 49t80.5 111z" />
    <glyph glyph-name="ccedilla" unicode="&#xe7;" horiz-adv-x="950" 
d="M733 307l125 -153q-185 -159 -352 -177l-33 -49q11 4 25 4q76 0 123.5 -62t35.5 -153q-12 -82 -78.5 -135t-148.5 -53q-77 0 -137.5 44t-69.5 118h135q11 -49 64 -49q38 0 68 28.5t36 71.5q6 35 -10.5 61.5t-44.5 26.5q-44 0 -70 -33h-149l119 187q-74 15 -135 52.5
t-105.5 95.5t-63 142t-4.5 183q13 94 51 173.5t90.5 133t115.5 91t126.5 54.5t124.5 17q189 0 340 -156l-131 -149q-32 37 -90.5 66.5t-114.5 29.5q-116 0 -199.5 -84t-99.5 -201q-14 -102 41.5 -175t159.5 -73q73 0 142 39t114 84z" />
    <glyph glyph-name="egrave" unicode="&#xe8;" horiz-adv-x="1026" 
d="M709 1106l-222 106q-68 32 -95.5 68.5t-20.5 83.5q7 53 45 84t88 31q86 0 149 -133l111 -183zM776 295l158 -100q-69 -104 -181.5 -162t-256.5 -58q-91 0 -173 32.5t-144 92.5t-91.5 154.5t-13.5 208.5q15 109 66 199.5t121 146.5t149 86.5t157 30.5q203 0 310.5 -129
t76.5 -342l-6 -47q-3 -13 -6 -21h-661q-5 -92 57.5 -157.5t173.5 -65.5q83 0 155 37.5t109 93.5zM309 559h455q0 71 -50.5 124.5t-142.5 53.5q-83 0 -163 -55t-99 -123z" />
    <glyph glyph-name="eacute" unicode="&#xe9;" horiz-adv-x="1026" 
d="M461 1163l151 195q96 121 174 121q59 0 94.5 -38.5t26.5 -101.5q-5 -39 -37.5 -69t-107.5 -62l-258 -102zM776 295l158 -100q-69 -104 -181.5 -162t-256.5 -58q-91 0 -173 32.5t-144 92.5t-91.5 154.5t-13.5 208.5q15 109 66 199.5t121 146.5t149 86.5t157 30.5
q203 0 310.5 -129t76.5 -342l-6 -47q-3 -13 -6 -21h-661q-5 -92 57.5 -157.5t173.5 -65.5q83 0 155 37.5t109 93.5zM309 559h455q0 71 -50.5 124.5t-142.5 53.5q-83 0 -163 -55t-99 -123z" />
    <glyph glyph-name="ecircumflex" unicode="&#xea;" horiz-adv-x="1026" 
d="M952 1231l-166 -105l-149 162l-201 -162l-141 105l360 248zM776 295l158 -100q-69 -104 -181.5 -162t-256.5 -58q-91 0 -173 32.5t-144 92.5t-91.5 154.5t-13.5 208.5q15 109 66 199.5t121 146.5t149 86.5t157 30.5q203 0 310.5 -129t76.5 -342l-6 -47q-3 -13 -6 -21
h-661q-5 -92 57.5 -157.5t173.5 -65.5q83 0 155 37.5t109 93.5zM309 559h455q0 71 -50.5 124.5t-142.5 53.5q-83 0 -163 -55t-99 -123z" />
    <glyph glyph-name="edieresis" unicode="&#xeb;" horiz-adv-x="1026" 
d="M418 1444q65 0 105.5 -49t31.5 -113q-8 -54 -52.5 -93.5t-101.5 -39.5q-61 0 -103.5 48t-33.5 110q7 54 55 95.5t99 41.5zM860 1444q65 0 105.5 -49t31.5 -113q-8 -55 -52.5 -94t-100.5 -39q-61 0 -103.5 48t-33.5 110q7 54 54.5 95.5t98.5 41.5zM776 295l158 -100
q-69 -104 -181.5 -162t-256.5 -58q-91 0 -173 32.5t-144 92.5t-91.5 154.5t-13.5 208.5q15 109 66 199.5t121 146.5t149 86.5t157 30.5q203 0 310.5 -129t76.5 -342l-6 -47q-3 -13 -6 -21h-661q-5 -92 57.5 -157.5t173.5 -65.5q83 0 155 37.5t109 93.5zM309 559h455
q0 71 -50.5 124.5t-142.5 53.5q-83 0 -163 -55t-99 -123z" />
    <glyph glyph-name="igrave" unicode="&#xec;" horiz-adv-x="516" 
d="M457 1106l-221 106q-68 32 -96 68.5t-21 83.5q7 53 45 84t88 31q86 0 149 -133l111 -183zM307 0h-221l127 901h221z" />
    <glyph glyph-name="iacute" unicode="&#xed;" horiz-adv-x="516" 
d="M209 1163l151 195q96 121 175 121q59 0 94 -38.5t26 -101.5q-5 -39 -37.5 -69t-107.5 -62l-258 -102zM307 0h-221l127 901h221z" />
    <glyph glyph-name="icircumflex" unicode="&#xee;" horiz-adv-x="516" 
d="M700 1231l-165 -105l-150 162l-201 -162l-141 105l360 248zM307 0h-221l127 901h221z" />
    <glyph glyph-name="idieresis" unicode="&#xef;" horiz-adv-x="516" 
d="M166 1444q65 0 105.5 -49t31.5 -113q-8 -55 -52.5 -94t-100.5 -39q-61 0 -104 48t-34 110q7 54 55 95.5t99 41.5zM608 1444q65 0 105.5 -49t31.5 -113q-8 -55 -52.5 -94t-100.5 -39q-61 0 -103.5 48t-33.5 110q7 54 54.5 95.5t98.5 41.5zM307 0h-221l127 901h221z" />
    <glyph glyph-name="eth" unicode="&#xf0;" horiz-adv-x="1130" 
d="M1159 1153l-176 -27q52 -197 60 -389.5t-35 -359.5q-52 -181 -187.5 -291.5t-322.5 -110.5q-98 0 -182 39t-140 105t-82 156t-12 188q17 124 95.5 231.5t190.5 169.5t226 62q62 0 124.5 -19t92.5 -43q-5 89 -39 230l-174 -27l-35 162l162 24q-45 132 -100 246l225 -12
q51 -101 86 -201l188 29zM799 463q18 120 -42 187t-155 67q-102 0 -189 -75t-106 -204q-14 -105 42 -179.5t155 -74.5q109 0 194.5 82.5t100.5 196.5z" />
    <glyph glyph-name="ntilde" unicode="&#xf1;" horiz-adv-x="1103" 
d="M924 1430l98 -119q-107 -144 -256 -144q-42 0 -85 21.5t-77.5 43t-56.5 21.5q-47 0 -87 -27.5t-65 -66.5l-98 119q105 141 256 141q42 0 85 -21t77.5 -42t56.5 -21q47 0 88 28.5t64 66.5zM442 901l-16 -96q38 56 100 88.5t131 32.5q41 0 76 -5t71 -17t62 -33t50 -53.5
t34.5 -78t14.5 -106t-9 -137.5l-69 -496h-221l71 508q29 209 -141 209q-72 0 -134.5 -59.5t-76.5 -161.5l-70 -496h-221l127 901h221z" />
    <glyph glyph-name="ograve" unicode="&#xf2;" horiz-adv-x="1124" 
d="M760 1106l-221 106q-68 32 -96 68.5t-21 83.5q7 53 45 84t88 31q87 0 150 -133l110 -183zM618 926q131 0 236 -66t157 -179t33 -243q-17 -124 -96.5 -231.5t-197 -169.5t-242.5 -62q-131 0 -235.5 66t-156.5 179t-34 243q17 124 96.5 231.5t197 169.5t242.5 62zM612 717
q-111 0 -206.5 -83.5t-110.5 -195.5q-13 -103 52.5 -178.5t166.5 -75.5q111 0 206.5 83.5t110.5 195.5q13 103 -52.5 178.5t-166.5 75.5z" />
    <glyph glyph-name="oacute" unicode="&#xf3;" horiz-adv-x="1124" 
d="M512 1163l152 195q96 121 174 121q59 0 94 -38.5t26 -101.5q-5 -39 -37.5 -69t-107.5 -62l-258 -102zM618 926q131 0 236 -66t157 -179t33 -243q-17 -124 -96.5 -231.5t-197 -169.5t-242.5 -62q-131 0 -235.5 66t-156.5 179t-34 243q17 124 96.5 231.5t197 169.5
t242.5 62zM612 717q-111 0 -206.5 -83.5t-110.5 -195.5q-13 -103 52.5 -178.5t166.5 -75.5q111 0 206.5 83.5t110.5 195.5q13 103 -52.5 178.5t-166.5 75.5z" />
    <glyph glyph-name="ocircumflex" unicode="&#xf4;" horiz-adv-x="1124" 
d="M1004 1231l-166 -105l-150 162l-201 -162l-141 105l361 248zM618 926q131 0 236 -66t157 -179t33 -243q-17 -124 -96.5 -231.5t-197 -169.5t-242.5 -62q-131 0 -235.5 66t-156.5 179t-34 243q17 124 96.5 231.5t197 169.5t242.5 62zM612 717q-111 0 -206.5 -83.5
t-110.5 -195.5q-13 -103 52.5 -178.5t166.5 -75.5q111 0 206.5 83.5t110.5 195.5q13 103 -52.5 178.5t-166.5 75.5z" />
    <glyph glyph-name="otilde" unicode="&#xf5;" horiz-adv-x="1124" 
d="M946 1430l98 -119q-107 -144 -256 -144q-42 0 -85 21.5t-77.5 43t-56.5 21.5q-47 0 -86.5 -27.5t-64.5 -66.5l-99 119q105 141 256 141q42 0 85.5 -21t78 -42t56.5 -21q47 0 87.5 28.5t63.5 66.5zM618 926q131 0 236 -66t157 -179t33 -243q-17 -124 -96.5 -231.5
t-197 -169.5t-242.5 -62q-131 0 -235.5 66t-156.5 179t-34 243q17 124 96.5 231.5t197 169.5t242.5 62zM612 717q-111 0 -206.5 -83.5t-110.5 -195.5q-13 -103 52.5 -178.5t166.5 -75.5q111 0 206.5 83.5t110.5 195.5q13 103 -52.5 178.5t-166.5 75.5z" />
    <glyph glyph-name="odieresis" unicode="&#xf6;" horiz-adv-x="1124" 
d="M469 1444q65 0 105.5 -49t31.5 -113q-8 -55 -52.5 -94t-100.5 -39q-61 0 -104 48t-34 110q7 54 55 95.5t99 41.5zM911 1444q65 0 106 -49t32 -113q-8 -54 -52.5 -93.5t-101.5 -39.5q-61 0 -103.5 48t-33.5 110q7 54 54.5 95.5t98.5 41.5zM618 926q131 0 236 -66t157 -179
t33 -243q-17 -124 -96.5 -231.5t-197 -169.5t-242.5 -62q-131 0 -235.5 66t-156.5 179t-34 243q17 124 96.5 231.5t197 169.5t242.5 62zM612 717q-111 0 -206.5 -83.5t-110.5 -195.5q-13 -103 52.5 -178.5t166.5 -75.5q111 0 206.5 83.5t110.5 195.5q13 103 -52.5 178.5
t-166.5 75.5z" />
    <glyph glyph-name="divide" unicode="&#xf7;" horiz-adv-x="1142" 
d="M653 1090q65 0 104.5 -49t30.5 -113q-8 -55 -51.5 -94t-99.5 -39q-61 0 -102.5 47.5t-32.5 109.5q6 54 53 96t98 42zM1006 424h-873l31 217h872zM551 270q65 0 104 -48.5t31 -112.5q-8 -55 -53 -94.5t-101 -39.5q-60 0 -101 47.5t-34 110.5q7 54 55 95.5t99 41.5z" />
    <glyph glyph-name="oslash" unicode="&#xf8;" horiz-adv-x="1089" 
d="M1071 799l-98 -86q68 -124 47 -275q-17 -125 -94.5 -231.5t-193 -169t-240.5 -62.5q-148 0 -259 84l-96 -84l-114 129l98 86q-68 123 -47 273q17 125 94.5 231.5t193 169t240.5 62.5q145 0 258 -82l96 84zM287 338l405 356q-48 23 -96 23q-111 0 -206.5 -83.5
t-110.5 -195.5q-6 -56 8 -100zM807 565l-408 -358q48 -23 99 -23q111 0 206.5 83.5t110.5 195.5q6 58 -8 102z" />
    <glyph glyph-name="ugrave" unicode="&#xf9;" horiz-adv-x="1079" 
d="M737 1106l-221 106q-68 32 -96 68.5t-21 83.5q7 53 45 84t88 31q87 0 150 -133l111 -183zM874 0h-221l17 96q-38 -56 -100.5 -88.5t-131.5 -32.5q-36 0 -66.5 3.5t-63 13t-57.5 24.5t-49 38.5t-38 56t-25 75.5t-9.5 97.5t9.5 122.5l70 495h221l-72 -508
q-29 -209 142 -209q72 0 134.5 60t76.5 162l69 495h221z" />
    <glyph glyph-name="uacute" unicode="&#xfa;" horiz-adv-x="1079" 
d="M489 1163l152 195q96 121 174 121q59 0 94.5 -38.5t26.5 -101.5q-5 -39 -37.5 -69t-107.5 -62l-259 -102zM874 0h-221l17 96q-38 -56 -100.5 -88.5t-131.5 -32.5q-36 0 -66.5 3.5t-63 13t-57.5 24.5t-49 38.5t-38 56t-25 75.5t-9.5 97.5t9.5 122.5l70 495h221l-72 -508
q-29 -209 142 -209q72 0 134.5 60t76.5 162l69 495h221z" />
    <glyph glyph-name="ucircumflex" unicode="&#xfb;" horiz-adv-x="1079" 
d="M981 1231l-166 -105l-149 162l-201 -162l-141 105l360 248zM874 0h-221l17 96q-38 -56 -100.5 -88.5t-131.5 -32.5q-36 0 -66.5 3.5t-63 13t-57.5 24.5t-49 38.5t-38 56t-25 75.5t-9.5 97.5t9.5 122.5l70 495h221l-72 -508q-29 -209 142 -209q72 0 134.5 60t76.5 162
l69 495h221z" />
    <glyph glyph-name="udieresis" unicode="&#xfc;" horiz-adv-x="1079" 
d="M446 1444q65 0 106 -49t32 -113q-8 -54 -52.5 -93.5t-101.5 -39.5q-61 0 -103.5 48t-33.5 110q7 54 54.5 95.5t98.5 41.5zM889 1444q65 0 105.5 -49t31.5 -113q-8 -54 -52.5 -93.5t-101.5 -39.5q-61 0 -103.5 48t-33.5 110q7 54 55 95.5t99 41.5zM874 0h-221l17 96
q-38 -56 -100.5 -88.5t-131.5 -32.5q-36 0 -66.5 3.5t-63 13t-57.5 24.5t-49 38.5t-38 56t-25 75.5t-9.5 97.5t9.5 122.5l70 495h221l-72 -508q-29 -209 142 -209q72 0 134.5 60t76.5 162l69 495h221z" />
    <glyph glyph-name="yacute" unicode="&#xfd;" horiz-adv-x="1005" 
d="M455 1163l151 195q96 121 174 121q59 0 94.5 -38.5t26.5 -101.5q-5 -39 -37.5 -69t-107.5 -62l-258 -102zM262 -492h-239l321 560l-266 833h241l168 -582l336 582h240z" />
    <glyph glyph-name="thorn" unicode="&#xfe;" horiz-adv-x="1130" 
d="M528 1454l-96 -670q32 55 111 98.5t170 43.5q81 0 146 -27.5t105.5 -75t67 -110t30 -132.5t-4.5 -143q-9 -69 -33 -135t-64 -126t-91.5 -104.5t-120.5 -71t-146 -26.5q-79 0 -155.5 44t-102.5 110l-90 -621h-221l274 1946h221zM655 717q-91 0 -173 -83.5t-97 -195.5
q-13 -102 39.5 -178t132.5 -76q113 0 192 82t95 197q14 107 -35.5 180.5t-153.5 73.5z" />
    <glyph glyph-name="ydieresis" unicode="&#xff;" horiz-adv-x="1005" 
d="M412 1444q65 0 105.5 -49t31.5 -113q-8 -54 -52.5 -93.5t-101.5 -39.5q-61 0 -103.5 48t-33.5 110q7 54 55 95.5t99 41.5zM854 1444q65 0 105.5 -49t31.5 -113q-8 -55 -52.5 -94t-100.5 -39q-61 0 -104 48t-34 110q7 54 55 95.5t99 41.5zM262 -492h-239l321 560l-266 833
h241l168 -582l336 582h240z" />
    <glyph glyph-name="Amacron" unicode="&#x100;" horiz-adv-x="1398" 
d="M1192 1579h-655l26 197h656zM971 313h-570l-182 -313h-260l885 1464l469 -1464h-252zM909 530l-127 443l-256 -443h383z" />
    <glyph glyph-name="amacron" unicode="&#x101;" 
d="M954 1186h-655l27 196h655zM905 0h-221l18 117q-30 -55 -109 -98.5t-171 -43.5q-81 0 -146 27.5t-105.5 75t-67 110t-30 132.5t4.5 143q13 88 48.5 168.5t90.5 147.5t137 107t178 40q79 0 156 -44t103 -110l20 129h221zM578 717q-113 0 -192 -82t-95 -197
q-14 -107 35 -180.5t153 -73.5q92 0 174 83.5t97 195.5q13 102 -39.5 178t-132.5 76z" />
    <glyph glyph-name="Abreve" unicode="&#x102;" horiz-adv-x="1398" 
d="M1063 1845l145 -12q-21 -138 -108 -224.5t-230 -86.5q-102 0 -169.5 45t-93 117t-13.5 161l156 -12q-10 -75 15 -122.5t99 -47.5q84 0 136.5 54.5t62.5 127.5zM971 313h-570l-182 -313h-260l885 1464l469 -1464h-252zM909 530l-127 443l-256 -443h383z" />
    <glyph glyph-name="abreve" unicode="&#x103;" 
d="M825 1448h148q-21 -138 -109 -224.5t-231 -86.5q-101 0 -168.5 44.5t-92.5 113.5t-16 153h158q-12 -74 14.5 -122t100.5 -48q83 0 136 53t60 117zM905 0h-221l18 117q-30 -55 -109 -98.5t-171 -43.5q-81 0 -146 27.5t-105.5 75t-67 110t-30 132.5t4.5 143
q13 88 48.5 168.5t90.5 147.5t137 107t178 40q79 0 156 -44t103 -110l20 129h221zM578 717q-113 0 -192 -82t-95 -197q-14 -107 35 -180.5t153 -73.5q92 0 174 83.5t97 195.5q13 102 -39.5 178t-132.5 76z" />
    <glyph glyph-name="Aogonek" unicode="&#x104;" horiz-adv-x="1398" 
d="M1360 -221l-35 -131l-65 -15q-114 -20 -177 30t-51 138q8 66 46.5 112t105.5 87h-123l-90 313h-570l-182 -313h-260l885 1464l469 -1464h2q-48 -40 -85.5 -91.5t-41.5 -90.5q-6 -35 15.5 -49t66.5 -5zM909 530l-127 443l-256 -443h383z" />
    <glyph glyph-name="aogonek" unicode="&#x105;" 
d="M1032 901l-127 -901q-48 -40 -85.5 -91.5t-41.5 -90.5q-6 -35 15.5 -49t66.5 -5l90 15l-35 -131l-65 -15q-114 -20 -176.5 30t-50.5 138q8 66 46.5 112t104.5 87h-90l18 117q-30 -55 -109 -98.5t-171 -43.5q-81 0 -146 27.5t-105.5 75t-67 110t-30 132.5t4.5 143
q13 88 48.5 168.5t90.5 147.5t137 107t178 40q79 0 156 -44t103 -110l20 129h221zM750 463q13 102 -39.5 178t-132.5 76q-113 0 -192 -82t-95 -197q-14 -107 35 -180.5t153 -73.5q92 0 174 83.5t97 195.5z" />
    <glyph glyph-name="Cacute" unicode="&#x106;" horiz-adv-x="1458" 
d="M823 1589l142 152q46 46 68.5 66.5t53 38.5t56.5 18q59 0 94.5 -38.5t26.5 -101.5q-5 -45 -40 -77t-110 -54l-258 -71zM1149 391l190 -166q-276 -250 -589 -250q-143 0 -270.5 58.5t-216.5 157.5t-132.5 239.5t-21.5 294.5q16 113 66.5 221.5t129.5 198t177 158t215 107
t237 38.5q176 0 303 -69t201 -185l-205 -143q-125 163 -307 163q-124 0 -249.5 -68.5t-216 -188.5t-110.5 -257q-29 -207 87.5 -349t320.5 -142q102 0 208.5 53t182.5 129z" />
    <glyph glyph-name="cacute" unicode="&#x107;" horiz-adv-x="950" 
d="M465 1163l151 195q96 121 175 121q59 0 94 -38.5t26 -101.5q-5 -39 -37.5 -69t-107.5 -62l-258 -102zM733 307l125 -153q-39 -33 -65.5 -52.5t-83 -54.5t-119.5 -53.5t-129 -18.5q-88 0 -166 31.5t-136.5 90.5t-85 152.5t-10.5 207.5q13 94 51 173.5t90.5 133t115.5 91
t126.5 54.5t124.5 17q189 0 340 -156l-131 -149q-32 37 -90.5 66.5t-114.5 29.5q-116 0 -199.5 -84t-99.5 -201q-14 -102 41.5 -175t159.5 -73q73 0 142 39t114 84z" />
    <glyph glyph-name="Cdotaccent" unicode="&#x10a;" horiz-adv-x="1458" 
d="M989 1841q65 0 103.5 -49t29.5 -113q-8 -55 -51.5 -94t-99.5 -39q-61 0 -102.5 48t-32.5 110q7 54 54.5 95.5t98.5 41.5zM1149 391l190 -166q-276 -250 -589 -250q-143 0 -270.5 58.5t-216.5 157.5t-132.5 239.5t-21.5 294.5q16 113 66.5 221.5t129.5 198t177 158
t215 107t237 38.5q176 0 303 -69t201 -185l-205 -143q-125 163 -307 163q-124 0 -249.5 -68.5t-216 -188.5t-110.5 -257q-29 -207 87.5 -349t320.5 -142q102 0 208.5 53t182.5 129z" />
    <glyph glyph-name="cdotaccent" unicode="&#x10b;" horiz-adv-x="950" 
d="M643 1444q65 0 104.5 -49t30.5 -113q-8 -55 -51.5 -94t-99.5 -39q-61 0 -102.5 48t-32.5 110q7 54 53.5 95.5t97.5 41.5zM733 307l125 -153q-39 -33 -65.5 -52.5t-83 -54.5t-119.5 -53.5t-129 -18.5q-88 0 -166 31.5t-136.5 90.5t-85 152.5t-10.5 207.5q13 94 51 173.5
t90.5 133t115.5 91t126.5 54.5t124.5 17q189 0 340 -156l-131 -149q-32 37 -90.5 66.5t-114.5 29.5q-116 0 -199.5 -84t-99.5 -201q-14 -102 41.5 -175t159.5 -73q73 0 142 39t114 84z" />
    <glyph glyph-name="Ccaron" unicode="&#x10c;" horiz-adv-x="1458" 
d="M1309 1759l-346 -237l-291 237l153 105l156 -152l195 152zM1149 391l190 -166q-276 -250 -589 -250q-143 0 -270.5 58.5t-216.5 157.5t-132.5 239.5t-21.5 294.5q16 113 66.5 221.5t129.5 198t177 158t215 107t237 38.5q176 0 303 -69t201 -185l-205 -143
q-125 163 -307 163q-124 0 -249.5 -68.5t-216 -188.5t-110.5 -257q-29 -207 87.5 -349t320.5 -142q102 0 208.5 53t182.5 129z" />
    <glyph glyph-name="ccaron" unicode="&#x10d;" horiz-adv-x="950" 
d="M975 1374l-359 -248l-299 248l166 105l154 -162l197 162zM733 307l125 -153q-39 -33 -65.5 -52.5t-83 -54.5t-119.5 -53.5t-129 -18.5q-88 0 -166 31.5t-136.5 90.5t-85 152.5t-10.5 207.5q13 94 51 173.5t90.5 133t115.5 91t126.5 54.5t124.5 17q189 0 340 -156
l-131 -149q-32 37 -90.5 66.5t-114.5 29.5q-116 0 -199.5 -84t-99.5 -201q-14 -102 41.5 -175t159.5 -73q73 0 142 39t114 84z" />
    <glyph glyph-name="Dcaron" unicode="&#x10e;" horiz-adv-x="1480" 
d="M1192 1759l-346 -237l-291 237l154 105l155 -152l195 152zM295 1423h524q137 0 259.5 -57t208 -153.5t127 -231.5t20.5 -281q-20 -140 -92 -266t-179 -218t-245.5 -149.5t-286.5 -66.5h-537zM500 1198l-135 -973h286q127 0 244 65.5t197.5 181t99.5 253.5
q29 204 -83 338.5t-310 134.5h-299z" />
    <glyph glyph-name="dcaron" unicode="&#x10f;" horiz-adv-x="1292" 
d="M905 0h-221l18 117q-30 -55 -109 -98.5t-171 -43.5q-81 0 -146 27.5t-105.5 75t-67 110t-30 132.5t4.5 143q13 88 48.5 168.5t90.5 147.5t137 107t178 40q79 0 156 -44t103 -110l98 682h221zM1145 997l88 334q12 48 48 82.5t77 34.5q53 0 80.5 -40t19.5 -95
q-5 -29 -33 -64l-229 -252h-51zM578 717q-113 0 -192 -82t-95 -197q-14 -107 35 -180.5t153 -73.5q92 0 174 83.5t97 195.5q13 102 -39.5 178t-132.5 76z" />
    <glyph glyph-name="Dcroat" unicode="&#x110;" horiz-adv-x="1482" 
d="M295 1423h524q137 0 260 -57t208.5 -153t127.5 -231.5t21 -281.5q-26 -186 -142 -343t-291 -251.5t-372 -105.5h-537l86 604h-141l33 234h141zM360 225h291q127 0 247.5 65.5t204.5 181.5t103 253q29 202 -89 337.5t-318 135.5h-303l-50 -360h287l-33 -234h-286z" />
    <glyph glyph-name="dcroat" unicode="&#x111;" horiz-adv-x="1165" 
d="M1249 1092h-190l-154 -1092h-221l18 117q-30 -55 -109 -98.5t-171 -43.5q-81 0 -146 27.5t-105.5 75t-67 110t-30 132.5t4.5 143q13 88 48.5 168.5t90.5 147.5t137 107t178 40q79 0 156 -44t103 -110l45 320h-242l27 196h243l25 166h221l-23 -166h189zM750 463
q13 102 -39.5 178t-132.5 76q-113 0 -192 -82t-95 -197q-14 -107 35 -180.5t153 -73.5q92 0 174 83.5t97 195.5z" />
    <glyph glyph-name="Emacron" unicode="&#x112;" horiz-adv-x="1236" 
d="M1106 1579h-655l26 197h656zM1184 1198h-684l-49 -360h563l-33 -226h-563l-53 -387h694l-33 -225h-932l201 1423h922z" />
    <glyph glyph-name="emacron" unicode="&#x113;" horiz-adv-x="1026" 
d="M944 1186h-655l26 196h656zM776 295l158 -100q-69 -104 -181.5 -162t-256.5 -58q-91 0 -173 32.5t-144 92.5t-91.5 154.5t-13.5 208.5q15 109 66 199.5t121 146.5t149 86.5t157 30.5q203 0 310.5 -129t76.5 -342l-6 -47q-3 -13 -6 -21h-661q-5 -92 57.5 -157.5
t173.5 -65.5q83 0 155 37.5t109 93.5zM309 559h455q0 71 -50.5 124.5t-142.5 53.5q-83 0 -163 -55t-99 -123z" />
    <glyph glyph-name="Edotaccent" unicode="&#x116;" horiz-adv-x="1236" 
d="M803 1841q65 0 103.5 -49t29.5 -113q-8 -55 -52 -94t-100 -39q-61 0 -102.5 48t-32.5 110q7 54 55 95.5t99 41.5zM1184 1198h-684l-49 -360h563l-33 -226h-563l-53 -387h694l-33 -225h-932l201 1423h922z" />
    <glyph glyph-name="edotaccent" unicode="&#x117;" horiz-adv-x="1026" 
d="M639 1444q65 0 104.5 -49t30.5 -113q-8 -55 -51.5 -94t-99.5 -39q-61 0 -103 48t-33 110q7 54 54 95.5t98 41.5zM776 295l158 -100q-69 -104 -181.5 -162t-256.5 -58q-91 0 -173 32.5t-144 92.5t-91.5 154.5t-13.5 208.5q15 109 66 199.5t121 146.5t149 86.5t157 30.5
q203 0 310.5 -129t76.5 -342l-6 -47q-3 -13 -6 -21h-661q-5 -92 57.5 -157.5t173.5 -65.5q83 0 155 37.5t109 93.5zM309 559h455q0 71 -50.5 124.5t-142.5 53.5q-83 0 -163 -55t-99 -123z" />
    <glyph glyph-name="Eogonek" unicode="&#x118;" horiz-adv-x="1236" 
d="M500 1198l-49 -360h563l-33 -226h-563l-53 -387h694l-33 -225q-48 -40 -85.5 -91.5t-41.5 -90.5q-6 -35 15.5 -49t66.5 -5l90 15l-35 -131l-65 -15q-114 -20 -177 30t-51 138q8 66 46.5 112t105.5 87h-801l201 1423h922l-33 -225h-684z" />
    <glyph glyph-name="eogonek" unicode="&#x119;" horiz-adv-x="1026" 
d="M852 -260l-66 -14q-114 -20 -176.5 30t-50.5 138q6 48 31 88q-54 -7 -94 -7q-91 0 -173 32.5t-144 92.5t-91.5 154.5t-13.5 208.5q15 109 66 199.5t121 146.5t149 86.5t157 30.5q203 0 310.5 -129t76.5 -342l-6 -47q-3 -13 -6 -21h-661q-5 -92 57.5 -157.5t173.5 -65.5
q83 0 155 37.5t109 93.5l158 -100q-46 -68 -100 -111q-46 -39 -80.5 -87.5t-38.5 -86.5q-6 -35 15.5 -48.5t66.5 -4.5l90 14zM309 559h455q0 71 -50.5 124.5t-142.5 53.5q-83 0 -163 -55t-99 -123z" />
    <glyph glyph-name="Ecaron" unicode="&#x11a;" horiz-adv-x="1236" 
d="M1122 1759l-346 -237l-291 237l154 105l156 -152l194 152zM1184 1198h-684l-49 -360h563l-33 -226h-563l-53 -387h694l-33 -225h-932l201 1423h922z" />
    <glyph glyph-name="ecaron" unicode="&#x11b;" horiz-adv-x="1026" 
d="M971 1374l-359 -248l-299 248l166 105l154 -162l196 162zM776 295l158 -100q-69 -104 -181.5 -162t-256.5 -58q-91 0 -173 32.5t-144 92.5t-91.5 154.5t-13.5 208.5q15 109 66 199.5t121 146.5t149 86.5t157 30.5q203 0 310.5 -129t76.5 -342l-6 -47q-3 -13 -6 -21h-661
q-5 -92 57.5 -157.5t173.5 -65.5q83 0 155 37.5t109 93.5zM309 559h455q0 71 -50.5 124.5t-142.5 53.5q-83 0 -163 -55t-99 -123z" />
    <glyph glyph-name="Gbreve" unicode="&#x11e;" horiz-adv-x="1501" 
d="M1161 1845l146 -12q-21 -138 -108 -224.5t-230 -86.5q-102 0 -170 45t-93.5 117t-13.5 161l156 -12q-10 -75 15.5 -122.5t99.5 -47.5q83 0 135.5 54.5t62.5 127.5zM856 825h592l-16 -112l-58 -445q-138 -145 -298 -219t-328 -74q-143 0 -271 58.5t-217 157.5
t-132.5 239.5t-21.5 294.5q20 141 95 273.5t184.5 231.5t253.5 158.5t293 59.5q177 0 310 -69.5t206 -184.5l-207 -147q-131 167 -317 167q-124 0 -249.5 -68.5t-216 -188.5t-110.5 -257q-29 -207 87.5 -349t320.5 -142q105 0 210.5 45t180.5 117l35 229h-359z" />
    <glyph glyph-name="gbreve" unicode="&#x11f;" 
d="M809 1448h147q-21 -138 -109 -224.5t-231 -86.5q-101 0 -168 44.5t-92 113.5t-16 153h158q-12 -74 14 -122t100 -48q83 0 136.5 53t60.5 117zM678 -41l24 158q-30 -55 -109 -98.5t-171 -43.5q-81 0 -146 27.5t-105.5 75t-67 110t-30 132.5t4.5 143q13 88 48.5 168.5
t90.5 147.5t137 107t178 40q79 0 156 -44t103 -110l20 129h221l-133 -942q-68 -475 -520 -475q-117 0 -222.5 56t-174.5 143l131 161q127 -151 307 -151q105 0 173.5 76t84.5 190zM578 717q-113 0 -192 -82t-95 -197q-14 -107 35 -180.5t153 -73.5q92 0 174 83.5t97 195.5
q13 102 -39.5 178t-132.5 76z" />
    <glyph glyph-name="Gdotaccent" unicode="&#x120;" horiz-adv-x="1501" 
d="M969 1546q-61 0 -102.5 48t-32.5 110q7 54 54.5 95.5t98.5 41.5q65 0 103.5 -49t29.5 -113q-8 -55 -51.5 -94t-99.5 -39zM856 825h592l-16 -112l-58 -445q-138 -145 -298 -219t-328 -74q-143 0 -271 58.5t-217 157.5t-132.5 239.5t-21.5 294.5q20 141 95 273.5
t184.5 231.5t253.5 158.5t293 59.5q177 0 310 -69.5t206 -184.5l-207 -147q-131 167 -317 167q-124 0 -249.5 -68.5t-216 -188.5t-110.5 -257q-29 -207 87.5 -349t320.5 -142q105 0 210.5 45t180.5 117l35 229h-359z" />
    <glyph glyph-name="gdotaccent" unicode="&#x121;" 
d="M633 1444q65 0 104.5 -49t30.5 -113q-8 -55 -52 -94t-100 -39q-61 0 -102.5 48t-32.5 110q7 54 54 95.5t98 41.5zM678 -41l24 158q-30 -55 -109 -98.5t-171 -43.5q-81 0 -146 27.5t-105.5 75t-67 110t-30 132.5t4.5 143q13 88 48.5 168.5t90.5 147.5t137 107t178 40
q79 0 156 -44t103 -110l20 129h221l-133 -942q-68 -475 -520 -475q-117 0 -222.5 56t-174.5 143l131 161q127 -151 307 -151q105 0 173.5 76t84.5 190zM578 717q-113 0 -192 -82t-95 -197q-14 -107 35 -180.5t153 -73.5q92 0 174 83.5t97 195.5q13 102 -39.5 178t-132.5 76z
" />
    <glyph glyph-name="Gcommaaccent" unicode="&#x122;" horiz-adv-x="1501" 
d="M856 825h592l-16 -112l-58 -445q-138 -145 -298 -219t-328 -74q-143 0 -271 58.5t-217 157.5t-132.5 239.5t-21.5 294.5q20 141 95 273.5t184.5 231.5t253.5 158.5t293 59.5q177 0 310 -69.5t206 -184.5l-207 -147q-131 167 -317 167q-124 0 -249.5 -68.5t-216 -188.5
t-110.5 -257q-29 -207 87.5 -349t320.5 -142q105 0 210.5 45t180.5 117l35 229h-359zM500 -674l57 404q7 58 53.5 100.5t98.5 42.5q65 0 104.5 -49t30.5 -113q-5 -35 -23 -61l-262 -324h-59z" />
    <glyph glyph-name="gcommaaccent" unicode="&#x123;" 
d="M797 1575l-58 -404q-7 -58 -54 -100.5t-99 -42.5q-65 0 -104.5 49t-30.5 113q5 32 22 61l264 324h60zM678 -41l24 158q-30 -55 -109 -98.5t-171 -43.5q-81 0 -146 27.5t-105.5 75t-67 110t-30 132.5t4.5 143q13 88 48.5 168.5t90.5 147.5t137 107t178 40q79 0 156 -44
t103 -110l20 129h221l-133 -942q-68 -475 -520 -475q-117 0 -222.5 56t-174.5 143l131 161q127 -151 307 -151q105 0 173.5 76t84.5 190zM578 717q-113 0 -192 -82t-95 -197q-14 -107 35 -180.5t153 -73.5q92 0 174 83.5t97 195.5q13 102 -39.5 178t-132.5 76z" />
    <glyph glyph-name="Hbar" unicode="&#x126;" horiz-adv-x="1525" 
d="M1597 1014h-153l-144 -1014h-237l84 600h-723l-84 -600h-238l144 1014h-154l27 196h153l31 213h238l-31 -213h723l31 213h237l-31 -213h154zM1206 1014h-723l-26 -189h723z" />
    <glyph glyph-name="hbar" unicode="&#x127;" horiz-adv-x="1105" 
d="M467 1094l-41 -289q25 45 89 83t142 38q41 0 76 -5t71 -17t62 -33t50 -53.5t34.5 -78t14.5 -106t-9 -137.5l-69 -496h-221l71 508q16 117 -15.5 163t-105.5 46q-36 0 -71.5 -12t-69 -36.5t-58 -69t-32.5 -103.5l-70 -496h-221l154 1094h-146l29 196h145l23 164h221
l-24 -164h290l-28 -196h-291z" />
    <glyph glyph-name="Imacron" unicode="&#x12a;" horiz-adv-x="563" 
d="M776 1579h-655l26 197h656zM344 0h-246l201 1423h246z" />
    <glyph glyph-name="imacron" unicode="&#x12b;" horiz-adv-x="516" 
d="M692 1186h-655l26 196h656zM307 0h-221l127 901h221z" />
    <glyph glyph-name="Iogonek" unicode="&#x12e;" horiz-adv-x="563" 
d="M344 0h8q-48 -40 -85.5 -91.5t-41.5 -90.5q-6 -35 15.5 -49t66.5 -5l90 15l-35 -131l-65 -15q-114 -20 -176.5 30t-50.5 138q8 66 46.5 112t104.5 87h-123l201 1423h246z" />
    <glyph glyph-name="iogonek" unicode="&#x12f;" horiz-adv-x="516" 
d="M387 1444q65 0 104.5 -49t30.5 -113q-8 -55 -51.5 -94t-99.5 -39q-61 0 -102.5 48t-32.5 110q7 54 53.5 95.5t97.5 41.5zM434 901l-127 -901q-48 -40 -85.5 -91.5t-41.5 -90.5q-6 -35 15.5 -49t66.5 -5l90 15l-35 -131l-65 -15q-114 -20 -176.5 30t-50.5 138
q8 66 46.5 112t104.5 87h-90l127 901h221z" />
    <glyph glyph-name="Idotaccent" unicode="&#x130;" horiz-adv-x="563" 
d="M473 1841q65 0 103.5 -49t29.5 -113q-8 -55 -51.5 -94t-99.5 -39q-61 0 -103 48t-33 110q7 54 55 95.5t99 41.5zM344 0h-246l201 1423h246z" />
    <glyph glyph-name="dotlessi" unicode="&#x131;" horiz-adv-x="516" 
d="M307 0h-221l127 901h221z" />
    <glyph glyph-name="IJ" unicode="&#x132;" horiz-adv-x="1216" 
d="M344 0h-246l201 1423h246zM1196 1423l-178 -1271q-19 -131 -84.5 -250t-161 -205.5t-218.5 -137.5t-251 -51l21 234q168 0 296 123t152 299l178 1259h246z" />
    <glyph glyph-name="ij" unicode="&#x133;" horiz-adv-x="1048" 
d="M387 1444q66 0 107 -45t32 -111q-9 -58 -54 -98.5t-101 -40.5q-66 0 -106.5 49t-31.5 115q7 56 51.5 93.5t102.5 37.5zM922 1444q66 0 107 -45t32 -111q-9 -57 -54 -98t-102 -41q-66 0 -106 49t-31 115q7 56 51.5 93.5t102.5 37.5zM307 0h-221l127 901h221zM969 901
l-121 -854q-15 -118 -77.5 -255t-160.5 -228l-170 112q72 76 124.5 184t64.5 199l119 842h221z" />
    <glyph glyph-name="Kcommaaccent" unicode="&#x136;" horiz-adv-x="1366" 
d="M788 821l474 -821h-279l-377 653l-209 -194l-65 -459h-238l201 1423h237l-94 -661l699 661h299zM395 -674l58 404q7 58 53 100.5t98 42.5q65 0 104.5 -49t30.5 -113q-5 -37 -22 -61l-262 -324h-60z" />
    <glyph glyph-name="kcommaaccent" unicode="&#x137;" horiz-adv-x="1021" 
d="M600 508l338 -508h-266l-301 457l-64 -457h-221l205 1454h221l-127 -899l352 346h279zM225 -674l58 404q7 58 53 100.5t98 42.5q65 0 104.5 -49t30.5 -113q-5 -37 -22 -61l-262 -324h-60z" />
    <glyph glyph-name="Lacute" unicode="&#x139;" horiz-adv-x="1097" 
d="M606 1589l142 152q46 46 68.5 66.5t53 38.5t56.5 18q59 0 94.5 -38.5t26.5 -101.5q-5 -45 -40 -77t-110 -54l-258 -71zM365 225h663l-33 -225h-901l201 1423h237z" />
    <glyph glyph-name="lacute" unicode="&#x13a;" horiz-adv-x="522" 
d="M283 1589l141 152q46 46 68.5 66.5t53 38.5t56.5 18q59 0 94.5 -38.5t26.5 -101.5q-5 -45 -40 -77t-110 -54l-258 -71zM311 0h-221l205 1454h221z" />
    <glyph glyph-name="Lcommaaccent" unicode="&#x13b;" horiz-adv-x="1097" 
d="M365 225h663l-33 -225h-901l201 1423h237zM285 -674l57 404q7 58 53.5 100.5t98.5 42.5q65 0 104.5 -49t30.5 -113q-5 -35 -23 -61l-262 -324h-59z" />
    <glyph glyph-name="lcommaaccent" unicode="&#x13c;" horiz-adv-x="522" 
d="M311 0h-221l205 1454h221zM-39 -674l57 404q7 58 53.5 100.5t98.5 42.5q65 0 104.5 -49t30.5 -113q-5 -37 -22 -61l-263 -324h-59z" />
    <glyph glyph-name="Lcaron" unicode="&#x13d;" horiz-adv-x="1097" 
d="M674 997l88 334q12 48 48 82.5t77 34.5q53 0 80.5 -40t19.5 -95q-5 -29 -33 -64l-229 -252h-51zM365 225h663l-33 -225h-901l201 1423h237z" />
    <glyph glyph-name="lcaron" unicode="&#x13e;" horiz-adv-x="649" 
d="M301 0h-221l205 1454h221zM520 997l88 334q12 48 48 82.5t77 34.5q54 0 81.5 -40t19.5 -95q-5 -29 -33 -64l-230 -252h-51z" />
    <glyph glyph-name="Ldot" unicode="&#x13f;" horiz-adv-x="1097" 
d="M365 225h663l-33 -225h-901l201 1423h237zM758 926q65 0 104.5 -48t30.5 -112q-8 -55 -52 -95t-100 -40q-60 0 -102 48.5t-33 111.5q7 53 53.5 94t98.5 41z" />
    <glyph glyph-name="ldot" unicode="&#x140;" horiz-adv-x="645" 
d="M301 0h-221l205 1454h221zM649 874q65 0 104.5 -47.5t30.5 -111.5q-8 -55 -51.5 -95t-99.5 -40q-61 0 -102.5 48.5t-32.5 110.5q7 54 53.5 94.5t97.5 40.5z" />
    <glyph glyph-name="Lslash" unicode="&#x141;" horiz-adv-x="1136" 
d="M1067 225l-33 -225h-901l88 618l-149 -34l32 225l148 35l82 579h237l-73 -522l266 62l-31 -226l-266 -61l-64 -451h664z" />
    <glyph glyph-name="lslash" unicode="&#x142;" horiz-adv-x="694" 
d="M696 748l-274 -64l-96 -684h-222l89 631l-156 -37l31 225l157 37l84 598h221l-75 -545l274 64z" />
    <glyph glyph-name="Nacute" unicode="&#x143;" horiz-adv-x="1544" 
d="M793 1589l141 152q46 46 68.5 66.5t53 38.5t56.5 18q59 0 94.5 -38.5t26.5 -101.5q-5 -45 -40 -77t-110 -54l-258 -71zM1149 504l131 919h238l-205 -1464l-840 961l-131 -920h-238l205 1464z" />
    <glyph glyph-name="nacute" unicode="&#x144;" horiz-adv-x="1103" 
d="M489 1163l152 195q96 121 174 121q59 0 94.5 -38.5t26.5 -101.5q-5 -39 -37.5 -69t-107.5 -62l-259 -102zM442 901l-16 -96q38 56 100 88.5t131 32.5q41 0 76 -5t71 -17t62 -33t50 -53.5t34.5 -78t14.5 -106t-9 -137.5l-69 -496h-221l71 508q29 209 -141 209
q-72 0 -134.5 -59.5t-76.5 -161.5l-70 -496h-221l127 901h221z" />
    <glyph glyph-name="Ncommaaccent" unicode="&#x145;" horiz-adv-x="1544" 
d="M1149 504l131 919h238l-205 -1464l-840 961l-131 -920h-238l205 1464zM471 -674l57 404q7 58 53.5 100.5t98.5 42.5q65 0 104.5 -49t30.5 -113q-5 -37 -22 -61l-263 -324h-59z" />
    <glyph glyph-name="ncommaaccent" unicode="&#x146;" horiz-adv-x="1103" 
d="M442 901l-16 -96q38 56 100 88.5t131 32.5q41 0 76 -5t71 -17t62 -33t50 -53.5t34.5 -78t14.5 -106t-9 -137.5l-69 -496h-221l71 508q29 209 -141 209q-72 0 -134.5 -59.5t-76.5 -161.5l-70 -496h-221l127 901h221zM238 -674l57 404q7 58 53 100.5t98 42.5q65 0 105 -49
t31 -113q-5 -35 -23 -61l-262 -324h-59z" />
    <glyph glyph-name="Ncaron" unicode="&#x147;" horiz-adv-x="1544" 
d="M1278 1759l-346 -237l-291 237l154 105l155 -152l195 152zM1149 504l131 919h238l-205 -1464l-840 961l-131 -920h-238l205 1464z" />
    <glyph glyph-name="ncaron" unicode="&#x148;" horiz-adv-x="1103" 
d="M999 1374l-358 -248l-299 248l166 105l154 -162l196 162zM442 901l-16 -96q38 56 100 88.5t131 32.5q41 0 76 -5t71 -17t62 -33t50 -53.5t34.5 -78t14.5 -106t-9 -137.5l-69 -496h-221l71 508q29 209 -141 209q-72 0 -134.5 -59.5t-76.5 -161.5l-70 -496h-221l127 901
h221z" />
    <glyph glyph-name="Eng" unicode="&#x14a;" horiz-adv-x="1544" 
d="M1518 1423l-179 -1271q-19 -131 -84.5 -250t-160.5 -205.5t-218 -137.5t-251 -51l20 234q111 0 211 57t165.5 154t80.5 211l4 31l-633 725l-131 -920h-238l205 1464l840 -960l131 919h238z" />
    <glyph glyph-name="eng" unicode="&#x14b;" horiz-adv-x="1103" 
d="M442 901l-16 -96q25 45 89 83t142 38q41 0 76 -5t71 -17t62 -33t50 -53.5t34.5 -78t14.5 -106t-9 -137.5l-69 -496q-16 -113 -74 -228t-158 -208l-170 112q159 169 181 324l71 508q16 117 -15.5 163t-105.5 46q-36 0 -71.5 -12t-69 -36.5t-58 -69t-32.5 -103.5l-70 -496
h-221l127 901h221z" />
    <glyph glyph-name="Omacron" unicode="&#x14c;" horiz-adv-x="1628" 
d="M1305 1579h-656l27 197h655zM946 1448q143 0 271 -59t217 -158.5t132 -239t21 -291.5q-20 -139 -95.5 -272t-185.5 -232.5t-253.5 -160t-290.5 -60.5q-150 0 -279.5 60t-216 160.5t-127.5 239.5t-20 290q20 146 94.5 279t184 231t253 155.5t295.5 57.5zM938 1214
q-133 0 -259.5 -69.5t-213 -188.5t-105.5 -256q-18 -130 29 -242.5t148.5 -180.5t232.5 -68q127 0 253.5 70.5t215 190.5t107.5 255q16 119 -33 232t-150 185t-225 72z" />
    <glyph glyph-name="omacron" unicode="&#x14d;" horiz-adv-x="1124" 
d="M995 1186h-655l27 196h655zM618 926q131 0 236 -66t157 -179t33 -243q-17 -124 -96.5 -231.5t-197 -169.5t-242.5 -62q-131 0 -235.5 66t-156.5 179t-34 243q17 124 96.5 231.5t197 169.5t242.5 62zM612 717q-111 0 -206.5 -83.5t-110.5 -195.5q-13 -103 52.5 -178.5
t166.5 -75.5q111 0 206.5 83.5t110.5 195.5q13 103 -52.5 178.5t-166.5 75.5z" />
    <glyph glyph-name="Ohungarumlaut" unicode="&#x150;" horiz-adv-x="1628" 
d="M639 1589l141 152q46 46 68.5 66.5t53 38.5t56.5 18q59 0 94.5 -38.5t26.5 -101.5q-5 -45 -39.5 -77t-109.5 -54l-258 -71zM1057 1589l141 152q46 46 68.5 66.5t53 38.5t56.5 18q59 0 94.5 -38.5t26.5 -101.5q-5 -45 -39.5 -77t-109.5 -54l-258 -71zM946 1448
q143 0 271 -59t217 -158.5t132 -239t21 -291.5q-20 -139 -95.5 -272t-185.5 -232.5t-253.5 -160t-290.5 -60.5q-150 0 -279.5 60t-216 160.5t-127.5 239.5t-20 290q20 146 94.5 279t184 231t253 155.5t295.5 57.5zM938 1214q-133 0 -259.5 -69.5t-213 -188.5t-105.5 -256
q-18 -130 29 -242.5t148.5 -180.5t232.5 -68q127 0 253.5 70.5t215 190.5t107.5 255q16 119 -33 232t-150 185t-225 72z" />
    <glyph glyph-name="ohungarumlaut" unicode="&#x151;" horiz-adv-x="1124" 
d="M332 1204l139 152q65 65 104 94t76 29q59 0 94.5 -38.5t26.5 -101.5q-6 -45 -41 -77t-110 -54l-259 -71zM750 1204l139 152q65 65 104 94t76 29q59 0 94.5 -38.5t26.5 -101.5q-6 -45 -41.5 -77t-110.5 -54l-258 -71zM618 926q131 0 236 -66t157 -179t33 -243
q-17 -124 -96.5 -231.5t-197 -169.5t-242.5 -62q-131 0 -235.5 66t-156.5 179t-34 243q17 124 96.5 231.5t197 169.5t242.5 62zM612 717q-111 0 -206.5 -83.5t-110.5 -195.5q-13 -103 52.5 -178.5t166.5 -75.5q111 0 206.5 83.5t110.5 195.5q13 103 -52.5 178.5t-166.5 75.5
z" />
    <glyph glyph-name="OE" unicode="&#x152;" horiz-adv-x="2387" 
d="M1651 1198l-49 -360h563l-33 -226l-563 -2l-53 -385h694l-33 -225h-932l23 164q-110 -89 -240.5 -139t-265.5 -50q-150 0 -279.5 60t-216 160.5t-127.5 239.5t-20 290q20 146 94.5 279t184 231t253 155.5t295.5 57.5q137 0 260.5 -54t214.5 -149l25 178h921l-32 -225
h-684zM770 209q127 0 253.5 70.5t215 190.5t107.5 255q16 119 -33 232t-150 185t-225 72q-133 0 -259.5 -69.5t-213 -188.5t-105.5 -256q-18 -130 29 -242.5t148.5 -180.5t232.5 -68z" />
    <glyph glyph-name="oe" unicode="&#x153;" horiz-adv-x="1783" 
d="M1473 295l157 -100q-69 -104 -181.5 -162t-256.5 -58q-107 0 -202 44.5t-154 127.5q-78 -79 -181 -125.5t-209 -46.5q-131 0 -235.5 66t-156.5 179t-34 243q13 93 63.5 179t123 148t164.5 99t186 37q107 0 197.5 -45t150.5 -123q73 81 169 124.5t190 43.5
q203 0 310.5 -129t76.5 -342l-8 -50q-3 -11 -5 -18h-661q-5 -92 57.5 -157.5t173.5 -65.5q83 0 155.5 37.5t109.5 93.5zM1006 559h454q0 71 -50 124.5t-142 53.5q-83 0 -163 -55t-99 -123zM453 184q111 0 205.5 82.5t111.5 196.5q13 103 -52.5 178.5t-166.5 75.5
q-111 0 -207 -83.5t-111 -195.5q-13 -102 52.5 -178t167.5 -76z" />
    <glyph glyph-name="Racute" unicode="&#x154;" horiz-adv-x="1335" 
d="M655 1589l142 152q46 46 68.5 66.5t53 38.5t56.5 18q59 0 94.5 -38.5t26.5 -101.5q-5 -45 -40 -77t-110 -54l-258 -71zM295 1423h553q211 0 332 -117t92 -311q-19 -139 -113 -242.5t-215 -146.5l225 -606h-266l-221 592h-270l-84 -592h-234zM496 1198l-54 -381h326
q117 0 188.5 53.5t85.5 149.5q11 82 -44 130t-171 48h-331z" />
    <glyph glyph-name="racute" unicode="&#x155;" horiz-adv-x="823" 
d="M365 1163l151 195q96 121 174 121q59 0 94.5 -38.5t26.5 -101.5q-5 -39 -37.5 -69t-107.5 -62l-258 -102zM434 901l-16 -96q43 59 103.5 90t111.5 31q128 0 231 -90l-143 -170q-58 51 -129 51q-87 0 -144 -66.5t-77 -206.5l-64 -444h-221l127 901h221z" />
    <glyph glyph-name="Rcommaaccent" unicode="&#x156;" horiz-adv-x="1335" 
d="M295 1423h553q211 0 332 -117t92 -311q-19 -139 -113 -242.5t-215 -146.5l225 -606h-266l-221 592h-270l-84 -592h-234zM496 1198l-54 -381h326q117 0 188.5 53.5t85.5 149.5q11 82 -44 130t-171 48h-331zM334 -674l57 404q7 58 53.5 100.5t98.5 42.5q65 0 104.5 -49
t30.5 -113q-5 -35 -23 -61l-262 -324h-59z" />
    <glyph glyph-name="rcommaaccent" unicode="&#x157;" horiz-adv-x="823" 
d="M434 901l-16 -96q43 59 103.5 90t111.5 31q128 0 231 -90l-143 -170q-58 51 -129 51q-87 0 -144 -66.5t-77 -206.5l-64 -444h-221l127 901h221zM-43 -674l57 404q7 58 53.5 100.5t98.5 42.5q65 0 104.5 -49t30.5 -113q-5 -37 -22 -61l-263 -324h-59z" />
    <glyph glyph-name="Rcaron" unicode="&#x158;" horiz-adv-x="1335" 
d="M1141 1759l-346 -237l-291 237l153 105l156 -152l195 152zM295 1423h553q211 0 332 -117t92 -311q-19 -139 -113 -242.5t-215 -146.5l225 -606h-266l-221 592h-270l-84 -592h-234zM496 1198l-54 -381h326q117 0 188.5 53.5t85.5 149.5q11 82 -44 130t-171 48h-331z" />
    <glyph glyph-name="rcaron" unicode="&#x159;" horiz-adv-x="823" 
d="M874 1374l-358 -248l-299 248l166 105l154 -162l196 162zM434 901l-16 -96q43 59 103.5 90t111.5 31q128 0 231 -90l-143 -170q-58 51 -129 51q-87 0 -144 -66.5t-77 -206.5l-64 -444h-221l127 901h221z" />
    <glyph glyph-name="Sacute" unicode="&#x15a;" horiz-adv-x="1245" 
d="M614 1589l142 152q46 46 68.5 66.5t53 38.5t56.5 18q59 0 94.5 -38.5t26.5 -101.5q-5 -45 -40 -77t-110 -54l-258 -71zM745 575l-210 82q-321 125 -277 428q23 163 156.5 263t310.5 100q129 0 237.5 -38.5t241.5 -115.5l-131 -200q-112 66 -187 93t-143 27
q-62 0 -110 -17.5t-75.5 -45t-42 -56t-17.5 -55.5q-15 -99 98 -145l262 -109q303 -125 262 -407q-17 -123 -94 -216.5t-189.5 -140.5t-242.5 -47q-115 0 -261.5 54.5t-283.5 144.5l131 197q244 -162 432 -162q112 0 184 57t83 137q8 63 -27 103t-107 69z" />
    <glyph glyph-name="sacute" unicode="&#x15b;" horiz-adv-x="868" 
d="M395 1163l152 195q96 121 174 121q59 0 94.5 -38.5t26.5 -101.5q-5 -39 -38 -69t-108 -62l-258 -102zM33 104l102 156q64 -38 150.5 -67t132.5 -29q42 0 74 26t38 66q2 18 -0.5 31t-20.5 31.5t-54 33.5l-142 60q-80 34 -128.5 97t-37.5 146q19 126 114.5 198.5
t193.5 72.5q96 0 171.5 -25t168.5 -80l-107 -157q-56 32 -117 52.5t-94 20.5q-45 0 -74 -25t-36 -53q-18 -57 51 -88l162 -69q86 -36 132 -100t36 -142q-18 -119 -113 -202t-223 -83q-74 0 -182.5 36t-196.5 93z" />
    <glyph glyph-name="Scedilla" unicode="&#x15e;" horiz-adv-x="1245" 
d="M596 895l262 -109q303 -125 262 -407q-16 -117 -85.5 -206.5t-172 -138.5t-223.5 -57l-33 -49q11 4 25 4q76 0 124 -62t36 -153q-12 -82 -79 -135t-149 -53q-77 0 -137.5 44t-69.5 118h136q11 -49 63 -49q38 0 68 28.5t36 71.5q6 35 -10.5 61.5t-44.5 26.5q-43 0 -69 -33
h-150l119 187q-105 17 -225.5 67.5t-229.5 122.5l131 197q244 -162 432 -162q112 0 184 57t83 137q8 63 -27 103t-107 69l-210 82q-321 125 -277 428q23 163 156.5 263t310.5 100q129 0 237.5 -38.5t241.5 -115.5l-131 -200q-112 66 -187 93t-143 27q-62 0 -110 -17.5
t-75.5 -45t-42 -56t-17.5 -55.5q-15 -99 98 -145z" />
    <glyph glyph-name="scedilla" unicode="&#x15f;" horiz-adv-x="868" 
d="M418 571l162 -69q86 -36 132 -100t36 -142q-17 -114 -105 -195t-209 -90l-31 -47q11 4 25 4q76 0 124 -62t36 -153q-12 -82 -79 -135t-149 -53q-76 0 -136.5 44t-69.5 118h135q11 -49 63 -49q38 0 68.5 28.5t36.5 71.5q6 35 -11 61.5t-45 26.5q-43 0 -69 -33h-150
l123 193q-147 34 -272 114l102 156q64 -38 150.5 -67t132.5 -29q42 0 74 26t38 66q2 18 -0.5 31t-20.5 31.5t-54 33.5l-142 60q-80 34 -128.5 97t-37.5 146q19 126 114.5 198.5t193.5 72.5q96 0 171.5 -25t168.5 -80l-107 -157q-56 32 -117 52.5t-94 20.5q-45 0 -74 -25
t-36 -53q-18 -57 51 -88z" />
    <glyph glyph-name="Scaron" unicode="&#x160;" horiz-adv-x="1245" 
d="M1100 1759l-346 -237l-291 237l153 105l156 -152l195 152zM745 575l-210 82q-321 125 -277 428q23 163 156.5 263t310.5 100q129 0 237.5 -38.5t241.5 -115.5l-131 -200q-112 66 -187 93t-143 27q-62 0 -110 -17.5t-75.5 -45t-42 -56t-17.5 -55.5q-15 -99 98 -145
l262 -109q303 -125 262 -407q-17 -123 -94 -216.5t-189.5 -140.5t-242.5 -47q-115 0 -261.5 54.5t-283.5 144.5l131 197q244 -162 432 -162q112 0 184 57t83 137q8 63 -27 103t-107 69z" />
    <glyph glyph-name="scaron" unicode="&#x161;" horiz-adv-x="868" 
d="M905 1374l-358 -248l-299 248l166 105l153 -162l197 162zM33 104l102 156q64 -38 150.5 -67t132.5 -29q42 0 74 26t38 66q2 18 -0.5 31t-20.5 31.5t-54 33.5l-142 60q-80 34 -128.5 97t-37.5 146q19 126 114.5 198.5t193.5 72.5q96 0 171.5 -25t168.5 -80l-107 -157
q-56 32 -117 52.5t-94 20.5q-45 0 -74 -25t-36 -53q-18 -57 51 -88l162 -69q86 -36 132 -100t36 -142q-18 -119 -113 -202t-223 -83q-74 0 -182.5 36t-196.5 93z" />
    <glyph glyph-name="Tcedilla" unicode="&#x162;" horiz-adv-x="1095" 
d="M1214 1423l-32 -225h-410l-168 -1198h-51l-47 -72q10 4 24 4q76 0 124 -62t36 -153q-12 -82 -78.5 -135t-148.5 -53q-77 0 -137.5 44t-69.5 118h135q11 -49 64 -49q38 0 68 28.5t36 71.5q6 35 -10.5 61.5t-44.5 26.5q-44 0 -70 -33h-149l129 203h-47l168 1198h-410
l33 225h1056z" />
    <glyph glyph-name="tcedilla" unicode="&#x163;" horiz-adv-x="735" 
d="M465 705l-59 -426q-6 -42 6.5 -68.5t44.5 -26.5q30 0 61 17.5t53 46.5l21 -187q-67 -73 -176 -84l-33 -49q11 4 25 4q76 0 123.5 -62t35.5 -153q-12 -82 -78.5 -135t-148.5 -53q-77 0 -137.5 44t-69.5 118h135q11 -49 64 -49q38 0 68 28.5t36 71.5q6 35 -10.5 61.5
t-44.5 26.5q-44 0 -70 -33h-149l127 199q-61 29 -92 93t-19 149l66 467h-176l473 563l-49 -367h219l-27 -196h-219z" />
    <glyph glyph-name="Tcaron" unicode="&#x164;" horiz-adv-x="1095" 
d="M1053 1759l-346 -237l-291 237l153 105l156 -152l195 152zM1182 1198h-410l-168 -1198h-237l168 1198h-410l33 225h1056z" />
    <glyph glyph-name="tcaron" unicode="&#x165;" horiz-adv-x="739" 
d="M594 997l88 334q12 48 48 82.5t77 34.5q53 0 80.5 -40t19.5 -95q-5 -29 -33 -64l-229 -252h-51zM522 901h219l-26 -196h-219l-60 -426q-6 -42 6.5 -68.5t44.5 -26.5q30 0 62 17.5t53 46.5l21 -187q-79 -86 -215 -86q-96 0 -156 74t-43 189l65 467h-176l473 563z" />
    <glyph glyph-name="Tbar" unicode="&#x166;" horiz-adv-x="1095" 
d="M772 1198l-53 -379h213l-27 -196h-213l-88 -623h-237l88 623h-205l26 196h205l54 379h-410l33 225h1056l-32 -225h-410z" />
    <glyph glyph-name="tbar" unicode="&#x167;" horiz-adv-x="677" 
d="M492 705l-19 -140h191l-29 -196h-191l-12 -90q-6 -42 6.5 -68.5t44.5 -26.5q30 0 62 17.5t53 46.5l20 -187q-79 -86 -215 -86q-96 0 -155.5 74t-42.5 189l18 131h-203l29 196h201l20 140h-176l473 563l-49 -367h219l-26 -196h-219z" />
    <glyph glyph-name="Umacron" unicode="&#x16a;" horiz-adv-x="1474" 
d="M1227 1579h-656l27 197h655zM1464 1423l-121 -852q-39 -280 -218.5 -438t-440.5 -158q-269 0 -410 164t-102 445l119 839h237l-120 -852q-23 -174 62 -268t222 -94q69 0 136 24.5t125 70t99 118.5t54 162l119 839h239z" />
    <glyph glyph-name="umacron" unicode="&#x16b;" horiz-adv-x="1079" 
d="M973 1186h-656l27 196h655zM874 0h-221l17 96q-38 -56 -100.5 -88.5t-131.5 -32.5q-36 0 -66.5 3.5t-63 13t-57.5 24.5t-49 38.5t-38 56t-25 75.5t-9.5 97.5t9.5 122.5l70 495h221l-72 -508q-29 -209 142 -209q72 0 134.5 60t76.5 162l69 495h221z" />
    <glyph glyph-name="Uring" unicode="&#x16e;" horiz-adv-x="1474" 
d="M922 1833q92 0 148 -63t44 -154q-10 -81 -75.5 -137t-149.5 -56q-92 0 -149 63.5t-44 153.5q10 81 76.5 137t149.5 56zM928 1708q-38 0 -68.5 -27t-36.5 -65q-4 -29 12.5 -48.5t45.5 -19.5q38 0 69 27t37 65q3 29 -13.5 48.5t-45.5 19.5zM1464 1423l-121 -852
q-39 -280 -218.5 -438t-440.5 -158q-269 0 -410 164t-102 445l119 839h237l-120 -852q-23 -174 62 -268t222 -94q69 0 136 24.5t125 70t99 118.5t54 162l119 839h239z" />
    <glyph glyph-name="uring" unicode="&#x16f;" horiz-adv-x="1079" 
d="M676 1499q92 0 148 -63t44 -154q-10 -81 -75.5 -136.5t-149.5 -55.5q-91 0 -147.5 63.5t-44.5 153.5q10 81 76 136.5t149 55.5zM682 1374q-38 0 -68 -27t-36 -65q-4 -29 13 -48.5t46 -19.5q38 0 68 27t36 66q3 29 -13.5 48t-45.5 19zM874 0h-221l17 96
q-38 -56 -100.5 -88.5t-131.5 -32.5q-36 0 -66.5 3.5t-63 13t-57.5 24.5t-49 38.5t-38 56t-25 75.5t-9.5 97.5t9.5 122.5l70 495h221l-72 -508q-29 -209 142 -209q72 0 134.5 60t76.5 162l69 495h221z" />
    <glyph glyph-name="Uhungarumlaut" unicode="&#x170;" horiz-adv-x="1474" 
d="M561 1589l141 152q45 45 68 66t54 39t57 18q59 0 94 -38.5t26 -101.5q-5 -45 -39.5 -77t-109.5 -54l-258 -71zM979 1589l141 152q46 46 68.5 66.5t53 38.5t56.5 18q59 0 94.5 -38.5t26.5 -101.5q-5 -45 -39.5 -77t-109.5 -54l-258 -71zM1464 1423l-121 -852
q-39 -280 -218.5 -438t-440.5 -158q-269 0 -410 164t-102 445l119 839h237l-120 -852q-23 -174 62 -268t222 -94q69 0 136 24.5t125 70t99 118.5t54 162l119 839h239z" />
    <glyph glyph-name="uhungarumlaut" unicode="&#x171;" horiz-adv-x="1079" 
d="M309 1204l140 152q65 65 104 94t76 29q59 0 94.5 -38.5t26.5 -101.5q-6 -45 -41.5 -77t-110.5 -54l-258 -71zM727 1204l139 152q65 65 104 94t77 29q59 0 94 -38.5t26 -101.5q-6 -45 -41 -77t-110 -54l-258 -71zM874 0h-221l17 96q-38 -56 -100.5 -88.5t-131.5 -32.5
q-36 0 -66.5 3.5t-63 13t-57.5 24.5t-49 38.5t-38 56t-25 75.5t-9.5 97.5t9.5 122.5l70 495h221l-72 -508q-29 -209 142 -209q72 0 134.5 60t76.5 162l69 495h221z" />
    <glyph glyph-name="Uogonek" unicode="&#x172;" horiz-adv-x="1474" 
d="M1464 1423l-121 -852q-23 -161 -95 -285t-183 -200q-46 -40 -81.5 -89t-39.5 -87q-6 -35 15.5 -48.5t66.5 -4.5l90 14l-35 -131l-65 -14q-114 -20 -177 30t-51 138q5 50 35 94q-73 -13 -139 -13q-269 0 -410 164t-102 445l119 839h237l-120 -852q-23 -174 62 -268
t222 -94q69 0 136 24.5t125 70t99 118.5t54 162l119 839h239z" />
    <glyph glyph-name="uogonek" unicode="&#x173;" horiz-adv-x="1079" 
d="M1001 901l-127 -901q-47 -39 -84.5 -91t-41.5 -91q-6 -35 15.5 -49t65.5 -5l91 15l-35 -131l-66 -15q-114 -20 -176.5 30t-50.5 138q8 66 46.5 112t104.5 87h-90l17 96q-38 -56 -100.5 -88.5t-131.5 -32.5q-36 0 -66.5 3.5t-63 13t-57.5 24.5t-49 38.5t-38 56t-25 75.5
t-9.5 97.5t9.5 122.5l70 495h221l-72 -508q-29 -209 142 -209q72 0 134.5 60t76.5 162l69 495h221z" />
    <glyph glyph-name="Wcircumflex" unicode="&#x174;" horiz-adv-x="2107" 
d="M1036 1522l-133 104l348 238l289 -238l-154 -104l-153 151zM1341 -41l-251 709l-451 -709l-477 1464h256l293 -977l290 463l-182 514h236l96 -276l174 276h244l-332 -524l156 -453l571 977h264z" />
    <glyph glyph-name="wcircumflex" unicode="&#x175;" horiz-adv-x="1533" 
d="M694 1126l-141 105l360 248l297 -248l-166 -105l-149 162zM952 -41l-182 479l-315 -479l-385 942h241l195 -528l188 266l-100 262h215l195 -528l346 528h249z" />
    <glyph glyph-name="Ycircumflex" unicode="&#x176;" horiz-adv-x="1267" 
d="M1122 1626l-153 -104l-154 151l-197 -151l-133 104l349 238zM784 637l-92 -637h-237l92 637l-389 786h262l268 -585l436 585h271z" />
    <glyph glyph-name="ycircumflex" unicode="&#x177;" horiz-adv-x="1005" 
d="M946 1231l-166 -105l-149 162l-201 -162l-141 105l360 248zM262 -492h-239l321 560l-266 833h241l168 -582l336 582h240z" />
    <glyph glyph-name="Ydieresis" unicode="&#x178;" horiz-adv-x="1267" 
d="M600 1843q65 0 104 -49t31 -113q-8 -55 -52.5 -94t-100.5 -39q-61 0 -103 48t-33 110q7 54 55 95.5t99 41.5zM1042 1843q65 0 104.5 -49t31.5 -113q-8 -54 -52.5 -93.5t-101.5 -39.5q-61 0 -102.5 48t-32.5 110q7 54 54.5 95.5t98.5 41.5zM784 637l-92 -637h-237l92 637
l-389 786h262l268 -585l436 585h271z" />
    <glyph glyph-name="Zacute" unicode="&#x179;" horiz-adv-x="1202" 
d="M635 1589l141 152q46 46 68.5 66.5t53 38.5t56.5 18q59 0 94.5 -38.5t26.5 -101.5q-5 -45 -39.5 -77t-109.5 -54l-258 -71zM412 225h710l-32 -225h-1102l882 1198h-686l33 225h1075z" />
    <glyph glyph-name="zacute" unicode="&#x17a;" horiz-adv-x="907" 
d="M436 1163l152 195q96 121 174 121q59 0 94.5 -38.5t26.5 -101.5q-5 -39 -38 -69t-108 -62l-258 -102zM383 197h424l-29 -197h-790l549 705h-387l26 196h750z" />
    <glyph glyph-name="Zdotaccent" unicode="&#x17b;" horiz-adv-x="1202" 
d="M801 1841q65 0 103.5 -49t29.5 -113q-8 -55 -52 -94t-100 -39q-61 0 -102.5 48t-32.5 110q7 54 55 95.5t99 41.5zM412 225h710l-32 -225h-1102l882 1198h-686l33 225h1075z" />
    <glyph glyph-name="zdotaccent" unicode="&#x17c;" horiz-adv-x="907" 
d="M614 1444q65 0 105 -49t31 -113q-8 -55 -52 -94t-100 -39q-61 0 -102.5 48t-32.5 110q7 54 53.5 95.5t97.5 41.5zM383 197h424l-29 -197h-790l549 705h-387l26 196h750z" />
    <glyph glyph-name="Zcaron" unicode="&#x17d;" horiz-adv-x="1202" 
d="M1120 1759l-346 -237l-291 237l154 105l156 -152l194 152zM412 225h710l-32 -225h-1102l882 1198h-686l33 225h1075z" />
    <glyph glyph-name="zcaron" unicode="&#x17e;" horiz-adv-x="907" 
d="M946 1374l-358 -248l-299 248l166 105l153 -162l197 162zM383 197h424l-29 -197h-790l549 705h-387l26 196h750z" />
    <glyph glyph-name="florin" unicode="&#x192;" horiz-adv-x="772" 
d="M907 1479l-33 -209q-133 0 -229 -95t-143 -274h272l-26 -196h-293l26 112l-237 -971h-221l210 859h-182l129 196h101l6 25q63 259 217 406t403 147z" />
    <glyph glyph-name="Acaron" unicode="&#x1cd;" horiz-adv-x="1398" 
d="M862 1522l-291 237l154 105l156 -152l194 152l133 -105zM971 313h-570l-182 -313h-260l885 1464l469 -1464h-252zM909 530l-127 443l-256 -443h383z" />
    <glyph glyph-name="acaron" unicode="&#x1ce;" 
d="M981 1374l-358 -248l-299 248l165 105l154 -162l197 162zM905 0h-221l18 117q-30 -55 -109 -98.5t-171 -43.5q-81 0 -146 27.5t-105.5 75t-67 110t-30 132.5t4.5 143q13 88 48.5 168.5t90.5 147.5t137 107t178 40q79 0 156 -44t103 -110l20 129h221zM578 717
q-113 0 -192 -82t-95 -197q-14 -107 35 -180.5t153 -73.5q92 0 174 83.5t97 195.5q13 102 -39.5 178t-132.5 76z" />
    <glyph glyph-name="Icaron" unicode="&#x1cf;" horiz-adv-x="563" 
d="M793 1759l-347 -237l-290 237l153 105l156 -152l194 152zM344 0h-246l201 1423h246z" />
    <glyph glyph-name="icaron" unicode="&#x1d0;" horiz-adv-x="516" 
d="M719 1374l-359 -248l-299 248l166 105l154 -162l197 162zM307 0h-221l127 901h221z" />
    <glyph glyph-name="Ocaron" unicode="&#x1d1;" horiz-adv-x="1628" 
d="M1321 1759l-346 -237l-291 237l154 105l155 -152l195 152zM946 1448q143 0 271 -59t217 -158.5t132 -239t21 -291.5q-20 -139 -95.5 -272t-185.5 -232.5t-253.5 -160t-290.5 -60.5q-150 0 -279.5 60t-216 160.5t-127.5 239.5t-20 290q20 146 94.5 279t184 231t253 155.5
t295.5 57.5zM938 1214q-133 0 -259.5 -69.5t-213 -188.5t-105.5 -256q-18 -130 29 -242.5t148.5 -180.5t232.5 -68q127 0 253.5 70.5t215 190.5t107.5 255q16 119 -33 232t-150 185t-225 72z" />
    <glyph glyph-name="ocaron" unicode="&#x1d2;" horiz-adv-x="1124" 
d="M1022 1374l-358 -248l-299 248l165 105l154 -162l197 162zM618 926q131 0 236 -66t157 -179t33 -243q-17 -124 -96.5 -231.5t-197 -169.5t-242.5 -62q-131 0 -235.5 66t-156.5 179t-34 243q17 124 96.5 231.5t197 169.5t242.5 62zM612 717q-111 0 -206.5 -83.5
t-110.5 -195.5q-13 -103 52.5 -178.5t166.5 -75.5q111 0 206.5 83.5t110.5 195.5q13 103 -52.5 178.5t-166.5 75.5z" />
    <glyph glyph-name="Ucaron" unicode="&#x1d3;" horiz-adv-x="1474" 
d="M1243 1759l-346 -237l-291 237l154 105l155 -152l195 152zM1464 1423l-121 -852q-39 -280 -218.5 -438t-440.5 -158q-269 0 -410 164t-102 445l119 839h237l-120 -852q-23 -174 62 -268t222 -94q69 0 136 24.5t125 70t99 118.5t54 162l119 839h239z" />
    <glyph glyph-name="ucaron" unicode="&#x1d4;" horiz-adv-x="1079" 
d="M999 1374l-358 -248l-299 248l166 105l154 -162l196 162zM874 0h-221l17 96q-38 -56 -100.5 -88.5t-131.5 -32.5q-36 0 -66.5 3.5t-63 13t-57.5 24.5t-49 38.5t-38 56t-25 75.5t-9.5 97.5t9.5 122.5l70 495h221l-72 -508q-29 -209 142 -209q72 0 134.5 60t76.5 162
l69 495h221z" />
    <glyph glyph-name="Udieresismacron" unicode="&#x1d5;" horiz-adv-x="1474" 
d="M1227 1579h-656l27 197h655zM705 1448q65 0 103.5 -49t29.5 -113q-6 -54 -50.5 -93.5t-101.5 -39.5q-61 0 -102.5 48t-32.5 110q7 54 55 95.5t99 41.5zM1032 1448q65 0 103.5 -49t29.5 -113q-6 -54 -50 -93.5t-101 -39.5q-61 0 -102.5 48t-32.5 110q7 54 54.5 95.5
t98.5 41.5zM1464 1423l-121 -852q-39 -280 -218.5 -438t-440.5 -158q-269 0 -410 164t-102 445l119 839h237l-120 -852q-23 -174 62 -268t222 -94q69 0 136 24.5t125 70t99 118.5t54 162l119 839h239z" />
    <glyph glyph-name="udieresismacron" unicode="&#x1d6;" horiz-adv-x="1079" 
d="M989 1493h-655l26 197h656zM406 1341q65 0 105.5 -48.5t31.5 -112.5q-8 -54 -52.5 -93.5t-101.5 -39.5q-61 0 -103.5 47.5t-33.5 109.5q7 54 55 95.5t99 41.5zM848 1341q65 0 105.5 -48.5t31.5 -112.5q-8 -54 -52.5 -93.5t-101.5 -39.5q-61 0 -103.5 47.5t-33.5 109.5
q7 54 55 95.5t99 41.5zM874 0h-221l17 96q-38 -56 -100.5 -88.5t-131.5 -32.5q-36 0 -66.5 3.5t-63 13t-57.5 24.5t-49 38.5t-38 56t-25 75.5t-9.5 97.5t9.5 122.5l70 495h221l-72 -508q-29 -209 142 -209q72 0 134.5 60t76.5 162l69 495h221z" />
    <glyph glyph-name="Udieresisacute" unicode="&#x1d7;" horiz-adv-x="1474" 
d="M791 1589l141 152q46 46 68.5 66.5t53 38.5t56.5 18q59 0 94.5 -38.5t26.5 -101.5q-5 -45 -40 -77t-110 -54l-258 -71zM705 1448q65 0 103.5 -49t29.5 -113q-6 -54 -50.5 -93.5t-101.5 -39.5q-61 0 -102.5 48t-32.5 110q7 54 55 95.5t99 41.5zM1032 1448q65 0 103.5 -49
t29.5 -113q-6 -54 -50 -93.5t-101 -39.5q-61 0 -102.5 48t-32.5 110q7 54 54.5 95.5t98.5 41.5zM1464 1423l-121 -852q-39 -280 -218.5 -438t-440.5 -158q-269 0 -410 164t-102 445l119 839h237l-120 -852q-23 -174 62 -268t222 -94q69 0 136 24.5t125 70t99 118.5t54 162
l119 839h239z" />
    <glyph glyph-name="udieresisacute" unicode="&#x1d8;" horiz-adv-x="1079" 
d="M549 1470l151 195q96 121 174 121q59 0 94.5 -38t26.5 -101q-5 -39 -37.5 -69t-107.5 -62l-258 -103zM406 1341q65 0 105.5 -48.5t31.5 -112.5q-8 -54 -52.5 -93.5t-101.5 -39.5q-61 0 -103.5 47.5t-33.5 109.5q7 54 55 95.5t99 41.5zM848 1341q65 0 105.5 -48.5
t31.5 -112.5q-8 -54 -52.5 -93.5t-101.5 -39.5q-61 0 -103.5 47.5t-33.5 109.5q7 54 55 95.5t99 41.5zM874 0h-221l17 96q-38 -56 -100.5 -88.5t-131.5 -32.5q-36 0 -66.5 3.5t-63 13t-57.5 24.5t-49 38.5t-38 56t-25 75.5t-9.5 97.5t9.5 122.5l70 495h221l-72 -508
q-29 -209 142 -209q72 0 134.5 60t76.5 162l69 495h221z" />
    <glyph glyph-name="Udieresiscaron" unicode="&#x1d9;" horiz-adv-x="1474" 
d="M1243 1759l-346 -237l-291 237l154 105l155 -152l195 152zM705 1448q65 0 103.5 -49t29.5 -113q-6 -54 -50.5 -93.5t-101.5 -39.5q-61 0 -102.5 48t-32.5 110q7 54 55 95.5t99 41.5zM1032 1448q65 0 103.5 -49t29.5 -113q-6 -54 -50 -93.5t-101 -39.5q-61 0 -102.5 48
t-32.5 110q7 54 54.5 95.5t98.5 41.5zM1464 1423l-121 -852q-39 -280 -218.5 -438t-440.5 -158q-269 0 -410 164t-102 445l119 839h237l-120 -852q-23 -174 62 -268t222 -94q69 0 136 24.5t125 70t99 118.5t54 162l119 839h239z" />
    <glyph glyph-name="udieresiscaron" unicode="&#x1da;" horiz-adv-x="1079" 
d="M1016 1681l-359 -247l-299 247l166 105l154 -162l196 162zM406 1341q65 0 105.5 -48.5t31.5 -112.5q-8 -54 -52.5 -93.5t-101.5 -39.5q-61 0 -103.5 47.5t-33.5 109.5q7 54 55 95.5t99 41.5zM848 1341q65 0 105.5 -48.5t31.5 -112.5q-8 -54 -52.5 -93.5t-101.5 -39.5
q-61 0 -103.5 47.5t-33.5 109.5q7 54 55 95.5t99 41.5zM874 0h-221l17 96q-38 -56 -100.5 -88.5t-131.5 -32.5q-36 0 -66.5 3.5t-63 13t-57.5 24.5t-49 38.5t-38 56t-25 75.5t-9.5 97.5t9.5 122.5l70 495h221l-72 -508q-29 -209 142 -209q72 0 134.5 60t76.5 162l69 495h221
z" />
    <glyph glyph-name="Udieresisgrave" unicode="&#x1db;" horiz-adv-x="1474" 
d="M983 1522l-229 75q-140 45 -125 152q7 53 45 84t88 31q32 0 61.5 -20t47.5 -42.5t49 -68.5l108 -144zM705 1448q65 0 103.5 -49t29.5 -113q-6 -54 -50.5 -93.5t-101.5 -39.5q-61 0 -102.5 48t-32.5 110q7 54 55 95.5t99 41.5zM1032 1448q65 0 103.5 -49t29.5 -113
q-6 -54 -50 -93.5t-101 -39.5q-61 0 -102.5 48t-32.5 110q7 54 54.5 95.5t98.5 41.5zM1464 1423l-121 -852q-39 -280 -218.5 -438t-440.5 -158q-269 0 -410 164t-102 445l119 839h237l-120 -852q-23 -174 62 -268t222 -94q69 0 136 24.5t125 70t99 118.5t54 162l119 839h239
z" />
    <glyph glyph-name="udieresisgrave" unicode="&#x1dc;" horiz-adv-x="1079" 
d="M731 1413l-221 107q-68 33 -96 68.5t-21 82.5q7 53 45 84t88 31q87 0 150 -133l110 -183zM406 1341q65 0 105.5 -48.5t31.5 -112.5q-8 -54 -52.5 -93.5t-101.5 -39.5q-61 0 -103.5 47.5t-33.5 109.5q7 54 55 95.5t99 41.5zM848 1341q65 0 105.5 -48.5t31.5 -112.5
q-8 -54 -52.5 -93.5t-101.5 -39.5q-61 0 -103.5 47.5t-33.5 109.5q7 54 55 95.5t99 41.5zM874 0h-221l17 96q-38 -56 -100.5 -88.5t-131.5 -32.5q-36 0 -66.5 3.5t-63 13t-57.5 24.5t-49 38.5t-38 56t-25 75.5t-9.5 97.5t9.5 122.5l70 495h221l-72 -508q-29 -209 142 -209
q72 0 134.5 60t76.5 162l69 495h221z" />
    <glyph glyph-name="Scommaaccent" unicode="&#x218;" horiz-adv-x="1245" 
d="M745 575l-210 82q-321 125 -277 428q23 163 156.5 263t310.5 100q129 0 237.5 -38.5t241.5 -115.5l-131 -200q-112 66 -187 93t-143 27q-62 0 -110 -17.5t-75.5 -45t-42 -56t-17.5 -55.5q-15 -99 98 -145l262 -109q303 -125 262 -407q-17 -123 -94 -216.5t-189.5 -140.5
t-242.5 -47q-115 0 -261.5 54.5t-283.5 144.5l131 197q244 -162 432 -162q112 0 184 57t83 137q8 63 -27 103t-107 69zM346 -674l57 404q7 58 53.5 100.5t98.5 42.5q65 0 104.5 -49t30.5 -113q-5 -37 -22 -61l-262 -324h-60z" />
    <glyph glyph-name="scommaaccent" unicode="&#x219;" horiz-adv-x="868" 
d="M33 104l102 156q64 -38 150.5 -67t132.5 -29q42 0 74 26t38 66q2 18 -0.5 31t-20.5 31.5t-54 33.5l-142 60q-80 34 -128.5 97t-37.5 146q19 126 114.5 198.5t193.5 72.5q96 0 171.5 -25t168.5 -80l-107 -157q-56 32 -117 52.5t-94 20.5q-45 0 -74 -25t-36 -53
q-18 -57 51 -88l162 -69q86 -36 132 -100t36 -142q-18 -119 -113 -202t-223 -83q-74 0 -182.5 36t-196.5 93zM143 -674l58 404q7 58 53 100.5t98 42.5q65 0 104.5 -49t30.5 -113q-5 -37 -22 -61l-262 -324h-60z" />
    <glyph glyph-name="uni021A" unicode="&#x21a;" horiz-adv-x="1095" 
d="M1182 1198h-410l-168 -1198h-237l168 1198h-410l33 225h1056zM246 -674l57 404q7 58 53.5 100.5t98.5 42.5q65 0 104.5 -49t30.5 -113q-5 -35 -23 -61l-262 -324h-59z" />
    <glyph glyph-name="uni021B" unicode="&#x21b;" horiz-adv-x="735" 
d="M492 901h219l-27 -196h-219l-59 -426q-6 -42 6.5 -68.5t44.5 -26.5q30 0 61 17.5t53 46.5l21 -187q-79 -86 -215 -86q-96 0 -156 74t-43 189l66 467h-176l473 563zM123 -674l57 404q7 58 53.5 100.5t98.5 42.5q65 0 104.5 -49t30.5 -113q-5 -35 -23 -61l-262 -324h-59z
" />
    <glyph glyph-name="dotlessj" unicode="&#x237;" horiz-adv-x="532" 
d="M453 901l-121 -854q-15 -118 -77.5 -255t-160.5 -228l-170 112q72 76 124.5 184t64.5 199l118 842h222z" />
    <glyph glyph-name="circumflex" unicode="&#x2c6;" horiz-adv-x="956" 
d="M920 1231l-166 -105l-150 162l-201 -162l-141 105l361 248z" />
    <glyph glyph-name="caron" unicode="&#x2c7;" horiz-adv-x="956" 
d="M938 1374l-358 -248l-299 248l165 105l154 -162l197 162z" />
    <glyph glyph-name="breve" unicode="&#x2d8;" horiz-adv-x="958" 
d="M784 1448h148q-21 -138 -109 -224.5t-231 -86.5q-101 0 -168.5 44.5t-92.5 113.5t-16 153h158q-12 -74 14.5 -122t100.5 -48q83 0 136 53t60 117z" />
    <glyph glyph-name="dotaccent" unicode="&#x2d9;" horiz-adv-x="802" 
d="M530 1444q65 0 105 -49t31 -113q-8 -55 -52 -94t-100 -39q-61 0 -102.5 48t-32.5 110q7 54 53.5 95.5t97.5 41.5z" />
    <glyph glyph-name="ring" unicode="&#x2da;" horiz-adv-x="739" 
d="M508 1499q92 0 148 -63t44 -154q-10 -81 -75.5 -136.5t-149.5 -55.5q-91 0 -147.5 63.5t-44.5 153.5q10 81 76 136.5t149 55.5zM514 1374q-38 0 -68 -27t-36 -65q-4 -29 13 -48.5t46 -19.5q38 0 68 27t36 66q3 29 -13.5 48t-45.5 19z" />
    <glyph glyph-name="ogonek" unicode="&#x2db;" horiz-adv-x="649" 
d="M223 0h131q-48 -40 -85.5 -91.5t-41.5 -90.5q-6 -35 15.5 -49t66.5 -5l90 15l-34 -131l-66 -15q-114 -20 -176.5 30t-50.5 138q8 66 46.5 112t104.5 87z" />
    <glyph glyph-name="tilde" unicode="&#x2dc;" horiz-adv-x="1032" 
d="M901 1430l98 -119q-107 -144 -256 -144q-42 0 -85 21.5t-77.5 43t-56.5 21.5q-47 0 -86.5 -27.5t-64.5 -66.5l-99 119q105 141 256 141q42 0 85.5 -21t78 -42t56.5 -21q47 0 87.5 28.5t63.5 66.5z" />
    <glyph glyph-name="hungarumlaut" unicode="&#x2dd;" horiz-adv-x="1198" 
d="M289 1204l139 152q65 65 104 94t76 29q59 0 94.5 -38.5t26.5 -101.5q-6 -45 -41 -77t-110 -54l-259 -71zM707 1204l139 152q65 65 104 94t76 29q59 0 94.5 -38.5t26.5 -101.5q-6 -45 -41.5 -77t-110.5 -54l-258 -71z" />
    <glyph glyph-name="commaaccentcomb" unicode="&#x326;" horiz-adv-x="0" 
d="M500 -674l57 404q7 58 53.5 100.5t98.5 42.5q65 0 104.5 -49t30.5 -113q-5 -35 -23 -61l-262 -324h-59z" />
    <glyph glyph-name="Delta" unicode="&#x394;" horiz-adv-x="1423" 
d="M1337 0h-1378l891 1464zM348 225h672l-229 768z" />
    <glyph glyph-name="Omega" unicode="&#x3a9;" horiz-adv-x="1546" 
d="M68 217h202q-196 196 -151 508q21 147 88.5 279.5t169 230.5t239 155.5t289.5 57.5q191 0 339 -99.5t219 -272t42 -376.5q-22 -151 -97.5 -273.5t-186.5 -209.5h196l-31 -217h-532l31 217q144 30 245.5 158.5t124.5 288.5q20 150 -17 275.5t-126.5 200t-214.5 74.5
q-203 0 -356.5 -160.5t-188.5 -414.5q-21 -150 46 -271t202 -151l-31 -217h-532z" />
    <glyph glyph-name="mu" unicode="&#x3bc;" horiz-adv-x="1083" 
d="M1006 901l-72 -508q-15 -105 -45 -182t-67 -121.5t-87 -71t-95 -35t-101 -8.5q-75 0 -132 38t-81 96l-88 -601h-222l197 1393h221l-72 -508q-14 -101 24.5 -155t102.5 -54q75 0 142.5 55t83.5 167l69 495h222z" />
    <glyph glyph-name="pi" unicode="&#x3c0;" horiz-adv-x="1376" 
d="M1335 705h-211l-100 -705h-221l100 705h-418l-100 -705h-221l100 705h-211l27 196h1282z" />
    <glyph glyph-name="Wgrave" unicode="&#x1e80;" horiz-adv-x="2107" 
d="M1311 1522l-230 75q-140 45 -125 152q7 53 45.5 84t88.5 31q24 0 45 -9t42 -31t33.5 -39t36.5 -52l109 -144zM1341 -41l-251 709l-451 -709l-477 1464h256l293 -977l290 463l-182 514h236l96 -276l174 276h244l-332 -524l156 -453l571 977h264z" />
    <glyph glyph-name="wgrave" unicode="&#x1e81;" horiz-adv-x="1533" 
d="M967 1106l-222 106q-68 32 -95.5 68.5t-20.5 83.5q7 53 45 84t88 31q86 0 149 -133l111 -183zM952 -41l-182 479l-315 -479l-385 942h241l195 -528l188 266l-100 262h215l195 -528l346 528h249z" />
    <glyph glyph-name="Wacute" unicode="&#x1e82;" horiz-adv-x="2107" 
d="M1106 1522l-33 67l141 152q45 45 68 66t54 39t57 18q59 0 94 -38.5t26 -101.5q-5 -45 -39.5 -77t-109.5 -54zM1341 -41l-251 709l-451 -709l-477 1464h256l293 -977l290 463l-182 514h236l96 -276l174 276h244l-332 -524l156 -453l571 977h264z" />
    <glyph glyph-name="wacute" unicode="&#x1e83;" horiz-adv-x="1533" 
d="M762 1106l-43 57l151 195q96 121 174 121q59 0 94.5 -38.5t26.5 -101.5q-5 -39 -37.5 -69t-107.5 -62zM952 -41l-182 479l-315 -479l-385 942h241l195 -528l188 266l-100 262h215l195 -528l346 528h249z" />
    <glyph glyph-name="Wdieresis" unicode="&#x1e84;" horiz-adv-x="2107" 
d="M999 1548q-61 0 -102.5 48t-32.5 110q7 54 55 95.5t99 41.5q65 0 104 -49t31 -113q-8 -54 -52.5 -93.5t-101.5 -39.5zM1442 1548q-61 0 -102.5 48t-32.5 110q7 54 54.5 95.5t98.5 41.5q65 0 104 -49t31 -113q-8 -55 -52.5 -94t-100.5 -39zM1341 -41l-251 709l-451 -709
l-477 1464h256l293 -977l290 463l-182 514h236l96 -276l174 276h244l-332 -524l156 -453l571 977h264z" />
    <glyph glyph-name="wdieresis" unicode="&#x1e85;" horiz-adv-x="1533" 
d="M659 1149q-61 0 -103.5 48t-33.5 110q7 54 55 95.5t99 41.5q65 0 105.5 -49t31.5 -113q-8 -54 -52.5 -93.5t-101.5 -39.5zM1102 1149q-61 0 -103.5 48t-33.5 110q7 54 54.5 95.5t98.5 41.5q65 0 105.5 -49t31.5 -113q-8 -55 -52.5 -94t-100.5 -39zM952 -41l-182 479
l-315 -479l-385 942h241l195 -528l188 266l-100 262h215l195 -528l346 528h249z" />
    <glyph glyph-name="Ygrave" unicode="&#x1ef2;" horiz-adv-x="1267" 
d="M893 1522l-229 75q-140 45 -125 152q7 53 45 84t88 31q24 0 45 -9t42 -31t33.5 -39t36.5 -52l109 -144zM784 637l-92 -637h-237l92 637l-389 786h262l268 -585l436 585h271z" />
    <glyph glyph-name="ygrave" unicode="&#x1ef3;" horiz-adv-x="1005" 
d="M702 1106l-221 106q-68 32 -95.5 68.5t-20.5 83.5q7 53 45 84t88 31q86 0 149 -133l111 -183zM262 -492h-239l321 560l-266 833h241l168 -582l336 582h240z" />
    <glyph glyph-name="endash" unicode="&#x2013;" horiz-adv-x="1212" 
d="M1075 424h-942l31 217h942z" />
    <glyph glyph-name="emdash" unicode="&#x2014;" horiz-adv-x="1998" 
d="M1862 424h-1729l31 217h1728z" />
    <glyph glyph-name="quoteleft" unicode="&#x2018;" horiz-adv-x="538" 
d="M555 1423l-57 -403q-7 -57 -54.5 -100t-99.5 -43q-65 0 -104 48.5t-31 112.5q5 35 24 62l263 323h59z" />
    <glyph glyph-name="quoteright" unicode="&#x2019;" horiz-adv-x="538" 
d="M188 901l58 404q7 58 54 100.5t99 42.5q64 0 96 -48t23 -114q-1 -11 -43 -80l-227 -305h-60z" />
    <glyph glyph-name="quotesinglbase" unicode="&#x201a;" horiz-adv-x="538" 
d="M25 -274l57 403q7 57 54.5 100t99.5 43q65 0 104.5 -48.5t30.5 -112.5q-4 -31 -23 -62l-264 -323h-59z" />
    <glyph glyph-name="quotedblleft" unicode="&#x201c;" horiz-adv-x="931" 
d="M555 1423l-57 -403q-7 -57 -54.5 -100t-99.5 -43q-65 0 -104 48.5t-31 112.5q5 35 24 62l263 323h59zM948 1423l-57 -403q-7 -57 -54.5 -100t-99.5 -43q-65 0 -104 48.5t-31 112.5q5 33 25 62l262 323h59z" />
    <glyph glyph-name="quotedblright" unicode="&#x201d;" horiz-adv-x="931" 
d="M190 901l58 404q7 58 54 100.5t99 42.5q65 0 104 -49t30 -113q-5 -35 -23 -61l-262 -324h-60zM584 901l57 404q7 57 54.5 100t99.5 43q65 0 103.5 -49t29.5 -113q-5 -35 -23 -61l-262 -324h-59z" />
    <glyph glyph-name="quotedblbase" unicode="&#x201e;" horiz-adv-x="931" 
d="M25 -274l57 403q7 57 54.5 100t99.5 43q65 0 104.5 -48.5t30.5 -112.5q-4 -31 -23 -62l-264 -323h-59zM418 -274l57 403q7 57 54.5 100t99.5 43q65 0 104.5 -48.5t30.5 -112.5q-4 -31 -23 -62l-264 -323h-59z" />
    <glyph glyph-name="dagger" unicode="&#x2020;" horiz-adv-x="1230" 
d="M1100 788h-316l-153 -1095h-240l154 1095h-316l33 226h316l57 409h239l-57 -409h316z" />
    <glyph glyph-name="daggerdbl" unicode="&#x2021;" horiz-adv-x="1230" 
d="M784 788l-63 -460h315l-32 -226h-316l-57 -409h-240l58 409h-316l33 226h315l64 460h-316l33 226h316l57 409h239l-57 -409h316l-33 -226h-316z" />
    <glyph glyph-name="bullet" unicode="&#x2022;" horiz-adv-x="847" 
d="M473 874q114 0 184.5 -81t53.5 -195q-15 -106 -100 -181t-187 -75q-115 0 -185 82.5t-53 198.5q12 104 96.5 177.5t190.5 73.5z" />
    <glyph glyph-name="ellipsis" unicode="&#x2026;" horiz-adv-x="1630" 
d="M223 270q65 0 104.5 -47.5t30.5 -111.5q-8 -55 -52.5 -95.5t-100.5 -40.5q-60 0 -101 48.5t-34 111.5q7 53 54 94t99 41zM780 270q65 0 104.5 -47.5t30.5 -111.5q-8 -55 -52.5 -95.5t-100.5 -40.5q-60 0 -101 48.5t-34 111.5q7 53 54 94t99 41zM1337 270q65 0 105 -47.5
t31 -111.5q-8 -55 -53 -95.5t-101 -40.5q-60 0 -101 48.5t-34 111.5q7 53 54 94t99 41z" />
    <glyph glyph-name="perthousand" unicode="&#x2030;" horiz-adv-x="2273" 
d="M514 1448q132 0 215.5 -94.5t63.5 -227.5q-17 -123 -118.5 -207.5t-223.5 -84.5q-130 0 -214.5 92t-66.5 225q19 124 120.5 210.5t223.5 86.5zM403 0h-233l1073 1423h234zM516 1290q-71 0 -125.5 -47t-64.5 -117q-8 -59 27 -97t96 -38q67 0 123 46.5t65 113.5
q9 60 -27 99.5t-94 39.5zM1196 590q132 0 216 -95t65 -227q-17 -119 -120 -206t-224 -87q-130 0 -215 94.5t-66 223.5q19 124 120.5 210.5t223.5 86.5zM1901 590q131 0 215 -94.5t65 -227.5q-17 -119 -120 -206t-224 -87q-130 0 -215 94.5t-66 223.5q19 124 120.5 210.5
t224.5 86.5zM1198 432q-70 0 -124.5 -48t-63.5 -116q-9 -60 24.5 -97.5t95.5 -37.5q70 0 125 46t64 114q9 59 -26 99t-95 40zM1903 432q-70 0 -125 -48t-64 -116q-9 -60 25 -97.5t96 -37.5q70 0 124.5 46t63.5 114q9 59 -25.5 99t-94.5 40z" />
    <glyph glyph-name="guilsinglleft" unicode="&#x2039;" horiz-adv-x="679" 
d="M582 748l-281 -293l203 -283l-152 -109l-266 392l369 401z" />
    <glyph glyph-name="guilsinglright" unicode="&#x203a;" horiz-adv-x="679" 
d="M598 455l-365 -392l-131 109l281 283l-199 293l152 108z" />
    <glyph glyph-name="fraction" unicode="&#x2044;" horiz-adv-x="1085" 
d="M164 0h-219l1056 1423h218z" />
    <glyph glyph-name="foursuperior" unicode="&#x2074;" horiz-adv-x="722" 
d="M612 989h76l-18 -133h-76l-16 -113h-144l17 115h-383l610 606zM354 975h127l25 155z" />
    <glyph glyph-name="Euro" unicode="&#x20ac;" horiz-adv-x="1636" 
d="M885 449h-334q45 -110 145 -175t234 -65q102 0 208.5 53t182.5 129l190 -166q-276 -250 -589 -250q-221 0 -394.5 131.5t-230.5 342.5h-236l27 196h186q0 33 7 80l4 27h-181l27 196h217q104 218 311.5 359t446.5 141q176 0 303 -69t201 -185l-209 -147q-131 167 -303 167
q-127 0 -256.5 -73.5t-214.5 -192.5h424l-66 -196h-453q-7 -28 -10 -52q-4 -36 -4 -55h430z" />
    <glyph glyph-name="trademark" unicode="&#x2122;" horiz-adv-x="1570" 
d="M1542 743h-151l59 400l-270 -234l-209 234l-60 -400h-149l100 725l336 -362l444 362zM709 1280h-181l-75 -537h-154l76 537h-182l20 143h516z" />
    <glyph glyph-name="partialdiff" unicode="&#x2202;" horiz-adv-x="1085" 
d="M616 1499l226 -12q126 -245 173 -550.5t-16 -559.5q-52 -181 -187.5 -291.5t-322.5 -110.5q-131 0 -233 66t-151 178.5t-31 243.5q17 124 95.5 231.5t190.5 169.5t226 62q62 0 124.5 -19t92.5 -43q-7 128 -60 305t-127 330zM594 717q-102 0 -189 -75t-106 -204
q-14 -105 42 -179.5t155 -74.5q109 0 194.5 82.5t100.5 196.5q18 120 -42 187t-155 67z" />
    <glyph glyph-name="emptyset" unicode="&#x2205;" horiz-adv-x="1382" 
d="M1393 1063l-138 -121q96 -166 70 -364q-17 -116 -79.5 -226t-154 -193t-210.5 -133.5t-242 -50.5q-200 0 -346 121l-137 -121l-123 140l137 121q-97 165 -70 366q23 162 121 299.5t248.5 219t318.5 81.5q195 0 345 -121l137 121zM328 375l649 569q-90 64 -193 64
q-169 0 -312.5 -128t-168.5 -302q-15 -108 25 -203zM1094 799l-650 -570q88 -59 199 -59q80 0 162 35.5t147.5 93.5t112 138t57.5 165q15 103 -28 197z" />
    <glyph glyph-name="product" unicode="&#x220f;" horiz-adv-x="1464" 
d="M1563 1280h-154l-201 -1423h-237l200 1423h-641l-200 -1423h-238l201 1423h-154l29 205h1423z" />
    <glyph glyph-name="summation" unicode="&#x2211;" horiz-adv-x="1501" 
d="M1401 1260h-752l320 -619l-549 -621h874l-32 -225h-1328l758 846l-434 844h1174z" />
    <glyph glyph-name="minus" unicode="&#x2212;" horiz-adv-x="1183" 
d="M1047 424h-914l31 217h913z" />
    <glyph glyph-name="radical" unicode="&#x221a;" horiz-adv-x="1470" 
d="M557 -39l-285 617h-237l31 221h364v-2l180 -400l1043 1485h268z" />
    <glyph glyph-name="infinity" unicode="&#x221e;" horiz-adv-x="1755" 
d="M1374 1190q167 0 271 -121t81 -287q-23 -158 -152.5 -273t-287.5 -116q-122 2 -224.5 59.5t-154.5 155.5q-80 -95 -196 -153t-228 -58q-167 0 -272 121t-82 287q23 158 153.5 272.5t288.5 116.5q122 -2 224.5 -59.5t154.5 -155.5q80 95 196 153t228 58zM506 625
q144 0 297 176q-37 69 -96.5 116.5t-128.5 47.5q-68 0 -125 -56.5t-66 -128.5q-9 -61 25.5 -108t93.5 -47zM1473 807q8 62 -27 109t-94 47q-144 0 -297 -177q37 -69 96.5 -116t128.5 -47q68 0 125 56t68 128z" />
    <glyph glyph-name="integral" unicode="&#x222b;" horiz-adv-x="1019" 
d="M424 614l78 312q62 259 215.5 406t402.5 147l-30 -209q-135 0 -233 -98.5t-142 -280.5l-70 -277l-76 -311q-63 -259 -216 -406t-402 -147l29 209q136 0 234 98.5t142 280.5z" />
    <glyph glyph-name="approxequal" unicode="&#x2248;" horiz-adv-x="1376" 
d="M1126 950l164 -135q-77 -103 -162 -147.5t-200 -44.5q-61 0 -127 30.5t-124.5 61t-101.5 30.5q-71 0 -131.5 -33.5t-95.5 -86.5l-164 135q83 108 170 160.5t199 52.5q48 0 100 -19.5t89 -43t81.5 -43t79.5 -19.5q76 0 135 26t88 76zM1069 541l164 -135
q-79 -104 -163.5 -148.5t-199.5 -44.5q-49 0 -101.5 19t-89.5 42.5t-81.5 42.5t-79.5 19q-71 0 -131.5 -34t-95.5 -87l-164 135q83 108 170 160.5t199 52.5q48 0 100 -19.5t89 -43t81.5 -43t79.5 -19.5q75 0 134.5 26.5t88.5 76.5z" />
    <glyph glyph-name="notequal" unicode="&#x2260;" horiz-adv-x="1249" 
d="M799 629l-131 -193h329l-30 -217h-445l-92 -137h-254l92 137h-215l31 217h330l131 193h-434l30 217h549l92 137h254l-92 -137h111l-31 -217h-225z" />
    <glyph glyph-name="lessequal" unicode="&#x2264;" horiz-adv-x="1144" 
d="M1098 934l-496 -221l432 -226l-26 -217l-832 443l952 444zM967 0h-914l31 219h913z" />
    <glyph glyph-name="greaterequal" unicode="&#x2265;" horiz-adv-x="1148" 
d="M1042 713l-946 -443l27 217l491 226l-428 221l31 223zM969 0h-914l31 217h913z" />
    <glyph glyph-name="lozenge" unicode="&#x25ca;" horiz-adv-x="1384" 
d="M1384 625l-755 -666l-576 666l756 665zM360 625l304 -359l413 359l-303 358z" />
    <glyph glyph-name="W.ss01" horiz-adv-x="2107" 
d="M1341 -41l-251 709l-451 -709l-477 1464h256l293 -977l440 701l242 -701l571 977h264z" />
    <glyph glyph-name="Wacute.ss01" horiz-adv-x="2107" 
d="M1106 1522l-33 67l141 152q45 45 68 66t54 39t57 18q59 0 94 -38.5t26 -101.5q-5 -45 -39.5 -77t-109.5 -54zM1341 -41l-251 709l-451 -709l-477 1464h256l293 -977l440 701l242 -701l571 977h264z" />
    <glyph glyph-name="Wcircumflex.ss01" horiz-adv-x="2107" 
d="M1036 1522l-133 104l348 238l289 -238l-154 -104l-153 151zM1341 -41l-251 709l-451 -709l-477 1464h256l293 -977l440 701l242 -701l571 977h264z" />
    <glyph glyph-name="Wdieresis.ss01" horiz-adv-x="2107" 
d="M999 1548q-61 0 -102.5 48t-32.5 110q7 54 55 95.5t99 41.5q65 0 104 -49t31 -113q-8 -54 -52.5 -93.5t-101.5 -39.5zM1442 1548q-61 0 -102.5 48t-32.5 110q7 54 54.5 95.5t98.5 41.5q65 0 104 -49t31 -113q-8 -55 -52.5 -94t-100.5 -39zM1341 -41l-251 709l-451 -709
l-477 1464h256l293 -977l440 701l242 -701l571 977h264z" />
    <glyph glyph-name="Wgrave.ss01" horiz-adv-x="2107" 
d="M1311 1522l-230 75q-140 45 -125 152q7 53 45.5 84t88.5 31q24 0 45 -9t42 -31t33.5 -39t36.5 -52l109 -144zM1341 -41l-251 709l-451 -709l-477 1464h256l293 -977l440 701l242 -701l571 977h264z" />
    <glyph glyph-name="w.ss01" horiz-adv-x="1533" 
d="M952 -41l-182 481l-315 -481l-385 942h241l195 -528l325 465l173 -465l346 528h249z" />
    <glyph glyph-name="wacute.ss01" horiz-adv-x="1533" 
d="M762 1106l-43 57l151 195q96 121 174 121q59 0 94.5 -38.5t26.5 -101.5q-5 -39 -37.5 -69t-107.5 -62zM952 -41l-182 481l-315 -481l-385 942h241l195 -528l325 465l173 -465l346 528h249z" />
    <glyph glyph-name="wcircumflex.ss01" horiz-adv-x="1533" 
d="M694 1126l-141 105l360 248l297 -248l-166 -105l-149 162zM952 -41l-182 481l-315 -481l-385 942h241l195 -528l325 465l173 -465l346 528h249z" />
    <glyph glyph-name="wdieresis.ss01" horiz-adv-x="1533" 
d="M659 1149q-61 0 -103.5 48t-33.5 110q7 54 55 95.5t99 41.5q65 0 105.5 -49t31.5 -113q-8 -54 -52.5 -93.5t-101.5 -39.5zM1102 1149q-61 0 -103.5 48t-33.5 110q7 54 54.5 95.5t98.5 41.5q65 0 105.5 -49t31.5 -113q-8 -55 -52.5 -94t-100.5 -39zM952 -41l-182 481
l-315 -481l-385 942h241l195 -528l325 465l173 -465l346 528h249z" />
    <glyph glyph-name="wgrave.ss01" horiz-adv-x="1533" 
d="M967 1106l-222 106q-68 32 -95.5 68.5t-20.5 83.5q7 53 45 84t88 31q86 0 149 -133l111 -183zM952 -41l-182 481l-315 -481l-385 942h241l195 -528l325 465l173 -465l346 528h249z" />
    <glyph glyph-name="uni00660074" horiz-adv-x="1355" 
d="M1116 705l-59 -426q-6 -42 6.5 -68.5t44.5 -26.5q30 0 62 17.5t53 46.5l20 -187q-79 -86 -215 -86q-96 0 -156 74t-43 189l66 467h-422l-100 -705h-221l100 705h-201l129 196h99l2 21q18 126 60.5 226t110.5 175t168.5 115.5t227.5 40.5l-19 -209q-134 0 -218.5 -94.5
t-110.5 -274.5h385l307 367l-49 -367h219l-27 -196h-219z" />
    <glyph glyph-name="acute.case" horiz-adv-x="739" 
d="M322 1589l141 152q46 46 68.5 66.5t53 38.5t56.5 18q59 0 94.5 -38.5t26.5 -101.5q-5 -45 -40 -77t-110 -54l-258 -71z" />
    <glyph glyph-name="breve.case" horiz-adv-x="958" 
d="M840 1845l145 -12q-21 -138 -108 -224.5t-230 -86.5q-102 0 -169.5 45t-93 117t-13.5 161l155 -12q-10 -75 15.5 -122.5t99.5 -47.5q84 0 136.5 54.5t62.5 127.5z" />
    <glyph glyph-name="caron.case" horiz-adv-x="956" 
d="M983 1759l-346 -237l-291 237l154 105l155 -152l195 152z" />
    <glyph glyph-name="circumflex.case" horiz-adv-x="956" 
d="M965 1626l-154 -104l-154 151l-196 -151l-133 104l348 238z" />
    <glyph glyph-name="dieresis.case" horiz-adv-x="1064" 
d="M498 1843q65 0 104 -49t31 -113q-8 -54 -52.5 -93.5t-101.5 -39.5q-61 0 -102.5 48t-32.5 110q7 54 55 95.5t99 41.5zM940 1843q65 0 104 -49t31 -113q-8 -55 -52.5 -94t-100.5 -39q-61 0 -103 48t-33 110q7 54 55 95.5t99 41.5z" />
    <glyph glyph-name="dotaccent.case" horiz-adv-x="802" 
d="M588 1841q65 0 103.5 -49t29.5 -113q-8 -55 -52 -94t-100 -39q-61 0 -102.5 48t-32.5 110q7 54 55 95.5t99 41.5z" />
    <glyph glyph-name="grave.case" horiz-adv-x="739" 
d="M698 1522l-229 75q-140 45 -125 152q7 53 45 84t88 31q32 0 61.5 -20t47.5 -42.5t49 -68.5l108 -144z" />
    <glyph glyph-name="hungarumlaut.case" horiz-adv-x="1198" 
d="M342 1589l141 152q45 45 68 66t54 39t57 18q59 0 94 -38.5t26 -101.5q-5 -45 -39.5 -77t-109.5 -54l-258 -71zM760 1589l141 152q46 46 68.5 66.5t53 38.5t56.5 18q59 0 94.5 -38.5t26.5 -101.5q-5 -45 -39.5 -77t-109.5 -54l-258 -71z" />
    <glyph glyph-name="macron.case" horiz-adv-x="1136" 
d="M1059 1579h-656l27 197h655z" />
    <glyph glyph-name="ring.case" horiz-adv-x="739" 
d="M555 1833q92 0 148.5 -63t44.5 -154q-10 -81 -76 -137t-150 -56q-91 0 -148 63.5t-44 153.5q10 81 76.5 137t148.5 56zM561 1708q-38 0 -68 -27t-36 -65q-5 -29 11.5 -48.5t45.5 -19.5q38 0 69.5 27t37.5 65q3 29 -14 48.5t-46 19.5z" />
    <glyph glyph-name="tilde.case" horiz-adv-x="1032" 
d="M958 1829l99 -119q-109 -143 -256 -143q-42 0 -85 21.5t-77.5 43t-56.5 21.5q-47 0 -88 -28t-66 -66l-98 118q106 142 256 142q42 0 85 -21t77.5 -42t56.5 -21q47 0 88.5 28t64.5 66z" />
    </font>
</defs>
</svg>
