<?xml version="1.0" standalone="no"?>
<!DOCTYPE svg PUBLIC "-//W3C//DTD SVG 1.1//EN" "http://www.w3.org/Graphics/SVG/1.1/DTD/svg11.dtd" >
<svg xmlns="http://www.w3.org/2000/svg" xmlns:xlink="http://www.w3.org/1999/xlink" version="1.1">
<metadata>
Created by FontForge 20201107 at Thu Apr 18 22:51:53 2024
 By 
Copyright (c) 2013 by Mattia Bonanomi. All rights reserved.
</metadata>
<defs>
<font id="MTTMilano-BlackItalic" horiz-adv-x="1173" >
  <font-face 
    font-family="MTT Milano Black"
    font-weight="900"
    font-style="italic"
    font-stretch="normal"
    units-per-em="2048"
    panose-1="0 0 10 0 0 0 0 0 0 0"
    ascent="1556"
    descent="-492"
    x-height="901"
    cap-height="1423"
    bbox="-258 -686 2376 1882"
    underline-thickness="102"
    underline-position="-204"
    slope="-8"
    unicode-range="U+000D-FB02"
  />
<missing-glyph horiz-adv-x="1669" 
d="M967 1448q219 0 381.5 -102.5t235 -274t44.5 -375.5q-20 -146 -94.5 -278t-185 -230t-258.5 -155.5t-308 -57.5q-219 0 -382 103t-236 275t-45 376q20 146 94.5 278t186 229t259.5 154.5t308 57.5zM1182 999l125 166q-94 56 -179 84.5t-180 28.5q-143 0 -253 -85
t-130 -220q-15 -113 35 -187t170 -120l162 -62q125 -50 110 -155q-6 -51 -53.5 -87t-124.5 -36q-148 0 -342 131l-125 -166q100 -66 212.5 -106t195.5 -40q106 0 198 39.5t155 117t77 179.5q14 101 -31.5 172t-163.5 119l-200 84q-98 40 -84 135q6 39 43.5 73t118.5 34
q58 0 116.5 -23t147.5 -76z" />
    <glyph glyph-name="fi" unicode="fi" horiz-adv-x="1294" 
d="M1225 901l-127 -901h-279l96 686h-387l-96 -686h-278l96 686h-203l143 215h91l2 12q37 264 195.5 415t404.5 151l-21 -226q-110 -2 -193.5 -98t-109.5 -254h666zM1151 1448q76 0 118.5 -50t33.5 -118q-8 -57 -56.5 -100t-116.5 -43q-75 0 -116.5 53.5t-32.5 122.5
q8 56 55.5 95.5t114.5 39.5z" />
    <glyph glyph-name="fl" unicode="fl" horiz-adv-x="1368" 
d="M883 1479l-21 -226q-110 -2 -193.5 -98t-109.5 -254h248l-31 -215h-248l-96 -686h-278l96 686h-203l143 215h91l2 12q37 264 195.5 415t404.5 151zM1362 1454l-205 -1454h-278l204 1454h279z" />
    <glyph glyph-name="f_f" unicode="ff" horiz-adv-x="1413" 
d="M1548 1479l-20 -226q-110 -2 -193.5 -98t-109.5 -254h248l-31 -215h-248l-96 -686h-279l96 686h-385l-96 -686h-278l96 686h-203l144 215h90l2 12q37 264 195.5 415t404.5 151l-21 -226q-110 -2 -193.5 -98t-109.5 -254h385l2 12q37 264 195.5 415t404.5 151z" />
    <glyph glyph-name="f_f_i" unicode="ffi" horiz-adv-x="1959" 
d="M1890 901l-127 -901h-278l96 686h-387l-96 -686h-279l96 686h-387l-96 -686h-278l96 686h-203l143 215h91l2 12q37 264 195.5 415t404.5 151l-21 -226q-110 -2 -193.5 -98t-109.5 -254h387l2 12q37 264 195.5 415t404.5 151l-20 -226q-110 -2 -193.5 -98t-109.5 -254h665
zM1817 1448q76 0 118 -50t33 -118q-8 -57 -56 -100t-116 -43q-75 0 -116.5 53.5t-32.5 122.5q8 56 55.5 95.5t114.5 39.5z" />
    <glyph glyph-name=".notdef" horiz-adv-x="1669" 
d="M967 1448q219 0 381.5 -102.5t235 -274t44.5 -375.5q-20 -146 -94.5 -278t-185 -230t-258.5 -155.5t-308 -57.5q-219 0 -382 103t-236 275t-45 376q20 146 94.5 278t186 229t259.5 154.5t308 57.5zM1182 999l125 166q-94 56 -179 84.5t-180 28.5q-143 0 -253 -85
t-130 -220q-15 -113 35 -187t170 -120l162 -62q125 -50 110 -155q-6 -51 -53.5 -87t-124.5 -36q-148 0 -342 131l-125 -166q100 -66 212.5 -106t195.5 -40q106 0 198 39.5t155 117t77 179.5q14 101 -31.5 172t-163.5 119l-200 84q-98 40 -84 135q6 39 43.5 73t118.5 34
q58 0 116.5 -23t147.5 -76z" />
    <glyph glyph-name=".null" horiz-adv-x="0" 
 />
    <glyph glyph-name="nonmarkingreturn" horiz-adv-x="682" 
 />
    <glyph glyph-name="CR" unicode="&#xd;" horiz-adv-x="501" 
 />
    <glyph glyph-name="space" unicode=" " horiz-adv-x="501" 
 />
    <glyph glyph-name="exclam" unicode="!" horiz-adv-x="780" 
d="M537 475h-281l117 948h313zM356 287q76 0 117 -51.5t31 -118.5q-6 -55 -53 -98.5t-115 -43.5q-69 0 -111.5 54.5t-34.5 120.5q8 53 56.5 95t109.5 42z" />
    <glyph glyph-name="quotedbl" unicode="&#x22;" horiz-adv-x="917" 
d="M270 889l-26 368q-5 84 37 137.5t118 53.5q86 0 122 -61.5t7 -145.5l-122 -352h-136zM651 889l-28 368q-6 83 37 137t120 54q85 0 119.5 -61t7.5 -146l-121 -352h-135z" />
    <glyph glyph-name="numbersign" unicode="#" horiz-adv-x="1538" 
d="M1268 889l-107 -332h242l-29 -207h-278l-111 -350h-270l110 350h-254l-108 -350h-268l108 350h-225l28 207h263l102 332h-244l29 205h279l102 329h268l-102 -329h260l104 329h271l-105 -329h207l-29 -205h-243zM997 889h-258l-102 -332h254z" />
    <glyph glyph-name="dollar" unicode="$" horiz-adv-x="1325" 
d="M649 899l283 -117q134 -55 193 -163.5t40 -239.5q-15 -105 -77.5 -191t-149.5 -137.5t-186 -68.5l-21 -148h-295l25 178q-177 59 -342 166l151 221q272 -174 424 -174q59 0 114.5 55t65.5 128q9 63 -20 98t-100 65l-234 95q-134 52 -200 155t-46 244q21 144 133 247.5
t255 129.5l20 147h295l-23 -168q47 -14 99.5 -37.5t87.5 -43t104 -58.5l-153 -219q-202 135 -332 135q-87 0 -136.5 -50.5t-58.5 -111.5q-11 -97 84 -137z" />
    <glyph glyph-name="percent" unicode="%" horiz-adv-x="1579" 
d="M524 1448q141 0 227.5 -98.5t67.5 -233.5q-17 -121 -122 -208t-236 -87q-138 0 -226 97.5t-69 230.5q17 122 122.5 210.5t235.5 88.5zM436 0h-289l1074 1423h288zM522 1272q-55 0 -103 -44.5t-57 -111.5q-7 -52 23.5 -85.5t75.5 -33.5q52 0 102.5 44.5t59.5 107.5
q7 54 -25.5 88.5t-75.5 34.5zM1196 602q141 0 228.5 -99.5t68.5 -232.5q-18 -117 -124 -206t-236 -89q-140 0 -227 99t-68 229q17 122 121.5 210.5t236.5 88.5zM1196 426q-54 0 -102.5 -46t-57.5 -110q-7 -53 22.5 -85.5t76.5 -32.5q55 0 102.5 43t56.5 108q7 52 -24 87.5
t-74 35.5z" />
    <glyph glyph-name="ampersand" unicode="&#x26;" horiz-adv-x="1370" 
d="M1290 0h-276l-45 111q-151 -69 -264 -102.5t-220 -33.5q-122 0 -214.5 42.5t-140.5 129t-32 203.5q17 111 107.5 196.5t238.5 141.5l48 12q-97 43 -151.5 136.5t-35.5 220.5q23 167 172 278t336 111q122 0 208 -60t109 -143l-233 -88q-11 40 -46 59t-73 19
q-62 0 -124.5 -57.5t-75.5 -151.5q-17 -125 78.5 -171t258.5 13l261 92l73 -174l-239 -92zM768 598l-147 -57q-130 -49 -183.5 -97.5t-64.5 -124.5q-9 -67 24 -99t99 -32q59 0 122.5 20.5t253.5 98.5z" />
    <glyph glyph-name="quotesingle" unicode="'" horiz-adv-x="540" 
d="M281 889l-37 358q-9 83 34.5 142t120.5 59q85 0 121.5 -66t7.5 -151l-133 -342h-114z" />
    <glyph glyph-name="parenleft" unicode="(" horiz-adv-x="929" 
d="M797 1579l215 -123q-468 -445 -529 -897q-32 -219 38.5 -445t232.5 -433l-228 -97q-185 213 -266.5 488.5t-46.5 519.5q34 238 187.5 506t396.5 481z" />
    <glyph glyph-name="parenright" unicode=")" horiz-adv-x="929" 
d="M213 1468l229 99q184 -216 266.5 -489t49.5 -519q-34 -235 -188.5 -505.5t-395.5 -481.5l-217 121q223 209 360.5 439.5t169.5 459.5q61 446 -274 876z" />
    <glyph glyph-name="asterisk" unicode="*" horiz-adv-x="1085" 
d="M756 1208l231 68l29 -182l-244 -56l129 -188l-188 -127l-97 186l-151 -186l-164 127l178 188l-227 56l82 182l215 -68l10 215h248z" />
    <glyph glyph-name="plus" unicode="+" horiz-adv-x="1167" 
d="M754 651h309l-33 -233h-309l-43 -309h-279l43 309h-309l33 233h309l43 310h279z" />
    <glyph glyph-name="comma" unicode="," horiz-adv-x="565" 
d="M20 -270l58 409q8 58 61 104t115 46q75 0 111 -52.5t26 -121.5q-6 -30 -26 -62l-252 -323h-93z" />
    <glyph glyph-name="hyphen" unicode="-" horiz-adv-x="897" 
d="M760 418h-627l33 233h627z" />
    <glyph glyph-name="period" unicode="." horiz-adv-x="542" 
d="M238 287q76 0 116.5 -52.5t30.5 -119.5q-8 -55 -54.5 -97.5t-113.5 -42.5q-69 0 -111 53t-34 119q8 53 56.5 96.5t109.5 43.5z" />
    <glyph glyph-name="slash" unicode="/" horiz-adv-x="1224" 
d="M322 0h-308l965 1423h309z" />
    <glyph glyph-name="zero" unicode="0" horiz-adv-x="1466" 
d="M864 1448q187 0 326.5 -102t201 -274.5t33.5 -375.5q-19 -138 -82.5 -267.5t-158.5 -230.5t-227 -162t-277 -61q-146 0 -263 61t-188 164.5t-101 240.5t-9 288q21 145 83 275t156 229t225.5 157t280.5 58zM852 1198q-107 0 -200 -68.5t-153.5 -182.5t-80.5 -251
q-18 -129 6 -234.5t93.5 -171t174.5 -65.5q102 0 196 69t157 184.5t81 250.5q17 117 -9.5 223.5t-96 176t-168.5 69.5z" />
    <glyph glyph-name="one" unicode="1" horiz-adv-x="755" 
d="M506 0h-293l147 1049h-163l16 131l498 284z" />
    <glyph glyph-name="two" unicode="2" horiz-adv-x="1239" 
d="M504 999h-293q22 185 175.5 317t352.5 132q135 0 242.5 -62t161 -170.5t35.5 -236.5q-9 -61 -61 -138.5t-163 -203.5l-364 -395h485l-35 -242h-1003l741 831q90 100 103 181q10 83 -31.5 134.5t-116.5 51.5q-82 0 -144 -54t-85 -145z" />
    <glyph glyph-name="three" unicode="3" horiz-adv-x="1232" 
d="M1235 1423l-487 -522q111 0 200 -63.5t133 -171t27 -228.5q-26 -194 -186.5 -328.5t-370.5 -134.5q-173 0 -298.5 99.5t-150.5 242.5h338q15 -42 50.5 -66t76.5 -24q89 0 158 75t82 169q13 90 -29 150.5t-116 60.5q-43 0 -90.5 -24t-82.5 -62h-319l532 586h-473l35 241
h971z" />
    <glyph glyph-name="four" unicode="4" horiz-adv-x="1318" 
d="M1057 504h174l-35 -242h-174l-37 -262h-295l37 262h-747l1210 1202zM526 504h262l48 323z" />
    <glyph glyph-name="five" unicode="5" horiz-adv-x="1177" 
d="M1102 1182h-500l-108 -291q96 35 194 35q194 0 299 -135.5t76 -339.5q-18 -130 -98 -239.5t-201 -173t-256 -63.5q-75 0 -143.5 22t-119 59t-89 84t-59.5 97t-25 99h315q17 -46 61.5 -75.5t92.5 -29.5q82 0 152.5 69.5t84.5 182.5q13 91 -27 142t-116 51
q-58 0 -119 -29.5t-100 -71.5l-279 70l248 778h692z" />
    <glyph glyph-name="six" unicode="6" horiz-adv-x="1193" 
d="M944 1423l-346 -503q44 6 88 6q122 0 221.5 -68t148.5 -182t31 -242q-17 -122 -97 -228t-201.5 -168.5t-253.5 -62.5q-118 1 -210 43.5t-145.5 112t-76 156.5t-9.5 180q22 143 123 301l430 655h297zM633 668q-85 0 -156 -68t-84 -166q-12 -88 34 -148.5t120 -60.5
q85 0 156.5 70.5t84.5 171.5q12 87 -33.5 144t-121.5 57z" />
    <glyph glyph-name="seven" unicode="7" horiz-adv-x="1138" 
d="M463 0h-332l698 1182h-673l34 241h1100z" />
    <glyph glyph-name="eight" unicode="8" horiz-adv-x="1214" 
d="M737 1448q117 0 210 -58.5t138 -155t31 -204.5q-24 -135 -151 -248q76 -64 110.5 -157t20.5 -195q-13 -91 -62.5 -174.5t-121.5 -145.5t-166.5 -98.5t-192.5 -36.5q-135 0 -241 67t-156.5 179.5t-32.5 241.5q12 89 71 177.5t156 160.5q-96 126 -76 262q14 100 82 189
t170 142.5t211 53.5zM725 1198q-57 0 -104.5 -48t-57.5 -120q-9 -60 19 -98.5t75 -38.5q58 0 108 49t60 121q9 60 -21 97.5t-79 37.5zM649 659q-85 0 -154.5 -65t-82.5 -164q-13 -89 32.5 -147t120.5 -58q88 0 160.5 68.5t85.5 169.5q12 87 -35.5 141.5t-126.5 54.5z" />
    <glyph glyph-name="nine" unicode="9" horiz-adv-x="1177" 
d="M289 0l354 473q-41 -6 -80 -6q-121 0 -220 69t-148 184t-31 243q17 122 96.5 228t201 169t253.5 63q95 -1 174 -29t132.5 -75.5t88.5 -110t46.5 -133.5t0.5 -145q-18 -142 -123 -299l-436 -631h-309zM705 1174q-84 0 -157.5 -72t-86.5 -172q-12 -87 33.5 -146t121.5 -59
q85 0 157 69.5t85 168.5q12 89 -33 150t-120 61z" />
    <glyph glyph-name="colon" unicode=":" horiz-adv-x="626" 
d="M371 932q76 0 116.5 -52t30.5 -118q-6 -55 -52.5 -97t-113.5 -42q-70 0 -113 53.5t-34 118.5q6 51 55.5 94t110.5 43zM281 287q76 0 116.5 -52.5t30.5 -119.5q-8 -55 -54.5 -97.5t-113.5 -42.5q-70 0 -112.5 53t-34.5 119q8 53 57.5 96.5t110.5 43.5z" />
    <glyph glyph-name="semicolon" unicode=";" horiz-adv-x="557" 
d="M336 932q76 0 116.5 -52t30.5 -118q-6 -55 -52.5 -97t-113.5 -42q-70 0 -113 53.5t-34 118.5q6 51 55.5 94t110.5 43zM20 -270l58 409q8 59 57 104.5t111 45.5q76 0 116.5 -53.5t30.5 -120.5q-6 -30 -26 -62l-234 -323h-113z" />
    <glyph glyph-name="less" unicode="&#x3c;" horiz-adv-x="1210" 
d="M1124 766l-489 -231l420 -232l-31 -250l-874 482l1005 483z" />
    <glyph glyph-name="equal" unicode="=" horiz-adv-x="1232" 
d="M1124 621h-962l33 233h962zM1067 215h-963l33 236h963z" />
    <glyph glyph-name="greater" unicode="&#x3e;" horiz-adv-x="1206" 
d="M1085 535l-1001 -482l31 250l489 232l-420 231l31 252z" />
    <glyph glyph-name="question" unicode="?" horiz-adv-x="1042" 
d="M164 991l10 70q24 159 155.5 273t305.5 114q90 0 165.5 -33.5t122.5 -88t69 -124.5t12 -143q-19 -129 -132 -248l-196 -188l-41 -199h-277l21 235l250 256q75 75 84 152q9 60 -14.5 98.5t-73.5 38.5q-60 0 -105 -50t-53 -112l-8 -51h-295zM487 287q76 0 117 -51.5
t31 -118.5q-6 -55 -53.5 -98.5t-114.5 -43.5q-70 0 -111.5 54.5t-33.5 120.5q8 53 56 95t109 42z" />
    <glyph glyph-name="at" unicode="@" horiz-adv-x="1959" 
d="M918 -193l-21 -235q-203 -5 -366.5 54t-275 174.5t-157.5 297t-14 410.5q38 273 184.5 488t367 333.5t476.5 118.5q197 0 357 -69.5t264 -194.5t147.5 -308t13.5 -401q-19 -129 -67 -229t-116.5 -160.5t-149.5 -91.5t-170 -31q-86 0 -151.5 43t-80.5 94q-39 -53 -119 -88
t-180 -35q-146 0 -236 93.5t-71 222.5q17 117 119 183.5t250 74.5q99 5 176 18l8 60q5 45 -19.5 69.5t-54.5 24.5q-60 0 -111 -21t-120 -79l-139 170q108 84 189.5 112.5t184.5 28.5q149 0 257 -93t89 -229l-39 -272q-7 -53 -0.5 -88t19 -52.5t27.5 -17.5q25 0 46.5 4t54 23
t57 51.5t48 96.5t35.5 151q21 145 1.5 259.5t-67 198t-121 138.5t-159.5 81.5t-182 26.5q-100 0 -197 -28t-189 -87.5t-166 -144.5t-128 -208t-74 -269q-18 -112 -9.5 -202.5t31.5 -161t65.5 -122.5t93.5 -88t116 -57.5t132 -30t141 -6.5zM1071 340l6 37q-20 -2 -63.5 -5
t-63.5 -5q-126 -6 -137 -91q-5 -39 18.5 -62.5t77.5 -23.5q68 0 110 44t52 106z" />
    <glyph glyph-name="A" unicode="A" horiz-adv-x="1447" 
d="M967 309h-512l-181 -309h-315l909 1464l494 -1464h-307zM899 543l-102 358l-207 -358h309z" />
    <glyph glyph-name="B" unicode="B" horiz-adv-x="1372" 
d="M295 1423h561q191 0 294 -118.5t79 -286.5q-9 -63 -52.5 -126t-99.5 -104q90 -42 152.5 -142t46.5 -212q-26 -181 -177.5 -307.5t-367.5 -126.5h-637zM555 1182l-41 -295h266q57 0 105 48.5t57 115.5q8 57 -20 94t-88 37h-279zM481 655l-57 -413h330q84 0 153.5 66
t81.5 159q11 77 -38 132.5t-128 55.5h-342z" />
    <glyph glyph-name="C" unicode="C" horiz-adv-x="1499" 
d="M1161 424l219 -195q-128 -119 -284.5 -186.5t-325.5 -67.5q-147 0 -278.5 60t-222.5 160.5t-136 241t-24 292.5q20 138 96 269t187.5 230t259.5 159.5t302 60.5q183 0 318 -73.5t207 -188.5l-240 -164q-62 87 -133 131.5t-164 44.5q-112 0 -228 -66t-201.5 -183.5
t-104.5 -252.5q-28 -199 80 -335t294 -136q97 0 199 57t180 142z" />
    <glyph glyph-name="D" unicode="D" horiz-adv-x="1523" 
d="M295 1423h547q148 0 276.5 -58t213.5 -156t125 -232.5t20 -280.5q-19 -138 -90.5 -265t-178.5 -222.5t-251.5 -152t-301.5 -56.5h-561zM555 1182l-131 -940h252q176 0 324.5 141.5t177.5 345.5q28 196 -75.5 324.5t-283.5 128.5h-264z" />
    <glyph glyph-name="E" unicode="E" horiz-adv-x="1284" 
d="M1229 1182h-674l-47 -336h555l-33 -242h-555l-51 -362h684l-35 -242h-979l201 1423h969z" />
    <glyph glyph-name="F" unicode="F" horiz-adv-x="1175" 
d="M1210 1182h-655l-47 -334h516l-33 -242h-516l-86 -606h-295l201 1423h950z" />
    <glyph glyph-name="G" unicode="G" horiz-adv-x="1542" 
d="M1489 834l-14 -111l-60 -449q-132 -143 -302 -221t-345 -78q-147 0 -278.5 60t-223 160.5t-136.5 241t-24 292.5q20 138 96 269t188 230t260 159.5t302 60.5q184 0 325 -74.5t212 -187.5l-242 -168q-132 180 -307 180q-112 0 -228 -66t-201.5 -183.5t-104.5 -252.5
q-28 -199 80 -335t294 -136q92 0 183.5 41t166.5 111l33 215h-350l33 242h643z" />
    <glyph glyph-name="H" unicode="H" horiz-adv-x="1570" 
d="M1346 0h-295l84 592h-654l-84 -592h-295l201 1423h295l-84 -589h653l84 589h295z" />
    <glyph glyph-name="I" unicode="I" horiz-adv-x="620" 
d="M401 0h-303l201 1423h303z" />
    <glyph glyph-name="J" unicode="J" horiz-adv-x="704" 
d="M684 1423l-178 -1265q-25 -177 -135 -327.5t-278 -236.5t-351 -77l22 250q159 -13 288.5 107t154.5 300l176 1249h301z" />
    <glyph glyph-name="K" unicode="K" horiz-adv-x="1417" 
d="M842 831l471 -831h-334l-354 627l-170 -160l-66 -467h-295l201 1423h295l-84 -596l610 596h352z" />
    <glyph glyph-name="L" unicode="L" horiz-adv-x="1146" 
d="M424 242h655l-35 -242h-950l201 1423h295z" />
    <glyph glyph-name="M" unicode="M" horiz-adv-x="1806" 
d="M1579 0h-295l115 797l-504 -455l-381 455l-115 -797h-295l205 1464l627 -768l848 768z" />
    <glyph glyph-name="N" unicode="N" horiz-adv-x="1587" 
d="M1145 586l121 837h295l-205 -1464l-836 879l-121 -838h-295l205 1464z" />
    <glyph glyph-name="O" unicode="O" horiz-adv-x="1646" 
d="M954 1448q124 0 234.5 -36.5t194 -104.5t140.5 -160t78.5 -208t4.5 -243q-21 -144 -93 -275.5t-180.5 -230t-255.5 -157t-307 -58.5q-161 0 -294 58.5t-218.5 159t-123 240t-15.5 296.5q21 151 92 283.5t179 228.5t254 151.5t310 55.5zM942 1198q-122 0 -234 -63
t-191 -179t-99 -260q-29 -203 76.5 -337t287.5 -134q117 0 229.5 64t194 181t101.5 259q13 93 -10.5 179.5t-73 150t-123.5 101.5t-158 38z" />
    <glyph glyph-name="P" unicode="P" horiz-adv-x="1236" 
d="M295 1423h541q132 0 238 -55.5t160.5 -156t37.5 -224.5q-25 -174 -177.5 -288.5t-365.5 -114.5h-258l-82 -584h-295zM555 1182l-49 -357h231q91 0 157 51.5t79 143.5q12 84 -32 123t-142 39h-244z" />
    <glyph glyph-name="Q" unicode="Q" horiz-adv-x="1658" 
d="M1475 -395l-371 432q-138 -62 -324 -62q-153 0 -286.5 61.5t-222 164t-130.5 241t-22 287.5q20 143 96 274.5t187.5 229.5t259 156.5t303.5 58.5q147 0 279 -60.5t223 -161t135.5 -240.5t23.5 -290q-41 -281 -270 -499l170 -197zM952 1198q-120 0 -236.5 -67.5
t-197.5 -184t-100 -250.5q-17 -125 27.5 -233.5t137 -173t210.5 -64.5q93 0 184.5 41t163.5 109t122 161t64 193q16 114 -30.5 223t-140 177.5t-204.5 68.5z" />
    <glyph glyph-name="R" unicode="R" horiz-adv-x="1386" 
d="M295 1423h575q220 0 348 -121t101 -315q-18 -129 -109 -231t-215 -152l226 -604h-322l-219 584h-213l-82 -584h-291zM551 1182l-49 -357h291q103 0 164.5 49.5t74.5 145.5q11 79 -35 120.5t-149 41.5h-297z" />
    <glyph glyph-name="S" unicode="S" horiz-adv-x="1290" 
d="M754 567l-205 82q-338 129 -293 436q21 158 164 260.5t328 102.5q138 0 252 -42t247 -122l-145 -219q-125 75 -200.5 104t-139.5 29q-52 0 -93 -16t-64.5 -42t-36.5 -53t-17 -55q-14 -91 80 -131l260 -106q316 -129 274 -416q-26 -181 -184 -292.5t-365 -111.5
q-121 0 -275.5 58t-289.5 149l148 221q140 -97 243.5 -137.5t196.5 -40.5q96 0 156 53t71 134q8 62 -20.5 96.5t-91.5 58.5z" />
    <glyph glyph-name="T" unicode="T" horiz-adv-x="1142" 
d="M1227 1182h-406l-166 -1182h-295l166 1182h-403l35 241h1104z" />
    <glyph glyph-name="U" unicode="U" horiz-adv-x="1560" 
d="M1550 1423l-120 -852q-25 -182 -125.5 -319t-250 -207t-327.5 -70q-137 0 -248.5 43.5t-186 122.5t-107 194.5t-13.5 252.5l119 835h295l-121 -852q-12 -86 8 -154.5t62 -109t94.5 -61.5t109.5 -21q62 0 125.5 23.5t120 67.5t97.5 115t53 157l118 835h297z" />
    <glyph glyph-name="V" unicode="V" horiz-adv-x="1445" 
d="M659 -41l-497 1464h317l258 -860l504 860h326z" />
    <glyph glyph-name="W" unicode="W" horiz-adv-x="2189" 
d="M1409 -41l-281 698l-473 -698l-493 1464h311l281 -915l272 405l-205 510h271l102 -262l176 262h279l-355 -522l154 -393l543 915h319z" />
    <glyph glyph-name="X" unicode="X" horiz-adv-x="1495" 
d="M954 768l451 -768h-336l-301 549l-459 -549h-346l668 768l-381 655h315l256 -436l383 436h326z" />
    <glyph glyph-name="Y" unicode="Y" horiz-adv-x="1323" 
d="M840 639l-92 -639h-295l92 639l-387 784h315l248 -538l403 538h326z" />
    <glyph glyph-name="Z" unicode="Z" horiz-adv-x="1255" 
d="M477 242h697l-35 -242h-1151l870 1182h-672l35 241h1125z" />
    <glyph glyph-name="bracketleft" unicode="[" horiz-adv-x="759" 
d="M842 1327h-226l-204 -1464h225l-33 -234h-504l271 1932h503z" />
    <glyph glyph-name="backslash" unicode="\" horiz-adv-x="1183" 
d="M1083 0h-295l-610 1423h289z" />
    <glyph glyph-name="bracketright" unicode="]" horiz-adv-x="759" 
d="M434 -371h-504l33 234h225l205 1464h-225l33 234h504z" />
    <glyph glyph-name="asciicircum" unicode="^" horiz-adv-x="1079" 
d="M983 733h-264l-90 285l-178 -285h-277l516 776z" />
    <glyph glyph-name="underscore" unicode="_" horiz-adv-x="1046" 
d="M930 -391h-1047l35 237h1047z" />
    <glyph glyph-name="grave" unicode="`" horiz-adv-x="782" 
d="M672 1096l-256 100q-76 30 -104.5 69.5t-22.5 94.5q7 52 50.5 85.5t102.5 33.5q84 0 158 -121l129 -178z" />
    <glyph glyph-name="a" unicode="a" 
d="M965 0h-279l19 106q-44 -59 -120.5 -95t-148.5 -36q-67 0 -124.5 20t-98.5 54.5t-72 82t-46 102t-21 114.5t4 119q12 84 50 164.5t96.5 147t143 107t179.5 40.5q82 0 148 -40t98 -104l20 119h279zM600 700q-94 0 -165.5 -77.5t-86.5 -188.5q-14 -99 29 -165t129 -66
q74 0 153 79t93 185q13 95 -34.5 164t-117.5 69z" />
    <glyph glyph-name="b" unicode="b" 
d="M569 1454l-96 -659q45 61 118.5 96t149.5 35q67 0 124.5 -20t98.5 -55t72.5 -82.5t46.5 -102t21 -114t-4 -118.5q-12 -84 -50 -165t-96.5 -147t-143 -106.5t-179.5 -40.5q-77 0 -146 41t-100 103l-20 -119h-279l205 1454h278zM672 700q-79 0 -155 -79.5t-91 -186.5
q-13 -94 37 -162.5t115 -68.5q95 0 165.5 76.5t85.5 187.5q14 99 -29 166t-128 67z" />
    <glyph glyph-name="c" unicode="c" horiz-adv-x="997" 
d="M764 332l141 -172q-38 -36 -72.5 -63t-87 -57.5t-116 -47.5t-133.5 -17q-96 0 -181 33t-147 94t-91.5 155t-13.5 208t72.5 205.5t134 145.5t161.5 82t165 28q201 0 360 -170l-153 -158q-92 102 -207 102q-97 0 -172 -78t-90 -190q-14 -96 36 -162.5t142 -66.5
q135 0 252 129z" />
    <glyph glyph-name="d" unicode="d" 
d="M965 0h-279l19 106q-44 -59 -120.5 -95t-148.5 -36q-67 0 -124.5 20t-98.5 54.5t-72 82t-46 102t-21 114.5t4 119q12 84 50 164.5t96.5 147t143 107t179.5 40.5q82 0 148 -40t98 -104l98 672h278zM600 700q-94 0 -165.5 -77.5t-86.5 -188.5q-14 -99 29 -165t129 -66
q74 0 153 79t93 185q13 95 -34.5 164t-117.5 69z" />
    <glyph glyph-name="e" unicode="e" horiz-adv-x="1067" 
d="M760 295l198 -111q-75 -101 -188.5 -155t-241.5 -54q-78 0 -150.5 21t-133 63t-103.5 100.5t-61.5 138.5t-5.5 171q16 106 69 195t126 145t157 86.5t166 30.5q209 0 324 -136.5t88 -332.5l-2 -8q-8 -57 -17 -76h-649q0 -85 58.5 -139t154.5 -54q61 0 121 34t90 81z
M352 557h400q0 71 -45.5 117.5t-120.5 46.5q-70 0 -142 -48t-92 -116z" />
    <glyph glyph-name="f" unicode="f" horiz-adv-x="747" 
d="M883 1479l-21 -226q-110 -2 -193.5 -98t-109.5 -254h248l-31 -215h-248l-96 -686h-278l96 686h-203l143 215h91l2 12q37 264 195.5 415t404.5 151z" />
    <glyph glyph-name="g" unicode="g" 
d="M680 -41l25 147q-44 -59 -120.5 -95t-148.5 -36q-67 0 -124.5 20t-98.5 54.5t-72 82t-46 102t-21 114.5t4 119q12 84 50 164.5t96.5 147t143 107t179.5 40.5q82 0 148 -40t98 -104l20 119h279l-134 -942q-31 -218 -179 -346.5t-388 -128.5q-116 0 -235.5 55.5
t-182.5 143.5l152 213q54 -83 136 -129t175 -46q97 0 161.5 66.5t82.5 171.5zM600 700q-94 0 -165.5 -77.5t-86.5 -188.5q-14 -99 29 -165t129 -66q74 0 153 79t93 185q13 95 -34.5 164t-117.5 69z" />
    <glyph glyph-name="h" unicode="h" 
d="M578 1454l-95 -639q43 53 108.5 82t131.5 29q28 0 54 -3t58 -11t57.5 -22t52.5 -36.5t44 -54t31 -75.5t13.5 -100.5t-7.5 -127.5l-70 -496h-278l72 512q16 111 -11 153t-88 42q-67 0 -130 -52t-79 -159l-69 -496h-279l205 1454h279z" />
    <glyph glyph-name="i" unicode="i" horiz-adv-x="546" 
d="M403 1448q76 0 118.5 -50t33.5 -118q-8 -57 -56 -100t-116 -43q-75 0 -117 53.5t-33 122.5q8 56 55.5 95.5t114.5 39.5zM350 0h-278l127 901h278z" />
    <glyph glyph-name="j" unicode="j" horiz-adv-x="585" 
d="M430 1444q77 0 126 -50.5t40 -117.5q-8 -56 -61.5 -99.5t-122.5 -43.5q-78 0 -125.5 54t-38.5 122q8 55 61 95t121 40zM506 901l-119 -846q-18 -124 -84 -264.5t-176 -234.5l-201 137q67 69 120 177.5t65 201.5l116 829h279z" />
    <glyph glyph-name="k" unicode="k" horiz-adv-x="1118" 
d="M694 506l340 -506h-319l-289 434l-61 -434h-279l205 1454h278l-125 -883l338 330h332z" />
    <glyph glyph-name="l" unicode="l" horiz-adv-x="579" 
d="M369 0h-279l205 1454h278z" />
    <glyph glyph-name="m" unicode="m" horiz-adv-x="1736" 
d="M500 901l-17 -86q43 53 108.5 82t131.5 29q87 0 151.5 -48.5t79.5 -132.5q43 77 137 132t195 55q28 0 54 -3t57.5 -11.5t57.5 -23t53 -37.5t44 -55.5t31 -76.5t13.5 -101t-7.5 -128l-69 -496h-279l72 512q28 195 -90 195q-66 0 -129.5 -52t-79.5 -159l-70 -496h-276
l71 512q28 195 -88 195q-67 0 -130 -52t-79 -159l-69 -496h-279l127 901h279z" />
    <glyph glyph-name="n" unicode="n" 
d="M500 901l-17 -86q43 53 108.5 82t131.5 29q42 0 81.5 -7.5t89 -34.5t82.5 -71.5t49 -126.5t1 -190l-70 -496h-278l72 512q16 111 -11 153t-88 42q-67 0 -130 -52t-79 -159l-69 -496h-279l127 901h279z" />
    <glyph glyph-name="o" unicode="o" horiz-adv-x="1191" 
d="M651 926q156 0 269 -68.5t162 -180t30 -243.5q-13 -93 -61 -176.5t-121.5 -146t-174.5 -99.5t-214 -37q-156 0 -268.5 68t-161 179.5t-29.5 244.5q13 92 60.5 175.5t120.5 146.5t174 100t214 37zM643 700q-94 0 -180 -79t-101 -187q-13 -96 44 -163.5t143 -67.5
q95 0 181 78t101 186q13 96 -45 164.5t-143 68.5z" />
    <glyph glyph-name="p" unicode="p" 
d="M492 901l-19 -106q44 60 120 95.5t148 35.5q100 0 176.5 -43t119 -114t59.5 -157.5t4 -177.5q-12 -84 -50 -164.5t-96.5 -147t-143 -107t-179.5 -40.5q-82 0 -148 40t-98 104l-90 -611h-279l197 1393h279zM672 698q-74 0 -153 -79t-93 -185q-13 -95 34.5 -164t117.5 -69
q94 0 165 77.5t86 188.5q14 99 -28.5 165t-128.5 66z" />
    <glyph glyph-name="q" unicode="q" 
d="M616 -492l89 598q-45 -61 -119 -96t-150 -35q-100 0 -176.5 43.5t-119 114.5t-59 157.5t-3.5 176.5q12 84 50 165t96.5 147t143 106.5t179.5 40.5q77 0 146 -41t100 -103l20 119h279l-197 -1393h-279zM600 698q-95 0 -166 -76.5t-86 -187.5q-14 -99 29.5 -166t128.5 -67
q79 0 155 79.5t91 186.5q13 94 -37 162.5t-115 68.5z" />
    <glyph glyph-name="r" unicode="r" horiz-adv-x="878" 
d="M492 901l-17 -86q43 53 108.5 82t131.5 29q69 0 122 -29t81 -74l-191 -178q-20 62 -90 62q-66 0 -127.5 -61t-81.5 -200l-63 -446h-279l127 901h279z" />
    <glyph glyph-name="s" unicode="s" horiz-adv-x="919" 
d="M35 113l119 178q64 -45 141.5 -77t122.5 -32q32 0 66 23t38 61q8 52 -73 92l-119 52q-94 40 -144.5 104.5t-40.5 144.5q11 85 64.5 147.5t123.5 91t146 28.5q105 0 177 -25.5t165 -83.5l-123 -176q-39 34 -91.5 57t-94.5 23q-31 0 -56.5 -18t-33.5 -44q-6 -22 7 -45.5
t40 -35.5l139 -60q90 -38 145 -109.5t46 -146.5q-17 -136 -116.5 -211.5t-246.5 -75.5q-94 0 -203.5 38.5t-197.5 99.5z" />
    <glyph glyph-name="t" unicode="t" horiz-adv-x="800" 
d="M557 901h215l-31 -215h-215l-53 -381q-6 -44 8 -69t47 -25q29 0 58 18.5t49 51.5l24 -222q-97 -84 -237 -84q-111 0 -182 75t-54 190l62 446h-185l553 660z" />
    <glyph glyph-name="u" unicode="u" horiz-adv-x="1148" 
d="M944 0h-278l16 86q-43 -53 -108.5 -82t-131.5 -29q-42 0 -82 7.5t-89 35t-82 71.5t-49 126.5t-1 190.5l70 495h278l-71 -512q-16 -111 11.5 -152.5t88.5 -41.5q30 0 61 11t61.5 34.5t53.5 66.5t31 99l70 495h278z" />
    <glyph glyph-name="v" unicode="v" horiz-adv-x="1030" 
d="M453 -41l-383 942h295l147 -461l281 461h303z" />
    <glyph glyph-name="w" unicode="w" horiz-adv-x="1583" 
d="M973 -41l-182 447l-308 -447l-413 942h286l195 -487l154 200l-117 287h268l166 -485l332 485h295z" />
    <glyph glyph-name="x" unicode="x" horiz-adv-x="1103" 
d="M715 475l323 -475h-327l-181 266l-256 -266h-335l458 475l-288 426h327l146 -223l213 223h335z" />
    <glyph glyph-name="y" unicode="y" horiz-adv-x="1073" 
d="M317 -492h-286l323 564l-276 829h299l147 -526l299 526h307z" />
    <glyph glyph-name="z" unicode="z" horiz-adv-x="966" 
d="M453 213h411l-30 -213h-846l538 686h-374l30 215h803z" />
    <glyph glyph-name="braceleft" unicode="{" horiz-adv-x="780" 
d="M836 1561l-23 -209q-30 1 -52 -1t-38 -4t-26.5 -11.5t-16.5 -15.5t-10 -23.5t-6 -27.5t-4.5 -37t-4.5 -42l-37 -260q-18 -123 -76 -208t-122 -132q19 -15 38 -41.5t39.5 -71.5t26 -99.5t-1.5 -125.5l-37 -268q-2 -18 -5.5 -37.5t-6 -30.5t-4.5 -24.5t-1.5 -19.5t2.5 -15
t7.5 -11t14 -7t22.5 -4t32 -1.5t42 0.5l-23 -205h-172q-94 0 -143.5 76.5t-34.5 185.5l47 338q20 140 -10.5 216.5t-122.5 107.5v100q99 27 159 110.5t79 213.5l49 340q14 109 77 176.5t158 67.5h185z" />
    <glyph glyph-name="bar" unicode="|" horiz-adv-x="1304" 
d="M739 0h-297l220 1554h296z" />
    <glyph glyph-name="braceright" unicode="}" horiz-adv-x="780" 
d="M260 1561h170q95 0 144 -75.5t34 -185.5l-47 -339q-19 -131 13.5 -208t123.5 -104v-100q-103 -31 -162 -113t-79 -223l-47 -338q-15 -109 -79 -177.5t-159 -68.5h-182l22 205q42 -1 67.5 2.5t41 10t23.5 24t11.5 35t7.5 51.5q3 28 5 43l39 268q17 122 76.5 207.5
t122.5 130.5q-19 17 -38 42.5t-40.5 71.5t-27.5 99.5t1 126.5l37 260q2 16 5.5 34t5.5 29t4 24t2 19.5t-2 15t-7 11t-13.5 8t-22 4.5t-31 1.5t-41.5 -0.5z" />
    <glyph glyph-name="asciitilde" unicode="~" horiz-adv-x="1404" 
d="M1122 819l201 -168q-78 -113 -189.5 -176t-226.5 -63q-54 0 -106 19t-85.5 41t-75 41t-77.5 19q-67 0 -130.5 -42t-108.5 -115l-197 162q77 115 188.5 178t227.5 63q54 0 106 -19.5t86 -43t76 -43t78 -19.5q67 0 130.5 46t102.5 120z" />
    <glyph glyph-name="exclamdown" unicode="&#xa1;" horiz-adv-x="780" 
d="M446 932q77 0 117.5 -53t30.5 -119q-6 -55 -52.5 -97t-113.5 -42q-70 0 -112 53.5t-33 118.5q6 52 54 95.5t109 43.5zM412 -522h-314l146 956h293z" />
    <glyph glyph-name="cent" unicode="&#xa2;" horiz-adv-x="1320" 
d="M1102 760l-195 -131q-22 27 -37 42t-49 29.5t-78 14.5q-57 0 -115 -29.5t-105.5 -94t-59.5 -149.5q-17 -115 42.5 -180t141.5 -65q22 0 42.5 4t40.5 13.5t33 16t31.5 21.5t25 20.5t23.5 21.5l17 17l172 -159q-45 -52 -114.5 -94.5t-147.5 -63.5l-22 -160h-281l22 166
q-145 51 -229 182t-61 293q20 148 138 273t281 167l23 158h281l-25 -164q139 -42 205 -149z" />
    <glyph glyph-name="sterling" unicode="&#xa3;" horiz-adv-x="1368" 
d="M281 795l14 112q36 253 187.5 397t367.5 144q192 0 334 -132t135 -310l-287 16q-13 83 -65.5 128.5t-126.5 47.5q-96 -2 -163 -82.5t-89 -224.5l-13 -96h455l-33 -230h-454l-45 -323h766l-35 -242h-1215l35 242h154l45 323h-154l33 230h154z" />
    <glyph glyph-name="currency" unicode="&#xa4;" horiz-adv-x="1353" 
d="M1376 1143l-192 -170q69 -122 47 -277q-21 -142 -119 -260l139 -157l-182 -166l-154 178q-115 -53 -256 -53t-253 59l-205 -182l-146 164l195 172q-71 120 -49 278q21 143 118 260l-137 160l183 162l153 -174q117 51 252 51q145 0 256 -62l205 181zM668 465q95 0 181 78
t101 186q13 96 -45 165t-143 69q-94 0 -180 -79.5t-101 -187.5q-13 -96 44 -163.5t143 -67.5z" />
    <glyph glyph-name="yen" unicode="&#xa5;" horiz-adv-x="1515" 
d="M1112 846h242l-31 -217h-393l-12 -94h393l-31 -218h-395l-45 -317h-291l45 317h-391l30 218h394l12 94h-393l30 217h244l-340 577h312l323 -549l483 549h320z" />
    <glyph glyph-name="brokenbar" unicode="&#xa6;" horiz-adv-x="1304" 
d="M868 922h-297l91 632h296zM739 0h-297l90 635h297z" />
    <glyph glyph-name="section" unicode="&#xa7;" horiz-adv-x="1228" 
d="M162 74l252 -17q-5 -45 -5.5 -77.5t9.5 -54.5t20 -35t25 -20t25 -9t20 -2q137 0 160 161q8 64 -22 95.5t-109 64.5q-34 13 -60.5 24.5t-55 25.5t-50 27t-43.5 29t-37 33t-29 37t-22 42.5t-13 48.5t-5 56t5 64q22 162 201 291q-53 50 -79 117t-17 137q13 91 74.5 168
t158 122.5t205.5 45.5q95 0 178 -47t117 -111q59 -110 33 -278l-252 16q30 203 -84 203q-67 0 -112.5 -42.5t-55.5 -119.5q-5 -35 1 -60t26.5 -42.5t37.5 -27t51 -24t50 -22.5q59 -21 96.5 -40t91.5 -60.5t76 -108t10 -154.5q-23 -161 -200 -280q114 -109 94 -273
q-20 -142 -139.5 -235.5t-284.5 -93.5q-186 0 -279 117.5t-63 308.5zM670 715q-62 0 -116.5 -52t-64.5 -126q-9 -66 23 -106t88 -40q59 0 110.5 50.5t61.5 127.5q9 61 -22 103.5t-80 42.5z" />
    <glyph glyph-name="dieresis" unicode="&#xa8;" horiz-adv-x="1091" 
d="M457 1444q76 0 117.5 -53.5t31.5 -120.5q-6 -54 -53.5 -95.5t-114.5 -41.5q-70 0 -114 52.5t-35 117.5q6 53 56.5 97t111.5 44zM893 1444q76 0 117.5 -53.5t31.5 -120.5q-6 -54 -53.5 -95.5t-114.5 -41.5q-70 0 -114 52.5t-35 117.5q6 53 56.5 97t111.5 44z" />
    <glyph glyph-name="copyright" unicode="&#xa9;" horiz-adv-x="1546" 
d="M905 1448q165 0 300.5 -60t221 -162t123.5 -240t17 -290q-20 -146 -94.5 -278t-185 -230t-258.5 -155.5t-308 -57.5q-165 0 -300.5 60.5t-221.5 162.5t-124.5 240.5t-17.5 290.5q20 146 94.5 278t186 229t259.5 154.5t308 57.5zM897 1241q-146 0 -277.5 -73.5
t-218 -198.5t-106.5 -273q-19 -140 31 -257t156.5 -185t246.5 -68q146 0 277 73t217 197.5t106 272.5q20 140 -29.5 257.5t-156 186t-246.5 68.5zM961 606l135 -129q-55 -65 -144.5 -112.5t-185.5 -47.5q-170 0 -269.5 114.5t-74.5 285.5q14 97 75 188.5t157.5 151
t199.5 59.5q104 0 180.5 -46t116.5 -114l-158 -108q-34 70 -125 70q-78 0 -143 -58t-78 -155q-13 -86 30 -136.5t111 -50.5q53 0 101.5 27.5t71.5 60.5z" />
    <glyph glyph-name="ordfeminine" unicode="&#xaa;" horiz-adv-x="765" 
d="M743 901h-188l-63 242l-140 -242h-196l372 563zM745 586h-682l27 178h682z" />
    <glyph glyph-name="guillemotleft" unicode="&#xab;" horiz-adv-x="1169" 
d="M633 748l-289 -289l213 -279l-190 -135l-279 414l389 424zM1073 748l-293 -289l211 -281l-186 -133l-279 414l392 424z" />
    <glyph glyph-name="logicalnot" unicode="&#xac;" horiz-adv-x="1232" 
d="M1055 123h-279l41 295h-684l33 233h962z" />
    <glyph glyph-name="softhyphen" unicode="&#xad;" horiz-adv-x="897" 
d="M760 418h-627l33 233h627z" />
    <glyph glyph-name="registered" unicode="&#xae;" horiz-adv-x="1546" 
d="M905 1448q210 0 372.5 -102t240 -275t49.5 -375q-20 -145 -97 -278t-190 -230t-259.5 -155t-299.5 -58q-210 0 -373 102.5t-241 276t-50 375.5q20 145 97.5 277.5t190.5 229.5t260 154.5t300 57.5zM995 625l88 -285q86 71 142 171.5t73 217.5q20 139 -26.5 252
t-145 176.5t-229.5 63.5q-208 0 -374 -151t-197 -374q-29 -211 87.5 -350t315.5 -139q178 0 326 110h-187l-71 285h-62l-39 -285h-215l109 781h307q78 0 144 -29.5t104 -91.5t26 -143q-19 -145 -176 -209zM760 766h86q107 0 123 100q6 41 -16.5 53.5t-71.5 12.5h-99z" />
    <glyph glyph-name="macron" unicode="&#xaf;" horiz-adv-x="1136" 
d="M1022 1178h-696l30 213h697z" />
    <glyph glyph-name="degree" unicode="&#xb0;" horiz-adv-x="819" 
d="M539 1448q140 0 218 -87.5t60 -213.5q-15 -111 -111 -190.5t-225 -79.5q-130 0 -210.5 90t-63.5 213q15 111 112 189.5t220 78.5zM537 1270q-43 0 -81.5 -34.5t-45.5 -88.5q-6 -42 16.5 -70t54.5 -28q43 0 83.5 38t47.5 93q6 42 -17.5 66t-57.5 24z" />
    <glyph glyph-name="plusminus" unicode="&#xb1;" horiz-adv-x="1167" 
d="M774 803h309l-32 -234h-310l-30 -227h-279l31 227h-309l32 234h310l32 229h279zM971 0h-897l32 233h898z" />
    <glyph glyph-name="twosuperior" unicode="&#xb2;" horiz-adv-x="763" 
d="M424 1202h-195q13 94 93 170t190 76q113 0 176.5 -64t52.5 -147q-10 -81 -77 -160l-152 -168h207l-25 -161h-540l286 323q104 116 111 172q8 49 -37 49q-31 0 -57.5 -28t-32.5 -62z" />
    <glyph glyph-name="threesuperior" unicode="&#xb3;" horiz-adv-x="745" 
d="M772 1423l-233 -252q78 -2 128.5 -68.5t37.5 -158.5q-12 -89 -91.5 -151t-185.5 -62q-93 0 -165 52t-79 132h203q8 -22 41 -22q31 0 58.5 23.5t31.5 60.5q4 31 -12 48t-39 17q-51 0 -78 -41h-190l254 269h-199l22 153h496z" />
    <glyph glyph-name="acute" unicode="&#xb4;" horiz-adv-x="782" 
d="M264 1180l170 190q103 109 178 109q68 0 107.5 -44t30.5 -108q-5 -43 -38.5 -74.5t-117.5 -60.5l-291 -96z" />
    <glyph glyph-name="paragraph" unicode="&#xb6;" horiz-adv-x="1460" 
d="M1448 1198h-156l-207 -1483h-262l207 1483h-139l-207 -1483h-262l119 811q-164 9 -262 124.5t-86 293.5q6 84 46.5 169t104 154t153 112.5t185.5 43.5h799z" />
    <glyph glyph-name="periodcentered" unicode="&#xb7;" horiz-adv-x="638" 
d="M342 680q76 0 116.5 -52.5t30.5 -119.5q-6 -53 -53 -96t-114 -43q-69 0 -112.5 54t-35.5 118q8 53 57.5 96t110.5 43z" />
    <glyph glyph-name="cedilla" unicode="&#xb8;" horiz-adv-x="796" 
d="M446 0l-61 -88q28 12 66 4q63 -13 102 -69.5t29 -139.5q-10 -88 -85 -140t-171 -52q-95 0 -160.5 49.5t-69.5 128.5h191q0 -24 13.5 -35.5t29.5 -11.5q27 0 53.5 25.5t32.5 68.5q4 31 -9.5 49t-31.5 18q-36 0 -58 -28h-200l139 221h190z" />
    <glyph glyph-name="onesuperior" unicode="&#xb9;" horiz-adv-x="491" 
d="M422 743h-195l62 433h-92l12 102l313 186z" />
    <glyph glyph-name="ordmasculine" unicode="&#xba;" horiz-adv-x="698" 
d="M483 1448q132 0 216 -90t67 -213q-15 -110 -116.5 -189t-223.5 -79q-137 0 -219.5 88t-65.5 213q15 111 114 190.5t228 79.5zM485 1288q-54 0 -104 -41.5t-57 -101.5q-7 -51 23.5 -81t76.5 -30q51 0 101.5 41t58.5 103q7 48 -25.5 79t-73.5 31zM705 586h-668l26 178h668z
" />
    <glyph glyph-name="guillemotright" unicode="&#xbb;" horiz-adv-x="1169" 
d="M651 459l-389 -414l-158 133l293 281l-215 289l189 135zM1090 459l-390 -414l-157 135l291 279l-211 289l188 135z" />
    <glyph glyph-name="onequarter" unicode="&#xbc;" horiz-adv-x="1726" 
d="M391 743h-194l61 433h-92l12 102l314 186zM465 0h-275l1057 1423h273zM1458 238h76l-18 -142h-76l-15 -96h-180l15 98h-361l627 623zM1219 233h88l18 107z" />
    <glyph glyph-name="onehalf" unicode="&#xbd;" horiz-adv-x="1814" 
d="M391 743h-194l61 433h-92l12 102l314 186zM408 0h-275l1057 1423h272zM1257 455h-194q13 94 93 169.5t190 75.5q113 0 176.5 -64t52.5 -147q-9 -79 -78 -159l-151 -168h206l-24 -162h-541l287 324q102 115 110 172q8 49 -36 49q-31 0 -58 -28t-33 -62z" />
    <glyph glyph-name="threequarters" unicode="&#xbe;" horiz-adv-x="1761" 
d="M721 1423l-234 -252q78 -2 128.5 -68.5t37.5 -158.5q-12 -89 -91 -151t-185 -62q-93 0 -165 52t-79 132h203q8 -22 41 -22q31 0 58.5 23.5t31.5 60.5q4 31 -12 48t-39 17q-51 0 -78 -41h-191l254 269h-198l22 153h496zM518 0h-274l1056 1423h273zM1493 238h76l-19 -142
h-75l-15 -96h-180l14 98h-360l627 623zM1253 233h88l19 107z" />
    <glyph glyph-name="questiondown" unicode="&#xbf;" horiz-adv-x="1042" 
d="M580 926q71 0 112.5 -54t32.5 -120q-8 -53 -56.5 -95.5t-109.5 -42.5q-76 0 -116.5 51.5t-30.5 118.5q8 55 54.5 98.5t113.5 43.5zM668 242l-250 -256q-75 -75 -84 -152q-9 -60 14.5 -98.5t73.5 -38.5q60 0 105 50t53 112l8 51h295l-11 -70q-24 -159 -154.5 -273
t-303.5 -114q-90 0 -166 33.5t-123.5 88t-69.5 124.5t-12 143q19 130 131 248l197 189l41 198h276z" />
    <glyph glyph-name="Agrave" unicode="&#xc0;" horiz-adv-x="1447" 
d="M985 1522l-242 59q-82 19 -118.5 63.5t-28.5 100.5q7 52 50 85.5t102 33.5q58 0 96 -29.5t84 -93.5l112 -135zM967 309h-512l-181 -309h-315l909 1464l494 -1464h-307zM899 543l-102 358l-207 -358h309z" />
    <glyph glyph-name="Aacute" unicode="&#xc1;" horiz-adv-x="1447" 
d="M780 1522l-41 86l146 147q57 57 100.5 83t95.5 26q68 0 108.5 -44t31.5 -108q-7 -44 -50.5 -80t-128.5 -55zM967 309h-512l-181 -309h-315l909 1464l494 -1464h-307zM899 543l-102 358l-207 -358h309z" />
    <glyph glyph-name="Acircumflex" unicode="&#xc2;" horiz-adv-x="1447" 
d="M715 1522l-160 127l369 215l317 -215l-182 -127l-158 129zM967 309h-512l-181 -309h-315l909 1464l494 -1464h-307zM899 543l-102 358l-207 -358h309z" />
    <glyph glyph-name="Atilde" unicode="&#xc3;" horiz-adv-x="1447" 
d="M1163 1845l125 -153q-53 -74 -130.5 -118t-151.5 -44q-35 0 -62 10.5t-43.5 25t-32 29t-35 25t-42.5 10.5q-41 0 -80.5 -30.5t-69.5 -83.5l-123 153q52 72 130 115t153 43q42 0 74 -15t48 -33t40.5 -33t52.5 -15q42 0 82 31t65 83zM967 309h-512l-181 -309h-315l909 1464
l494 -1464h-307zM899 543l-102 358l-207 -358h309z" />
    <glyph glyph-name="Adieresis" unicode="&#xc4;" horiz-adv-x="1447" 
d="M676 1526q-70 0 -113.5 53t-34.5 117q6 53 55 97t111 44q76 0 117 -53.5t31 -120.5q-6 -53 -52.5 -95t-113.5 -42zM1112 1526q-70 0 -113 53t-34 117q6 53 54.5 97t110.5 44q76 0 117 -53.5t31 -120.5q-6 -53 -52.5 -95t-113.5 -42zM967 309h-512l-181 -309h-315
l909 1464l494 -1464h-307zM899 543l-102 358l-207 -358h309z" />
    <glyph glyph-name="Aring" unicode="&#xc5;" horiz-adv-x="1447" 
d="M967 309h-512l-181 -309h-315l885 1425q-87 12 -134 74.5t-36 145.5q11 78 78 133t159 55q102 0 158.5 -64.5t44.5 -156.5q-11 -78 -75 -133t-156 -56l479 -1423h-307zM831 1612q-3 -22 11 -33.5t32 -11.5q26 0 52 22t30 56q3 22 -10.5 33.5t-30.5 11.5q-27 0 -53.5 -22
t-30.5 -56zM899 543l-102 358l-207 -358h309z" />
    <glyph glyph-name="AE" unicode="&#xc6;" horiz-adv-x="1978" 
d="M1665 1171h-664l103 -333h614l-37 -252h-499l106 -334h514l-35 -252h-696l-86 279h-551l-168 -279h-307l862 1423h879zM571 526h334l-108 377z" />
    <glyph glyph-name="Ccedilla" unicode="&#xc7;" horiz-adv-x="1499" 
d="M1161 424l219 -195q-236 -220 -532 -249l-51 -74q27 12 65 4q63 -13 102 -69.5t29 -139.5q-10 -88 -85 -140.5t-171 -52.5q-95 0 -160 50t-69 129h190q0 -24 13.5 -35.5t29.5 -11.5q27 0 53.5 25.5t32.5 68.5q4 31 -9.5 49t-31.5 18q-35 0 -57 -28h-201l134 211
q-129 20 -239.5 87t-186 164.5t-111 226.5t-16.5 267q20 138 96 269t187.5 230t259.5 159.5t302 60.5q183 0 318 -73.5t207 -188.5l-240 -164q-62 87 -133 131.5t-164 44.5q-112 0 -228 -66t-201.5 -183.5t-104.5 -252.5q-28 -199 80 -335t294 -136q97 0 199 57t180 142z
" />
    <glyph glyph-name="Egrave" unicode="&#xc8;" horiz-adv-x="1284" 
d="M899 1522l-242 59q-82 19 -118.5 63.5t-28.5 100.5q7 52 50 85.5t102 33.5q58 0 96 -29.5t84 -93.5l112 -135zM1229 1182h-674l-47 -336h555l-33 -242h-555l-51 -362h684l-35 -242h-979l201 1423h969z" />
    <glyph glyph-name="Eacute" unicode="&#xc9;" horiz-adv-x="1284" 
d="M653 1608l146 147q57 57 100.5 83t95.5 26q68 0 108.5 -44t31.5 -108q-7 -44 -50.5 -80t-128.5 -55l-262 -55zM1229 1182h-674l-47 -336h555l-33 -242h-555l-51 -362h684l-35 -242h-979l201 1423h969z" />
    <glyph glyph-name="Ecircumflex" unicode="&#xca;" horiz-adv-x="1284" 
d="M1155 1649l-182 -127l-158 129l-186 -129l-160 127l369 215zM1229 1182h-674l-47 -336h555l-33 -242h-555l-51 -362h684l-35 -242h-979l201 1423h969z" />
    <glyph glyph-name="Edieresis" unicode="&#xcb;" horiz-adv-x="1284" 
d="M608 1837q76 0 117 -53.5t31 -120.5q-6 -53 -52.5 -95t-113.5 -42q-70 0 -113.5 53t-34.5 117q6 53 55 97t111 44zM1044 1837q76 0 117 -53.5t31 -120.5q-6 -53 -52.5 -95t-113.5 -42q-70 0 -113 53t-34 117q6 53 54.5 97t110.5 44zM1229 1182h-674l-47 -336h555
l-33 -242h-555l-51 -362h684l-35 -242h-979l201 1423h969z" />
    <glyph glyph-name="Igrave" unicode="&#xcc;" horiz-adv-x="620" 
d="M569 1522l-241 59q-82 19 -119 63.5t-29 100.5q7 52 50 85.5t102 33.5q58 0 96 -29.5t84 -93.5l113 -135zM401 0h-303l201 1423h303z" />
    <glyph glyph-name="Iacute" unicode="&#xcd;" horiz-adv-x="620" 
d="M324 1608l145 147q57 57 101 83t96 26q68 0 108 -44t31 -108q-7 -44 -50 -80t-128 -55l-262 -55zM401 0h-303l201 1423h303z" />
    <glyph glyph-name="Icircumflex" unicode="&#xce;" horiz-adv-x="620" 
d="M825 1649l-182 -127l-158 129l-186 -129l-160 127l369 215zM401 0h-303l201 1423h303z" />
    <glyph glyph-name="Idieresis" unicode="&#xcf;" horiz-adv-x="620" 
d="M279 1837q76 0 116.5 -53.5t30.5 -120.5q-6 -53 -52.5 -95t-113.5 -42q-70 0 -113 53t-34 117q6 53 55 97t111 44zM715 1837q76 0 116.5 -53.5t30.5 -120.5q-6 -53 -52.5 -95t-113.5 -42q-70 0 -113 53t-34 117q6 53 55 97t111 44zM401 0h-303l201 1423h303z" />
    <glyph glyph-name="Eth" unicode="&#xd0;" horiz-adv-x="1523" 
d="M295 1423h547q148 0 276.5 -58t213.5 -156t125 -232.5t20 -280.5q-19 -138 -90.5 -265t-178.5 -222.5t-251.5 -152t-301.5 -56.5h-561l84 596h-141l35 250h141zM424 242h252q176 0 324.5 141.5t177.5 345.5q28 196 -75.5 324.5t-283.5 128.5h-264l-47 -336h276l-34 -250
h-277z" />
    <glyph glyph-name="Ntilde" unicode="&#xd1;" horiz-adv-x="1587" 
d="M1229 1845l125 -153q-53 -74 -131 -118t-152 -44q-35 0 -62 10.5t-43.5 25t-32 29t-35 25t-42.5 10.5q-41 0 -80 -30.5t-69 -83.5l-123 153q52 72 129.5 115t152.5 43q42 0 74 -15t48 -33t40.5 -33t52.5 -15q42 0 82.5 31.5t65.5 82.5zM1145 586l121 837h295l-205 -1464
l-836 879l-121 -838h-295l205 1464z" />
    <glyph glyph-name="Ograve" unicode="&#xd2;" horiz-adv-x="1646" 
d="M1081 1522l-241 59q-82 19 -119 63.5t-29 100.5q7 52 50 85.5t102 33.5q58 0 96 -29.5t84 -93.5l113 -135zM954 1448q124 0 234.5 -36.5t194 -104.5t140.5 -160t78.5 -208t4.5 -243q-21 -144 -93 -275.5t-180.5 -230t-255.5 -157t-307 -58.5q-161 0 -294 58.5t-218.5 159
t-123 240t-15.5 296.5q21 151 92 283.5t179 228.5t254 151.5t310 55.5zM942 1198q-122 0 -234 -63t-191 -179t-99 -260q-29 -203 76.5 -337t287.5 -134q117 0 229.5 64t194 181t101.5 259q13 93 -10.5 179.5t-73 150t-123.5 101.5t-158 38z" />
    <glyph glyph-name="Oacute" unicode="&#xd3;" horiz-adv-x="1646" 
d="M836 1608l145 147q57 57 101 83t96 26q68 0 108 -44t31 -108q-7 -44 -50 -80t-128 -55l-262 -55zM954 1448q124 0 234.5 -36.5t194 -104.5t140.5 -160t78.5 -208t4.5 -243q-21 -144 -93 -275.5t-180.5 -230t-255.5 -157t-307 -58.5q-161 0 -294 58.5t-218.5 159t-123 240
t-15.5 296.5q21 151 92 283.5t179 228.5t254 151.5t310 55.5zM942 1198q-122 0 -234 -63t-191 -179t-99 -260q-29 -203 76.5 -337t287.5 -134q117 0 229.5 64t194 181t101.5 259q13 93 -10.5 179.5t-73 150t-123.5 101.5t-158 38z" />
    <glyph glyph-name="Ocircumflex" unicode="&#xd4;" horiz-adv-x="1646" 
d="M1337 1649l-182 -127l-158 129l-186 -129l-160 127l369 215zM954 1448q124 0 234.5 -36.5t194 -104.5t140.5 -160t78.5 -208t4.5 -243q-21 -144 -93 -275.5t-180.5 -230t-255.5 -157t-307 -58.5q-161 0 -294 58.5t-218.5 159t-123 240t-15.5 296.5q21 151 92 283.5
t179 228.5t254 151.5t310 55.5zM942 1198q-122 0 -234 -63t-191 -179t-99 -260q-29 -203 76.5 -337t287.5 -134q117 0 229.5 64t194 181t101.5 259q13 93 -10.5 179.5t-73 150t-123.5 101.5t-158 38z" />
    <glyph glyph-name="Otilde" unicode="&#xd5;" horiz-adv-x="1646" 
d="M1260 1845l124 -153q-53 -74 -130.5 -118t-151.5 -44q-35 0 -62 10.5t-43.5 25t-32 29t-35 25t-42.5 10.5q-41 0 -80.5 -30.5t-69.5 -83.5l-123 153q52 72 130 115t153 43q42 0 74 -15t48 -33t40.5 -33t52.5 -15q42 0 82.5 31.5t65.5 82.5zM954 1448q124 0 234.5 -36.5
t194 -104.5t140.5 -160t78.5 -208t4.5 -243q-21 -144 -93 -275.5t-180.5 -230t-255.5 -157t-307 -58.5q-161 0 -294 58.5t-218.5 159t-123 240t-15.5 296.5q21 151 92 283.5t179 228.5t254 151.5t310 55.5zM942 1198q-122 0 -234 -63t-191 -179t-99 -260q-29 -203 76.5 -337
t287.5 -134q117 0 229.5 64t194 181t101.5 259q13 93 -10.5 179.5t-73 150t-123.5 101.5t-158 38z" />
    <glyph glyph-name="Odieresis" unicode="&#xd6;" horiz-adv-x="1646" 
d="M791 1837q76 0 116.5 -53.5t30.5 -120.5q-6 -53 -52.5 -95t-113.5 -42q-70 0 -113 53t-34 117q6 53 55 97t111 44zM1227 1837q76 0 116.5 -53.5t30.5 -120.5q-6 -53 -52.5 -95t-113.5 -42q-70 0 -113 53t-34 117q6 53 55 97t111 44zM954 1448q124 0 234.5 -36.5
t194 -104.5t140.5 -160t78.5 -208t4.5 -243q-21 -144 -93 -275.5t-180.5 -230t-255.5 -157t-307 -58.5q-161 0 -294 58.5t-218.5 159t-123 240t-15.5 296.5q21 151 92 283.5t179 228.5t254 151.5t310 55.5zM942 1198q-122 0 -234 -63t-191 -179t-99 -260q-29 -203 76.5 -337
t287.5 -134q117 0 229.5 64t194 181t101.5 259q13 93 -10.5 179.5t-73 150t-123.5 101.5t-158 38z" />
    <glyph glyph-name="multiply" unicode="&#xd7;" horiz-adv-x="1294" 
d="M1219 862l-377 -327l284 -326l-211 -189l-274 338l-371 -338l-168 189l381 326l-288 327l211 187l276 -334l369 334z" />
    <glyph glyph-name="Oslash" unicode="&#xd8;" horiz-adv-x="1662" 
d="M1702 1272l-162 -142q108 -192 74 -434q-21 -144 -93 -275.5t-180.5 -230t-255.5 -157t-307 -58.5q-237 0 -409 123l-162 -141l-168 195l160 139q-106 193 -72 438q21 151 92.5 283.5t179 228.5t254 151.5t310.5 55.5q237 0 407 -125l164 143zM434 500l721 633
q-94 65 -205 65q-122 0 -234 -63t-191 -179t-99 -260q-14 -102 8 -196zM1303 920l-721 -633q91 -62 209 -62q117 0 229.5 64t193.5 181t101 259q14 95 -12 191z" />
    <glyph glyph-name="Ugrave" unicode="&#xd9;" horiz-adv-x="1560" 
d="M1038 1522l-241 59q-82 19 -119 63.5t-29 100.5q7 52 50 85.5t102 33.5q58 0 96 -29.5t84 -93.5l113 -135zM1550 1423l-120 -852q-25 -182 -125.5 -319t-250 -207t-327.5 -70q-137 0 -248.5 43.5t-186 122.5t-107 194.5t-13.5 252.5l119 835h295l-121 -852
q-12 -86 8 -154.5t62 -109t94.5 -61.5t109.5 -21q62 0 125.5 23.5t120 67.5t97.5 115t53 157l118 835h297z" />
    <glyph glyph-name="Uacute" unicode="&#xda;" horiz-adv-x="1560" 
d="M793 1608l145 147q57 57 101 83t96 26q68 0 108 -44t31 -108q-7 -44 -50 -80t-128 -55l-262 -55zM1550 1423l-120 -852q-25 -182 -125.5 -319t-250 -207t-327.5 -70q-137 0 -248.5 43.5t-186 122.5t-107 194.5t-13.5 252.5l119 835h295l-121 -852q-12 -86 8 -154.5
t62 -109t94.5 -61.5t109.5 -21q62 0 125.5 23.5t120 67.5t97.5 115t53 157l118 835h297z" />
    <glyph glyph-name="Ucircumflex" unicode="&#xdb;" horiz-adv-x="1560" 
d="M1294 1649l-182 -127l-158 129l-186 -129l-160 127l369 215zM1550 1423l-120 -852q-25 -182 -125.5 -319t-250 -207t-327.5 -70q-137 0 -248.5 43.5t-186 122.5t-107 194.5t-13.5 252.5l119 835h295l-121 -852q-12 -86 8 -154.5t62 -109t94.5 -61.5t109.5 -21
q62 0 125.5 23.5t120 67.5t97.5 115t53 157l118 835h297z" />
    <glyph glyph-name="Udieresis" unicode="&#xdc;" horiz-adv-x="1560" 
d="M748 1837q76 0 116.5 -53.5t30.5 -120.5q-6 -53 -52.5 -95t-113.5 -42q-70 0 -113 53t-34 117q6 53 55 97t111 44zM1184 1837q76 0 116.5 -53.5t30.5 -120.5q-6 -53 -52.5 -95t-113.5 -42q-70 0 -113 53t-34 117q6 53 55 97t111 44zM1550 1423l-120 -852
q-25 -182 -125.5 -319t-250 -207t-327.5 -70q-137 0 -248.5 43.5t-186 122.5t-107 194.5t-13.5 252.5l119 835h295l-121 -852q-12 -86 8 -154.5t62 -109t94.5 -61.5t109.5 -21q62 0 125.5 23.5t120 67.5t97.5 115t53 157l118 835h297z" />
    <glyph glyph-name="Yacute" unicode="&#xdd;" horiz-adv-x="1323" 
d="M674 1608l145 147q57 57 101 83t96 26q68 0 108 -44t31 -108q-7 -44 -50 -80t-128 -55l-262 -55zM840 639l-92 -639h-295l92 639l-387 784h315l248 -538l403 538h326z" />
    <glyph glyph-name="Thorn" unicode="&#xde;" horiz-adv-x="1236" 
d="M555 1174h227q91 0 175.5 -39.5t144.5 -104t90.5 -153t17.5 -181.5q-16 -114 -95.5 -216.5t-200.5 -165t-250 -62.5h-240l-35 -252h-295l201 1423h295zM520 930l-61 -434h227q71 0 141.5 70t83.5 163q12 83 -32.5 142t-118.5 59h-240z" />
    <glyph glyph-name="germandbls" unicode="&#xdf;" horiz-adv-x="1193" 
d="M86 0l145 1030q28 206 156.5 327.5t329.5 121.5q179 0 285.5 -116t82.5 -294q-9 -64 -50.5 -131t-100.5 -107q36 -16 70.5 -45.5t67 -75t47 -113.5t3.5 -146q-30 -214 -188.5 -332.5t-446.5 -118.5l31 227q85 -5 154.5 20.5t118 87t61.5 152.5q16 121 -56 177.5
t-206 56.5l24 194q79 0 133 52.5t68 138.5q11 68 -21 106.5t-85 38.5q-63 0 -117 -64t-68 -173l-143 -1014h-295z" />
    <glyph glyph-name="agrave" unicode="&#xe0;" 
d="M741 1096l-256 100q-76 30 -104.5 69.5t-22.5 94.5q7 52 51 85.5t103 33.5q84 0 158 -121l129 -178zM965 0h-279l19 106q-44 -59 -120.5 -95t-148.5 -36q-67 0 -124.5 20t-98.5 54.5t-72 82t-46 102t-21 114.5t4 119q12 84 50 164.5t96.5 147t143 107t179.5 40.5
q82 0 148 -40t98 -104l20 119h279zM600 700q-94 0 -165.5 -77.5t-86.5 -188.5q-14 -99 29 -165t129 -66q74 0 153 79t93 185q13 95 -34.5 164t-117.5 69z" />
    <glyph glyph-name="aacute" unicode="&#xe1;" 
d="M498 1180l170 190q103 109 178 109q67 0 106.5 -43.5t30.5 -108.5q-5 -43 -38.5 -74.5t-117.5 -60.5l-290 -96zM965 0h-279l19 106q-44 -59 -120.5 -95t-148.5 -36q-67 0 -124.5 20t-98.5 54.5t-72 82t-46 102t-21 114.5t4 119q12 84 50 164.5t96.5 147t143 107
t179.5 40.5q82 0 148 -40t98 -104l20 119h279zM600 700q-94 0 -165.5 -77.5t-86.5 -188.5q-14 -99 29 -165t129 -66q74 0 153 79t93 185q13 95 -34.5 164t-117.5 69z" />
    <glyph glyph-name="acircumflex" unicode="&#xe2;" 
d="M1022 1243l-172 -127l-184 150l-222 -150l-149 127l393 236zM965 0h-279l19 106q-44 -59 -120.5 -95t-148.5 -36q-67 0 -124.5 20t-98.5 54.5t-72 82t-46 102t-21 114.5t4 119q12 84 50 164.5t96.5 147t143 107t179.5 40.5q82 0 148 -40t98 -104l20 119h279zM600 700
q-94 0 -165.5 -77.5t-86.5 -188.5q-14 -99 29 -165t129 -66q74 0 153 79t93 185q13 95 -34.5 164t-117.5 69z" />
    <glyph glyph-name="atilde" unicode="&#xe3;" 
d="M924 1452l125 -154q-53 -74 -130.5 -117.5t-152.5 -43.5q-42 0 -74 15.5t-48 33.5t-40.5 33.5t-52.5 15.5q-41 0 -80.5 -30t-69.5 -81l-122 150q52 74 129.5 117t152.5 43q35 0 62 -10t43.5 -24t32 -28.5t35 -24.5t42.5 -10q43 0 83 31.5t65 83.5zM965 0h-279l19 106
q-44 -59 -120.5 -95t-148.5 -36q-67 0 -124.5 20t-98.5 54.5t-72 82t-46 102t-21 114.5t4 119q12 84 50 164.5t96.5 147t143 107t179.5 40.5q82 0 148 -40t98 -104l20 119h279zM600 700q-94 0 -165.5 -77.5t-86.5 -188.5q-14 -99 29 -165t129 -66q74 0 153 79t93 185
q13 95 -34.5 164t-117.5 69z" />
    <glyph glyph-name="adieresis" unicode="&#xe4;" 
d="M457 1444q76 0 117.5 -53.5t31.5 -120.5q-6 -54 -53.5 -95.5t-114.5 -41.5q-70 0 -114 52.5t-35 117.5q6 53 56.5 97t111.5 44zM893 1444q76 0 117.5 -53.5t31.5 -120.5q-6 -54 -53.5 -95.5t-114.5 -41.5q-70 0 -114 52.5t-35 117.5q6 53 56.5 97t111.5 44zM965 0h-279
l19 106q-44 -59 -120.5 -95t-148.5 -36q-67 0 -124.5 20t-98.5 54.5t-72 82t-46 102t-21 114.5t4 119q12 84 50 164.5t96.5 147t143 107t179.5 40.5q82 0 148 -40t98 -104l20 119h279zM600 700q-94 0 -165.5 -77.5t-86.5 -188.5q-14 -99 29 -165t129 -66q74 0 153 79t93 185
q13 95 -34.5 164t-117.5 69z" />
    <glyph glyph-name="aring" unicode="&#xe5;" 
d="M682 1499q102 0 158.5 -64.5t44.5 -156.5q-11 -79 -77 -133.5t-159 -54.5q-101 0 -159 65t-46 156q11 78 78.5 133t159.5 55zM686 1356q-27 0 -53.5 -22t-30.5 -56q-3 -22 11 -33.5t32 -11.5q26 0 52 22t30 56q3 22 -10.5 33.5t-30.5 11.5zM965 0h-279l19 106
q-44 -59 -120.5 -95t-148.5 -36q-67 0 -124.5 20t-98.5 54.5t-72 82t-46 102t-21 114.5t4 119q12 84 50 164.5t96.5 147t143 107t179.5 40.5q82 0 148 -40t98 -104l20 119h279zM600 700q-94 0 -165.5 -77.5t-86.5 -188.5q-14 -99 29 -165t129 -66q74 0 153 79t93 185
q13 95 -34.5 164t-117.5 69z" />
    <glyph glyph-name="ae" unicode="&#xe6;" horiz-adv-x="1646" 
d="M1556 385l-616 -10q-7 -79 42 -136t126 -57q68 0 139 35t123 100l178 -110q-66 -102 -183 -167t-278 -65q-86 0 -167.5 37.5t-141.5 104.5q-148 -142 -383 -142q-146 0 -238 93.5t-73 222.5q33 230 362 252l238 8l8 65q8 52 -18 75.5t-68 23.5q-59 0 -137 -23.5
t-135 -62.5l-113 159q143 138 391 138q161 0 269 -111q142 111 299 111q96 0 171 -25.5t119.5 -69t72.5 -98t35 -116t1.5 -120t-23.5 -112.5zM971 549l358 29q-3 65 -40.5 104t-106.5 39q-73 0 -131 -47.5t-80 -124.5zM659 377l-172 -8q-56 -5 -91.5 -34.5t-41.5 -76.5
q-4 -34 19.5 -52t68.5 -18q82 0 142.5 44.5t68.5 105.5z" />
    <glyph glyph-name="ccedilla" unicode="&#xe7;" horiz-adv-x="997" 
d="M764 332l141 -172q-162 -153 -336 -178l-47 -70q28 12 66 4q63 -13 102 -69.5t29 -139.5q-10 -88 -85 -140t-171 -52q-95 0 -160.5 49.5t-69.5 128.5h191q0 -24 13.5 -35.5t29.5 -11.5q27 0 53.5 25.5t32.5 68.5q4 31 -9.5 49t-31.5 18q-35 0 -57 -28h-201l131 209
q-77 16 -141 55.5t-109.5 98.5t-65 142.5t-6.5 180.5q16 114 72.5 205.5t134 145.5t161.5 82t165 28q201 0 360 -170l-153 -158q-92 102 -207 102q-97 0 -172 -78t-90 -190q-14 -96 36 -162.5t142 -66.5q135 0 252 129z" />
    <glyph glyph-name="egrave" unicode="&#xe8;" horiz-adv-x="1067" 
d="M731 1096l-256 100q-76 30 -104.5 69.5t-22.5 94.5q7 52 51 85.5t103 33.5q83 0 157 -121l129 -178zM760 295l198 -111q-75 -101 -188.5 -155t-241.5 -54q-78 0 -150.5 21t-133 63t-103.5 100.5t-61.5 138.5t-5.5 171q16 106 69 195t126 145t157 86.5t166 30.5
q209 0 324 -136.5t88 -332.5l-2 -8q-8 -57 -17 -76h-649q0 -85 58.5 -139t154.5 -54q61 0 121 34t90 81zM352 557h400q0 71 -45.5 117.5t-120.5 46.5q-70 0 -142 -48t-92 -116z" />
    <glyph glyph-name="eacute" unicode="&#xe9;" horiz-adv-x="1067" 
d="M487 1180l170 190q103 109 179 109q67 0 106.5 -43.5t30.5 -108.5q-5 -43 -38.5 -74.5t-117.5 -60.5l-291 -96zM760 295l198 -111q-75 -101 -188.5 -155t-241.5 -54q-78 0 -150.5 21t-133 63t-103.5 100.5t-61.5 138.5t-5.5 171q16 106 69 195t126 145t157 86.5t166 30.5
q209 0 324 -136.5t88 -332.5l-2 -8q-8 -57 -17 -76h-649q0 -85 58.5 -139t154.5 -54q61 0 121 34t90 81zM352 557h400q0 71 -45.5 117.5t-120.5 46.5q-70 0 -142 -48t-92 -116z" />
    <glyph glyph-name="ecircumflex" unicode="&#xea;" horiz-adv-x="1067" 
d="M1012 1243l-172 -127l-185 150l-221 -150l-149 127l393 236zM760 295l198 -111q-75 -101 -188.5 -155t-241.5 -54q-78 0 -150.5 21t-133 63t-103.5 100.5t-61.5 138.5t-5.5 171q16 106 69 195t126 145t157 86.5t166 30.5q209 0 324 -136.5t88 -332.5l-2 -8
q-8 -57 -17 -76h-649q0 -85 58.5 -139t154.5 -54q61 0 121 34t90 81zM352 557h400q0 71 -45.5 117.5t-120.5 46.5q-70 0 -142 -48t-92 -116z" />
    <glyph glyph-name="edieresis" unicode="&#xeb;" horiz-adv-x="1067" 
d="M446 1444q76 0 118 -53.5t32 -120.5q-6 -54 -53.5 -95.5t-114.5 -41.5q-70 0 -114 52.5t-35 117.5q6 53 56 97t111 44zM883 1444q76 0 117.5 -53.5t31.5 -120.5q-6 -54 -53.5 -95.5t-114.5 -41.5q-70 0 -114 52.5t-35 117.5q6 53 56.5 97t111.5 44zM760 295l198 -111
q-75 -101 -188.5 -155t-241.5 -54q-78 0 -150.5 21t-133 63t-103.5 100.5t-61.5 138.5t-5.5 171q16 106 69 195t126 145t157 86.5t166 30.5q209 0 324 -136.5t88 -332.5l-2 -8q-8 -57 -17 -76h-649q0 -85 58.5 -139t154.5 -54q61 0 121 34t90 81zM352 557h400
q0 71 -45.5 117.5t-120.5 46.5q-70 0 -142 -48t-92 -116z" />
    <glyph glyph-name="igrave" unicode="&#xec;" horiz-adv-x="573" 
d="M483 1096l-256 100q-76 30 -104.5 69.5t-22.5 94.5q7 52 51 85.5t103 33.5q84 0 158 -121l129 -178zM365 0h-279l127 901h279z" />
    <glyph glyph-name="iacute" unicode="&#xed;" horiz-adv-x="573" 
d="M240 1180l170 190q103 109 178 109q67 0 106.5 -43.5t30.5 -108.5q-5 -43 -38.5 -74.5t-117.5 -60.5l-290 -96zM365 0h-279l127 901h279z" />
    <glyph glyph-name="icircumflex" unicode="&#xee;" horiz-adv-x="573" 
d="M764 1243l-172 -127l-184 150l-222 -150l-149 127l393 236zM365 0h-279l127 901h279z" />
    <glyph glyph-name="idieresis" unicode="&#xef;" horiz-adv-x="573" 
d="M199 1444q76 0 117.5 -53.5t31.5 -120.5q-6 -54 -53.5 -95.5t-114.5 -41.5q-70 0 -114 52.5t-35 117.5q6 53 56.5 97t111.5 44zM635 1444q76 0 117.5 -53.5t31.5 -120.5q-6 -54 -53.5 -95.5t-114.5 -41.5q-70 0 -114 52.5t-35 117.5q6 53 56.5 97t111.5 44zM365 0h-279
l127 901h279z" />
    <glyph glyph-name="eth" unicode="&#xf0;" horiz-adv-x="1157" 
d="M1184 1141l-172 -27q49 -199 56.5 -384.5t-34.5 -352.5q-53 -177 -195.5 -289.5t-338.5 -112.5q-110 0 -198.5 40t-142 107t-76.5 156.5t-9 188.5q27 188 176.5 323.5t345.5 135.5q85 0 178 -19q-5 62 -26 166l-173 -26l-38 180l157 24q-46 141 -100 248l278 -12
q45 -88 84 -195l191 29zM768 467q16 113 -35 173t-131 60q-86 0 -163 -70.5t-95 -195.5q-13 -98 34.5 -164.5t129.5 -66.5q91 0 168 77.5t92 186.5z" />
    <glyph glyph-name="ntilde" unicode="&#xf1;" 
d="M965 1452l125 -154q-53 -74 -130.5 -117.5t-152.5 -43.5q-42 0 -74 15.5t-48 33.5t-40.5 33.5t-52.5 15.5q-41 0 -80.5 -30t-69.5 -81l-123 150q51 74 129.5 117t153.5 43q35 0 62 -10t43.5 -24t32 -28.5t35 -24.5t42.5 -10q43 0 83 31.5t65 83.5zM500 901l-17 -86
q43 53 108.5 82t131.5 29q42 0 81.5 -7.5t89 -34.5t82.5 -71.5t49 -126.5t1 -190l-70 -496h-278l72 512q16 111 -11 153t-88 42q-67 0 -130 -52t-79 -159l-69 -496h-279l127 901h279z" />
    <glyph glyph-name="ograve" unicode="&#xf2;" horiz-adv-x="1191" 
d="M791 1096l-256 100q-76 30 -104.5 69.5t-22.5 94.5q7 52 50.5 85.5t102.5 33.5q84 0 158 -121l129 -178zM651 926q156 0 269 -68.5t162 -180t30 -243.5q-13 -93 -61 -176.5t-121.5 -146t-174.5 -99.5t-214 -37q-156 0 -268.5 68t-161 179.5t-29.5 244.5q13 92 60.5 175.5
t120.5 146.5t174 100t214 37zM643 700q-94 0 -180 -79t-101 -187q-13 -96 44 -163.5t143 -67.5q95 0 181 78t101 186q13 96 -45 164.5t-143 68.5z" />
    <glyph glyph-name="oacute" unicode="&#xf3;" horiz-adv-x="1191" 
d="M547 1180l170 190q103 109 178 109q67 0 106.5 -43.5t30.5 -108.5q-5 -43 -38 -74.5t-117 -60.5l-291 -96zM651 926q156 0 269 -68.5t162 -180t30 -243.5q-13 -93 -61 -176.5t-121.5 -146t-174.5 -99.5t-214 -37q-156 0 -268.5 68t-161 179.5t-29.5 244.5
q13 92 60.5 175.5t120.5 146.5t174 100t214 37zM643 700q-94 0 -180 -79t-101 -187q-13 -96 44 -163.5t143 -67.5q95 0 181 78t101 186q13 96 -45 164.5t-143 68.5z" />
    <glyph glyph-name="ocircumflex" unicode="&#xf4;" horiz-adv-x="1191" 
d="M1071 1243l-172 -127l-184 150l-221 -150l-150 127l393 236zM651 926q156 0 269 -68.5t162 -180t30 -243.5q-13 -93 -61 -176.5t-121.5 -146t-174.5 -99.5t-214 -37q-156 0 -268.5 68t-161 179.5t-29.5 244.5q13 92 60.5 175.5t120.5 146.5t174 100t214 37zM643 700
q-94 0 -180 -79t-101 -187q-13 -96 44 -163.5t143 -67.5q95 0 181 78t101 186q13 96 -45 164.5t-143 68.5z" />
    <glyph glyph-name="otilde" unicode="&#xf5;" horiz-adv-x="1191" 
d="M973 1452l125 -154q-53 -74 -130.5 -117.5t-152.5 -43.5q-42 0 -74 15.5t-48 33.5t-40.5 33.5t-52.5 15.5q-41 0 -80 -29.5t-69 -81.5l-123 150q52 74 129.5 117t152.5 43q35 0 62 -10t43.5 -24t32 -28.5t35 -24.5t42.5 -10q43 0 83 31.5t65 83.5zM651 926
q156 0 269 -68.5t162 -180t30 -243.5q-13 -93 -61 -176.5t-121.5 -146t-174.5 -99.5t-214 -37q-156 0 -268.5 68t-161 179.5t-29.5 244.5q13 92 60.5 175.5t120.5 146.5t174 100t214 37zM643 700q-94 0 -180 -79t-101 -187q-13 -96 44 -163.5t143 -67.5q95 0 181 78t101 186
q13 96 -45 164.5t-143 68.5z" />
    <glyph glyph-name="odieresis" unicode="&#xf6;" horiz-adv-x="1191" 
d="M506 1444q76 0 117.5 -53.5t31.5 -120.5q-6 -54 -53.5 -95.5t-114.5 -41.5q-70 0 -114 52.5t-35 117.5q6 53 56.5 97t111.5 44zM942 1444q76 0 118 -53.5t32 -120.5q-6 -54 -53.5 -95.5t-114.5 -41.5q-70 0 -114.5 52.5t-35.5 117.5q6 53 56.5 97t111.5 44zM651 926
q156 0 269 -68.5t162 -180t30 -243.5q-13 -93 -61 -176.5t-121.5 -146t-174.5 -99.5t-214 -37q-156 0 -268.5 68t-161 179.5t-29.5 244.5q13 92 60.5 175.5t120.5 146.5t174 100t214 37zM643 700q-94 0 -180 -79t-101 -187q-13 -96 44 -163.5t143 -67.5q95 0 181 78t101 186
q13 96 -45 164.5t-143 68.5z" />
    <glyph glyph-name="divide" unicode="&#xf7;" horiz-adv-x="1191" 
d="M678 1094q77 0 124 -54t38 -120q-6 -52 -59.5 -94t-121.5 -42q-71 0 -120.5 53t-40.5 115q6 52 62 97t118 45zM1055 418h-922l33 233h921zM578 287q77 0 123.5 -54t37.5 -120q-8 -53 -61 -95.5t-121 -42.5q-71 0 -121 53t-41 117q8 52 64.5 97t118.5 45z" />
    <glyph glyph-name="oslash" unicode="&#xf8;" horiz-adv-x="1136" 
d="M1116 797l-98 -88q70 -126 49 -271q-17 -122 -97 -229t-202 -170.5t-254 -63.5q-135 0 -250 72l-100 -90l-137 156l96 86q-70 127 -49 272q17 121 97 226t201.5 167t252.5 62q136 0 247 -68l107 94zM334 385l346 303q-30 12 -64 12q-95 0 -180 -77t-100 -185
q-2 -18 -2 -53zM807 524l-350 -309q30 -12 65 -12q94 0 181 80t102 188q2 18 2 53z" />
    <glyph glyph-name="ugrave" unicode="&#xf9;" horiz-adv-x="1148" 
d="M770 1096l-256 100q-76 30 -104.5 69.5t-22.5 94.5q7 52 51 85.5t103 33.5q83 0 157 -121l129 -178zM944 0h-278l16 86q-43 -53 -108.5 -82t-131.5 -29q-42 0 -82 7.5t-89 35t-82 71.5t-49 126.5t-1 190.5l70 495h278l-71 -512q-16 -111 11.5 -152.5t88.5 -41.5
q30 0 61 11t61.5 34.5t53.5 66.5t31 99l70 495h278z" />
    <glyph glyph-name="uacute" unicode="&#xfa;" horiz-adv-x="1148" 
d="M526 1180l170 190q103 109 178 109q68 0 107.5 -44t30.5 -108q-5 -43 -38.5 -74.5t-117.5 -60.5l-291 -96zM944 0h-278l16 86q-43 -53 -108.5 -82t-131.5 -29q-42 0 -82 7.5t-89 35t-82 71.5t-49 126.5t-1 190.5l70 495h278l-71 -512q-16 -111 11.5 -152.5t88.5 -41.5
q30 0 61 11t61.5 34.5t53.5 66.5t31 99l70 495h278z" />
    <glyph glyph-name="ucircumflex" unicode="&#xfb;" horiz-adv-x="1148" 
d="M1051 1243l-172 -127l-185 150l-221 -150l-149 127l393 236zM944 0h-278l16 86q-43 -53 -108.5 -82t-131.5 -29q-42 0 -82 7.5t-89 35t-82 71.5t-49 126.5t-1 190.5l70 495h278l-71 -512q-16 -111 11.5 -152.5t88.5 -41.5q30 0 61 11t61.5 34.5t53.5 66.5t31 99l70 495
h278z" />
    <glyph glyph-name="udieresis" unicode="&#xfc;" horiz-adv-x="1148" 
d="M485 1444q76 0 118 -53.5t32 -120.5q-6 -54 -53.5 -95.5t-114.5 -41.5q-70 0 -114.5 52.5t-35.5 117.5q6 53 56.5 97t111.5 44zM922 1444q76 0 117.5 -53.5t31.5 -120.5q-6 -54 -53.5 -95.5t-114.5 -41.5q-70 0 -114 52.5t-35 117.5q6 53 56.5 97t111.5 44zM944 0h-278
l16 86q-43 -53 -108.5 -82t-131.5 -29q-42 0 -82 7.5t-89 35t-82 71.5t-49 126.5t-1 190.5l70 495h278l-71 -512q-16 -111 11.5 -152.5t88.5 -41.5q30 0 61 11t61.5 34.5t53.5 66.5t31 99l70 495h278z" />
    <glyph glyph-name="yacute" unicode="&#xfd;" horiz-adv-x="1073" 
d="M489 1180l170 190q103 109 179 109q67 0 106.5 -43.5t30.5 -108.5q-5 -43 -38.5 -74.5t-117.5 -60.5l-291 -96zM317 -492h-286l323 564l-276 829h299l147 -526l299 526h307z" />
    <glyph glyph-name="thorn" unicode="&#xfe;" horiz-adv-x="1179" 
d="M569 1454l-96 -659q44 60 120 95.5t148 35.5q100 0 176.5 -43t119 -114t59.5 -157.5t4 -177.5q-12 -84 -50 -164.5t-96.5 -147t-143 -107t-179.5 -40.5q-82 0 -148 40t-98 104l-90 -611h-279l275 1946h278zM672 698q-74 0 -153 -79t-93 -185q-13 -95 34.5 -164t117.5 -69
q94 0 165 77.5t86 188.5q14 99 -28.5 165t-128.5 66z" />
    <glyph glyph-name="ydieresis" unicode="&#xff;" horiz-adv-x="1073" 
d="M449 1444q76 0 117.5 -53.5t31.5 -120.5q-6 -54 -53.5 -95.5t-114.5 -41.5q-70 0 -114 52.5t-35 117.5q6 53 56.5 97t111.5 44zM885 1444q76 0 117.5 -53.5t31.5 -120.5q-6 -54 -53.5 -95.5t-114.5 -41.5q-70 0 -114 52.5t-35 117.5q6 53 56.5 97t111.5 44zM317 -492
h-286l323 564l-276 829h299l147 -526l299 526h307z" />
    <glyph glyph-name="Amacron" unicode="&#x100;" horiz-adv-x="1447" 
d="M1235 1571h-696l30 213h697zM967 309h-512l-181 -309h-315l909 1464l494 -1464h-307zM899 543l-102 358l-207 -358h309z" />
    <glyph glyph-name="amacron" unicode="&#x101;" 
d="M997 1178h-696l31 213h696zM965 0h-279l19 106q-44 -59 -120.5 -95t-148.5 -36q-67 0 -124.5 20t-98.5 54.5t-72 82t-46 102t-21 114.5t4 119q12 84 50 164.5t96.5 147t143 107t179.5 40.5q82 0 148 -40t98 -104l20 119h279zM600 700q-94 0 -165.5 -77.5t-86.5 -188.5
q-14 -99 29 -165t129 -66q74 0 153 79t93 185q13 95 -34.5 164t-117.5 69z" />
    <glyph glyph-name="Abreve" unicode="&#x102;" horiz-adv-x="1447" 
d="M1053 1847l202 -16q-7 -59 -33.5 -113t-70.5 -98.5t-111 -71t-147 -26.5q-85 0 -149.5 29t-99.5 76.5t-49 104t-5 115.5l215 -16q-14 -70 8 -107.5t78 -37.5q65 0 109.5 45.5t52.5 115.5zM967 309h-512l-181 -309h-315l909 1464l494 -1464h-307zM899 543l-102 358
l-207 -358h309z" />
    <glyph glyph-name="abreve" unicode="&#x103;" 
d="M817 1446h201q-13 -125 -110 -217t-253 -92q-85 0 -149.5 26.5t-99.5 70.5t-48.5 98.5t-3.5 113.5h213q-11 -60 12.5 -103t73.5 -43q61 0 108 39t56 107zM965 0h-279l19 106q-44 -59 -120.5 -95t-148.5 -36q-67 0 -124.5 20t-98.5 54.5t-72 82t-46 102t-21 114.5t4 119
q12 84 50 164.5t96.5 147t143 107t179.5 40.5q82 0 148 -40t98 -104l20 119h279zM600 700q-94 0 -165.5 -77.5t-86.5 -188.5q-14 -99 29 -165t129 -66q74 0 153 79t93 185q13 95 -34.5 164t-117.5 69z" />
    <glyph glyph-name="Aogonek" unicode="&#x104;" horiz-adv-x="1447" 
d="M1399 -209l-43 -151l-88 -19q-124 -22 -197.5 34t-62.5 144q8 62 48.5 109t112.5 92h-114l-88 309h-512l-181 -309h-315l909 1464l494 -1462v-2h-4q-44 -30 -86.5 -88.5t-48.5 -104.5q-4 -30 23.5 -36t58.5 4zM899 543l-102 358l-207 -358h309z" />
    <glyph glyph-name="aogonek" unicode="&#x105;" 
d="M1092 901l-127 -901q-45 -29 -89.5 -88t-50.5 -107q-4 -30 23.5 -36t58.5 4l94 16l-43 -151l-88 -19q-124 -22 -197.5 34t-62.5 144q8 63 50 110t116 93h-90l19 106q-44 -59 -120.5 -95t-148.5 -36q-67 0 -124.5 20t-98.5 54.5t-72 82t-46 102t-21 114.5t4 119
q12 84 50 164.5t96.5 147t143 107t179.5 40.5q82 0 148 -40t98 -104l20 119h279zM752 467q13 95 -34.5 164t-117.5 69q-94 0 -165.5 -77.5t-86.5 -188.5q-14 -99 29 -165t129 -66q74 0 153 79t93 185z" />
    <glyph glyph-name="Cacute" unicode="&#x106;" horiz-adv-x="1499" 
d="M836 1606l145 147q57 57 101 83t96 26q68 0 108 -44t31 -108q-7 -44 -50 -80t-128 -55l-262 -55zM1161 424l219 -195q-128 -119 -284.5 -186.5t-325.5 -67.5q-147 0 -278.5 60t-222.5 160.5t-136 241t-24 292.5q20 138 96 269t187.5 230t259.5 159.5t302 60.5
q183 0 318 -73.5t207 -188.5l-240 -164q-62 87 -133 131.5t-164 44.5q-112 0 -228 -66t-201.5 -183.5t-104.5 -252.5q-28 -199 80 -335t294 -136q97 0 199 57t180 142z" />
    <glyph glyph-name="cacute" unicode="&#x107;" horiz-adv-x="997" 
d="M492 1180l170 190q103 109 178 109q67 0 106.5 -43.5t30.5 -108.5q-5 -43 -38.5 -74.5t-117.5 -60.5l-291 -96zM764 332l141 -172q-38 -36 -72.5 -63t-87 -57.5t-116 -47.5t-133.5 -17q-96 0 -181 33t-147 94t-91.5 155t-13.5 208t72.5 205.5t134 145.5t161.5 82t165 28
q201 0 360 -170l-153 -158q-92 102 -207 102q-97 0 -172 -78t-90 -190q-14 -96 36 -162.5t142 -66.5q135 0 252 129z" />
    <glyph glyph-name="Cdotaccent" unicode="&#x10a;" horiz-adv-x="1499" 
d="M1008 1833q76 0 116.5 -53.5t30.5 -120.5q-6 -53 -52.5 -95t-113.5 -42q-70 0 -112.5 53t-34.5 117q8 53 56.5 97t109.5 44zM1161 424l219 -195q-128 -119 -284.5 -186.5t-325.5 -67.5q-147 0 -278.5 60t-222.5 160.5t-136 241t-24 292.5q20 138 96 269t187.5 230
t259.5 159.5t302 60.5q183 0 318 -73.5t207 -188.5l-240 -164q-62 87 -133 131.5t-164 44.5q-112 0 -228 -66t-201.5 -183.5t-104.5 -252.5q-28 -199 80 -335t294 -136q97 0 199 57t180 142z" />
    <glyph glyph-name="cdotaccent" unicode="&#x10b;" horiz-adv-x="997" 
d="M668 1444q76 0 116.5 -53.5t30.5 -120.5q-6 -54 -52.5 -95.5t-113.5 -41.5q-70 0 -112 52.5t-33 117.5q6 53 54.5 97t109.5 44zM764 332l141 -172q-38 -36 -72.5 -63t-87 -57.5t-116 -47.5t-133.5 -17q-96 0 -181 33t-147 94t-91.5 155t-13.5 208t72.5 205.5t134 145.5
t161.5 82t165 28q201 0 360 -170l-153 -158q-92 102 -207 102q-97 0 -172 -78t-90 -190q-14 -96 36 -162.5t142 -66.5q135 0 252 129z" />
    <glyph glyph-name="Ccaron" unicode="&#x10c;" horiz-adv-x="1499" 
d="M1348 1735l-367 -215l-319 215l174 127l165 -129l199 129zM1161 424l219 -195q-128 -119 -284.5 -186.5t-325.5 -67.5q-147 0 -278.5 60t-222.5 160.5t-136 241t-24 292.5q20 138 96 269t187.5 230t259.5 159.5t302 60.5q183 0 318 -73.5t207 -188.5l-240 -164
q-62 87 -133 131.5t-164 44.5q-112 0 -228 -66t-201.5 -183.5t-104.5 -252.5q-28 -199 80 -335t294 -136q97 0 199 57t180 142z" />
    <glyph glyph-name="ccaron" unicode="&#x10d;" horiz-adv-x="997" 
d="M1030 1352l-391 -236l-336 236l195 127l161 -150l203 150zM764 332l141 -172q-38 -36 -72.5 -63t-87 -57.5t-116 -47.5t-133.5 -17q-96 0 -181 33t-147 94t-91.5 155t-13.5 208t72.5 205.5t134 145.5t161.5 82t165 28q201 0 360 -170l-153 -158q-92 102 -207 102
q-97 0 -172 -78t-90 -190q-14 -96 36 -162.5t142 -66.5q135 0 252 129z" />
    <glyph glyph-name="Dcaron" unicode="&#x10e;" horiz-adv-x="1523" 
d="M1239 1737l-367 -215l-319 215l174 127l166 -129l199 129zM295 1423h547q148 0 276.5 -58t213.5 -156t125 -232.5t20 -280.5q-19 -138 -90.5 -265t-178.5 -222.5t-251.5 -152t-301.5 -56.5h-561zM555 1182l-131 -940h252q176 0 324.5 141.5t177.5 345.5
q28 196 -75.5 324.5t-283.5 128.5h-264z" />
    <glyph glyph-name="dcaron" unicode="&#x10f;" horiz-adv-x="1318" 
d="M954 0h-278l18 106q-44 -60 -120 -95.5t-148 -35.5q-67 0 -124.5 20t-98.5 54.5t-72 82t-46 102t-21 114.5t4 119q12 84 50 164.5t96.5 147t143 107t179.5 40.5q82 0 147.5 -40t97.5 -104l99 672h278zM1186 987l90 344q13 47 50.5 82t86.5 35q62 0 91 -42.5t22 -98.5
q-4 -27 -35 -66l-238 -254h-67zM590 700q-94 0 -165.5 -77.5t-86.5 -188.5q-14 -99 29 -165t129 -66q74 0 152.5 79t92.5 185q13 96 -34 164.5t-117 68.5z" />
    <glyph glyph-name="Dcroat" unicode="&#x110;" horiz-adv-x="1523" 
d="M295 1423h547q148 0 276.5 -58t213.5 -156t125 -232.5t20 -280.5q-19 -138 -90.5 -265t-178.5 -222.5t-251.5 -152t-301.5 -56.5h-561l84 596h-141l35 250h141zM424 242h252q176 0 324.5 141.5t177.5 345.5q28 196 -75.5 324.5t-283.5 128.5h-264l-47 -336h276l-34 -250
h-277z" />
    <glyph glyph-name="dcroat" unicode="&#x111;" horiz-adv-x="1214" 
d="M1298 1096h-178l-153 -1096h-279l19 106q-44 -59 -120.5 -95t-148.5 -36q-67 0 -124.5 20t-98.5 54.5t-72 82t-46 102t-21 114.5t4 119q12 84 50 164.5t96.5 147t143 107t179.5 40.5q82 0 148 -40t98 -104l45 314h-238l31 213h239l21 145h278l-20 -145h178zM754 467
q13 95 -34.5 164t-117.5 69q-94 0 -165.5 -77.5t-86.5 -188.5q-14 -99 29 -165t129 -66q74 0 153 79t93 185z" />
    <glyph glyph-name="Emacron" unicode="&#x112;" horiz-adv-x="1284" 
d="M1149 1571h-696l30 213h697zM1229 1182h-674l-47 -336h555l-33 -242h-555l-51 -362h684l-35 -242h-979l201 1423h969z" />
    <glyph glyph-name="emacron" unicode="&#x113;" horiz-adv-x="1067" 
d="M987 1178h-696l31 213h696zM760 295l198 -111q-75 -101 -188.5 -155t-241.5 -54q-78 0 -150.5 21t-133 63t-103.5 100.5t-61.5 138.5t-5.5 171q16 106 69 195t126 145t157 86.5t166 30.5q209 0 324 -136.5t88 -332.5l-2 -8q-8 -57 -17 -76h-649q0 -85 58.5 -139
t154.5 -54q61 0 121 34t90 81zM352 557h400q0 71 -45.5 117.5t-120.5 46.5q-70 0 -142 -48t-92 -116z" />
    <glyph glyph-name="Edotaccent" unicode="&#x116;" horiz-adv-x="1284" 
d="M825 1835q76 0 117 -53.5t31 -120.5q-6 -53 -52.5 -95t-113.5 -42q-70 0 -113 53t-35 117q8 53 56.5 97t109.5 44zM1229 1182h-674l-47 -336h555l-33 -242h-555l-51 -362h684l-35 -242h-979l201 1423h969z" />
    <glyph glyph-name="edotaccent" unicode="&#x117;" horiz-adv-x="1067" 
d="M664 1444q76 0 116.5 -53.5t30.5 -120.5q-6 -54 -52.5 -95.5t-113.5 -41.5q-70 0 -112 52.5t-33 117.5q6 53 54.5 97t109.5 44zM760 295l198 -111q-75 -101 -188.5 -155t-241.5 -54q-78 0 -150.5 21t-133 63t-103.5 100.5t-61.5 138.5t-5.5 171q16 106 69 195t126 145
t157 86.5t166 30.5q209 0 324 -136.5t88 -332.5l-2 -8q-8 -57 -17 -76h-649q0 -85 58.5 -139t154.5 -54q61 0 121 34t90 81zM352 557h400q0 71 -45.5 117.5t-120.5 46.5q-70 0 -142 -48t-92 -116z" />
    <glyph glyph-name="Eogonek" unicode="&#x118;" horiz-adv-x="1284" 
d="M555 1182l-47 -336h555l-33 -242h-555l-51 -362h684l-35 -242q-45 -28 -89 -87.5t-50 -107.5q-4 -30 23.5 -36t58.5 4l94 16l-43 -151l-88 -19q-124 -22 -197.5 34t-62.5 144q8 63 50 110t116 93h-791l201 1423h969l-35 -241h-674z" />
    <glyph glyph-name="eogonek" unicode="&#x119;" horiz-adv-x="1067" 
d="M862 -270l-88 -19q-124 -22 -197.5 34t-62.5 144q5 42 33 86h-19q-78 0 -150.5 21t-133 63t-103.5 100.5t-61.5 138.5t-5.5 171q16 106 69 195t126 145t157 86.5t166 30.5q209 0 324 -136.5t88 -332.5l-2 -8q-8 -57 -17 -76h-649q0 -85 58.5 -139t154.5 -54q61 0 121 34
t90 81l198 -111q-52 -70 -122 -116q-40 -35 -71.5 -83t-35.5 -87q-4 -30 23.5 -36.5t58.5 3.5l94 16zM352 557h400q0 71 -45.5 117.5t-120.5 46.5q-70 0 -142 -48t-92 -116z" />
    <glyph glyph-name="Ecaron" unicode="&#x11a;" horiz-adv-x="1284" 
d="M1165 1737l-366 -215l-320 215l174 127l166 -129l199 129zM1229 1182h-674l-47 -336h555l-33 -242h-555l-51 -362h684l-35 -242h-979l201 1423h969z" />
    <glyph glyph-name="ecaron" unicode="&#x11b;" horiz-adv-x="1067" 
d="M1026 1352l-391 -236l-336 236l195 127l161 -150l203 150zM760 295l198 -111q-75 -101 -188.5 -155t-241.5 -54q-78 0 -150.5 21t-133 63t-103.5 100.5t-61.5 138.5t-5.5 171q16 106 69 195t126 145t157 86.5t166 30.5q209 0 324 -136.5t88 -332.5l-2 -8q-8 -57 -17 -76
h-649q0 -85 58.5 -139t154.5 -54q61 0 121 34t90 81zM352 557h400q0 71 -45.5 117.5t-120.5 46.5q-70 0 -142 -48t-92 -116z" />
    <glyph glyph-name="Gbreve" unicode="&#x11e;" horiz-adv-x="1542" 
d="M1147 1847l203 -16q-7 -58 -34 -112.5t-71 -99t-111 -71t-147 -26.5q-85 0 -149.5 29t-99.5 76.5t-49 104t-5 115.5l215 -16q-14 -70 8 -107.5t78 -37.5q65 0 109.5 45.5t52.5 115.5zM1489 834l-14 -111l-60 -449q-132 -143 -302 -221t-345 -78q-147 0 -278.5 60
t-223 160.5t-136.5 241t-24 292.5q20 138 96 269t188 230t260 159.5t302 60.5q184 0 325 -74.5t212 -187.5l-242 -168q-132 180 -307 180q-112 0 -228 -66t-201.5 -183.5t-104.5 -252.5q-28 -199 80 -335t294 -136q92 0 183.5 41t166.5 111l33 215h-350l33 242h643z" />
    <glyph glyph-name="gbreve" unicode="&#x11f;" 
d="M809 1446h201q-13 -125 -110 -217t-253 -92q-85 0 -149.5 26.5t-99.5 70.5t-48.5 98.5t-3.5 113.5h213q-11 -60 12.5 -103t73.5 -43q61 0 108 39t56 107zM680 -41l25 147q-44 -59 -120.5 -95t-148.5 -36q-67 0 -124.5 20t-98.5 54.5t-72 82t-46 102t-21 114.5t4 119
q12 84 50 164.5t96.5 147t143 107t179.5 40.5q82 0 148 -40t98 -104l20 119h279l-134 -942q-31 -218 -179 -346.5t-388 -128.5q-116 0 -235.5 55.5t-182.5 143.5l152 213q54 -83 136 -129t175 -46q97 0 161.5 66.5t82.5 171.5zM600 700q-94 0 -165.5 -77.5t-86.5 -188.5
q-14 -99 29 -165t129 -66q74 0 153 79t93 185q13 95 -34.5 164t-117.5 69z" />
    <glyph glyph-name="Gdotaccent" unicode="&#x120;" horiz-adv-x="1542" 
d="M987 1524q-70 0 -112.5 53t-34.5 117q8 53 56.5 97t109.5 44q76 0 116.5 -53.5t30.5 -120.5q-6 -53 -52.5 -95t-113.5 -42zM1489 834l-14 -111l-60 -449q-132 -143 -302 -221t-345 -78q-147 0 -278.5 60t-223 160.5t-136.5 241t-24 292.5q20 138 96 269t188 230
t260 159.5t302 60.5q184 0 325 -74.5t212 -187.5l-242 -168q-132 180 -307 180q-112 0 -228 -66t-201.5 -183.5t-104.5 -252.5q-28 -199 80 -335t294 -136q92 0 183.5 41t166.5 111l33 215h-350l33 242h643z" />
    <glyph glyph-name="gdotaccent" unicode="&#x121;" 
d="M666 1444q76 0 116.5 -53.5t30.5 -120.5q-6 -54 -52.5 -95.5t-113.5 -41.5q-70 0 -112 52.5t-33 117.5q6 53 54.5 97t109.5 44zM680 -41l25 147q-44 -59 -120.5 -95t-148.5 -36q-67 0 -124.5 20t-98.5 54.5t-72 82t-46 102t-21 114.5t4 119q12 84 50 164.5t96.5 147
t143 107t179.5 40.5q82 0 148 -40t98 -104l20 119h279l-134 -942q-31 -218 -179 -346.5t-388 -128.5q-116 0 -235.5 55.5t-182.5 143.5l152 213q54 -83 136 -129t175 -46q97 0 161.5 66.5t82.5 171.5zM600 700q-94 0 -165.5 -77.5t-86.5 -188.5q-14 -99 29 -165t129 -66
q74 0 153 79t93 185q13 95 -34.5 164t-117.5 69z" />
    <glyph glyph-name="Gcommaaccent" unicode="&#x122;" horiz-adv-x="1542" 
d="M1489 834l-14 -111l-60 -449q-132 -143 -302 -221t-345 -78q-147 0 -278.5 60t-223 160.5t-136.5 241t-24 292.5q20 138 96 269t188 230t260 159.5t302 60.5q184 0 325 -74.5t212 -187.5l-242 -168q-132 180 -307 180q-112 0 -228 -66t-201.5 -183.5t-104.5 -252.5
q-28 -199 80 -335t294 -136q92 0 183.5 41t166.5 111l33 215h-350l33 242h643zM489 -686l58 410q8 57 63.5 103t118.5 46q75 0 113 -53t30 -121q-5 -23 -28 -61l-242 -324h-113z" />
    <glyph glyph-name="gcommaaccent" unicode="&#x123;" 
d="M836 1587l-58 -409q-8 -58 -61 -104t-115 -46q-75 0 -111 52.5t-26 121.5q5 27 27 62l251 323h93zM680 -41l25 147q-44 -59 -120.5 -95t-148.5 -36q-67 0 -124.5 20t-98.5 54.5t-72 82t-46 102t-21 114.5t4 119q12 84 50 164.5t96.5 147t143 107t179.5 40.5q82 0 148 -40
t98 -104l20 119h279l-134 -942q-31 -218 -179 -346.5t-388 -128.5q-116 0 -235.5 55.5t-182.5 143.5l152 213q54 -83 136 -129t175 -46q97 0 161.5 66.5t82.5 171.5zM600 700q-94 0 -165.5 -77.5t-86.5 -188.5q-14 -99 29 -165t129 -66q74 0 153 79t93 185q13 95 -34.5 164
t-117.5 69z" />
    <glyph glyph-name="Hbar" unicode="&#x126;" horiz-adv-x="1570" 
d="M1642 1014h-153l-143 -1014h-295l84 592h-654l-84 -592h-295l144 1014h-154l29 213h153l29 196h295l-29 -196h654l28 196h295l-28 -196h153zM1194 1014h-653l-27 -180h653z" />
    <glyph glyph-name="hbar" unicode="&#x127;" 
d="M522 1077l-39 -262q43 53 108.5 82t131.5 29q28 0 54 -3t58 -11t57.5 -22t52.5 -36.5t44 -54t31 -75.5t13.5 -100.5t-7.5 -127.5l-70 -496h-278l72 512q16 111 -11 153t-88 42q-67 0 -130 -52t-79 -159l-69 -496h-279l152 1077h-146l31 213h145l23 164h279l-25 -164h274
l-30 -213h-275z" />
    <glyph glyph-name="Imacron" unicode="&#x12a;" horiz-adv-x="620" 
d="M819 1571h-696l31 213h696zM401 0h-303l201 1423h303z" />
    <glyph glyph-name="imacron" unicode="&#x12b;" horiz-adv-x="573" 
d="M739 1178h-696l31 213h696zM365 0h-279l127 901h279z" />
    <glyph glyph-name="Iogonek" unicode="&#x12e;" horiz-adv-x="620" 
d="M602 1423l-201 -1423q-45 -28 -89 -87.5t-50 -107.5q-4 -30 23.5 -36t58.5 4l94 16l-43 -151l-88 -19q-124 -22 -197.5 34t-62.5 144q8 63 50 110t116 93h-115l201 1423h303z" />
    <glyph glyph-name="iogonek" unicode="&#x12f;" horiz-adv-x="573" 
d="M416 1444q76 0 116.5 -53.5t30.5 -120.5q-6 -54 -52.5 -95.5t-113.5 -41.5q-70 0 -112 52.5t-33 117.5q6 53 54.5 97t109.5 44zM492 901l-127 -901q-45 -29 -89.5 -88t-50.5 -107q-4 -30 23.5 -36t58.5 4l94 16l-43 -151l-88 -19q-124 -22 -197.5 34t-62.5 144
q8 63 50 110t116 93h-90l127 901h279z" />
    <glyph glyph-name="Idotaccent" unicode="&#x130;" horiz-adv-x="620" 
d="M496 1835q76 0 116.5 -53.5t30.5 -120.5q-6 -53 -52.5 -95t-113.5 -42q-70 0 -112.5 53t-34.5 117q8 53 56.5 97t109.5 44zM401 0h-303l201 1423h303z" />
    <glyph glyph-name="dotlessi" unicode="&#x131;" horiz-adv-x="573" 
d="M365 0h-279l127 901h279z" />
    <glyph glyph-name="IJ" unicode="&#x132;" horiz-adv-x="1325" 
d="M401 0h-303l201 1423h303zM1305 1423l-179 -1265q-25 -177 -135 -327.5t-278 -236.5t-351 -77l23 250q159 -13 288 107t154 300l177 1249h301z" />
    <glyph glyph-name="ij" unicode="&#x133;" horiz-adv-x="1132" 
d="M403 1448q76 0 118.5 -50t33.5 -118q-8 -57 -56 -100t-116 -43q-75 0 -117 53.5t-33 122.5q8 56 55.5 95.5t114.5 39.5zM977 1444q77 0 126 -50.5t40 -117.5q-8 -56 -62 -99.5t-123 -43.5q-77 0 -124.5 54t-38.5 122q8 55 61 95t121 40zM350 0h-278l127 901h278z
M1053 901l-119 -846q-18 -124 -84 -264.5t-176 -234.5l-201 137q67 68 119.5 177t64.5 202l117 829h279z" />
    <glyph glyph-name="Kcommaaccent" unicode="&#x136;" horiz-adv-x="1417" 
d="M842 831l471 -831h-334l-354 627l-170 -160l-66 -467h-295l201 1423h295l-84 -596l610 596h352zM389 -686l57 410q8 58 61.5 103.5t115.5 45.5q75 0 111 -52.5t28 -121.5q-4 -21 -29 -61l-252 -324h-92z" />
    <glyph glyph-name="kcommaaccent" unicode="&#x137;" horiz-adv-x="1118" 
d="M694 506l340 -506h-319l-289 434l-61 -434h-279l205 1454h278l-125 -883l338 330h332zM223 -686l58 410q8 58 61 103.5t115 45.5q75 0 111 -52.5t28 -121.5q-4 -21 -29 -61l-252 -324h-92z" />
    <glyph glyph-name="Lacute" unicode="&#x139;" horiz-adv-x="1146" 
d="M623 1608l145 147q57 57 101 83t96 26q68 0 108 -44t31 -108q-7 -44 -50 -80t-128 -55l-262 -55zM424 242h655l-35 -242h-950l201 1423h295z" />
    <glyph glyph-name="lacute" unicode="&#x13a;" horiz-adv-x="579" 
d="M303 1608l146 147q57 57 100.5 83t95.5 26q68 0 108 -44t31 -108q-7 -44 -50 -80t-128 -55l-262 -55zM369 0h-279l205 1454h278z" />
    <glyph glyph-name="Lcommaaccent" unicode="&#x13b;" horiz-adv-x="1146" 
d="M424 242h655l-35 -242h-950l201 1423h295zM285 -686l57 410q8 58 61 103.5t115 45.5q75 0 111 -52.5t28 -121.5q-5 -23 -28 -61l-252 -324h-92z" />
    <glyph glyph-name="lcommaaccent" unicode="&#x13c;" horiz-adv-x="579" 
d="M369 0h-279l205 1454h278zM-35 -686l58 410q8 58 61 103.5t115 45.5q75 0 111 -52.5t28 -121.5q-4 -21 -29 -61l-252 -324h-92z" />
    <glyph glyph-name="Lcaron" unicode="&#x13d;" horiz-adv-x="1146" 
d="M727 987l90 344q13 47 50.5 82t86.5 35q62 0 91 -42.5t22 -98.5q-4 -27 -35 -66l-237 -254h-68zM424 242h655l-35 -242h-950l201 1423h295z" />
    <glyph glyph-name="lcaron" unicode="&#x13e;" horiz-adv-x="729" 
d="M358 0h-278l205 1454h278zM582 987l90 344q13 47 50.5 82t86.5 35q62 0 91 -42.5t22 -98.5q-4 -27 -35 -66l-238 -254h-67z" />
    <glyph glyph-name="Ldot" unicode="&#x13f;" horiz-adv-x="1146" 
d="M424 242h655l-35 -242h-950l201 1423h295zM801 926q76 0 116.5 -52.5t30.5 -119.5q-6 -53 -53.5 -96.5t-114.5 -43.5q-69 0 -112 54t-35 118q8 53 57.5 96.5t110.5 43.5z" />
    <glyph glyph-name="ldot" unicode="&#x140;" horiz-adv-x="780" 
d="M358 0h-278l205 1454h278zM743 883q76 0 117 -52.5t31 -119.5q-8 -54 -55 -97t-113 -43q-69 0 -112.5 54t-35.5 118q8 53 57.5 96.5t110.5 43.5z" />
    <glyph glyph-name="Lslash" unicode="&#x141;" horiz-adv-x="1181" 
d="M1114 242l-35 -242h-948l84 602l-145 -35l34 244l146 35l82 577h295l-72 -508l262 62l-35 -244l-260 -61l-61 -430h653z" />
    <glyph glyph-name="lslash" unicode="&#x142;" horiz-adv-x="745" 
d="M748 743l-271 -63l-96 -680h-279l86 612l-153 -34l35 243l153 35l84 598h279l-74 -530l270 63z" />
    <glyph glyph-name="Nacute" unicode="&#x143;" horiz-adv-x="1587" 
d="M805 1608l145 147q57 57 101 83t96 26q68 0 108 -44t31 -108q-7 -44 -50 -80t-128 -55l-262 -55zM1145 586l121 837h295l-205 -1464l-836 879l-121 -838h-295l205 1464z" />
    <glyph glyph-name="nacute" unicode="&#x144;" 
d="M539 1180l170 190q103 109 178 109q67 0 106.5 -43.5t30.5 -108.5q-5 -43 -38.5 -74.5t-117.5 -60.5l-290 -96zM500 901l-17 -86q43 53 108.5 82t131.5 29q42 0 81.5 -7.5t89 -34.5t82.5 -71.5t49 -126.5t1 -190l-70 -496h-278l72 512q16 111 -11 153t-88 42
q-67 0 -130 -52t-79 -159l-69 -496h-279l127 901h279z" />
    <glyph glyph-name="Ncommaaccent" unicode="&#x145;" horiz-adv-x="1587" 
d="M1145 586l121 837h295l-205 -1464l-836 879l-121 -838h-295l205 1464zM467 -686l57 410q8 58 61 103.5t115 45.5q75 0 111.5 -52.5t28.5 -121.5q-4 -21 -29 -61l-252 -324h-92z" />
    <glyph glyph-name="ncommaaccent" unicode="&#x146;" 
d="M500 901l-17 -86q43 53 108.5 82t131.5 29q42 0 81.5 -7.5t89 -34.5t82.5 -71.5t49 -126.5t1 -190l-70 -496h-278l72 512q16 111 -11 153t-88 42q-67 0 -130 -52t-79 -159l-69 -496h-279l127 901h279zM260 -686l57 410q8 58 61.5 103.5t115.5 45.5q75 0 111 -52.5
t28 -121.5q-4 -21 -29 -61l-252 -324h-92z" />
    <glyph glyph-name="Ncaron" unicode="&#x147;" horiz-adv-x="1587" 
d="M1317 1737l-367 -215l-319 215l174 127l166 -129l198 129zM1145 586l121 837h295l-205 -1464l-836 879l-121 -838h-295l205 1464z" />
    <glyph glyph-name="ncaron" unicode="&#x148;" 
d="M1077 1352l-391 -236l-336 236l195 127l162 -150l202 150zM500 901l-17 -86q43 53 108.5 82t131.5 29q42 0 81.5 -7.5t89 -34.5t82.5 -71.5t49 -126.5t1 -190l-70 -496h-278l72 512q16 111 -11 153t-88 42q-67 0 -130 -52t-79 -159l-69 -496h-279l127 901h279z" />
    <glyph glyph-name="Eng" unicode="&#x14a;" horiz-adv-x="1587" 
d="M1561 1423l-179 -1265q-25 -177 -135 -327.5t-278 -236.5t-351 -77l23 250q159 -13 291.5 107.5t157.5 299.5l8 57l-578 607l-121 -838h-295l205 1464l838 -880l119 839h295z" />
    <glyph glyph-name="eng" unicode="&#x14b;" 
d="M500 901l-17 -86q43 53 108.5 82t131.5 29q42 0 81.5 -7.5t89 -34.5t82.5 -71.5t49 -126.5t1 -190l-70 -496q-16 -115 -78.5 -231t-175.5 -213l-200 137q76 78 120.5 150t55.5 157l72 512q16 111 -11 153t-88 42q-67 0 -130 -52t-79 -159l-69 -496h-279l127 901h279z" />
    <glyph glyph-name="Omacron" unicode="&#x14c;" horiz-adv-x="1646" 
d="M1331 1571h-696l31 213h696zM954 1448q124 0 234.5 -36.5t194 -104.5t140.5 -160t78.5 -208t4.5 -243q-21 -144 -93 -275.5t-180.5 -230t-255.5 -157t-307 -58.5q-161 0 -294 58.5t-218.5 159t-123 240t-15.5 296.5q21 151 92 283.5t179 228.5t254 151.5t310 55.5z
M942 1198q-122 0 -234 -63t-191 -179t-99 -260q-29 -203 76.5 -337t287.5 -134q117 0 229.5 64t194 181t101.5 259q13 93 -10.5 179.5t-73 150t-123.5 101.5t-158 38z" />
    <glyph glyph-name="omacron" unicode="&#x14d;" horiz-adv-x="1191" 
d="M1047 1178h-697l31 213h696zM651 926q156 0 269 -68.5t162 -180t30 -243.5q-13 -93 -61 -176.5t-121.5 -146t-174.5 -99.5t-214 -37q-156 0 -268.5 68t-161 179.5t-29.5 244.5q13 92 60.5 175.5t120.5 146.5t174 100t214 37zM643 700q-94 0 -180 -79t-101 -187
q-13 -96 44 -163.5t143 -67.5q95 0 181 78t101 186q13 96 -45 164.5t-143 68.5z" />
    <glyph glyph-name="Ohungarumlaut" unicode="&#x150;" horiz-adv-x="1646" 
d="M600 1606l145 149q59 58 101.5 83.5t95.5 25.5q68 0 108 -44t31 -108q-7 -44 -50 -80t-128 -55l-264 -55zM1073 1606l146 149q59 57 101.5 83t94.5 26q68 0 108 -44t31 -108q-7 -44 -50 -80t-128 -55l-262 -55zM954 1448q124 0 234.5 -36.5t194 -104.5t140.5 -160
t78.5 -208t4.5 -243q-21 -144 -93 -275.5t-180.5 -230t-255.5 -157t-307 -58.5q-161 0 -294 58.5t-218.5 159t-123 240t-15.5 296.5q21 151 92 283.5t179 228.5t254 151.5t310 55.5zM942 1198q-122 0 -234 -63t-191 -179t-99 -260q-29 -203 76.5 -337t287.5 -134
q117 0 229.5 64t194 181t101.5 259q13 93 -10.5 179.5t-73 150t-123.5 101.5t-158 38z" />
    <glyph glyph-name="ohungarumlaut" unicode="&#x151;" horiz-adv-x="1191" 
d="M338 1221l143 149q62 58 104 83.5t95 25.5q67 0 106.5 -43.5t30.5 -108.5q-5 -44 -48 -80t-128 -55l-266 -55zM811 1221l143 149q61 57 104 83t95 26q67 0 106.5 -43.5t30.5 -108.5q-5 -44 -48 -80t-128 -55l-264 -55zM651 926q156 0 269 -68.5t162 -180t30 -243.5
q-13 -93 -61 -176.5t-121.5 -146t-174.5 -99.5t-214 -37q-156 0 -268.5 68t-161 179.5t-29.5 244.5q13 92 60.5 175.5t120.5 146.5t174 100t214 37zM643 700q-94 0 -180 -79t-101 -187q-13 -96 44 -163.5t143 -67.5q95 0 181 78t101 186q13 96 -45 164.5t-143 68.5z" />
    <glyph glyph-name="OE" unicode="&#x152;" horiz-adv-x="2396" 
d="M1667 1182l-47 -336h555l-33 -242h-555l-51 -362h684l-35 -242h-979l15 106q-206 -131 -451 -131q-161 0 -294 58.5t-218.5 159t-123 240t-15.5 296.5q21 151 92 283.5t179 228.5t254 151.5t310 55.5q256 0 437 -148l16 123h969l-35 -241h-674zM782 225q117 0 229.5 64
t194 181t101.5 259q13 93 -10.5 179.5t-73 150t-123.5 101.5t-158 38q-122 0 -234 -63t-191 -179t-99 -260q-29 -203 76.5 -337t287.5 -134z" />
    <glyph glyph-name="oe" unicode="&#x153;" horiz-adv-x="1814" 
d="M1462 295l199 -111q-75 -101 -188.5 -155t-241.5 -54q-103 0 -196.5 37.5t-157.5 106.5q-164 -144 -398 -144q-156 0 -268.5 68t-161 179.5t-29.5 244.5q13 92 61 175.5t121 146.5t174 100t214 37q226 0 356 -140q75 68 166.5 104t181.5 36q209 0 324 -136.5t88 -332.5
l-1 -7q-8 -57 -17 -77h-650q0 -85 58.5 -139t154.5 -54q61 0 121 34t90 81zM1055 557h399q0 71 -45.5 117.5t-120.5 46.5q-70 0 -141.5 -48t-91.5 -116zM487 203q95 0 181.5 78t101.5 186q13 96 -45 164.5t-143 68.5q-94 0 -180 -79t-101 -187q-13 -96 44 -163.5t142 -67.5z
" />
    <glyph glyph-name="Racute" unicode="&#x154;" horiz-adv-x="1386" 
d="M674 1608l145 147q57 57 101 83t96 26q68 0 108 -44t31 -108q-7 -44 -50 -80t-128 -55l-262 -55zM295 1423h575q220 0 348 -121t101 -315q-18 -129 -109 -231t-215 -152l226 -604h-322l-219 584h-213l-82 -584h-291zM551 1182l-49 -357h291q103 0 164.5 49.5t74.5 145.5
q11 79 -35 120.5t-149 41.5h-297z" />
    <glyph glyph-name="racute" unicode="&#x155;" horiz-adv-x="878" 
d="M414 1180l170 190q103 109 178 109q67 0 106.5 -43.5t30.5 -108.5q-5 -43 -38.5 -74.5t-117.5 -60.5l-290 -96zM492 901l-17 -86q43 53 108.5 82t131.5 29q69 0 122 -29t81 -74l-191 -178q-20 62 -90 62q-66 0 -127.5 -61t-81.5 -200l-63 -446h-279l127 901h279z" />
    <glyph glyph-name="Rcommaaccent" unicode="&#x156;" horiz-adv-x="1386" 
d="M295 1423h575q220 0 348 -121t101 -315q-18 -129 -109 -231t-215 -152l226 -604h-322l-219 584h-213l-82 -584h-291zM551 1182l-49 -357h291q103 0 164.5 49.5t74.5 145.5q11 79 -35 120.5t-149 41.5h-297zM336 -686l57 410q8 58 61 103.5t115 45.5q75 0 111.5 -52.5
t28.5 -121.5q-4 -21 -29 -61l-252 -324h-92z" />
    <glyph glyph-name="rcommaaccent" unicode="&#x157;" horiz-adv-x="878" 
d="M492 901l-17 -86q43 53 108.5 82t131.5 29q69 0 122 -29t81 -74l-191 -178q-20 62 -90 62q-66 0 -127.5 -61t-81.5 -200l-63 -446h-279l127 901h279zM-39 -686l57 410q8 58 61.5 103.5t115.5 45.5q75 0 111 -52.5t28 -121.5q-4 -21 -29 -61l-252 -324h-92z" />
    <glyph glyph-name="Rcaron" unicode="&#x158;" horiz-adv-x="1386" 
d="M1186 1737l-367 -215l-319 215l174 127l166 -129l198 129zM295 1423h575q220 0 348 -121t101 -315q-18 -129 -109 -231t-215 -152l226 -604h-322l-219 584h-213l-82 -584h-291zM551 1182l-49 -357h291q103 0 164.5 49.5t74.5 145.5q11 79 -35 120.5t-149 41.5h-297z" />
    <glyph glyph-name="rcaron" unicode="&#x159;" horiz-adv-x="878" 
d="M952 1352l-391 -236l-336 236l195 127l162 -150l202 150zM492 901l-17 -86q43 53 108.5 82t131.5 29q69 0 122 -29t81 -74l-191 -178q-20 62 -90 62q-66 0 -127.5 -61t-81.5 -200l-63 -446h-279l127 901h279z" />
    <glyph glyph-name="Sacute" unicode="&#x15a;" horiz-adv-x="1290" 
d="M629 1608l145 147q57 57 101 83t96 26q68 0 108 -44t31 -108q-7 -44 -50 -80t-128 -55l-262 -55zM754 567l-205 82q-338 129 -293 436q21 158 164 260.5t328 102.5q138 0 252 -42t247 -122l-145 -219q-125 75 -200.5 104t-139.5 29q-52 0 -93 -16t-64.5 -42t-36.5 -53
t-17 -55q-14 -91 80 -131l260 -106q316 -129 274 -416q-26 -181 -184 -292.5t-365 -111.5q-121 0 -275.5 58t-289.5 149l148 221q140 -97 243.5 -137.5t196.5 -40.5q96 0 156 53t71 134q8 62 -20.5 96.5t-91.5 58.5z" />
    <glyph glyph-name="sacute" unicode="&#x15b;" horiz-adv-x="919" 
d="M414 1180l170 190q103 109 178 109q67 0 106.5 -43.5t30.5 -108.5q-5 -43 -38.5 -74.5t-117.5 -60.5l-290 -96zM35 113l119 178q64 -45 141.5 -77t122.5 -32q32 0 66 23t38 61q8 52 -73 92l-119 52q-94 40 -144.5 104.5t-40.5 144.5q11 85 64.5 147.5t123.5 91t146 28.5
q105 0 177 -25.5t165 -83.5l-123 -176q-39 34 -91.5 57t-94.5 23q-31 0 -56.5 -18t-33.5 -44q-6 -22 7 -45.5t40 -35.5l139 -60q90 -38 145 -109.5t46 -146.5q-17 -136 -116.5 -211.5t-246.5 -75.5q-94 0 -203.5 38.5t-197.5 99.5z" />
    <glyph glyph-name="Scedilla" unicode="&#x15e;" horiz-adv-x="1290" 
d="M631 901l260 -106q316 -129 274 -416q-23 -164 -157 -272t-318 -127l-47 -68q28 12 66 4q63 -13 102 -69.5t29 -139.5q-10 -88 -85 -140t-171 -52q-95 0 -160.5 49.5t-69.5 128.5h191q0 -24 13.5 -35.5t29.5 -11.5q27 0 53.5 25.5t32.5 68.5q4 31 -9.5 49t-31.5 18
q-36 0 -58 -28h-200l131 207q-109 22 -230 74t-225 122l148 221q140 -97 243.5 -137.5t196.5 -40.5q96 0 156 53t71 134q8 62 -20.5 96.5t-91.5 58.5l-205 82q-338 129 -293 436q21 158 164 260.5t328 102.5q138 0 252 -42t247 -122l-145 -219q-125 75 -200.5 104t-139.5 29
q-52 0 -93 -16t-64.5 -42t-36.5 -53t-17 -55q-14 -91 80 -131z" />
    <glyph glyph-name="scedilla" unicode="&#x15f;" horiz-adv-x="919" 
d="M469 578l139 -60q90 -38 145 -109.5t46 -146.5q-15 -126 -102 -200t-218 -85l-45 -65q28 12 66 4q63 -13 102 -69.5t29 -139.5q-10 -88 -85 -140t-171 -52q-95 0 -160.5 49.5t-69.5 128.5h191q0 -24 13.5 -35.5t29.5 -11.5q27 0 53.5 25.5t32.5 68.5q4 31 -9.5 49
t-31.5 18q-35 0 -57 -28h-201l135 215q-147 36 -266 119l119 178q64 -45 141.5 -77t122.5 -32q32 0 66 23t38 61q8 52 -73 92l-119 52q-94 40 -144.5 104.5t-40.5 144.5q11 85 64.5 147.5t123.5 91t146 28.5q105 0 177 -25.5t165 -83.5l-123 -176q-39 34 -91.5 57t-94.5 23
q-31 0 -56.5 -18t-33.5 -44q-6 -22 7 -45.5t40 -35.5z" />
    <glyph glyph-name="Scaron" unicode="&#x160;" horiz-adv-x="1290" 
d="M1141 1737l-367 -215l-319 215l174 127l166 -129l198 129zM754 567l-205 82q-338 129 -293 436q21 158 164 260.5t328 102.5q138 0 252 -42t247 -122l-145 -219q-125 75 -200.5 104t-139.5 29q-52 0 -93 -16t-64.5 -42t-36.5 -53t-17 -55q-14 -91 80 -131l260 -106
q316 -129 274 -416q-26 -181 -184 -292.5t-365 -111.5q-121 0 -275.5 58t-289.5 149l148 221q140 -97 243.5 -137.5t196.5 -40.5q96 0 156 53t71 134q8 62 -20.5 96.5t-91.5 58.5z" />
    <glyph glyph-name="scaron" unicode="&#x161;" horiz-adv-x="919" 
d="M952 1352l-391 -236l-336 236l195 127l162 -150l202 150zM35 113l119 178q64 -45 141.5 -77t122.5 -32q32 0 66 23t38 61q8 52 -73 92l-119 52q-94 40 -144.5 104.5t-40.5 144.5q11 85 64.5 147.5t123.5 91t146 28.5q105 0 177 -25.5t165 -83.5l-123 -176
q-39 34 -91.5 57t-94.5 23q-31 0 -56.5 -18t-33.5 -44q-6 -22 7 -45.5t40 -35.5l139 -60q90 -38 145 -109.5t46 -146.5q-17 -136 -116.5 -211.5t-246.5 -75.5q-94 0 -203.5 38.5t-197.5 99.5z" />
    <glyph glyph-name="Tcedilla" unicode="&#x162;" horiz-adv-x="1142" 
d="M1262 1423l-35 -241h-406l-166 -1182h-51l-61 -88q27 12 65 4q63 -13 102 -69.5t29 -139.5q-10 -88 -85 -140t-171 -52q-95 0 -160 49.5t-69 128.5h190q0 -24 13.5 -35.5t29.5 -11.5q27 0 53.5 25.5t32.5 68.5q4 31 -9.5 49t-31.5 18q-35 0 -57 -28h-201l140 221h-54
l166 1182h-403l35 241h1104z" />
    <glyph glyph-name="tcedilla" unicode="&#x163;" horiz-adv-x="800" 
d="M526 686l-53 -381q-6 -44 8 -69t47 -25q29 0 58 18.5t49 51.5l24 -222q-97 -84 -237 -84q-9 0 -49 5l-47 -68q27 12 65 4q63 -13 102 -69.5t29 -139.5q-10 -88 -85 -140t-171 -52q-95 0 -160 49.5t-69 128.5h190q0 -24 13.5 -35.5t29.5 -11.5q27 0 53.5 25.5t32.5 68.5
q4 31 -9.5 49t-31.5 18q-35 0 -57 -28h-201l140 221h112q-66 32 -100.5 95t-22.5 145l62 446h-185l553 660l-59 -445h215l-31 -215h-215z" />
    <glyph glyph-name="Tcaron" unicode="&#x164;" horiz-adv-x="1142" 
d="M1094 1737l-367 -215l-319 215l174 127l166 -129l198 129zM1227 1182h-406l-166 -1182h-295l166 1182h-403l35 241h1104z" />
    <glyph glyph-name="tcaron" unicode="&#x165;" horiz-adv-x="821" 
d="M664 987l90 344q13 47 50.5 82t86.5 35q62 0 91 -42.5t22 -98.5q-4 -27 -35 -66l-238 -254h-67zM588 901h215l-31 -215h-215l-53 -381q-6 -44 8 -69t47 -25q29 0 58 18.5t49 51.5l24 -222q-97 -84 -237 -84q-111 0 -182 75t-54 190l62 446h-185l553 660z" />
    <glyph glyph-name="Tbar" unicode="&#x166;" horiz-adv-x="1142" 
d="M821 1182l-51 -359h203l-31 -213h-201l-86 -610h-295l86 610h-200l30 213h199l51 359h-403l35 241h1104l-35 -241h-406z" />
    <glyph glyph-name="tbar" unicode="&#x167;" horiz-adv-x="739" 
d="M549 686l-23 -164h193l-31 -213h-192v-4q-6 -44 8 -69t47 -25q29 0 57.5 18.5t48.5 51.5l25 -222q-97 -84 -238 -84q-111 0 -181.5 75t-53.5 190l10 69h-207l31 213h205l22 164h-184l553 660l-59 -445h215l-31 -215h-215z" />
    <glyph glyph-name="Umacron" unicode="&#x16a;" horiz-adv-x="1560" 
d="M1288 1571h-696l31 213h696zM1550 1423l-120 -852q-25 -182 -125.5 -319t-250 -207t-327.5 -70q-137 0 -248.5 43.5t-186 122.5t-107 194.5t-13.5 252.5l119 835h295l-121 -852q-12 -86 8 -154.5t62 -109t94.5 -61.5t109.5 -21q62 0 125.5 23.5t120 67.5t97.5 115t53 157
l118 835h297z" />
    <glyph glyph-name="umacron" unicode="&#x16b;" horiz-adv-x="1148" 
d="M1026 1178h-696l30 213h697zM944 0h-278l16 86q-43 -53 -108.5 -82t-131.5 -29q-42 0 -82 7.5t-89 35t-82 71.5t-49 126.5t-1 190.5l70 495h278l-71 -512q-16 -111 11.5 -152.5t88.5 -41.5q30 0 61 11t61.5 34.5t53.5 66.5t31 99l70 495h278z" />
    <glyph glyph-name="Uring" unicode="&#x16e;" horiz-adv-x="1560" 
d="M965 1833q102 0 158 -64.5t44 -156.5q-11 -79 -76.5 -134t-158.5 -55q-101 0 -159 65.5t-46 156.5q11 78 78.5 133t159.5 55zM969 1690q-27 0 -53.5 -22t-30.5 -56q-3 -22 11 -33.5t32 -11.5q26 0 52 22t30 56q3 22 -10.5 33.5t-30.5 11.5zM1550 1423l-120 -852
q-25 -182 -125.5 -319t-250 -207t-327.5 -70q-137 0 -248.5 43.5t-186 122.5t-107 194.5t-13.5 252.5l119 835h295l-121 -852q-12 -86 8 -154.5t62 -109t94.5 -61.5t109.5 -21q62 0 125.5 23.5t120 67.5t97.5 115t53 157l118 835h297z" />
    <glyph glyph-name="uring" unicode="&#x16f;" horiz-adv-x="1148" 
d="M711 1499q102 0 158 -64.5t44 -156.5q-11 -79 -76.5 -133.5t-158.5 -54.5q-101 0 -159 65t-46 156q11 78 78.5 133t159.5 55zM715 1356q-27 0 -53.5 -22t-30.5 -56q-3 -22 11 -33.5t32 -11.5q26 0 52 22t30 56q3 22 -10.5 33.5t-30.5 11.5zM944 0h-278l16 86
q-43 -53 -108.5 -82t-131.5 -29q-42 0 -82 7.5t-89 35t-82 71.5t-49 126.5t-1 190.5l70 495h278l-71 -512q-16 -111 11.5 -152.5t88.5 -41.5q30 0 61 11t61.5 34.5t53.5 66.5t31 99l70 495h278z" />
    <glyph glyph-name="Uhungarumlaut" unicode="&#x170;" horiz-adv-x="1560" 
d="M557 1606l145 149q59 58 101.5 83.5t95.5 25.5q68 0 108 -44t31 -108q-7 -44 -50 -80t-128 -55l-264 -55zM1030 1606l146 149q59 57 101.5 83t94.5 26q68 0 108 -44t31 -108q-7 -44 -50 -80t-128 -55l-262 -55zM1550 1423l-120 -852q-25 -182 -125.5 -319t-250 -207
t-327.5 -70q-137 0 -248.5 43.5t-186 122.5t-107 194.5t-13.5 252.5l119 835h295l-121 -852q-12 -86 8 -154.5t62 -109t94.5 -61.5t109.5 -21q62 0 125.5 23.5t120 67.5t97.5 115t53 157l118 835h297z" />
    <glyph glyph-name="uhungarumlaut" unicode="&#x171;" horiz-adv-x="1148" 
d="M317 1221l144 149q62 58 103.5 83.5t94.5 25.5q68 0 107.5 -44t30.5 -108q-5 -44 -48 -80t-128 -55l-267 -55zM791 1221l143 149q61 57 104 83t95 26q67 0 106.5 -43.5t30.5 -108.5q-5 -44 -48 -80t-128 -55l-265 -55zM944 0h-278l16 86q-43 -53 -108.5 -82t-131.5 -29
q-42 0 -82 7.5t-89 35t-82 71.5t-49 126.5t-1 190.5l70 495h278l-71 -512q-16 -111 11.5 -152.5t88.5 -41.5q30 0 61 11t61.5 34.5t53.5 66.5t31 99l70 495h278z" />
    <glyph glyph-name="Uogonek" unicode="&#x172;" horiz-adv-x="1560" 
d="M1550 1423l-120 -852q-23 -161 -103.5 -285.5t-204.5 -201.5q-43 -32 -82 -86.5t-45 -99.5q-4 -30 23.5 -36.5t58.5 3.5l94 16l-43 -151l-88 -19q-124 -22 -197.5 34t-62.5 144q5 46 35 91q-73 -5 -88 -5q-137 0 -248.5 43.5t-186 122.5t-107 194.5t-13.5 252.5l119 835
h295l-121 -852q-12 -86 8 -154.5t62 -109t94.5 -61.5t109.5 -21q62 0 125.5 23.5t120 67.5t97.5 115t53 157l118 835h297z" />
    <glyph glyph-name="uogonek" unicode="&#x173;" horiz-adv-x="1148" 
d="M1071 901l-127 -901q-45 -28 -89 -87.5t-50 -107.5q-4 -30 23.5 -36t58.5 4l94 16l-43 -151l-88 -19q-124 -22 -197.5 34t-62.5 144q8 63 50 110t116 93h-90l16 86q-43 -53 -108.5 -82t-131.5 -29q-42 0 -82 7.5t-89 35t-82 71.5t-49 126.5t-1 190.5l70 495h278l-71 -512
q-16 -111 11.5 -152.5t88.5 -41.5q30 0 61 11t61.5 34.5t53.5 66.5t31 99l70 495h278z" />
    <glyph glyph-name="Wcircumflex" unicode="&#x174;" horiz-adv-x="2189" 
d="M1081 1522l-159 127l368 215l318 -215l-183 -127l-157 129zM1409 -41l-281 698l-473 -698l-493 1464h311l281 -915l272 405l-205 510h271l102 -262l176 262h279l-355 -522l154 -393l543 915h319z" />
    <glyph glyph-name="wcircumflex" unicode="&#x175;" horiz-adv-x="1583" 
d="M692 1116l-149 127l393 236l334 -236l-172 -127l-185 150zM973 -41l-182 447l-308 -447l-413 942h286l195 -487l154 200l-117 287h268l166 -485l332 485h295z" />
    <glyph glyph-name="Ycircumflex" unicode="&#x176;" horiz-adv-x="1323" 
d="M1176 1649l-183 -127l-157 129l-187 -129l-160 127l369 215zM840 639l-92 -639h-295l92 639l-387 784h315l248 -538l403 538h326z" />
    <glyph glyph-name="ycircumflex" unicode="&#x177;" horiz-adv-x="1073" 
d="M1014 1243l-172 -127l-185 150l-221 -150l-149 127l393 236zM317 -492h-286l323 564l-276 829h299l147 -526l299 526h307z" />
    <glyph glyph-name="Ydieresis" unicode="&#x178;" horiz-adv-x="1323" 
d="M629 1837q76 0 116.5 -53.5t30.5 -120.5q-6 -53 -52.5 -95t-113.5 -42q-70 0 -113 53t-34 117q6 53 55 97t111 44zM1065 1837q76 0 116.5 -53.5t30.5 -120.5q-6 -53 -52 -95t-113 -42q-70 0 -113.5 53t-34.5 117q6 53 55 97t111 44zM840 639l-92 -639h-295l92 639
l-387 784h315l248 -538l403 538h326z" />
    <glyph glyph-name="Zacute" unicode="&#x179;" horiz-adv-x="1255" 
d="M655 1608l146 147q57 57 100.5 83t95.5 26q68 0 108.5 -44t31.5 -108q-7 -44 -50.5 -80t-128.5 -55l-262 -55zM477 242h697l-35 -242h-1151l870 1182h-672l35 241h1125z" />
    <glyph glyph-name="zacute" unicode="&#x17a;" horiz-adv-x="966" 
d="M471 1180l170 190q103 109 178 109q67 0 106.5 -43.5t30.5 -108.5q-5 -43 -38 -74.5t-117 -60.5l-291 -96zM453 213h411l-30 -213h-846l538 686h-374l30 215h803z" />
    <glyph glyph-name="Zdotaccent" unicode="&#x17b;" horiz-adv-x="1255" 
d="M827 1835q76 0 117 -53.5t31 -120.5q-6 -53 -52.5 -95t-113.5 -42q-70 0 -112.5 53t-34.5 117q8 53 56 97t109 44zM477 242h697l-35 -242h-1151l870 1182h-672l35 241h1125z" />
    <glyph glyph-name="zdotaccent" unicode="&#x17c;" horiz-adv-x="966" 
d="M647 1444q76 0 117 -53.5t31 -120.5q-6 -54 -52.5 -95.5t-113.5 -41.5q-70 0 -112.5 52.5t-33.5 117.5q6 53 54.5 97t109.5 44zM453 213h411l-30 -213h-846l538 686h-374l30 215h803z" />
    <glyph glyph-name="Zcaron" unicode="&#x17d;" horiz-adv-x="1255" 
d="M1167 1737l-366 -215l-320 215l174 127l166 -129l199 129zM477 242h697l-35 -242h-1151l870 1182h-672l35 241h1125z" />
    <glyph glyph-name="zcaron" unicode="&#x17e;" horiz-adv-x="966" 
d="M1010 1352l-392 -236l-335 236l194 127l162 -150l203 150zM453 213h411l-30 -213h-846l538 686h-374l30 215h803z" />
    <glyph glyph-name="florin" unicode="&#x192;" horiz-adv-x="806" 
d="M942 1479l-37 -226q-108 -2 -204 -99t-140 -253h248l-31 -215h-270l-205 -840h-278l204 840h-182l143 215h93l4 19q63 263 235.5 411t419.5 148z" />
    <glyph glyph-name="Acaron" unicode="&#x1cd;" horiz-adv-x="1447" 
d="M885 1522l-320 215l174 127l166 -129l199 129l147 -127zM967 309h-512l-181 -309h-315l909 1464l494 -1464h-307zM899 543l-102 358l-207 -358h309z" />
    <glyph glyph-name="acaron" unicode="&#x1ce;" 
d="M1036 1352l-391 -236l-336 236l195 127l162 -150l202 150zM965 0h-279l19 106q-44 -59 -120.5 -95t-148.5 -36q-67 0 -124.5 20t-98.5 54.5t-72 82t-46 102t-21 114.5t4 119q12 84 50 164.5t96.5 147t143 107t179.5 40.5q82 0 148 -40t98 -104l20 119h279zM600 700
q-94 0 -165.5 -77.5t-86.5 -188.5q-14 -99 29 -165t129 -66q74 0 153 79t93 185q13 95 -34.5 164t-117.5 69z" />
    <glyph glyph-name="Icaron" unicode="&#x1cf;" horiz-adv-x="620" 
d="M836 1737l-367 -215l-319 215l174 127l165 -129l199 129zM401 0h-303l201 1423h303z" />
    <glyph glyph-name="icaron" unicode="&#x1d0;" horiz-adv-x="573" 
d="M778 1352l-391 -236l-336 236l195 127l162 -150l202 150zM365 0h-279l127 901h279z" />
    <glyph glyph-name="Ocaron" unicode="&#x1d1;" horiz-adv-x="1646" 
d="M1348 1737l-367 -215l-319 215l174 127l165 -129l199 129zM954 1448q124 0 234.5 -36.5t194 -104.5t140.5 -160t78.5 -208t4.5 -243q-21 -144 -93 -275.5t-180.5 -230t-255.5 -157t-307 -58.5q-161 0 -294 58.5t-218.5 159t-123 240t-15.5 296.5q21 151 92 283.5
t179 228.5t254 151.5t310 55.5zM942 1198q-122 0 -234 -63t-191 -179t-99 -260q-29 -203 76.5 -337t287.5 -134q117 0 229.5 64t194 181t101.5 259q13 93 -10.5 179.5t-73 150t-123.5 101.5t-158 38z" />
    <glyph glyph-name="ocaron" unicode="&#x1d2;" horiz-adv-x="1191" 
d="M1085 1352l-391 -236l-336 236l195 127l162 -150l203 150zM651 926q156 0 269 -68.5t162 -180t30 -243.5q-13 -93 -61 -176.5t-121.5 -146t-174.5 -99.5t-214 -37q-156 0 -268.5 68t-161 179.5t-29.5 244.5q13 92 60.5 175.5t120.5 146.5t174 100t214 37zM643 700
q-94 0 -180 -79t-101 -187q-13 -96 44 -163.5t143 -67.5q95 0 181 78t101 186q13 96 -45 164.5t-143 68.5z" />
    <glyph glyph-name="Ucaron" unicode="&#x1d3;" horiz-adv-x="1560" 
d="M1305 1737l-367 -215l-320 215l175 127l165 -129l199 129zM1550 1423l-120 -852q-25 -182 -125.5 -319t-250 -207t-327.5 -70q-137 0 -248.5 43.5t-186 122.5t-107 194.5t-13.5 252.5l119 835h295l-121 -852q-12 -86 8 -154.5t62 -109t94.5 -61.5t109.5 -21
q62 0 125.5 23.5t120 67.5t97.5 115t53 157l118 835h297z" />
    <glyph glyph-name="ucaron" unicode="&#x1d4;" horiz-adv-x="1148" 
d="M1065 1352l-391 -236l-336 236l194 127l162 -150l203 150zM944 0h-278l16 86q-43 -53 -108.5 -82t-131.5 -29q-42 0 -82 7.5t-89 35t-82 71.5t-49 126.5t-1 190.5l70 495h278l-71 -512q-16 -111 11.5 -152.5t88.5 -41.5q30 0 61 11t61.5 34.5t53.5 66.5t31 99l70 495h278
z" />
    <glyph glyph-name="Udieresismacron" unicode="&#x1d5;" horiz-adv-x="1560" 
d="M1288 1571h-696l31 213h696zM748 1448q65 0 103.5 -50t29.5 -116q-8 -53 -52 -91t-100 -38q-61 0 -102.5 49t-32.5 113q7 52 54.5 92.5t99.5 40.5zM1075 1448q65 0 103.5 -50t29.5 -116q-8 -53 -51.5 -91t-99.5 -38q-61 0 -102.5 49t-32.5 113q7 52 54.5 92.5t98.5 40.5z
M1550 1423l-120 -852q-25 -182 -125.5 -319t-250 -207t-327.5 -70q-137 0 -248.5 43.5t-186 122.5t-107 194.5t-13.5 252.5l119 835h295l-121 -852q-12 -86 8 -154.5t62 -109t94.5 -61.5t109.5 -21q62 0 125.5 23.5t120 67.5t97.5 115t53 157l118 835h297z" />
    <glyph glyph-name="udieresismacron" unicode="&#x1d6;" horiz-adv-x="1148" 
d="M1018 1485h-696l30 213h697zM420 1341q76 0 117.5 -53.5t31.5 -120.5q-6 -54 -53.5 -95.5t-114.5 -41.5q-70 0 -114 52.5t-35 117.5q6 53 56.5 97t111.5 44zM856 1341q76 0 118 -53.5t32 -120.5q-6 -54 -53.5 -95.5t-114.5 -41.5q-70 0 -114.5 52.5t-35.5 117.5
q6 53 56.5 97t111.5 44zM944 0h-278l16 86q-43 -53 -108.5 -82t-131.5 -29q-42 0 -82 7.5t-89 35t-82 71.5t-49 126.5t-1 190.5l70 495h278l-71 -512q-16 -111 11.5 -152.5t88.5 -41.5q30 0 61 11t61.5 34.5t53.5 66.5t31 99l70 495h278z" />
    <glyph glyph-name="Udieresisacute" unicode="&#x1d7;" horiz-adv-x="1560" 
d="M856 1608l145 147q57 57 101 83t96 26q68 0 108 -44t31 -108q-7 -44 -50 -80t-128 -55l-262 -55zM748 1448q65 0 103.5 -50t29.5 -116q-8 -53 -52 -91t-100 -38q-61 0 -102.5 49t-32.5 113q7 52 54.5 92.5t99.5 40.5zM1075 1448q65 0 103.5 -50t29.5 -116
q-8 -53 -51.5 -91t-99.5 -38q-61 0 -102.5 49t-32.5 113q7 52 54.5 92.5t98.5 40.5zM1550 1423l-120 -852q-25 -182 -125.5 -319t-250 -207t-327.5 -70q-137 0 -248.5 43.5t-186 122.5t-107 194.5t-13.5 252.5l119 835h295l-121 -852q-12 -86 8 -154.5t62 -109t94.5 -61.5
t109.5 -21q62 0 125.5 23.5t120 67.5t97.5 115t53 157l118 835h297z" />
    <glyph glyph-name="udieresisacute" unicode="&#x1d8;" horiz-adv-x="1148" 
d="M535 1487l170 190q103 109 178 109q67 0 106.5 -43.5t30.5 -108.5q-5 -43 -38.5 -74.5t-117.5 -60.5l-291 -96zM420 1341q76 0 117.5 -53.5t31.5 -120.5q-6 -54 -53.5 -95.5t-114.5 -41.5q-70 0 -114 52.5t-35 117.5q6 53 56.5 97t111.5 44zM856 1341q76 0 118 -53.5
t32 -120.5q-6 -54 -53.5 -95.5t-114.5 -41.5q-70 0 -114.5 52.5t-35.5 117.5q6 53 56.5 97t111.5 44zM944 0h-278l16 86q-43 -53 -108.5 -82t-131.5 -29q-42 0 -82 7.5t-89 35t-82 71.5t-49 126.5t-1 190.5l70 495h278l-71 -512q-16 -111 11.5 -152.5t88.5 -41.5q30 0 61 11
t61.5 34.5t53.5 66.5t31 99l70 495h278z" />
    <glyph glyph-name="Udieresiscaron" unicode="&#x1d9;" horiz-adv-x="1560" 
d="M1307 1737l-367 -215l-319 215l174 127l166 -129l198 129zM748 1448q65 0 103.5 -50t29.5 -116q-8 -53 -52 -91t-100 -38q-61 0 -102.5 49t-32.5 113q7 52 54.5 92.5t99.5 40.5zM1075 1448q65 0 103.5 -50t29.5 -116q-8 -53 -51.5 -91t-99.5 -38q-61 0 -102.5 49
t-32.5 113q7 52 54.5 92.5t98.5 40.5zM1550 1423l-120 -852q-25 -182 -125.5 -319t-250 -207t-327.5 -70q-137 0 -248.5 43.5t-186 122.5t-107 194.5t-13.5 252.5l119 835h295l-121 -852q-12 -86 8 -154.5t62 -109t94.5 -61.5t109.5 -21q62 0 125.5 23.5t120 67.5t97.5 115
t53 157l118 835h297z" />
    <glyph glyph-name="udieresiscaron" unicode="&#x1da;" horiz-adv-x="1148" 
d="M1047 1659l-392 -236l-336 236l195 127l162 -150l203 150zM420 1341q76 0 117.5 -53.5t31.5 -120.5q-6 -54 -53.5 -95.5t-114.5 -41.5q-70 0 -114 52.5t-35 117.5q6 53 56.5 97t111.5 44zM856 1341q76 0 118 -53.5t32 -120.5q-6 -54 -53.5 -95.5t-114.5 -41.5
q-70 0 -114.5 52.5t-35.5 117.5q6 53 56.5 97t111.5 44zM944 0h-278l16 86q-43 -53 -108.5 -82t-131.5 -29q-42 0 -82 7.5t-89 35t-82 71.5t-49 126.5t-1 190.5l70 495h278l-71 -512q-16 -111 11.5 -152.5t88.5 -41.5q30 0 61 11t61.5 34.5t53.5 66.5t31 99l70 495h278z" />
    <glyph glyph-name="Udieresisgrave" unicode="&#x1db;" horiz-adv-x="1560" 
d="M999 1522l-241 59q-82 19 -119 63.5t-29 100.5q7 52 50 85.5t102 33.5q58 0 96 -29.5t84 -93.5l113 -135zM748 1448q65 0 103.5 -50t29.5 -116q-8 -53 -52 -91t-100 -38q-61 0 -102.5 49t-32.5 113q7 52 54.5 92.5t99.5 40.5zM1075 1448q65 0 103.5 -50t29.5 -116
q-8 -53 -51.5 -91t-99.5 -38q-61 0 -102.5 49t-32.5 113q7 52 54.5 92.5t98.5 40.5zM1550 1423l-120 -852q-25 -182 -125.5 -319t-250 -207t-327.5 -70q-137 0 -248.5 43.5t-186 122.5t-107 194.5t-13.5 252.5l119 835h295l-121 -852q-12 -86 8 -154.5t62 -109t94.5 -61.5
t109.5 -21q62 0 125.5 23.5t120 67.5t97.5 115t53 157l118 835h297z" />
    <glyph glyph-name="udieresisgrave" unicode="&#x1dc;" horiz-adv-x="1148" 
d="M743 1403l-256 100q-76 30 -104.5 69.5t-22.5 94.5q7 52 51 85.5t103 33.5q84 0 158 -121l129 -178zM420 1341q76 0 117.5 -53.5t31.5 -120.5q-6 -54 -53.5 -95.5t-114.5 -41.5q-70 0 -114 52.5t-35 117.5q6 53 56.5 97t111.5 44zM856 1341q76 0 118 -53.5t32 -120.5
q-6 -54 -53.5 -95.5t-114.5 -41.5q-70 0 -114.5 52.5t-35.5 117.5q6 53 56.5 97t111.5 44zM944 0h-278l16 86q-43 -53 -108.5 -82t-131.5 -29q-42 0 -82 7.5t-89 35t-82 71.5t-49 126.5t-1 190.5l70 495h278l-71 -512q-16 -111 11.5 -152.5t88.5 -41.5q30 0 61 11t61.5 34.5
t53.5 66.5t31 99l70 495h278z" />
    <glyph glyph-name="Scommaaccent" unicode="&#x218;" horiz-adv-x="1290" 
d="M754 567l-205 82q-338 129 -293 436q21 158 164 260.5t328 102.5q138 0 252 -42t247 -122l-145 -219q-125 75 -200.5 104t-139.5 29q-52 0 -93 -16t-64.5 -42t-36.5 -53t-17 -55q-14 -91 80 -131l260 -106q316 -129 274 -416q-26 -181 -184 -292.5t-365 -111.5
q-121 0 -275.5 58t-289.5 149l148 221q140 -97 243.5 -137.5t196.5 -40.5q96 0 156 53t71 134q8 62 -20.5 96.5t-91.5 58.5zM344 -686l57 410q8 58 61.5 103.5t115.5 45.5q75 0 111 -52.5t28 -121.5q-4 -21 -29 -61l-252 -324h-92z" />
    <glyph glyph-name="scommaaccent" unicode="&#x219;" horiz-adv-x="919" 
d="M35 113l119 178q64 -45 141.5 -77t122.5 -32q32 0 66 23t38 61q8 52 -73 92l-119 52q-94 40 -144.5 104.5t-40.5 144.5q11 85 64.5 147.5t123.5 91t146 28.5q105 0 177 -25.5t165 -83.5l-123 -176q-39 34 -91.5 57t-94.5 23q-31 0 -56.5 -18t-33.5 -44q-6 -22 7 -45.5
t40 -35.5l139 -60q90 -38 145 -109.5t46 -146.5q-17 -136 -116.5 -211.5t-246.5 -75.5q-94 0 -203.5 38.5t-197.5 99.5zM135 -686l58 410q8 58 61 103.5t115 45.5q75 0 111 -52.5t28 -121.5q-4 -21 -29 -61l-252 -324h-92z" />
    <glyph glyph-name="uni021A" unicode="&#x21a;" horiz-adv-x="1142" 
d="M1227 1182h-406l-166 -1182h-295l166 1182h-403l35 241h1104zM244 -686l57 410q8 58 61 103.5t115 45.5q75 0 111 -52.5t28 -121.5q-5 -23 -28 -61l-252 -324h-92z" />
    <glyph glyph-name="uni021B" unicode="&#x21b;" horiz-adv-x="800" 
d="M557 901h215l-31 -215h-215l-53 -381q-6 -44 8 -69t47 -25q29 0 58 18.5t49 51.5l24 -222q-97 -84 -237 -84q-111 0 -182 75t-54 190l62 446h-185l553 660zM27 -686l57 410q8 58 61 103.5t115 45.5q75 0 111 -52.5t28 -121.5q-5 -23 -28 -61l-252 -324h-92z" />
    <glyph glyph-name="dotlessj" unicode="&#x237;" horiz-adv-x="585" 
d="M506 901l-119 -846q-18 -124 -84 -264.5t-176 -234.5l-201 137q67 69 120 177.5t65 201.5l116 829h279z" />
    <glyph glyph-name="circumflex" unicode="&#x2c6;" horiz-adv-x="1046" 
d="M1001 1243l-172 -127l-184 150l-221 -150l-150 127l394 236z" />
    <glyph glyph-name="caron" unicode="&#x2c7;" horiz-adv-x="1005" 
d="M995 1352l-391 -236l-336 236l195 127l162 -150l202 150z" />
    <glyph glyph-name="breve" unicode="&#x2d8;" horiz-adv-x="1009" 
d="M780 1446h201q-13 -125 -110 -217t-253 -92q-85 0 -149.5 26.5t-99.5 70.5t-48.5 98.5t-3.5 113.5h213q-11 -60 12.5 -103t73.5 -43q61 0 108 39t56 107z" />
    <glyph glyph-name="dotaccent" unicode="&#x2d9;" horiz-adv-x="829" 
d="M543 1444q76 0 116.5 -53.5t30.5 -120.5q-6 -54 -52.5 -95.5t-113.5 -41.5q-70 0 -112 52.5t-33 117.5q6 53 54.5 97t109.5 44z" />
    <glyph glyph-name="ring" unicode="&#x2da;" horiz-adv-x="761" 
d="M520 1499q102 0 158.5 -64.5t44.5 -156.5q-11 -79 -77 -133.5t-159 -54.5q-101 0 -158.5 65t-45.5 156q11 78 78 133t159 55zM524 1356q-27 0 -53.5 -22t-30.5 -56q-3 -22 11 -33.5t32 -11.5q26 0 52 22t30 56q3 22 -10.5 33.5t-30.5 11.5z" />
    <glyph glyph-name="ogonek" unicode="&#x2db;" horiz-adv-x="708" 
d="M236 0h188q-45 -28 -89 -87.5t-50 -107.5q-4 -30 23.5 -36t58.5 4l94 16l-43 -151l-88 -19q-124 -22 -197.5 34t-62.5 144q8 63 50 110t116 93z" />
    <glyph glyph-name="tilde" unicode="&#x2dc;" horiz-adv-x="1079" 
d="M920 1452l124 -154q-53 -74 -130.5 -117.5t-151.5 -43.5q-42 0 -74 15.5t-48 33.5t-40.5 33.5t-52.5 15.5q-41 0 -80.5 -30t-69.5 -81l-123 150q51 74 129.5 117t153.5 43q35 0 62 -10t43.5 -24t32 -28.5t35 -24.5t42.5 -10q43 0 83 31.5t65 83.5z" />
    <glyph glyph-name="hungarumlaut" unicode="&#x2dd;" horiz-adv-x="1255" 
d="M270 1221l144 149q62 58 103.5 83.5t94.5 25.5q68 0 107.5 -44t30.5 -108q-5 -43 -48.5 -79.5t-128.5 -55.5l-266 -55zM743 1221l144 149q61 58 104 83.5t94 25.5q68 0 107.5 -44t30.5 -108q-5 -44 -48 -80t-128 -55l-265 -55z" />
    <glyph glyph-name="commaaccentcomb" unicode="&#x326;" horiz-adv-x="0" 
d="M489 -686l58 410q8 58 61 103.5t115 45.5q75 0 111 -52.5t28 -121.5q-5 -23 -28 -61l-252 -324h-93z" />
    <glyph glyph-name="Delta" unicode="&#x394;" horiz-adv-x="1472" 
d="M1386 0h-1427l915 1464zM414 242h594l-205 659z" />
    <glyph glyph-name="Omega" unicode="&#x3a9;" horiz-adv-x="1646" 
d="M59 233h207q-84 100 -125 230.5t-22 265.5q19 137 90 266.5t178.5 230t256 161.5t310.5 61q123 0 234 -40.5t193.5 -112.5t139.5 -166t79 -206t6 -227q-17 -121 -90.5 -243t-180.5 -220h191l-33 -233h-539l33 233q126 65 210.5 191t100.5 244q20 143 -22.5 266
t-131.5 193.5t-202 70.5q-91 0 -179.5 -41t-160.5 -114t-123.5 -179t-68.5 -229q-15 -106 33.5 -221.5t154.5 -180.5l-33 -233h-538z" />
    <glyph glyph-name="mu" unicode="&#x3bc;" horiz-adv-x="1153" 
d="M1075 901l-71 -512q-15 -109 -51 -189t-76.5 -122t-94.5 -66.5t-93.5 -30.5t-84.5 -6q-72 0 -132 33.5t-89 89.5l-88 -590h-279l197 1393h279l-72 -512q-8 -56 1 -96.5t31 -60.5t45.5 -28.5t49.5 -8.5q150 0 180 211l70 495h278z" />
    <glyph glyph-name="pi" unicode="&#x3c0;" horiz-adv-x="1419" 
d="M1376 694h-209l-98 -694h-278l98 694h-350l-99 -694h-278l98 694h-209l29 207h1325z" />
    <glyph glyph-name="Wgrave" unicode="&#x1e80;" horiz-adv-x="2189" 
d="M1352 1522l-242 59q-82 19 -118.5 63.5t-28.5 100.5q7 52 49.5 85.5t101.5 33.5q58 0 96 -29.5t84 -93.5l113 -135zM1409 -41l-281 698l-473 -698l-493 1464h311l281 -915l272 405l-205 510h271l102 -262l176 262h279l-355 -522l154 -393l543 915h319z" />
    <glyph glyph-name="wgrave" unicode="&#x1e81;" horiz-adv-x="1583" 
d="M989 1096l-256 100q-76 30 -104.5 69.5t-22.5 94.5q7 52 51 85.5t103 33.5q84 0 158 -121l129 -178zM973 -41l-182 447l-308 -447l-413 942h286l195 -487l154 200l-117 287h268l166 -485l332 485h295z" />
    <glyph glyph-name="Wacute" unicode="&#x1e82;" horiz-adv-x="2189" 
d="M1147 1522l-41 86l145 147q57 57 101 83t96 26q68 0 108 -44t31 -108q-7 -44 -50 -80t-128 -55zM1409 -41l-281 698l-473 -698l-493 1464h311l281 -915l272 405l-205 510h271l102 -262l176 262h279l-355 -522l154 -393l543 915h319z" />
    <glyph glyph-name="wacute" unicode="&#x1e83;" horiz-adv-x="1583" 
d="M784 1096l-39 84l170 190q103 109 179 109q67 0 106.5 -43.5t30.5 -108.5q-5 -43 -38.5 -74.5t-117.5 -60.5zM973 -41l-182 447l-308 -447l-413 942h286l195 -487l154 200l-117 287h268l166 -485l332 485h295z" />
    <glyph glyph-name="Wdieresis" unicode="&#x1e84;" horiz-adv-x="2189" 
d="M1042 1526q-70 0 -113 53t-34 117q6 53 55 97t111 44q76 0 116.5 -53.5t30.5 -120.5q-6 -53 -52.5 -95t-113.5 -42zM1479 1526q-70 0 -113.5 53t-34.5 117q6 53 55 97t111 44q76 0 117 -53.5t31 -120.5q-6 -53 -52.5 -95t-113.5 -42zM1409 -41l-281 698l-473 -698
l-493 1464h311l281 -915l272 405l-205 510h271l102 -262l176 262h279l-355 -522l154 -393l543 915h319z" />
    <glyph glyph-name="wdieresis" unicode="&#x1e85;" horiz-adv-x="1583" 
d="M686 1133q-70 0 -114 52.5t-35 117.5q6 53 56.5 97t111.5 44q76 0 117.5 -53.5t31.5 -120.5q-6 -54 -53.5 -95.5t-114.5 -41.5zM1122 1133q-70 0 -114 52.5t-35 117.5q6 53 56.5 97t111.5 44q76 0 117.5 -53.5t31.5 -120.5q-6 -54 -53.5 -95.5t-114.5 -41.5zM973 -41
l-182 447l-308 -447l-413 942h286l195 -487l154 200l-117 287h268l166 -485l332 485h295z" />
    <glyph glyph-name="Ygrave" unicode="&#x1ef2;" horiz-adv-x="1323" 
d="M920 1522l-242 59q-82 19 -119 63.5t-29 100.5q7 52 50 85.5t102 33.5q58 0 96 -29.5t84 -93.5l113 -135zM840 639l-92 -639h-295l92 639l-387 784h315l248 -538l403 538h326z" />
    <glyph glyph-name="ygrave" unicode="&#x1ef3;" horiz-adv-x="1073" 
d="M733 1096l-256 100q-76 30 -104.5 69.5t-22.5 94.5q7 52 51 85.5t103 33.5q84 0 158 -121l129 -178zM317 -492h-286l323 564l-276 829h299l147 -526l299 526h307z" />
    <glyph glyph-name="endash" unicode="&#x2013;" horiz-adv-x="1259" 
d="M1122 418h-989l33 233h989z" />
    <glyph glyph-name="emdash" unicode="&#x2014;" horiz-adv-x="2035" 
d="M1898 418h-1765l33 233h1765z" />
    <glyph glyph-name="quoteleft" unicode="&#x2018;" horiz-adv-x="567" 
d="M584 1423l-58 -409q-8 -59 -57.5 -104.5t-112.5 -45.5q-75 0 -115 53t-32 121q4 18 31 62l233 323h111z" />
    <glyph glyph-name="quoteright" unicode="&#x2019;" horiz-adv-x="567" 
d="M186 889l60 416q8 56 57.5 99.5t110.5 43.5q74 0 108.5 -51t26.5 -117q-2 -14 -47 -82l-234 -309h-82z" />
    <glyph glyph-name="quotesinglbase" unicode="&#x201a;" horiz-adv-x="567" 
d="M27 -270l57 409q8 59 57 104.5t111 45.5q76 0 116.5 -53.5t30.5 -120.5q-6 -30 -26 -62l-234 -323h-112z" />
    <glyph glyph-name="quotedblleft" unicode="&#x201c;" horiz-adv-x="954" 
d="M584 1423l-58 -409q-8 -59 -57.5 -104.5t-112.5 -45.5q-75 0 -115 53t-32 121q4 18 31 62l233 323h111zM971 1423l-58 -409q-8 -59 -57 -104.5t-111 -45.5q-77 0 -116 53t-31 121q5 23 29 62l233 323h111z" />
    <glyph glyph-name="quotedblright" unicode="&#x201d;" horiz-adv-x="954" 
d="M188 889l58 409q8 58 58 104t112 46q75 0 115 -53t32 -121q-5 -25 -28 -62l-234 -323h-113zM578 889l57 409q8 59 57.5 104.5t112.5 45.5q75 0 114 -53t31 -121q-5 -25 -28 -62l-234 -323h-110z" />
    <glyph glyph-name="quotedblbase" unicode="&#x201e;" horiz-adv-x="954" 
d="M27 -270l57 409q8 59 57 104.5t111 45.5q76 0 116.5 -53.5t30.5 -120.5q-6 -30 -26 -62l-234 -323h-112zM416 -270l57 409q8 59 56.5 104.5t111.5 45.5q76 0 115.5 -53.5t29.5 -120.5q-6 -30 -26 -62l-234 -323h-110z" />
    <glyph glyph-name="dagger" unicode="&#x2020;" horiz-adv-x="1280" 
d="M1149 778h-311l-154 -1081h-297l154 1081h-312l33 242h311l58 403h297l-58 -403h312z" />
    <glyph glyph-name="daggerdbl" unicode="&#x2021;" horiz-adv-x="1280" 
d="M838 778l-62 -434h311l-34 -244h-312l-57 -403h-297l57 403h-311l35 244h311l62 434h-312l33 242h311l58 403h297l-58 -403h312l-33 -242h-311z" />
    <glyph glyph-name="bullet" unicode="&#x2022;" horiz-adv-x="880" 
d="M492 883q123 0 194.5 -86t56.5 -201q-14 -104 -103 -181t-202 -77q-124 0 -195.5 86.5t-56.5 204.5q12 102 101 178t205 76z" />
    <glyph glyph-name="ellipsis" unicode="&#x2026;" horiz-adv-x="1640" 
d="M238 287q76 0 116.5 -52.5t30.5 -119.5q-8 -55 -54.5 -97.5t-113.5 -42.5q-69 0 -111 53t-34 119q8 53 56.5 96.5t109.5 43.5zM786 287q76 0 117 -52.5t31 -119.5q-8 -55 -54.5 -97.5t-113.5 -42.5q-69 0 -111 53t-34 119q8 53 56 96.5t109 43.5zM1337 287
q76 0 116 -52.5t30 -119.5q-8 -55 -53.5 -97.5t-112.5 -42.5q-71 0 -113.5 53t-34.5 119q8 53 57 96.5t111 43.5z" />
    <glyph glyph-name="perthousand" unicode="&#x2030;" horiz-adv-x="2344" 
d="M528 1448q141 0 227.5 -98.5t67.5 -233.5q-17 -121 -122 -208t-236 -87q-138 0 -226 97.5t-69 230.5q17 122 122.5 210.5t235.5 88.5zM440 0h-288l1073 1423h288zM526 1272q-55 0 -102.5 -44.5t-56.5 -111.5q-7 -52 23 -85.5t75 -33.5q52 0 102.5 44.5t59.5 107.5
q7 54 -25.5 88.5t-75.5 34.5zM1200 602q141 0 228.5 -99.5t68.5 -232.5q-18 -117 -124 -206t-236 -89q-140 0 -227 99t-68 229q17 122 121.5 210.5t236.5 88.5zM1956 602q141 0 228.5 -99.5t68.5 -232.5q-18 -117 -124.5 -206t-236.5 -89q-138 0 -226 99t-69 229
q17 121 122.5 210t236.5 89zM1200 426q-54 0 -102.5 -46t-57.5 -110q-7 -53 22.5 -85.5t76.5 -32.5q55 0 102.5 43t56.5 108q7 52 -24 87.5t-74 35.5zM1956 426q-54 0 -102.5 -46t-57.5 -110q-7 -53 23 -85.5t75 -32.5q55 0 103 43t57 108q7 52 -24 87.5t-74 35.5z" />
    <glyph glyph-name="guilsinglleft" unicode="&#x2039;" horiz-adv-x="731" 
d="M633 748l-289 -289l213 -279l-190 -135l-279 414l389 424z" />
    <glyph glyph-name="guilsinglright" unicode="&#x203a;" horiz-adv-x="731" 
d="M651 459l-389 -414l-158 135l291 279l-211 289l191 135z" />
    <glyph glyph-name="fraction" unicode="&#x2044;" horiz-adv-x="1140" 
d="M219 0h-274l1056 1423h273z" />
    <glyph glyph-name="foursuperior" unicode="&#x2074;" horiz-adv-x="737" 
d="M625 981h75l-18 -141h-76l-14 -97h-180l14 99h-360l626 622zM385 977h88l19 106z" />
    <glyph glyph-name="Euro" unicode="&#x20ac;" horiz-adv-x="1675" 
d="M932 442h-324q45 -100 135 -158.5t207 -58.5q98 0 199 56.5t182 142.5l219 -195q-130 -119 -285.5 -186.5t-326.5 -67.5q-224 0 -400.5 130t-238.5 337h-238l29 213h182q0 30 7 74l2 12h-179l31 213h217q106 213 318 353.5t454 140.5q184 0 319.5 -73.5t207.5 -188.5
l-244 -168q-67 89 -135.5 134.5t-159.5 45.5q-110 0 -226 -67.5t-198 -176.5h416l-74 -213h-442q-3 -11 -8 -45l-5 -41h426z" />
    <glyph glyph-name="trademark" unicode="&#x2122;" horiz-adv-x="1523" 
d="M1493 733h-205l45 295l-190 -180l-139 180l-46 -295h-202l102 733l313 -381l424 379zM760 1262h-178l-76 -529h-211l76 529h-181l23 161h569z" />
    <glyph glyph-name="partialdiff" unicode="&#x2202;" horiz-adv-x="1120" 
d="M594 1499l278 -12q83 -161 135 -357.5t61.5 -391.5t-34.5 -361q-53 -177 -195.5 -289.5t-338.5 -112.5q-110 0 -198.5 40t-142 107t-76.5 156.5t-9 188.5q27 188 176.5 323.5t345.5 135.5q85 0 178 -19q-10 127 -61 290t-119 302zM602 700q-86 0 -163 -70.5t-95 -195.5
q-13 -98 34.5 -164.5t129.5 -66.5q91 0 168 77.5t92 186.5q16 113 -35 173t-131 60z" />
    <glyph glyph-name="emptyset" unicode="&#x2205;" horiz-adv-x="1411" 
d="M1419 1053l-135 -119q92 -161 62 -363q-23 -161 -117 -297.5t-246.5 -219.5t-329.5 -83q-201 0 -344 105l-135 -119l-141 162l135 119q-89 159 -59 366q18 125 77 234.5t148.5 189.5t211 126t257.5 46q200 0 340 -106l137 120zM365 410l600 528q-75 53 -168 53
q-157 0 -286 -119.5t-155 -300.5q-11 -80 9 -161zM1090 762l-605 -531q76 -51 174 -51q151 0 283 122t158 302q12 82 -10 158z" />
    <glyph glyph-name="product" unicode="&#x220f;" horiz-adv-x="1550" 
d="M1642 1231h-153l-195 -1374h-295l195 1374h-612l-195 -1374h-295l195 1374h-154l35 254h1509z" />
    <glyph glyph-name="summation" unicode="&#x2211;" horiz-adv-x="1591" 
d="M1489 1243h-778l313 -602l-539 -604h901l-34 -242h-1418l758 846l-432 844h1264z" />
    <glyph glyph-name="minus" unicode="&#x2212;" horiz-adv-x="1232" 
d="M1096 418h-963l33 233h962z" />
    <glyph glyph-name="radical" unicode="&#x221a;" horiz-adv-x="1521" 
d="M618 -39l-319 596h-268l35 242h426v-2l188 -348l1065 1433h319z" />
    <glyph glyph-name="infinity" unicode="&#x221e;" horiz-adv-x="1693" 
d="M1290 1212q81 0 155 -32.5t127 -88.5t78.5 -138.5t12.5 -176.5q-12 -89 -58 -167t-111 -129.5t-143 -81.5t-155 -31q-114 1 -202 60t-132 155q-71 -94 -173 -152.5t-206 -58.5q-81 0 -154.5 32.5t-126.5 88.5t-78.5 138.5t-12.5 176.5q16 118 89.5 213.5t173.5 145.5
t204 51q114 -1 202.5 -60.5t132.5 -155.5q72 94 172.5 152.5t204.5 58.5zM498 655q60 0 117 38.5t126 109.5q-88 127 -180 127q-64 0 -119 -50t-63 -106q-5 -42 30 -80.5t89 -38.5zM1395 809q5 42 -30 80.5t-89 38.5q-60 0 -118 -39t-126 -109q88 -127 180 -127
q64 0 119.5 50t63.5 106z" />
    <glyph glyph-name="integral" unicode="&#x222b;" horiz-adv-x="1028" 
d="M399 614l74 306q65 264 237 411.5t418 147.5l-34 -226q-113 -2 -211.5 -106t-139.5 -270l-65 -263l-74 -305q-65 -264 -236 -411.5t-417 -147.5l33 225q115 2 212.5 106.5t137.5 270.5z" />
    <glyph glyph-name="approxequal" unicode="&#x2248;" horiz-adv-x="1462" 
d="M1180 1012l200 -166q-74 -97 -183 -148t-226 -51q-54 0 -106 19t-86 41.5t-76 41.5t-78 19q-64 0 -126.5 -38t-109.5 -99l-199 162q75 101 187.5 161t226.5 60q54 0 106 -19.5t86 -43t76 -43t78 -19.5q68 0 130 32.5t100 90.5zM1116 561l201 -166q-74 -97 -183.5 -147.5
t-226.5 -50.5q-54 0 -106 18.5t-86 41.5t-76 41.5t-78 18.5q-64 0 -126 -38t-107 -99l-201 162q75 101 187.5 161t226.5 60q54 0 106 -19.5t86 -43t76 -43t78 -19.5q68 0 129.5 32.5t99.5 90.5z" />
    <glyph glyph-name="notequal" unicode="&#x2260;" horiz-adv-x="1249" 
d="M997 854h109l-33 -233h-231l-113 -170h320l-33 -236h-445l-116 -174h-308l117 174h-211l33 236h336l113 170h-424l32 233h547l115 170h307z" />
    <glyph glyph-name="lessequal" unicode="&#x2264;" horiz-adv-x="1193" 
d="M1155 971l-487 -217l422 -222l-31 -245l-877 467l1004 469zM1016 0h-963l33 236h963z" />
    <glyph glyph-name="greaterequal" unicode="&#x2265;" horiz-adv-x="1198" 
d="M1100 754l-1002 -467l31 245l487 222l-421 217l30 252zM1018 0h-963l33 233h963z" />
    <glyph glyph-name="lozenge" unicode="&#x25ca;" horiz-adv-x="1452" 
d="M1456 659l-792 -702l-607 700l793 701zM389 657l311 -366l424 368l-311 367z" />
    <glyph glyph-name="W.ss01" horiz-adv-x="2189" 
d="M1409 -41l-281 698l-473 -698l-493 1464h311l281 -915l440 653l254 -653l543 915h319z" />
    <glyph glyph-name="Wacute.ss01" horiz-adv-x="2189" 
d="M1147 1522l-41 86l145 147q57 57 101 83t96 26q68 0 108 -44t31 -108q-7 -44 -50 -80t-128 -55zM1409 -41l-281 698l-473 -698l-493 1464h311l281 -915l440 653l254 -653l543 915h319z" />
    <glyph glyph-name="Wcircumflex.ss01" horiz-adv-x="2189" 
d="M1081 1522l-159 127l368 215l318 -215l-183 -127l-157 129zM1409 -41l-281 698l-473 -698l-493 1464h311l281 -915l440 653l254 -653l543 915h319z" />
    <glyph glyph-name="Wdieresis.ss01" horiz-adv-x="2189" 
d="M1042 1526q-70 0 -113 53t-34 117q6 53 55 97t111 44q76 0 116.5 -53.5t30.5 -120.5q-6 -53 -52.5 -95t-113.5 -42zM1479 1526q-70 0 -113.5 53t-34.5 117q6 53 55 97t111 44q76 0 117 -53.5t31 -120.5q-6 -53 -52.5 -95t-113.5 -42zM1409 -41l-281 698l-473 -698
l-493 1464h311l281 -915l440 653l254 -653l543 915h319z" />
    <glyph glyph-name="Wgrave.ss01" horiz-adv-x="2189" 
d="M1352 1522l-242 59q-82 19 -118.5 63.5t-28.5 100.5q7 52 49.5 85.5t101.5 33.5q58 0 96 -29.5t84 -93.5l113 -135zM1409 -41l-281 698l-473 -698l-493 1464h311l281 -915l440 653l254 -653l543 915h319z" />
    <glyph glyph-name="w.ss01" horiz-adv-x="1583" 
d="M973 -41l-182 447l-308 -447l-413 942h286l195 -487l326 422l145 -420l332 485h295z" />
    <glyph glyph-name="wacute.ss01" horiz-adv-x="1583" 
d="M784 1096l-39 84l170 190q103 109 179 109q67 0 106.5 -43.5t30.5 -108.5q-5 -43 -38.5 -74.5t-117.5 -60.5zM973 -41l-182 447l-308 -447l-413 942h286l195 -487l326 422l145 -420l332 485h295z" />
    <glyph glyph-name="wcircumflex.ss01" horiz-adv-x="1583" 
d="M692 1116l-149 127l393 236l334 -236l-172 -127l-185 150zM973 -41l-182 447l-308 -447l-413 942h286l195 -487l326 422l145 -420l332 485h295z" />
    <glyph glyph-name="wdieresis.ss01" horiz-adv-x="1583" 
d="M686 1133q-70 0 -114 52.5t-35 117.5q6 53 56.5 97t111.5 44q76 0 117.5 -53.5t31.5 -120.5q-6 -54 -53.5 -95.5t-114.5 -41.5zM1122 1133q-70 0 -114 52.5t-35 117.5q6 53 56.5 97t111.5 44q76 0 117.5 -53.5t31.5 -120.5q-6 -54 -53.5 -95.5t-114.5 -41.5zM973 -41
l-182 447l-308 -447l-413 942h286l195 -487l326 422l145 -420l332 485h295z" />
    <glyph glyph-name="wgrave.ss01" horiz-adv-x="1583" 
d="M989 1096l-256 100q-76 30 -104.5 69.5t-22.5 94.5q7 52 51 85.5t103 33.5q84 0 158 -121l129 -178zM973 -41l-182 447l-308 -447l-413 942h286l195 -487l326 422l145 -420l332 485h295z" />
    <glyph glyph-name="uni00660074" horiz-adv-x="1443" 
d="M1192 686l-53 -381q-6 -44 8 -69t47 -25q29 0 57.5 18.5t48.5 51.5l25 -222q-97 -84 -238 -84q-111 0 -181.5 75t-53.5 190l61 446h-385l-96 -686h-278l96 686h-203l143 215h91l2 12q37 264 195.5 415t404.5 151l-21 -226q-110 -2 -193.5 -98t-109.5 -254h350l373 445
l-59 -445h215l-31 -215h-215z" />
    <glyph glyph-name="acute.case" horiz-adv-x="782" 
d="M324 1608l145 147q57 57 101 83t96 26q68 0 108 -44t31 -108q-7 -44 -50 -80t-128 -55l-262 -55z" />
    <glyph glyph-name="breve.case" horiz-adv-x="1009" 
d="M834 1847l202 -16q-7 -59 -33.5 -113t-70.5 -98.5t-111 -71t-147 -26.5q-85 0 -149.5 29t-99.5 76.5t-49 104t-5 115.5l215 -16q-14 -70 8 -107.5t78 -37.5q65 0 109.5 45.5t52.5 115.5z" />
    <glyph glyph-name="caron.case" horiz-adv-x="1005" 
d="M1028 1737l-366 -215l-320 215l174 127l166 -129l199 129z" />
    <glyph glyph-name="circumflex.case" horiz-adv-x="1046" 
d="M1038 1649l-182 -127l-158 129l-186 -129l-160 127l369 215z" />
    <glyph glyph-name="dieresis.case" horiz-adv-x="1087" 
d="M510 1837q76 0 116.5 -53.5t30.5 -120.5q-6 -53 -52 -95t-113 -42q-70 0 -113.5 53t-34.5 117q6 53 55 97t111 44zM946 1837q76 0 117 -53.5t31 -120.5q-6 -53 -52.5 -95t-113.5 -42q-70 0 -113.5 53t-34.5 117q6 53 55 97t111 44z" />
    <glyph glyph-name="dotaccent.case" horiz-adv-x="829" 
d="M598 1835q76 0 116.5 -53.5t30.5 -120.5q-6 -53 -52 -95t-113 -42q-70 0 -113 53t-35 117q8 53 56.5 97t109.5 44z" />
    <glyph glyph-name="grave.case" horiz-adv-x="782" 
d="M733 1522l-241 59q-82 19 -119 63.5t-29 100.5q7 52 50 85.5t102 33.5q58 0 96 -29.5t84 -93.5l112 -135z" />
    <glyph glyph-name="hungarumlaut.case" horiz-adv-x="1255" 
d="M324 1606l145 149q59 58 101.5 83.5t95.5 25.5q68 0 108 -44t31 -108q-7 -44 -50 -80t-128 -55l-265 -55zM797 1606l145 149q59 57 102 83t95 26q68 0 108 -44t31 -108q-7 -44 -50 -80t-128 -55l-262 -55z" />
    <glyph glyph-name="macron.case" horiz-adv-x="1136" 
d="M1077 1571h-696l31 213h696z" />
    <glyph glyph-name="ring.case" horiz-adv-x="761" 
d="M567 1833q102 0 158.5 -64.5t44.5 -156.5q-11 -79 -76.5 -134t-158.5 -55q-101 0 -159 65.5t-46 156.5q11 78 78 133t159 55zM571 1690q-27 0 -53.5 -22t-30.5 -56q-3 -22 11 -33.5t32 -11.5q26 0 52 22t30 56q3 22 -10.5 33.5t-30.5 11.5z" />
    <glyph glyph-name="tilde.case" horiz-adv-x="1079" 
d="M975 1845l125 -153q-53 -74 -131 -118t-152 -44q-35 0 -62 10.5t-43.5 25t-32 29t-35 25t-42.5 10.5q-41 0 -80 -30.5t-69 -83.5l-123 153q52 72 129.5 115t152.5 43q42 0 74 -15t48 -33t40.5 -33t52.5 -15q42 0 82.5 31.5t65.5 82.5z" />
    </font>
</defs>
</svg>
