<?xml version="1.0" standalone="no"?>
<!DOCTYPE svg PUBLIC "-//W3C//DTD SVG 1.1//EN" "http://www.w3.org/Graphics/SVG/1.1/DTD/svg11.dtd" >
<svg xmlns="http://www.w3.org/2000/svg" xmlns:xlink="http://www.w3.org/1999/xlink" version="1.1">
<metadata>
Created by FontForge 20201107 at Thu Apr 18 22:51:52 2024
 By 
Copyright (c) 2013 by Mattia Bonanomi. All rights reserved.
</metadata>
<defs>
<font id="MTTMilano-RegularItalic" horiz-adv-x="1095" >
  <font-face 
    font-family="MTT Milano"
    font-weight="400"
    font-style="italic"
    font-stretch="normal"
    units-per-em="2048"
    panose-1="0 0 5 0 0 0 0 0 0 0"
    ascent="1556"
    descent="-492"
    x-height="901"
    cap-height="1423"
    bbox="-244 -588 2433 1882"
    underline-thickness="102"
    underline-position="-204"
    slope="-8"
    unicode-range="U+000D-FB02"
  />
<missing-glyph horiz-adv-x="1650" 
d="M958 1446q154 0 284.5 -58.5t216 -157.5t125 -236t18.5 -289q-28 -201 -148.5 -369t-302 -264.5t-383.5 -96.5q-153 0 -283 58.5t-215 158t-124 238t-17 291.5q27 198 146.5 365t300.5 263.5t382 96.5zM1149 1065l84 109q-73 57 -133.5 80.5t-147.5 23.5q-138 0 -243 -80
t-123 -211q-14 -103 34 -167.5t156 -106.5l158 -62q67 -29 99.5 -86t21.5 -125q-9 -74 -75.5 -128t-150.5 -54q-174 0 -329 125l-80 -107q81 -63 182.5 -97t194.5 -34q138 0 249 85.5t132 226.5q8 46 2 91t-23.5 84t-57 74t-98.5 60l-170 68q-139 57 -122 170q3 25 16 50.5
t36.5 51.5t65 42.5t93.5 16.5q110 0 229 -100z" />
    <glyph glyph-name="fi" unicode="fi" horiz-adv-x="1130" 
d="M1040 901l-127 -901h-139l109 776h-465l-109 -776h-135l109 776h-213l106 125h125l12 86q70 492 492 492l-12 -133q-145 0 -232.5 -92.5t-118.5 -307.5l-6 -45h604zM1032 1401q46 0 75 -33.5t23 -79.5q-6 -41 -38 -69.5t-72 -28.5q-47 0 -76 34t-22 81q5 40 37 68t73 28z
" />
    <glyph glyph-name="fl" unicode="fl" horiz-adv-x="1138" 
d="M436 901h291l-18 -125h-291l-109 -776h-135l109 776h-213l106 125h125l12 86q70 492 492 492l-12 -133q-145 0 -232.5 -92.5t-118.5 -307.5zM1122 1454l-204 -1454h-140l205 1454h139z" />
    <glyph glyph-name="f_f" unicode="ff" horiz-adv-x="1294" 
d="M1421 1479l-12 -133q-145 0 -232 -92t-118 -308l-6 -45h290l-18 -125h-291l-108 -776h-135l108 776h-481l-109 -776h-135l109 776h-213l106 125h125l12 86q70 492 492 492l-12 -133q-145 0 -232.5 -92.5t-118.5 -307.5l-6 -45h482l12 86q70 492 491 492z" />
    <glyph glyph-name="f_f_i" unicode="ffi" horiz-adv-x="1746" 
d="M1657 901l-127 -901h-139l108 776h-465l-108 -776h-135l108 776h-481l-109 -776h-135l109 776h-213l106 125h125l12 86q70 492 492 492l-12 -133q-145 0 -232.5 -92.5t-118.5 -307.5l-6 -45h482l12 86q70 492 491 492l-12 -133q-145 0 -232 -92t-118 -308l-6 -45h604z
M1649 1401q46 0 75 -33.5t23 -79.5q-6 -41 -38.5 -69.5t-72.5 -28.5q-47 0 -76 34t-22 81q4 40 37 68t74 28z" />
    <glyph glyph-name=".notdef" horiz-adv-x="1650" 
d="M958 1446q154 0 284.5 -58.5t216 -157.5t125 -236t18.5 -289q-28 -201 -148.5 -369t-302 -264.5t-383.5 -96.5q-153 0 -283 58.5t-215 158t-124 238t-17 291.5q27 198 146.5 365t300.5 263.5t382 96.5zM1149 1065l84 109q-73 57 -133.5 80.5t-147.5 23.5q-138 0 -243 -80
t-123 -211q-14 -103 34 -167.5t156 -106.5l158 -62q67 -29 99.5 -86t21.5 -125q-9 -74 -75.5 -128t-150.5 -54q-174 0 -329 125l-80 -107q81 -63 182.5 -97t194.5 -34q138 0 249 85.5t132 226.5q8 46 2 91t-23.5 84t-57 74t-98.5 60l-170 68q-139 57 -122 170q3 25 16 50.5
t36.5 51.5t65 42.5t93.5 16.5q110 0 229 -100z" />
    <glyph glyph-name=".null" horiz-adv-x="0" 
 />
    <glyph glyph-name="nonmarkingreturn" horiz-adv-x="682" 
 />
    <glyph glyph-name="CR" unicode="&#xd;" horiz-adv-x="532" 
 />
    <glyph glyph-name="space" unicode=" " horiz-adv-x="532" 
 />
    <glyph glyph-name="exclam" unicode="!" horiz-adv-x="696" 
d="M414 377h-148l146 1046h151zM305 186q46 0 75 -33t23 -79q-6 -41 -39 -70t-73 -29q-47 0 -75.5 34t-22.5 81q6 40 38.5 68t73.5 28z" />
    <glyph glyph-name="quotedbl" unicode="&#x22;" horiz-adv-x="761" 
d="M270 901l-8 455q6 39 36 65.5t69 26.5q44 0 70.5 -30t21.5 -70l-135 -447h-54zM569 901l-8 455q6 39 36 65.5t69 26.5q44 0 70.5 -30t21.5 -70l-135 -447h-54z" />
    <glyph glyph-name="numbersign" unicode="#" horiz-adv-x="1517" 
d="M1214 901l-129 -405h277l-19 -140h-303l-112 -356h-148l113 356h-406l-110 -356h-148l111 356h-250l19 140h276l125 405h-268l20 139h293l119 383h147l-119 -383h410l121 383h147l-120 -383h243l-20 -139h-269zM1067 901h-410l-125 -405h406z" />
    <glyph glyph-name="dollar" unicode="$" horiz-adv-x="1253" 
d="M758 780l135 -55q104 -44 154.5 -143.5t33.5 -221.5q-17 -114 -85 -202.5t-159.5 -133.5t-191.5 -49l-20 -143h-148l23 158q-193 44 -379 160l94 131q166 -101 305 -134l76 531l-129 51q-92 37 -151 132.5t-40 221.5q15 107 80 192.5t153.5 129t180.5 43.5h12l21 143h147
l-22 -155q79 -12 143.5 -40t157.5 -81l-92 -129q-121 73 -230 96zM618 840l64 452q-61 -6 -110 -30.5t-78 -58.5t-45 -68t-21 -68q-8 -60 18 -113t80 -77zM735 623l-69 -492q96 8 172.5 78.5t89.5 167.5q10 73 -22.5 131.5t-94.5 83.5z" />
    <glyph glyph-name="percent" unicode="%" horiz-adv-x="1576" 
d="M524 1448q133 0 214.5 -91t62.5 -224q-19 -126 -120.5 -212.5t-227.5 -86.5q-131 0 -213 91t-64 224q19 126 120.5 212.5t227.5 86.5zM371 0h-152l1069 1423h152zM522 1329q-82 0 -149.5 -57.5t-77.5 -138.5q-10 -75 37.5 -128t122.5 -53q82 0 150.5 58t78.5 139
q10 74 -38 127t-124 53zM1204 590q133 0 214.5 -91.5t62.5 -224.5q-19 -126 -120.5 -212.5t-227.5 -86.5q-132 0 -214 92t-63 224q19 127 120 213t228 86zM1204 473q-82 0 -150.5 -59t-78.5 -140q-10 -75 37.5 -127.5t122.5 -52.5q82 0 150.5 58t78.5 139q10 75 -37.5 128.5
t-122.5 53.5z" />
    <glyph glyph-name="ampersand" unicode="&#x26;" horiz-adv-x="1275" 
d="M1186 0h-166l-57 137q-381 -165 -541 -162q-138 3 -235 100t-83 238q16 115 84 204t195 134l152 51q-104 43 -161.5 143t-39.5 226q22 155 149.5 266t280.5 111q97 0 173 -42.5t112 -115.5l-129 -49q-14 33 -58.5 54.5t-99.5 21.5q-103 0 -192.5 -75t-106.5 -187
q-11 -80 30 -153.5t115.5 -107t151.5 -6.5l323 113l54 -121l-254 -92zM741 633l-299 -111q-169 -61 -190 -225q-13 -86 40.5 -133.5t133.5 -50.5q50 -2 125.5 18t142.5 45.5t211 83.5z" />
    <glyph glyph-name="quotesingle" unicode="'" horiz-adv-x="462" 
d="M270 901l-8 455q6 39 36 65.5t69 26.5q44 0 70.5 -30t21.5 -70l-135 -447h-54z" />
    <glyph glyph-name="parenleft" unicode="(" horiz-adv-x="849" 
d="M795 1567l131 -74q-239 -209 -378.5 -448t-172.5 -480q-33 -236 38 -472.5t249 -444.5l-142 -64q-176 204 -254.5 480.5t-44.5 517.5q34 237 187.5 508.5t386.5 476.5z" />
    <glyph glyph-name="parenright" unicode=")" horiz-adv-x="849" 
d="M227 1497l142 66q176 -206 254 -481t45 -517q-34 -237 -188 -509.5t-386 -475.5l-131 72q239 209 378.5 449t172.5 481q33 235 -38 471t-249 444z" />
    <glyph glyph-name="asterisk" unicode="*" horiz-adv-x="1048" 
d="M688 1159l260 94l27 -137l-268 -72l135 -206l-123 -86l-115 223l-180 -223l-107 86l195 206l-244 72l64 137l235 -94l27 264h141z" />
    <glyph glyph-name="plus" unicode="+" horiz-adv-x="1138" 
d="M664 602h352l-19 -139h-352l-49 -352h-145l49 352h-350l18 139h350l51 352h146z" />
    <glyph glyph-name="comma" unicode="," horiz-adv-x="468" 
d="M29 -274l51 362q6 43 41 70.5t72 27.5q45 0 74 -31t22 -79q0 -18 -27 -70l-186 -280h-47z" />
    <glyph glyph-name="hyphen" unicode="-" horiz-adv-x="864" 
d="M723 463h-573l18 139h573z" />
    <glyph glyph-name="period" unicode="." horiz-adv-x="456" 
d="M186 186q45 0 74.5 -32.5t22.5 -77.5q-4 -41 -38 -71t-73 -30q-47 0 -75.5 34.5t-22.5 82.5q6 40 38.5 67t73.5 27z" />
    <glyph glyph-name="slash" unicode="/" horiz-adv-x="1107" 
d="M188 0h-163l972 1423h164z" />
    <glyph glyph-name="zero" unicode="0" horiz-adv-x="1361" 
d="M817 1448q135 0 240.5 -58.5t167.5 -159t85.5 -236.5t2.5 -289q-21 -151 -81.5 -284t-148.5 -232t-207 -156.5t-251 -57.5q-109 0 -199.5 38t-152 106t-102 161.5t-49 204.5t6.5 236q28 201 121 365.5t242 263t325 98.5zM811 1300q-139 0 -253 -81.5t-183 -215
t-92 -298.5q-23 -162 7 -292.5t118 -210t223 -79.5q138 0 252 82t183 216t93 300q22 161 -8.5 290.5t-118 209t-221.5 79.5z" />
    <glyph glyph-name="one" unicode="1" horiz-adv-x="589" 
d="M330 0h-152l162 1145h-119l6 67l308 252z" />
    <glyph glyph-name="two" unicode="2" horiz-adv-x="1128" 
d="M371 1010h-156q26 186 161.5 312t315.5 126q183 0 289 -131t80 -320q-9 -61 -45.5 -132t-93.5 -134l-553 -592h567l-21 -139h-868l768 821q77 84 92 193q17 122 -44 203.5t-177 82.5q-123 -1 -210 -85t-105 -205z" />
    <glyph glyph-name="three" unicode="3" horiz-adv-x="1128" 
d="M1128 1423l-518 -549q93 7 174.5 -26.5t136 -94.5t80 -148t11.5 -183q-26 -185 -177.5 -316t-338.5 -131q-147 0 -254.5 85.5t-135.5 218.5h166q24 -69 87 -114.5t141 -45.5q131 0 235 93.5t123 225.5q19 128 -45.5 216.5t-187.5 88.5q-85 0 -153 -43.5t-107 -107.5h-189
l629 692h-559l20 139h862z" />
    <glyph glyph-name="four" unicode="4" horiz-adv-x="1153" 
d="M891 524h166l-19 -139h-166l-55 -385h-147l55 385h-717l1014 1079zM322 524h421l78 537z" />
    <glyph glyph-name="five" unicode="5" horiz-adv-x="1110" 
d="M1040 1284h-540l-152 -471q45 32 115 53t135 21q189 0 300.5 -132t82.5 -333q-15 -112 -91 -215.5t-190.5 -167.5t-234.5 -64q-148 0 -255.5 85.5t-135.5 218.5h157q26 -71 92 -113.5t148 -42.5q130 0 233.5 92t122.5 223q19 127 -46 214t-187 87q-88 0 -171 -40.5
t-140 -110.5l-131 45l243 790h631z" />
    <glyph glyph-name="six" unicode="6" horiz-adv-x="1091" 
d="M846 1423l-375 -520q20 10 70 16.5t88 6.5q54 0 107.5 -18.5t103 -58.5t84.5 -95.5t50.5 -136.5t2.5 -175q-28 -195 -177.5 -331t-330.5 -136q-123 0 -218.5 64t-140.5 175.5t-26 244.5q8 65 45.5 149t83.5 154l465 661h168zM584 778q-134 0 -230.5 -96t-115.5 -240
q-21 -139 42 -229t195 -90q136 0 231.5 95.5t116.5 240.5q19 138 -45 228.5t-194 90.5z" />
    <glyph glyph-name="seven" unicode="7" horiz-adv-x="1030" 
d="M268 0h-172l811 1284h-727l21 139h970z" />
    <glyph glyph-name="eight" unicode="8" horiz-adv-x="1132" 
d="M700 1448q158 0 254 -111t74 -268q-12 -86 -59.5 -161t-122.5 -128q85 -59 127.5 -158.5t25.5 -218.5q-25 -178 -168.5 -303t-322.5 -125q-184 0 -295.5 130t-85.5 315q17 115 84.5 211t171.5 157q-57 51 -84 128.5t-14 168.5q20 150 142 256.5t273 106.5zM696 1303
q-95 0 -174.5 -69.5t-91.5 -164.5q-13 -92 40.5 -155.5t143.5 -63.5q97 0 176.5 68.5t92.5 166.5q12 90 -42.5 154t-144.5 64zM610 702q-123 0 -222 -87.5t-116 -211.5q-17 -117 54 -198.5t188 -81.5q124 0 223.5 87t116.5 210q17 116 -53 199t-191 83z" />
    <glyph glyph-name="nine" unicode="9" horiz-adv-x="1054" 
d="M272 0l392 522q-19 -8 -66.5 -16t-93.5 -8q-54 0 -107.5 18.5t-103 58t-84.5 95t-50.5 136.5t-2.5 175q28 195 177.5 331t330.5 136q123 0 218.5 -64t140.5 -175t26 -244q-8 -65 -45.5 -149t-83.5 -154l-476 -662h-172zM657 1300q-136 0 -231.5 -95t-116.5 -240
q-19 -137 45.5 -228.5t194.5 -91.5q134 0 230.5 96t115.5 240q21 139 -42.5 229t-195.5 90z" />
    <glyph glyph-name="colon" unicode=":" horiz-adv-x="538" 
d="M332 926q45 0 73.5 -33t22.5 -78q-6 -41 -39 -70.5t-72 -29.5q-47 0 -75.5 34t-22.5 82q6 40 39 67.5t74 27.5zM227 186q45 0 74.5 -32.5t22.5 -77.5q-4 -41 -38 -71t-73 -30q-47 0 -75.5 34.5t-22.5 82.5q6 40 38.5 67t73.5 27z" />
    <glyph glyph-name="semicolon" unicode=";" horiz-adv-x="468" 
d="M297 926q45 0 73.5 -33t22.5 -78q-6 -41 -38.5 -70.5t-71.5 -29.5q-47 0 -76 34.5t-23 81.5q6 40 39 67.5t74 27.5zM29 -274l51 362q6 43 41 70.5t72 27.5q45 0 74 -31t22 -79q0 -18 -27 -70l-186 -280h-47z" />
    <glyph glyph-name="less" unicode="&#x3c;" horiz-adv-x="1181" 
d="M1092 825l-627 -293l545 -292l-25 -164l-825 456l954 457z" />
    <glyph glyph-name="equal" unicode="=" horiz-adv-x="1204" 
d="M1085 629h-913l21 139h913zM1040 297h-913l18 139h914z" />
    <glyph glyph-name="greater" unicode="&#x3e;" horiz-adv-x="1177" 
d="M1047 532l-953 -456l25 164l620 292l-538 293l22 164z" />
    <glyph glyph-name="question" unicode="?" horiz-adv-x="970" 
d="M176 1006l8 61q16 111 77 198.5t149.5 135t187.5 47.5q158 0 253 -110t73 -267q-18 -125 -111 -225l-254 -262l-22 -154h-152l27 207l293 309q56 59 69 141q12 88 -40.5 149.5t-141.5 61.5q-93 0 -169 -68.5t-89 -170.5l-8 -53h-150zM438 186q46 0 75.5 -33t23.5 -77
q-4 -41 -38.5 -71t-74.5 -30q-47 0 -74.5 34.5t-21.5 82.5q6 39 37.5 66.5t72.5 27.5z" />
    <glyph glyph-name="at" unicode="@" horiz-adv-x="1904" 
d="M848 -287l-12 -147q-134 0 -252 30.5t-222 101.5t-173 176t-96.5 265t-0.5 357q25 178 93.5 332.5t166 267t218 192.5t253 120t267.5 40q132 0 252.5 -38.5t221 -119t169 -193.5t95.5 -272.5t1 -345.5q-18 -130 -68 -232t-115.5 -160t-134.5 -87t-135 -29q-86 0 -147 40
t-74 91q-40 -58 -129.5 -92.5t-204.5 -34.5q-123 0 -205 81t-65 198q16 117 101.5 193.5t236.5 80.5l270 4l19 101q6 47 -10 82t-46 52t-58 24.5t-54 7.5q-161 0 -273 -107l-78 96q80 80 164.5 109t188.5 29q161 0 239 -85.5t60 -215.5l-49 -349q-12 -87 20 -130.5t96 -43.5
q30 0 62.5 10t71 37.5t70.5 69.5t59 114t40 163q22 158 -0.5 291.5t-79.5 226.5t-139.5 158.5t-179 96.5t-199.5 31q-106 0 -213.5 -32t-211 -99t-188 -162t-146 -231.5t-84.5 -296.5q-20 -125 -10.5 -227t35 -181.5t72 -139t102 -101.5t124.5 -68t139 -37.5t146 -11.5z
M1133 311l12 90q-125 6 -256 0q-185 -9 -207 -163q-7 -56 35 -96t106 -40q139 0 216.5 62t93.5 147z" />
    <glyph glyph-name="A" unicode="A" horiz-adv-x="1290" 
d="M950 387h-618l-217 -387h-168l839 1464l431 -1464h-160zM911 526l-166 596l-335 -596h501z" />
    <glyph glyph-name="B" unicode="B" horiz-adv-x="1222" 
d="M305 1423h453q145 0 240.5 -110t74.5 -262q-9 -69 -47.5 -135t-97.5 -117q97 -53 147.5 -153.5t38.5 -227.5q-25 -172 -165 -295t-320 -123h-525zM432 1276l-61 -434h305q86 0 159 67t85 158q12 87 -37 148t-138 61h-313zM350 702l-78 -555h369q114 0 208.5 83.5
t111.5 203.5q15 110 -51.5 189t-182.5 79h-377z" />
    <glyph glyph-name="C" unicode="C" horiz-adv-x="1478" 
d="M1223 336l125 -109q-278 -252 -590 -252q-145 0 -273.5 59t-216 158t-129.5 238t-20 291q20 142 96 275.5t186.5 232.5t255 159t293.5 60q174 0 301.5 -68.5t198.5 -183.5l-131 -92q-153 196 -375 196q-121 0 -237 -47.5t-205.5 -127.5t-151 -190t-78.5 -230
q-22 -157 35.5 -291t178.5 -212.5t278 -78.5q242 0 459 213z" />
    <glyph glyph-name="D" unicode="D" horiz-adv-x="1415" 
d="M305 1423h440q139 0 261.5 -56t207.5 -151t125.5 -229.5t20.5 -281.5q-20 -140 -92.5 -269t-179 -225t-247 -153.5t-288.5 -57.5h-449zM432 1284l-160 -1145h293q146 0 286 78.5t236.5 213.5t118.5 290q20 146 -33.5 275t-170.5 208.5t-269 79.5h-301z" />
    <glyph glyph-name="E" unicode="E" horiz-adv-x="1193" 
d="M1165 1284h-733l-65 -469h598l-19 -139h-598l-76 -537h740l-21 -139h-887l201 1423h881z" />
    <glyph glyph-name="F" unicode="F" horiz-adv-x="1085" 
d="M1124 1284h-692l-65 -469h577l-18 -139h-578l-96 -676h-148l201 1423h840z" />
    <glyph glyph-name="G" unicode="G" horiz-adv-x="1490" 
d="M1421 782l-10 -69l-65 -480q-45 -49 -101 -92t-129.5 -82t-166.5 -61.5t-193 -22.5q-145 0 -273.5 59t-216 158t-129.5 238t-20 291q20 142 96 275.5t186.5 232.5t255 159t293.5 60q86 0 162.5 -17t131.5 -45t93 -55.5t66 -58.5l-144 -107q-49 57 -137 96t-178 39
q-121 0 -237 -47.5t-205.5 -127.5t-151 -190t-78.5 -230q-22 -157 35.5 -291t178.5 -212.5t278 -78.5q135 0 250.5 51t193.5 137l47 332h-411l20 139h559z" />
    <glyph glyph-name="H" unicode="H" horiz-adv-x="1497" 
d="M1262 0h-148l90 643h-854l-90 -643h-147l200 1423h148l-90 -641h854l90 641h147z" />
    <glyph glyph-name="I" unicode="I" horiz-adv-x="489" 
d="M260 0h-151l200 1423h152z" />
    <glyph glyph-name="J" unicode="J" horiz-adv-x="579" 
d="M549 1423l-178 -1269q-39 -278 -206.5 -438t-408.5 -160l11 139q186 0 303.5 123t148.5 344l178 1261h152z" />
    <glyph glyph-name="K" unicode="K" horiz-adv-x="1302" 
d="M696 801l492 -801h-178l-424 696l-273 -258l-61 -438h-148l201 1423h148l-111 -778l821 778h191z" />
    <glyph glyph-name="L" unicode="L" horiz-adv-x="1077" 
d="M272 139h713l-20 -139h-861l201 1423h148z" />
    <glyph glyph-name="M" unicode="M" horiz-adv-x="1667" 
d="M1430 0h-148l156 1092l-592 -592l-428 592l-156 -1092h-147l204 1464l549 -759l766 759z" />
    <glyph glyph-name="N" unicode="N" horiz-adv-x="1511" 
d="M1171 336l156 1087h148l-205 -1464l-852 1128l-156 -1087h-147l204 1464z" />
    <glyph glyph-name="O" unicode="O" horiz-adv-x="1648" 
d="M961 1448q145 0 273 -58.5t215 -157t129 -237t21 -290.5q-27 -193 -147 -359t-302 -266t-382 -105q-145 0 -273.5 59t-216 158t-129.5 238t-20 291q26 190 146.5 357.5t304 268.5t381.5 101zM954 1300q-161 0 -308 -80.5t-244 -217t-119 -297.5q-22 -157 35 -291
t178 -212.5t278 -78.5q120 0 235.5 47.5t205.5 128t152 191t79 231.5q16 117 -14.5 224t-96 185t-165 124t-216.5 46z" />
    <glyph glyph-name="P" unicode="P" horiz-adv-x="1118" 
d="M305 1423h475q183 0 288.5 -109t80.5 -282q-24 -174 -154 -275.5t-315 -101.5h-336l-92 -655h-148zM432 1284l-67 -489h327q119 0 202.5 68t100.5 186q17 117 -44.5 176t-182.5 59h-336z" />
    <glyph glyph-name="Q" unicode="Q" horiz-adv-x="1640" 
d="M1446 -397l-373 434q-145 -62 -305 -62q-150 0 -279.5 59.5t-215 159.5t-125.5 238t-19 289q20 147 97.5 281.5t189.5 232t255 155.5t290 58q152 0 281 -58.5t214.5 -158t124.5 -237t18 -289.5q-29 -196 -136 -346t-251 -244l258 -305zM954 1300q-161 0 -308 -80.5
t-244 -217t-119 -297.5q-22 -157 35 -291t178 -212.5t278 -78.5q120 0 235.5 47.5t205.5 128t152 191t79 231.5q16 117 -14.5 224t-96 185t-165 124t-216.5 46z" />
    <glyph glyph-name="R" unicode="R" horiz-adv-x="1271" 
d="M305 1423h496q196 0 301 -108t80 -283q-19 -130 -109 -225.5t-221 -128.5l244 -678h-164l-236 655h-352l-92 -655h-148zM432 1284l-67 -489h348q137 0 222.5 68t102.5 186q17 117 -50 176t-200 59h-356z" />
    <glyph glyph-name="S" unicode="S" horiz-adv-x="1169" 
d="M727 637l-205 80q-143 56 -209 143.5t-45 226.5q23 163 153 262t302 99q117 0 198 -32t181 -109l-94 -131q-154 124 -291 124q-71 0 -128.5 -23t-91 -59t-52 -73.5t-23.5 -73.5q-21 -135 153 -205l220 -90q280 -117 237 -416q-17 -118 -89 -207t-172.5 -133.5
t-211.5 -44.5q-126 0 -262.5 46.5t-245.5 128.5l94 131q86 -70 194.5 -114t225.5 -44q115 0 207.5 75.5t106.5 178.5q11 85 -27.5 154.5t-124.5 105.5z" />
    <glyph glyph-name="T" unicode="T" horiz-adv-x="1028" 
d="M1116 1284h-409l-181 -1284h-147l180 1284h-409l20 139h967z" />
    <glyph glyph-name="U" unicode="U" horiz-adv-x="1423" 
d="M1403 1423l-127 -901q-21 -149 -112 -275t-226.5 -199t-282.5 -73q-155 0 -273 76t-172.5 203.5t-33.5 275.5l125 893h148l-127 -901q-23 -168 75.5 -283.5t264.5 -115.5q172 0 308 121t160 286l125 893h148z" />
    <glyph glyph-name="V" unicode="V" horiz-adv-x="1331" 
d="M602 -41l-430 1464h160l311 -1116l631 1116h168z" />
    <glyph glyph-name="W" unicode="W" horiz-adv-x="1966" 
d="M1235 -41l-213 727l-418 -727l-432 1464h160l311 -1136l326 579l-164 557h156l104 -383l215 383h164l-326 -569l156 -567l635 1136h168z" />
    <glyph glyph-name="X" unicode="X" horiz-adv-x="1368" 
d="M819 768l449 -768h-172l-377 649l-565 -649h-181l672 768l-387 655h172l313 -542l471 542h181z" />
    <glyph glyph-name="Y" unicode="Y" horiz-adv-x="1198" 
d="M705 645l-93 -645h-147l92 645l-389 778h172l307 -630l488 630h180z" />
    <glyph glyph-name="Z" unicode="Z" horiz-adv-x="1222" 
d="M279 139h841l-20 -139h-1102l1024 1284h-815l20 139h1076z" />
    <glyph glyph-name="bracketleft" unicode="[" horiz-adv-x="634" 
d="M721 1423h-211l-234 -1661h211l-20 -139h-358l272 1940h358z" />
    <glyph glyph-name="backslash" unicode="\" horiz-adv-x="1060" 
d="M950 0h-151l-611 1423h152z" />
    <glyph glyph-name="bracketright" unicode="]" horiz-adv-x="634" 
d="M297 -377h-358l20 139h211l233 1661h-210l18 140h358z" />
    <glyph glyph-name="asciicircum" unicode="^" horiz-adv-x="1040" 
d="M936 743h-160l-145 435l-281 -435h-164l478 721z" />
    <glyph glyph-name="underscore" unicode="_" horiz-adv-x="1019" 
d="M899 -356h-999l18 139h1000z" />
    <glyph glyph-name="grave" unicode="`" horiz-adv-x="745" 
d="M637 1126l-207 113q-76 41 -103.5 78t-19.5 88q4 32 32.5 53t59.5 21q41 0 76 -29t78 -88l131 -168z" />
    <glyph glyph-name="a" unicode="a" 
d="M877 0h-136l19 121q-133 -146 -318 -146q-129 0 -217 67.5t-122 176.5t-15 240q13 94 53 178.5t99.5 149t143 102t177.5 37.5q193 0 287 -150l20 125h136zM578 799q-125 0 -226.5 -99.5t-122.5 -257.5q-23 -153 45.5 -246.5t188.5 -93.5q123 0 222.5 103.5t121.5 253.5
q20 142 -46.5 241t-182.5 99z" />
    <glyph glyph-name="b" unicode="b" 
d="M436 1454l-96 -674q133 146 317 146q97 0 172.5 -39.5t119.5 -106t61 -154t4 -184.5q-19 -127 -81 -232t-165.5 -170t-228.5 -65q-193 0 -287 150l-21 -125h-135l205 1454h135zM637 799q-122 0 -222 -104t-120 -253q-22 -143 44 -241.5t183 -98.5q126 0 226.5 99
t123.5 258q21 153 -47.5 246.5t-187.5 93.5z" />
    <glyph glyph-name="c" unicode="c" horiz-adv-x="940" 
d="M745 227l86 -98q-161 -154 -362 -154q-88 0 -165.5 31t-135.5 89t-85 151t-11 207q17 117 72 211t130 149.5t155.5 84t158.5 28.5q184 0 303 -119l-94 -96q-23 25 -43 41t-62.5 31.5t-95.5 15.5q-143 0 -256 -106t-135 -257q-21 -141 56 -237.5t220 -96.5q47 0 88 11
t77.5 35t49.5 34.5t41 37.5q6 5 8 7z" />
    <glyph glyph-name="d" unicode="d" 
d="M877 0h-136l19 121q-133 -146 -318 -146q-129 0 -217 67.5t-122 176.5t-15 240q13 94 53 178.5t99.5 149t143 102t177.5 37.5q193 0 287 -150l98 678h135zM578 799q-125 0 -226.5 -99.5t-122.5 -257.5q-23 -153 45.5 -246.5t188.5 -93.5q123 0 222.5 103.5t121.5 253.5
q20 142 -46.5 241t-182.5 99z" />
    <glyph glyph-name="e" unicode="e" horiz-adv-x="1003" 
d="M772 252l113 -57q-63 -98 -169 -159t-231 -61q-69 0 -133.5 19.5t-119 60.5t-92.5 97.5t-53.5 135.5t-2.5 171q12 89 47 166t83.5 131.5t107.5 93.5t121 57.5t122 18.5q202 0 298.5 -127t64.5 -353q-2 -14 -6 -30h-709q-15 -143 60.5 -228.5t209.5 -85.5q99 0 174.5 42
t114.5 108zM238 547h565q14 104 -51 178t-183 74q-116 0 -204 -68.5t-127 -183.5z" />
    <glyph glyph-name="f" unicode="f" horiz-adv-x="677" 
d="M805 1479l-12 -133q-145 0 -232.5 -92.5t-118.5 -307.5l-6 -45h291l-18 -125h-291l-109 -776h-135l109 776h-213l106 125h125l12 86q70 492 492 492z" />
    <glyph glyph-name="g" unicode="g" 
d="M735 -41l25 162q-133 -146 -318 -146q-129 0 -217 67.5t-122 176.5t-15 240q13 94 53 178.5t99.5 149t143 102t177.5 37.5q193 0 287 -150l20 125h136l-134 -942q-66 -475 -495 -475q-103 0 -208 62t-165 143l90 104q129 -182 307 -182q129 0 219.5 81.5t116.5 266.5z
M578 799q-125 0 -226.5 -99.5t-122.5 -257.5q-23 -153 45.5 -246.5t188.5 -93.5q123 0 222.5 103.5t121.5 253.5q20 142 -46.5 241t-182.5 99z" />
    <glyph glyph-name="h" unicode="h" horiz-adv-x="1069" 
d="M444 1454l-94 -661q48 60 125 96.5t160 36.5q63 0 111 -12.5t87.5 -42t59.5 -77.5t27.5 -119t-7.5 -167l-71 -508h-135l71 516q40 283 -168 283q-63 0 -125 -31t-111.5 -99.5t-62.5 -160.5l-71 -508h-136l205 1454h135z" />
    <glyph glyph-name="i" unicode="i" horiz-adv-x="452" 
d="M354 1401q46 0 75.5 -33.5t23.5 -79.5q-6 -41 -38.5 -69.5t-72.5 -28.5q-47 0 -76 34t-22 81q5 40 37 68t73 28zM236 0h-140l127 901h139z" />
    <glyph glyph-name="j" unicode="j" horiz-adv-x="471" 
d="M373 1401q46 0 75 -33.5t23 -79.5q-6 -41 -38.5 -69.5t-72.5 -28.5q-47 0 -76 34t-22 81q4 40 37 68t74 28zM381 901l-127 -905q-38 -262 -236 -438l-94 108q76 67 127 155t64 183l127 897h139z" />
    <glyph glyph-name="k" unicode="k" horiz-adv-x="974" 
d="M504 514l377 -514h-185l-381 514l-71 -514h-148l205 1454h148l-134 -940l441 387h194z" />
    <glyph glyph-name="l" unicode="l" horiz-adv-x="460" 
d="M240 0h-140l205 1454h139z" />
    <glyph glyph-name="m" unicode="m" horiz-adv-x="1628" 
d="M367 901l-17 -108q48 60 125 96.5t160 36.5q202 0 252 -176q51 79 142 127.5t190 48.5q37 0 67.5 -4.5t62.5 -16.5t54.5 -32.5t42.5 -52t28 -75.5t11 -103t-10 -134l-72 -508h-135l73 516q12 70 7.5 120t-15 81.5t-33.5 49.5t-47.5 25t-58.5 7q-101 0 -191.5 -77.5
t-109.5 -213.5l-72 -508h-135l72 516q12 70 7 120t-15.5 81.5t-34 49.5t-48 25t-57.5 7q-63 0 -125 -31t-111.5 -99.5t-62.5 -160.5l-71 -508h-136l127 901h136z" />
    <glyph glyph-name="n" unicode="n" horiz-adv-x="1069" 
d="M367 901l-17 -108q48 60 125 96.5t160 36.5q63 0 111 -12.5t87.5 -42t59.5 -77.5t27.5 -119t-7.5 -167l-71 -508h-135l73 516q21 147 -25.5 215t-144.5 68q-63 0 -125 -31t-111.5 -99.5t-62.5 -160.5l-71 -508h-136l127 901h136z" />
    <glyph glyph-name="o" unicode="o" horiz-adv-x="1140" 
d="M631 926q131 0 234.5 -65t154.5 -176.5t33 -242.5q-28 -193 -187.5 -330t-353.5 -137q-131 0 -234.5 65t-154 177t-31.5 242q17 127 96.5 234.5t197.5 170t245 62.5zM629 799q-148 0 -262 -103.5t-134 -253.5q-22 -143 58.5 -241.5t222.5 -98.5q148 0 261.5 103.5
t135.5 253.5q20 143 -60 241.5t-222 98.5z" />
    <glyph glyph-name="p" unicode="p" 
d="M358 901l-18 -121q133 146 317 146q97 0 172.5 -39.5t119.5 -106t61 -154t4 -184.5q-19 -127 -81 -232t-165.5 -170t-228.5 -65q-193 0 -287 150l-90 -617h-135l196 1393h135zM637 799q-123 0 -222.5 -104t-119.5 -253q-22 -142 44.5 -241t182.5 -99q125 0 226 99
t124 258q21 153 -47 246.5t-188 93.5z" />
    <glyph glyph-name="q" unicode="q" 
d="M672 -492l88 613q-133 -146 -318 -146q-129 0 -217 67.5t-122 176.5t-15 240q13 94 53 178.5t99.5 149t143 102t177.5 37.5q193 0 287 -150l20 125h136l-197 -1393h-135zM578 799q-126 0 -227 -99t-122 -258q-23 -152 46 -246t188 -94q122 0 222 104t122 253
q20 143 -46 241.5t-183 98.5z" />
    <glyph glyph-name="r" unicode="r" horiz-adv-x="733" 
d="M358 901l-16 -108q48 60 125 96.5t160 36.5q36 0 78.5 -13.5t66.5 -31.5l-94 -109q-34 27 -86 27q-91 0 -180.5 -78t-108.5 -213l-72 -508h-135l127 901h135z" />
    <glyph glyph-name="s" unicode="s" horiz-adv-x="821" 
d="M16 84l76 109q52 -31 80.5 -46t82.5 -30t112 -15q84 0 139.5 43.5t64.5 108.5q9 87 -110 135l-164 70q-166 78 -145 235q8 57 39 103t73.5 73.5t87 41.5t86.5 14q92 0 157.5 -21t143.5 -65l-77 -107q-106 66 -203 66q-70 0 -117.5 -38.5t-52.5 -82.5q-6 -40 12.5 -64.5
t63.5 -44.5l159 -67q97 -41 146.5 -109t36.5 -155q-17 -121 -115 -192t-227 -71q-99 0 -180 27.5t-169 81.5z" />
    <glyph glyph-name="t" unicode="t" horiz-adv-x="669" 
d="M424 901h219l-18 -125h-219l-80 -575q-7 -54 5 -76.5t44 -22.5q42 0 96 50l41 -111q-79 -66 -166 -66q-84 0 -128 56t-28 170l80 575h-213l107 125h125l22 174l162 193z" />
    <glyph glyph-name="u" unicode="u" horiz-adv-x="1044" 
d="M829 0h-135l19 109q-51 -60 -127.5 -97t-159.5 -37q-63 0 -111 12.5t-87.5 42t-60 77.5t-28 119t7.5 167l72 508h137l-71 -516q-40 -283 166 -283q63 0 125 31t111.5 99.5t62.5 160.5l71 508h135z" />
    <glyph glyph-name="v" unicode="v" horiz-adv-x="892" 
d="M383 -41l-303 942h143l197 -631l377 631h151z" />
    <glyph glyph-name="w" unicode="w" horiz-adv-x="1318" 
d="M799 -41l-137 455l-269 -455l-313 942h143l203 -649l190 309l-104 340h139l180 -649l392 649h151z" />
    <glyph glyph-name="x" unicode="x" horiz-adv-x="970" 
d="M575 477l320 -477h-172l-242 373l-352 -373h-180l459 477l-285 424h168l211 -321l305 321h176z" />
    <glyph glyph-name="y" unicode="y" horiz-adv-x="913" 
d="M182 -492h-151l315 560l-258 833h143l203 -672l375 672h152z" />
    <glyph glyph-name="z" unicode="z" horiz-adv-x="813" 
d="M250 125h461l-19 -125h-694l569 776h-438l18 125h674z" />
    <glyph glyph-name="braceleft" unicode="{" horiz-adv-x="667" 
d="M713 1563l-15 -140q-72 0 -107 -16t-43 -36t-15 -75q-2 -13 -3 -20l-51 -356q-9 -62 -29 -117.5t-41.5 -90t-48 -63.5t-41.5 -41t-28 -20q12 -7 28 -26t39 -61.5t30 -101t-1 -143.5l-51 -354q-10 -56 -9.5 -87.5t27 -43t103.5 -11.5l-17 -137h-133q-49 0 -95 76.5
t-32 181.5l49 350q12 84 13.5 144t-24.5 100t-85 60l8 120q94 27 133 97t58 206l49 355q16 106 78.5 178t111.5 72h142z" />
    <glyph glyph-name="bar" unicode="|" horiz-adv-x="1175" 
d="M600 0h-147l219 1556h147z" />
    <glyph glyph-name="braceright" unicode="}" horiz-adv-x="667" 
d="M270 1563h133q50 0 96.5 -76t32.5 -182l-51 -355q-11 -82 -12 -141t25.5 -99t85.5 -59l-9 -121q-95 -29 -133 -98t-59 -209l-49 -350q-14 -105 -77.5 -177.5t-113.5 -72.5h-141l16 137q56 0 86.5 5.5t46.5 23.5t21.5 39.5t11.5 63.5q1 12 2 18l49 354q9 62 29.5 117.5
t42.5 90.5t48 64t41.5 41t27.5 19q-7 5 -15.5 14t-24 29.5t-26 45t-22 62t-11.5 81t5 100.5l49 356q2 12 5 31.5t4 27.5t1.5 22t-2 19.5t-7.5 14t-14.5 11.5t-24 7t-34.5 5t-47 1z" />
    <glyph glyph-name="asciitilde" unicode="~" horiz-adv-x="1204" 
d="M1016 754l123 -62q-59 -119 -147 -192.5t-189 -73.5q-50 0 -94 19t-76 46t-61 54t-63 46t-69 19q-57 0 -113.5 -50t-90.5 -128l-125 60q60 121 146.5 194.5t186.5 73.5q44 0 88.5 -19.5t79.5 -47t68 -54.5t66.5 -46.5t62.5 -19.5q58 0 116 51.5t91 129.5z" />
    <glyph glyph-name="exclamdown" unicode="&#xa1;" horiz-adv-x="696" 
d="M408 911q47 0 75.5 -33.5t22.5 -80.5q-6 -40 -39 -68.5t-74 -28.5q-46 0 -75 33.5t-23 79.5q6 41 39.5 69.5t73.5 28.5zM289 -522h-152l148 1032h147z" />
    <glyph glyph-name="cent" unicode="&#xa2;" horiz-adv-x="1269" 
d="M881 227l86 -98q-142 -135 -312 -152l-20 -145h-148l23 154q-153 31 -241 153t-62 314q15 103 58.5 187.5t105.5 139.5t130 89.5t140 48.5l21 151h147l-21 -147q139 -16 238 -115l-94 -96q-65 73 -162 84l-96 -686q18 3 34.5 7.5t32 11.5t28 12.5t26.5 15t22 15
t20.5 16.5t16.5 14.5t16 14.5zM528 117l93 661q-108 -36 -186 -129.5t-95 -212.5q-17 -116 33.5 -203.5t154.5 -115.5z" />
    <glyph glyph-name="sterling" unicode="&#xa3;" horiz-adv-x="1251" 
d="M287 786l30 224q17 121 89.5 222t180.5 158.5t226 57.5q187 0 300 -131t87 -316l-145 9q17 122 -55 206t-193 84q-124 0 -225.5 -88t-118.5 -211l-31 -215h473l-20 -149h-473l-70 -490h780l-20 -147h-1077l20 147h152l69 490h-151l20 149h152z" />
    <glyph glyph-name="currency" unicode="&#xa4;" horiz-adv-x="1251" 
d="M1264 1143l-177 -156q74 -127 54 -282q-21 -154 -133 -279l131 -147l-113 -105l-133 154q-136 -90 -289 -90q-157 0 -272 94l-174 -156l-92 103l178 157q-78 127 -54 285q21 154 132 278l-129 150l112 100l131 -149q138 88 287 88q161 0 274 -96l174 153zM332 705
q-22 -144 55.5 -242t218.5 -98q148 0 259.5 102.5t133.5 253.5q20 144 -58.5 242t-219.5 98q-148 0 -258.5 -102.5t-130.5 -253.5z" />
    <glyph glyph-name="yen" unicode="&#xa5;" horiz-adv-x="1368" 
d="M911 795h301l-20 -140h-401l-25 -176h399l-20 -139h-400l-49 -340h-147l49 340h-403l20 139h403l25 176h-401l20 140h299l-371 628h168l373 -630l553 630h176z" />
    <glyph glyph-name="brokenbar" unicode="&#xa6;" horiz-adv-x="1175" 
d="M731 934h-147l88 622h147zM600 0h-147l88 623h147z" />
    <glyph glyph-name="section" unicode="&#xa7;" horiz-adv-x="1169" 
d="M162 4l153 -8q-30 -209 156 -209q94 0 155 52t74 147q6 47 -3 80.5t-41 59t-52.5 36t-72.5 32.5q-7 3 -11 5q-80 34 -131.5 64.5t-92.5 72t-55.5 96t-4.5 125.5q15 104 76.5 184.5t162.5 120.5q-71 38 -105.5 108t-21.5 163q20 140 135 227.5t260 87.5q79 0 150 -36
t102 -97q58 -86 43 -232l-151 9q9 108 -26 159.5t-124 51.5q-92 0 -159.5 -54t-79.5 -145q-6 -46 5 -79.5t45.5 -58t61.5 -37.5t82 -34q27 -11 41 -16q24 -8 44 -16t43 -19t39.5 -23t35.5 -28.5t30.5 -34.5t23.5 -41.5t15.5 -50t6 -59.5t-5.5 -70q-26 -194 -240 -297
q154 -84 127 -281q-20 -146 -128.5 -230.5t-258.5 -84.5q-178 0 -248.5 92.5t-54.5 267.5zM639 760q-90 0 -162 -63.5t-86 -153.5q-11 -84 39.5 -142.5t134.5 -58.5q89 0 161.5 64t86.5 153q11 83 -40 142t-134 59z" />
    <glyph glyph-name="dieresis" unicode="&#xa8;" horiz-adv-x="931" 
d="M410 1401q46 0 75 -33.5t23 -79.5q-6 -41 -38.5 -69.5t-72.5 -28.5q-47 0 -76 34t-22 81q4 40 37 68t74 28zM778 1401q46 0 75.5 -33.5t23.5 -79.5q-6 -41 -38.5 -69.5t-72.5 -28.5q-47 0 -76 34t-22 81q5 40 37 68t73 28z" />
    <glyph glyph-name="copyright" unicode="&#xa9;" horiz-adv-x="1527" 
d="M897 1446q154 0 284.5 -58.5t216 -157.5t124.5 -236t18 -289q-21 -150 -97 -285.5t-187 -233t-254.5 -154.5t-294.5 -57q-153 0 -283 58.5t-215 158t-124 238t-17 291.5q27 198 146.5 365t300.5 263.5t382 96.5zM897 1327q-168 0 -322 -82t-258 -225.5t-127 -314.5
q-18 -126 14 -239.5t102 -194.5t175 -128t228 -47q169 0 323 82t258 226t129 317q23 167 -39 306.5t-190 219.5t-293 80zM1024 489l84 -92q-16 -20 -46.5 -42.5t-76.5 -47.5t-110.5 -41t-133.5 -16q-80 0 -155.5 32t-133.5 90t-86.5 148.5t-13.5 196.5q12 89 49.5 165.5
t89 130.5t114 92t126.5 56.5t125 18.5q109 0 188 -36t121 -89l-94 -97q-29 41 -81.5 67t-125.5 26q-140 0 -250 -106.5t-129 -244.5q-18 -125 61.5 -223t207.5 -98q95 0 167.5 36t102.5 74z" />
    <glyph glyph-name="ordfeminine" unicode="&#xaa;" horiz-adv-x="626" 
d="M629 901h-101l-28 94h-211l-53 -94h-109l328 563zM336 1085h145l-49 164zM610 688h-522l14 103h523z" />
    <glyph glyph-name="guillemotleft" unicode="&#xab;" horiz-adv-x="980" 
d="M561 776l-305 -321l213 -314l-109 -78l-264 392l371 401zM881 776l-301 -321l211 -314l-107 -78l-268 392l372 401z" />
    <glyph glyph-name="logicalnot" unicode="&#xac;" horiz-adv-x="1204" 
d="M1016 125h-148l47 338h-765l18 139h913z" />
    <glyph glyph-name="softhyphen" unicode="&#xad;" horiz-adv-x="864" 
d="M723 463h-573l18 139h573z" />
    <glyph glyph-name="registered" unicode="&#xae;" horiz-adv-x="1533" 
d="M903 1448q154 0 284.5 -58.5t216 -157.5t124.5 -236.5t18 -290.5q-21 -150 -97 -285.5t-187.5 -233t-255.5 -154.5t-295 -57q-154 0 -284.5 58.5t-216.5 158t-125 238t-17 291.5q27 200 147.5 367t303 263.5t384.5 96.5zM901 1329q-169 0 -323.5 -82.5t-259 -226
t-128.5 -315.5q-18 -126 14.5 -239.5t103 -194.5t176.5 -128t229 -47q169 0 323.5 82t259 226t129.5 317q23 168 -39.5 308t-191 220t-293.5 80zM621 1161h276q123 0 192 -73.5t54 -188.5q-11 -84 -68 -144t-135 -85l133 -396h-139l-121 373h-137l-53 -373h-127zM729 1034
l-37 -258h150q66 0 116.5 37.5t59.5 99.5q9 60 -29.5 90.5t-101.5 30.5h-158z" />
    <glyph glyph-name="macron" unicode="&#xaf;" horiz-adv-x="1136" 
d="M987 1221h-614l18 127h615z" />
    <glyph glyph-name="degree" unicode="&#xb0;" horiz-adv-x="794" 
d="M532 1448q121 0 194 -86.5t56 -206.5q-15 -117 -107 -197.5t-208 -80.5q-122 0 -195.5 85.5t-54.5 208.5q13 114 106 195.5t209 81.5zM530 1346q-82 0 -141 -54t-70 -137q-11 -79 29 -127.5t117 -48.5q83 0 143 53.5t72 138.5q9 76 -32 125.5t-118 49.5z" />
    <glyph glyph-name="plusminus" unicode="&#xb1;" horiz-adv-x="1138" 
d="M676 684h352l-18 -139h-353l-39 -271h-145l39 271h-350l18 139h350l39 270h146zM932 0h-848l20 145h848z" />
    <glyph glyph-name="twosuperior" unicode="&#xb2;" horiz-adv-x="722" 
d="M344 1214h-106q13 103 86 168.5t170 65.5q99 0 158.5 -70t45.5 -170q-12 -81 -125 -194l-176 -164h260l-14 -102h-479l393 393q35 35 41 84q7 51 -23 86t-81 35q-59 0 -100 -35.5t-50 -96.5z" />
    <glyph glyph-name="threesuperior" unicode="&#xb3;" horiz-adv-x="716" 
d="M735 1423l-250 -247q81 -12 127.5 -77t34.5 -153q-12 -90 -83 -152.5t-161 -62.5q-89 0 -144 46t-69 124h105q7 -35 35 -54.5t71 -19.5q55 0 100.5 40t53.5 96q7 49 -24.5 88t-77.5 39q-75 0 -127 -76h-123l309 313h-244l15 96h452z" />
    <glyph glyph-name="acute" unicode="&#xb4;" horiz-adv-x="745" 
d="M276 1194l175 172q60 58 100 85.5t76 27.5q37 0 63.5 -26t20.5 -64q-6 -45 -41.5 -79.5t-122.5 -74.5l-240 -109z" />
    <glyph glyph-name="paragraph" unicode="&#xb6;" horiz-adv-x="1155" 
d="M1147 1300h-111l-223 -1589h-123l223 1589h-153l-223 -1589h-121l121 821q-166 0 -263.5 117.5t-70.5 306.5q12 87 52 170t99.5 149.5t141.5 107t172 40.5h497z" />
    <glyph glyph-name="periodcentered" unicode="&#xb7;" horiz-adv-x="550" 
d="M289 586q46 0 75 -33.5t23 -77.5q-6 -40 -38.5 -69t-72.5 -29q-47 0 -75.5 34.5t-22.5 80.5q5 38 37.5 66t73.5 28z" />
    <glyph glyph-name="cedilla" unicode="&#xb8;" horiz-adv-x="745" 
d="M385 0l-66 -94q16 4 39 4q70 0 115 -53.5t33 -135.5q-10 -76 -71.5 -124t-137.5 -48q-77 0 -128 41.5t-54 102.5h108q13 -55 70 -55q38 0 69 28.5t37 71.5q6 36 -13 62t-50 26q-39 0 -68 -29h-127l129 203h115z" />
    <glyph glyph-name="onesuperior" unicode="&#xb9;" horiz-adv-x="407" 
d="M328 743h-103l76 539h-80l8 49l201 133z" />
    <glyph glyph-name="ordmasculine" unicode="&#xba;" horiz-adv-x="665" 
d="M471 1448q126 0 201.5 -84.5t58.5 -206.5q-17 -118 -111 -199t-214 -81q-124 0 -201 87.5t-60 209.5q15 114 111 194t215 80zM473 1358q-88 0 -154.5 -57t-78.5 -144q-12 -84 33.5 -137t127.5 -53q88 0 155.5 58.5t80.5 148.5q10 81 -36 132.5t-128 51.5zM666 688h-594
l14 103h594z" />
    <glyph glyph-name="guillemotright" unicode="&#xbb;" horiz-adv-x="980" 
d="M569 455l-368 -392l-95 78l300 314l-209 321l108 80zM889 455l-369 -392l-94 78l301 314l-211 321l109 80z" />
    <glyph glyph-name="onequarter" unicode="&#xbc;" horiz-adv-x="1517" 
d="M287 743h-103l76 539h-80l8 49l201 133zM254 0h-145l1056 1423h146zM1247 264h82l-14 -102h-82l-23 -162h-100l23 162h-367l545 559zM989 264h158l29 189z" />
    <glyph glyph-name="onehalf" unicode="&#xbd;" horiz-adv-x="1671" 
d="M311 743h-102l76 539h-80l8 49l201 133zM268 0h-145l1057 1423h145zM1126 467h-106q13 103 86 168t170 65q100 0 159.5 -69.5t45.5 -169.5q-12 -82 -125 -195l-176 -164h260l-15 -102h-479l393 393q35 35 41 84q7 51 -23 86t-81 35q-59 0 -100 -35t-50 -96z" />
    <glyph glyph-name="threequarters" unicode="&#xbe;" horiz-adv-x="1619" 
d="M674 1423l-250 -247q81 -12 127.5 -77t34.5 -153q-12 -90 -83 -152.5t-161 -62.5q-89 0 -144 46t-69 124h104q7 -35 35.5 -54.5t71.5 -19.5q55 0 100.5 40t53.5 96q7 49 -25 88t-78 39q-75 0 -127 -76h-123l310 313h-244l14 96h453zM350 0h-145l1057 1423h145zM1350 264
h82l-15 -102h-82l-22 -162h-101l23 162h-367l545 559zM1092 264h157l29 189z" />
    <glyph glyph-name="questiondown" unicode="&#xbf;" horiz-adv-x="970" 
d="M551 926q47 0 74.5 -34.5t21.5 -82.5q-6 -39 -37.5 -66.5t-72.5 -27.5q-46 0 -75.5 33t-23.5 77q6 41 39.5 71t73.5 30zM563 264l-293 -309q-57 -64 -69 -141q-12 -88 40.5 -149.5t141.5 -61.5q93 0 169 68.5t89 170.5l8 54h150l-8 -62q-24 -168 -142 -274.5t-270 -106.5
q-158 0 -254 110t-74 267q18 125 111 225l254 262l26 154h144z" />
    <glyph glyph-name="Agrave" unicode="&#xc0;" horiz-adv-x="1290" 
d="M903 1522l-196 102q-80 41 -112.5 78.5t-25.5 87.5q4 32 33 53t60 21q75 0 159 -117l127 -158zM950 387h-618l-217 -387h-168l839 1464l431 -1464h-160zM911 526l-166 596l-335 -596h501z" />
    <glyph glyph-name="Aacute" unicode="&#xc1;" horiz-adv-x="1290" 
d="M698 1522l-32 67l165 162q120 113 183 113q37 0 64.5 -26t21.5 -64q-6 -44 -45.5 -79t-128.5 -75zM950 387h-618l-217 -387h-168l839 1464l431 -1464h-160zM911 526l-166 596l-335 -596h501z" />
    <glyph glyph-name="Acircumflex" unicode="&#xc2;" horiz-adv-x="1290" 
d="M631 1522l-92 59l303 283l229 -283l-100 -59l-142 192zM950 387h-618l-217 -387h-168l839 1464l431 -1464h-160zM911 526l-166 596l-335 -596h501z" />
    <glyph glyph-name="Atilde" unicode="&#xc3;" horiz-adv-x="1290" 
d="M1077 1815l82 -82q-36 -63 -93.5 -105.5t-119.5 -42.5q-46 0 -135.5 43t-128.5 43q-62 0 -111 -92l-86 82q46 67 95 106t110 39q44 0 97 -22t98 -44t69 -22q62 0 123 97zM950 387h-618l-217 -387h-168l839 1464l431 -1464h-160zM911 526l-166 596l-335 -596h501z" />
    <glyph glyph-name="Adieresis" unicode="&#xc4;" horiz-adv-x="1290" 
d="M633 1587q-47 0 -75.5 34t-22.5 81q6 40 38.5 68t73.5 28q46 0 74 -33t22 -79q-6 -41 -38 -70t-72 -29zM1001 1587q-47 0 -75.5 34t-22.5 81q6 40 39 68t74 28q46 0 74 -33t22 -79q-6 -41 -38.5 -70t-72.5 -29zM950 387h-618l-217 -387h-168l839 1464l431 -1464h-160z
M911 526l-166 596l-335 -596h501z" />
    <glyph glyph-name="Aring" unicode="&#xc5;" horiz-adv-x="1290" 
d="M950 387h-618l-217 -387h-168l817 1425q-76 10 -120.5 71t-35.5 140q12 80 78 138.5t148 58.5q87 0 140.5 -63t41.5 -150q-11 -79 -73.5 -136.5t-143.5 -60.5l418 -1423h-160zM702 1620q-5 -42 19 -71t67 -29q50 0 91 34.5t47 81.5q6 43 -19.5 74t-68.5 31
q-50 0 -89 -35.5t-47 -85.5zM911 526l-166 596l-335 -596h501z" />
    <glyph glyph-name="AE" unicode="&#xc6;" horiz-adv-x="1865" 
d="M1579 1276h-727l139 -490h615l-21 -149h-551l137 -490h512l-20 -147h-612l-181 637h-397l-354 -637h-172l805 1423h847zM555 786h276l-83 353z" />
    <glyph glyph-name="Ccedilla" unicode="&#xc7;" horiz-adv-x="1478" 
d="M1223 336l125 -109q-262 -238 -553 -252l-50 -69q16 4 39 4q70 0 115 -53.5t33 -135.5q-10 -76 -71.5 -124t-137.5 -48q-77 0 -128 41.5t-54 102.5h108q13 -55 70 -55q38 0 69 28.5t37 71.5q6 36 -13 62t-50 26q-39 0 -68 -29h-127l117 183q-132 14 -246 78t-191 161.5
t-112.5 228.5t-15.5 273t96 275.5t186.5 232.5t255 159t293.5 60q174 0 301.5 -68.5t198.5 -183.5l-131 -92q-153 196 -375 196q-121 0 -237 -47.5t-205.5 -127.5t-151 -190t-78.5 -230q-22 -157 35.5 -291t178.5 -212.5t278 -78.5q242 0 459 213z" />
    <glyph glyph-name="Egrave" unicode="&#xc8;" horiz-adv-x="1193" 
d="M862 1522l-196 102q-80 41 -112.5 78.5t-25.5 87.5q4 32 33 53t60 21q75 0 159 -117l127 -158zM1165 1284h-733l-65 -469h598l-19 -139h-598l-76 -537h740l-21 -139h-887l201 1423h881z" />
    <glyph glyph-name="Eacute" unicode="&#xc9;" horiz-adv-x="1193" 
d="M625 1589l166 162q120 113 182 113q37 0 64.5 -26t21.5 -64q-6 -44 -45.5 -79t-128.5 -75l-228 -98zM1165 1284h-733l-65 -469h598l-19 -139h-598l-76 -537h740l-21 -139h-887l201 1423h881z" />
    <glyph glyph-name="Ecircumflex" unicode="&#xca;" horiz-adv-x="1193" 
d="M1030 1581l-100 -59l-142 192l-198 -192l-92 59l303 283zM1165 1284h-733l-65 -469h598l-19 -139h-598l-76 -537h740l-21 -139h-887l201 1423h881z" />
    <glyph glyph-name="Edieresis" unicode="&#xcb;" horiz-adv-x="1193" 
d="M606 1798q46 0 74 -33t22 -79q-6 -41 -38 -70t-72 -29q-47 0 -75.5 34t-22.5 81q6 40 38.5 68t73.5 28zM975 1798q46 0 74 -33t22 -79q-6 -41 -38 -70t-72 -29q-47 0 -76 34t-23 81q6 40 39 68t74 28zM1165 1284h-733l-65 -469h598l-19 -139h-598l-76 -537h740l-21 -139
h-887l201 1423h881z" />
    <glyph glyph-name="Igrave" unicode="&#xcc;" horiz-adv-x="489" 
d="M504 1522l-197 102q-80 41 -112 78.5t-25 87.5q4 32 32.5 53t59.5 21q76 0 160 -117l127 -158zM260 0h-151l200 1423h152z" />
    <glyph glyph-name="Iacute" unicode="&#xcd;" horiz-adv-x="489" 
d="M266 1589l166 162q120 113 182 113q37 0 64.5 -26t21.5 -64q-6 -44 -45.5 -79t-128.5 -75l-227 -98zM260 0h-151l200 1423h152z" />
    <glyph glyph-name="Icircumflex" unicode="&#xce;" horiz-adv-x="489" 
d="M672 1581l-101 -59l-141 192l-199 -192l-92 59l303 283zM260 0h-151l200 1423h152z" />
    <glyph glyph-name="Idieresis" unicode="&#xcf;" horiz-adv-x="489" 
d="M248 1798q46 0 74 -33t22 -79q-6 -41 -38.5 -70t-72.5 -29q-47 0 -75.5 34t-22.5 81q6 40 39 68t74 28zM616 1798q46 0 74.5 -33t22.5 -79q-6 -41 -38.5 -70t-72.5 -29q-47 0 -75.5 34t-22.5 81q6 40 38.5 68t73.5 28zM260 0h-151l200 1423h152z" />
    <glyph glyph-name="Eth" unicode="&#xd0;" horiz-adv-x="1415" 
d="M309 1423h436q139 0 261.5 -56t207.5 -151t125.5 -229.5t20.5 -281.5q-20 -140 -92.5 -269t-179 -225t-247 -153.5t-288.5 -57.5h-444l92 651h-146l19 140h145zM276 139h289q146 0 286 78.5t236.5 213.5t118.5 290q20 146 -33.5 275t-170.5 208.5t-269 79.5h-297
l-69 -493h368l-18 -140h-369z" />
    <glyph glyph-name="Ntilde" unicode="&#xd1;" horiz-adv-x="1511" 
d="M1188 1815l82 -82q-36 -63 -93.5 -105.5t-119.5 -42.5q-46 0 -135.5 43t-128.5 43q-62 0 -111 -92l-86 82q46 67 95 106t110 39q44 0 97 -22t98 -44t69 -22q62 0 123 97zM1171 336l156 1087h148l-205 -1464l-852 1128l-156 -1087h-147l204 1464z" />
    <glyph glyph-name="Ograve" unicode="&#xd2;" horiz-adv-x="1648" 
d="M1083 1522l-196 102q-80 41 -112 78.5t-25 87.5q4 32 32.5 53t59.5 21q75 0 159 -117l127 -158zM961 1448q145 0 273 -58.5t215 -157t129 -237t21 -290.5q-27 -193 -147 -359t-302 -266t-382 -105q-145 0 -273.5 59t-216 158t-129.5 238t-20 291q26 190 146.5 357.5
t304 268.5t381.5 101zM954 1300q-161 0 -308 -80.5t-244 -217t-119 -297.5q-22 -157 35 -291t178 -212.5t278 -78.5q120 0 235.5 47.5t205.5 128t152 191t79 231.5q16 117 -14.5 224t-96 185t-165 124t-216.5 46z" />
    <glyph glyph-name="Oacute" unicode="&#xd3;" horiz-adv-x="1648" 
d="M846 1589l166 162q120 113 182 113q37 0 64.5 -26t21.5 -64q-6 -44 -45.5 -79t-128.5 -75l-227 -98zM961 1448q145 0 273 -58.5t215 -157t129 -237t21 -290.5q-27 -193 -147 -359t-302 -266t-382 -105q-145 0 -273.5 59t-216 158t-129.5 238t-20 291q26 190 146.5 357.5
t304 268.5t381.5 101zM954 1300q-161 0 -308 -80.5t-244 -217t-119 -297.5q-22 -157 35 -291t178 -212.5t278 -78.5q120 0 235.5 47.5t205.5 128t152 191t79 231.5q16 117 -14.5 224t-96 185t-165 124t-216.5 46z" />
    <glyph glyph-name="Ocircumflex" unicode="&#xd4;" horiz-adv-x="1648" 
d="M1251 1581l-100 -59l-141 192l-199 -192l-92 59l303 283zM961 1448q145 0 273 -58.5t215 -157t129 -237t21 -290.5q-27 -193 -147 -359t-302 -266t-382 -105q-145 0 -273.5 59t-216 158t-129.5 238t-20 291q26 190 146.5 357.5t304 268.5t381.5 101zM954 1300
q-161 0 -308 -80.5t-244 -217t-119 -297.5q-22 -157 35 -291t178 -212.5t278 -78.5q120 0 235.5 47.5t205.5 128t152 191t79 231.5q16 117 -14.5 224t-96 185t-165 124t-216.5 46z" />
    <glyph glyph-name="Otilde" unicode="&#xd5;" horiz-adv-x="1648" 
d="M1257 1815l82 -82q-36 -63 -93.5 -105.5t-119.5 -42.5q-46 0 -135.5 43t-128.5 43q-61 0 -110 -92l-86 82q46 68 94.5 106.5t109.5 38.5q44 0 97 -22t98.5 -44t69.5 -22q38 0 66.5 27t55.5 70zM961 1448q145 0 273 -58.5t215 -157t129 -237t21 -290.5q-27 -193 -147 -359
t-302 -266t-382 -105q-145 0 -273.5 59t-216 158t-129.5 238t-20 291q26 190 146.5 357.5t304 268.5t381.5 101zM954 1300q-161 0 -308 -80.5t-244 -217t-119 -297.5q-22 -157 35 -291t178 -212.5t278 -78.5q120 0 235.5 47.5t205.5 128t152 191t79 231.5q16 117 -14.5 224
t-96 185t-165 124t-216.5 46z" />
    <glyph glyph-name="Odieresis" unicode="&#xd6;" horiz-adv-x="1648" 
d="M827 1798q46 0 74.5 -33t22.5 -79q-6 -41 -38.5 -70t-72.5 -29q-47 0 -75.5 34t-22.5 81q6 40 38.5 68t73.5 28zM1196 1798q46 0 74 -33t22 -79q-6 -41 -38 -70t-72 -29q-47 0 -76 34t-23 81q6 40 39 68t74 28zM961 1448q145 0 273 -58.5t215 -157t129 -237t21 -290.5
q-27 -193 -147 -359t-302 -266t-382 -105q-145 0 -273.5 59t-216 158t-129.5 238t-20 291q26 190 146.5 357.5t304 268.5t381.5 101zM954 1300q-161 0 -308 -80.5t-244 -217t-119 -297.5q-22 -157 35 -291t178 -212.5t278 -78.5q120 0 235.5 47.5t205.5 128t152 191
t79 231.5q16 117 -14.5 224t-96 185t-165 124t-216.5 46z" />
    <glyph glyph-name="multiply" unicode="&#xd7;" horiz-adv-x="1216" 
d="M1135 893l-416 -361l315 -358l-114 -104l-306 364l-411 -364l-94 104l415 358l-315 361l115 102l307 -366l409 366z" />
    <glyph glyph-name="Oslash" unicode="&#xd8;" horiz-adv-x="1652" 
d="M1692 1339l-195 -170q139 -205 102 -464q-27 -193 -147 -359t-302 -266t-382 -105q-254 0 -442 170l-193 -170l-94 109l192 170q-139 205 -102 467q26 190 146.5 357.5t304 268.5t381.5 101q127 0 240.5 -44.5t201.5 -125.5l194 170zM348 354l940 824q-135 122 -334 122
q-161 0 -308 -80.5t-244 -217t-119 -297.5q-27 -198 65 -351zM1380 1067l-940 -823q137 -121 334 -121q120 0 235.5 47.5t205.5 128t152 191t79 231.5q27 190 -66 346z" />
    <glyph glyph-name="Ugrave" unicode="&#xd9;" horiz-adv-x="1423" 
d="M971 1522l-197 102q-80 41 -112 78.5t-25 87.5q4 32 32.5 53t59.5 21q76 0 160 -117l127 -158zM1403 1423l-127 -901q-21 -149 -112 -275t-226.5 -199t-282.5 -73q-155 0 -273 76t-172.5 203.5t-33.5 275.5l125 893h148l-127 -901q-23 -168 75.5 -283.5t264.5 -115.5
q172 0 308 121t160 286l125 893h148z" />
    <glyph glyph-name="Uacute" unicode="&#xda;" horiz-adv-x="1423" 
d="M733 1589l166 162q120 113 182 113q37 0 64.5 -26t21.5 -64q-6 -44 -45.5 -79t-128.5 -75l-227 -98zM1403 1423l-127 -901q-21 -149 -112 -275t-226.5 -199t-282.5 -73q-155 0 -273 76t-172.5 203.5t-33.5 275.5l125 893h148l-127 -901q-23 -168 75.5 -283.5
t264.5 -115.5q172 0 308 121t160 286l125 893h148z" />
    <glyph glyph-name="Ucircumflex" unicode="&#xdb;" horiz-adv-x="1423" 
d="M1139 1581l-101 -59l-141 192l-199 -192l-92 59l303 283zM1403 1423l-127 -901q-21 -149 -112 -275t-226.5 -199t-282.5 -73q-155 0 -273 76t-172.5 203.5t-33.5 275.5l125 893h148l-127 -901q-23 -168 75.5 -283.5t264.5 -115.5q172 0 308 121t160 286l125 893h148z" />
    <glyph glyph-name="Udieresis" unicode="&#xdc;" horiz-adv-x="1423" 
d="M715 1798q46 0 74 -33t22 -79q-6 -41 -38.5 -70t-72.5 -29q-47 0 -75.5 34t-22.5 81q6 40 39 68t74 28zM1083 1798q46 0 74.5 -33t22.5 -79q-6 -41 -38.5 -70t-72.5 -29q-47 0 -75.5 34t-22.5 81q6 40 38.5 68t73.5 28zM1403 1423l-127 -901q-21 -149 -112 -275
t-226.5 -199t-282.5 -73q-155 0 -273 76t-172.5 203.5t-33.5 275.5l125 893h148l-127 -901q-23 -168 75.5 -283.5t264.5 -115.5q172 0 308 121t160 286l125 893h148z" />
    <glyph glyph-name="Yacute" unicode="&#xdd;" horiz-adv-x="1198" 
d="M621 1589l165 162q120 113 183 113q37 0 64.5 -26t21.5 -64q-6 -44 -45.5 -79t-128.5 -75l-228 -98zM705 645l-93 -645h-147l92 645l-389 778h172l307 -630l488 630h180z" />
    <glyph glyph-name="Thorn" unicode="&#xde;" horiz-adv-x="1120" 
d="M412 1130h286q119 0 214 -57t142 -155.5t31 -212.5q-26 -175 -171 -292.5t-326 -117.5h-295l-41 -295h-148l201 1423h148zM391 991l-78 -557h287q118 0 216.5 84t115.5 203q17 117 -56 193.5t-190 76.5h-295z" />
    <glyph glyph-name="germandbls" unicode="&#xdf;" horiz-adv-x="1126" 
d="M96 0l150 1059q28 207 132 313.5t292 106.5q104 0 183.5 -46.5t118.5 -130t25 -186.5q-12 -86 -66 -160.5t-138 -113.5q136 -45 203.5 -146.5t47.5 -246.5q-12 -86 -50.5 -158.5t-96 -125t-131 -90t-155 -56t-167.5 -19.5l13 139q82 5 153 26t131 60t99.5 102t50.5 144
q12 83 -7.5 137.5t-74 83t-110.5 41t-148 21.5l10 139q104 -2 186 67.5t97 178.5q13 89 -38 144.5t-142 55.5q-46 0 -83 -10t-63.5 -25t-47.5 -42.5t-34.5 -54t-24.5 -67.5t-17 -74.5t-13 -84.5l-137 -981h-148z" />
    <glyph glyph-name="agrave" unicode="&#xe0;" 
d="M700 1126l-206 113q-76 41 -103.5 78t-19.5 88q4 32 32.5 53t59.5 21q41 0 75.5 -28.5t77.5 -88.5l132 -168zM877 0h-136l19 121q-133 -146 -318 -146q-129 0 -217 67.5t-122 176.5t-15 240q13 94 53 178.5t99.5 149t143 102t177.5 37.5q193 0 287 -150l20 125h136z
M578 799q-125 0 -226.5 -99.5t-122.5 -257.5q-23 -153 45.5 -246.5t188.5 -93.5q123 0 222.5 103.5t121.5 253.5q20 142 -46.5 241t-182.5 99z" />
    <glyph glyph-name="aacute" unicode="&#xe1;" 
d="M465 1194l174 172q60 58 100 85.5t76 27.5q37 0 63.5 -26t20.5 -64q-6 -45 -41.5 -79.5t-122.5 -74.5l-239 -109zM877 0h-136l19 121q-133 -146 -318 -146q-129 0 -217 67.5t-122 176.5t-15 240q13 94 53 178.5t99.5 149t143 102t177.5 37.5q193 0 287 -150l20 125h136z
M578 799q-125 0 -226.5 -99.5t-122.5 -257.5q-23 -153 45.5 -246.5t188.5 -93.5q123 0 222.5 103.5t121.5 253.5q20 142 -46.5 241t-182.5 99z" />
    <glyph glyph-name="acircumflex" unicode="&#xe2;" 
d="M877 1200l-107 -63l-141 188l-199 -188l-94 63l307 279zM877 0h-136l19 121q-133 -146 -318 -146q-129 0 -217 67.5t-122 176.5t-15 240q13 94 53 178.5t99.5 149t143 102t177.5 37.5q193 0 287 -150l20 125h136zM578 799q-125 0 -226.5 -99.5t-122.5 -257.5
q-23 -153 45.5 -246.5t188.5 -93.5q123 0 222.5 103.5t121.5 253.5q20 142 -46.5 241t-182.5 99z" />
    <glyph glyph-name="atilde" unicode="&#xe3;" 
d="M874 1413l84 -82q-35 -63 -94 -105t-121 -42q-46 0 -135.5 43t-128.5 43q-26 0 -48 -15.5t-33.5 -32.5t-26.5 -44l-86 82q46 68 94.5 106.5t109.5 38.5q44 0 97 -22t98.5 -44t69.5 -22q26 0 51 16.5t38 34t31 45.5zM877 0h-136l19 121q-133 -146 -318 -146
q-129 0 -217 67.5t-122 176.5t-15 240q13 94 53 178.5t99.5 149t143 102t177.5 37.5q193 0 287 -150l20 125h136zM578 799q-125 0 -226.5 -99.5t-122.5 -257.5q-23 -153 45.5 -246.5t188.5 -93.5q123 0 222.5 103.5t121.5 253.5q20 142 -46.5 241t-182.5 99z" />
    <glyph glyph-name="adieresis" unicode="&#xe4;" 
d="M444 1401q46 0 75.5 -33.5t23.5 -79.5q-6 -41 -38.5 -69.5t-72.5 -28.5q-47 0 -76 34t-22 81q5 40 37 68t73 28zM813 1401q46 0 75 -33.5t23 -79.5q-6 -41 -38 -69.5t-72 -28.5q-47 0 -76.5 34t-22.5 81q4 40 37 68t74 28zM877 0h-136l19 121q-133 -146 -318 -146
q-129 0 -217 67.5t-122 176.5t-15 240q13 94 53 178.5t99.5 149t143 102t177.5 37.5q193 0 287 -150l20 125h136zM578 799q-125 0 -226.5 -99.5t-122.5 -257.5q-23 -153 45.5 -246.5t188.5 -93.5q123 0 222.5 103.5t121.5 253.5q20 142 -46.5 241t-182.5 99z" />
    <glyph glyph-name="aring" unicode="&#xe5;" 
d="M641 1499q87 0 140.5 -63t41.5 -150q-11 -80 -76 -138t-147 -58q-88 0 -141 63t-41 150q11 80 76 138t147 58zM645 1407q-50 0 -88.5 -35.5t-46.5 -85.5q-5 -42 20 -71t68 -29q49 0 89 34.5t48 82.5q5 43 -21.5 73.5t-68.5 30.5zM877 0h-136l19 121q-133 -146 -318 -146
q-129 0 -217 67.5t-122 176.5t-15 240q13 94 53 178.5t99.5 149t143 102t177.5 37.5q193 0 287 -150l20 125h136zM578 799q-125 0 -226.5 -99.5t-122.5 -257.5q-23 -153 45.5 -246.5t188.5 -93.5q123 0 222.5 103.5t121.5 253.5q20 142 -46.5 241t-182.5 99z" />
    <glyph glyph-name="ae" unicode="&#xe6;" horiz-adv-x="1617" 
d="M840 408l-2 -17q-7 -135 69 -213t207 -78q91 0 162 43.5t117 108.5l112 -57q-61 -93 -162.5 -156.5t-246.5 -63.5q-100 0 -192 50.5t-144 142.5q-62 -92 -163.5 -142.5t-236.5 -50.5q-123 0 -205 81t-65 198q16 117 102 193.5t240 80.5l291 9l14 96q6 47 -10 82t-46 52
t-58 24.5t-54 7.5q-160 0 -272 -107l-78 96q80 80 164 109t188 29q111 0 183.5 -43t101.5 -115q70 76 160.5 117t179.5 41q205 0 297.5 -137.5t42.5 -362.5zM866 537l568 24q14 101 -53 169.5t-181 68.5q-118 0 -209 -72t-125 -190zM705 410l-281 -9q-90 -4 -141 -46.5
t-62 -116.5q-7 -55 37 -95.5t104 -40.5q140 0 227.5 63.5t102.5 145.5z" />
    <glyph glyph-name="ccedilla" unicode="&#xe7;" horiz-adv-x="940" 
d="M745 227l86 -98q-146 -140 -325 -152l-49 -71q16 4 39 4q70 0 114.5 -53.5t32.5 -135.5q-10 -76 -71.5 -124t-137.5 -48q-77 0 -128 41.5t-54 102.5h108q13 -55 70 -55q38 0 69.5 28.5t37.5 71.5q6 36 -13.5 62t-50.5 26q-38 0 -67 -29h-127l116 185q-76 12 -140 48
t-110.5 93.5t-66.5 142.5t-6 187q17 117 72 211t130 149.5t155.5 84t158.5 28.5q184 0 303 -119l-94 -96q-23 25 -43 41t-62.5 31.5t-95.5 15.5q-143 0 -256 -106t-135 -257q-21 -141 56 -237.5t220 -96.5q47 0 88 11t77.5 35t49.5 34.5t41 37.5q6 5 8 7z" />
    <glyph glyph-name="egrave" unicode="&#xe8;" horiz-adv-x="1003" 
d="M705 1126l-207 113q-76 41 -103.5 78t-19.5 88q4 32 32.5 53t59.5 21q41 0 76 -29t78 -88l131 -168zM772 252l113 -57q-63 -98 -169 -159t-231 -61q-69 0 -133.5 19.5t-119 60.5t-92.5 97.5t-53.5 135.5t-2.5 171q12 89 47 166t83.5 131.5t107.5 93.5t121 57.5t122 18.5
q202 0 298.5 -127t64.5 -353q-2 -14 -6 -30h-709q-15 -143 60.5 -228.5t209.5 -85.5q99 0 174.5 42t114.5 108zM238 547h565q14 104 -51 178t-183 74q-116 0 -204 -68.5t-127 -183.5z" />
    <glyph glyph-name="eacute" unicode="&#xe9;" horiz-adv-x="1003" 
d="M469 1194l174 172q60 58 100 85.5t76 27.5q37 0 63.5 -26t20.5 -64q-6 -45 -41.5 -79.5t-122.5 -74.5l-239 -109zM772 252l113 -57q-63 -98 -169 -159t-231 -61q-69 0 -133.5 19.5t-119 60.5t-92.5 97.5t-53.5 135.5t-2.5 171q12 89 47 166t83.5 131.5t107.5 93.5
t121 57.5t122 18.5q202 0 298.5 -127t64.5 -353q-2 -14 -6 -30h-709q-15 -143 60.5 -228.5t209.5 -85.5q99 0 174.5 42t114.5 108zM238 547h565q14 104 -51 178t-183 74q-116 0 -204 -68.5t-127 -183.5z" />
    <glyph glyph-name="ecircumflex" unicode="&#xea;" horiz-adv-x="1003" 
d="M881 1200l-107 -63l-141 188l-199 -188l-94 63l307 279zM772 252l113 -57q-63 -98 -169 -159t-231 -61q-69 0 -133.5 19.5t-119 60.5t-92.5 97.5t-53.5 135.5t-2.5 171q12 89 47 166t83.5 131.5t107.5 93.5t121 57.5t122 18.5q202 0 298.5 -127t64.5 -353q-2 -14 -6 -30
h-709q-15 -143 60.5 -228.5t209.5 -85.5q99 0 174.5 42t114.5 108zM238 547h565q14 104 -51 178t-183 74q-116 0 -204 -68.5t-127 -183.5z" />
    <glyph glyph-name="edieresis" unicode="&#xeb;" horiz-adv-x="1003" 
d="M449 1401q46 0 75 -33.5t23 -79.5q-6 -41 -38.5 -69.5t-72.5 -28.5q-47 0 -76 34t-22 81q4 40 37 68t74 28zM817 1401q46 0 75 -33.5t23 -79.5q-6 -41 -38 -69.5t-72 -28.5q-47 0 -76 34t-22 81q5 40 37 68t73 28zM772 252l113 -57q-63 -98 -169 -159t-231 -61
q-69 0 -133.5 19.5t-119 60.5t-92.5 97.5t-53.5 135.5t-2.5 171q12 89 47 166t83.5 131.5t107.5 93.5t121 57.5t122 18.5q202 0 298.5 -127t64.5 -353q-2 -14 -6 -30h-709q-15 -143 60.5 -228.5t209.5 -85.5q99 0 174.5 42t114.5 108zM238 547h565q14 104 -51 178t-183 74
q-116 0 -204 -68.5t-127 -183.5z" />
    <glyph glyph-name="igrave" unicode="&#xec;" horiz-adv-x="452" 
d="M428 1126l-207 113q-76 41 -103.5 78t-19.5 88q4 32 32.5 53t59.5 21q41 0 76 -29t78 -88l131 -168zM236 0h-140l127 901h139z" />
    <glyph glyph-name="iacute" unicode="&#xed;" horiz-adv-x="452" 
d="M193 1194l174 172q60 58 100 85.5t76 27.5q37 0 63.5 -26t20.5 -64q-6 -45 -41.5 -79.5t-122.5 -74.5l-240 -109zM236 0h-140l127 901h139z" />
    <glyph glyph-name="icircumflex" unicode="&#xee;" horiz-adv-x="452" 
d="M604 1200l-106 -63l-142 188l-198 -188l-95 63l308 279zM236 0h-140l127 901h139z" />
    <glyph glyph-name="idieresis" unicode="&#xef;" horiz-adv-x="452" 
d="M172 1401q46 0 75 -33.5t23 -79.5q-6 -41 -38 -69.5t-72 -28.5q-47 0 -76.5 34t-22.5 81q4 40 37 68t74 28zM541 1401q46 0 75 -33.5t23 -79.5q-6 -41 -38.5 -69.5t-72.5 -28.5q-47 0 -76 34t-22 81q4 40 37 68t74 28zM236 0h-140l127 901h139z" />
    <glyph glyph-name="eth" unicode="&#xf0;" horiz-adv-x="1126" 
d="M1153 1196l-164 -27q37 -182 50 -368t-5 -359q-28 -193 -185 -330t-351 -137q-131 0 -233 65t-151 176.5t-30 242.5q17 127 94.5 234.5t194 170t243.5 62.5q190 0 283 -115q-6 167 -43 338l-266 -41l-27 121l264 41q-37 138 -82 227l150 -8q39 -87 68 -199l165 25z
M893 459q15 152 -64 246t-215 94q-148 0 -258.5 -103t-130.5 -254q-22 -144 56 -242t219 -98q148 0 259.5 103t133.5 254z" />
    <glyph glyph-name="ntilde" unicode="&#xf1;" horiz-adv-x="1069" 
d="M909 1413l84 -82q-35 -63 -94 -105t-121 -42q-46 0 -135.5 43t-128.5 43q-26 0 -48 -15.5t-33.5 -32.5t-26.5 -44l-87 82q46 67 95 106t110 39q44 0 97 -22t98 -44t69 -22q38 0 66 26.5t55 69.5zM367 901l-17 -108q48 60 125 96.5t160 36.5q63 0 111 -12.5t87.5 -42
t59.5 -77.5t27.5 -119t-7.5 -167l-71 -508h-135l73 516q21 147 -25.5 215t-144.5 68q-63 0 -125 -31t-111.5 -99.5t-62.5 -160.5l-71 -508h-136l127 901h136z" />
    <glyph glyph-name="ograve" unicode="&#xf2;" horiz-adv-x="1140" 
d="M770 1126l-207 113q-76 41 -103.5 78t-19.5 88q4 32 32.5 53t59.5 21q41 0 76 -29t78 -88l131 -168zM631 926q131 0 234.5 -65t154.5 -176.5t33 -242.5q-28 -193 -187.5 -330t-353.5 -137q-131 0 -234.5 65t-154 177t-31.5 242q17 127 96.5 234.5t197.5 170t245 62.5z
M629 799q-148 0 -262 -103.5t-134 -253.5q-22 -143 58.5 -241.5t222.5 -98.5q148 0 261.5 103.5t135.5 253.5q20 143 -60 241.5t-222 98.5z" />
    <glyph glyph-name="oacute" unicode="&#xf3;" horiz-adv-x="1140" 
d="M535 1194l174 172q60 58 100 85.5t76 27.5q37 0 63.5 -26t20.5 -64q-6 -45 -41.5 -79.5t-122.5 -74.5l-240 -109zM631 926q131 0 234.5 -65t154.5 -176.5t33 -242.5q-28 -193 -187.5 -330t-353.5 -137q-131 0 -234.5 65t-154 177t-31.5 242q17 127 96.5 234.5t197.5 170
t245 62.5zM629 799q-148 0 -262 -103.5t-134 -253.5q-22 -143 58.5 -241.5t222.5 -98.5q148 0 261.5 103.5t135.5 253.5q20 143 -60 241.5t-222 98.5z" />
    <glyph glyph-name="ocircumflex" unicode="&#xf4;" horiz-adv-x="1140" 
d="M946 1200l-106 -63l-142 188l-198 -188l-94 63l307 279zM631 926q131 0 234.5 -65t154.5 -176.5t33 -242.5q-28 -193 -187.5 -330t-353.5 -137q-131 0 -234.5 65t-154 177t-31.5 242q17 127 96.5 234.5t197.5 170t245 62.5zM629 799q-148 0 -262 -103.5t-134 -253.5
q-22 -143 58.5 -241.5t222.5 -98.5q148 0 261.5 103.5t135.5 253.5q20 143 -60 241.5t-222 98.5z" />
    <glyph glyph-name="otilde" unicode="&#xf5;" horiz-adv-x="1140" 
d="M944 1413l84 -82q-35 -63 -94 -105t-121 -42q-46 0 -135.5 43t-128.5 43q-37 0 -62 -25t-47 -67l-86 82q46 67 95 106t110 39q44 0 97 -22t98 -44t69 -22q38 0 66 26.5t55 69.5zM631 926q131 0 234.5 -65t154.5 -176.5t33 -242.5q-28 -193 -187.5 -330t-353.5 -137
q-131 0 -234.5 65t-154 177t-31.5 242q17 127 96.5 234.5t197.5 170t245 62.5zM629 799q-148 0 -262 -103.5t-134 -253.5q-22 -143 58.5 -241.5t222.5 -98.5q148 0 261.5 103.5t135.5 253.5q20 143 -60 241.5t-222 98.5z" />
    <glyph glyph-name="odieresis" unicode="&#xf6;" horiz-adv-x="1140" 
d="M514 1401q46 0 75 -33.5t23 -79.5q-6 -41 -38 -69.5t-72 -28.5q-47 0 -76.5 34t-22.5 81q4 40 37 68t74 28zM883 1401q46 0 75 -33.5t23 -79.5q-6 -41 -38.5 -69.5t-72.5 -28.5q-47 0 -76 34t-22 81q4 40 37 68t74 28zM631 926q131 0 234.5 -65t154.5 -176.5t33 -242.5
q-28 -193 -187.5 -330t-353.5 -137q-131 0 -234.5 65t-154 177t-31.5 242q17 127 96.5 234.5t197.5 170t245 62.5zM629 799q-148 0 -262 -103.5t-134 -253.5q-22 -143 58.5 -241.5t222.5 -98.5q148 0 261.5 103.5t135.5 253.5q20 143 -60 241.5t-222 98.5z" />
    <glyph glyph-name="divide" unicode="&#xf7;" horiz-adv-x="1163" 
d="M668 1090q46 0 75 -35t23 -80q-6 -43 -39 -72t-74 -29q-47 0 -76.5 34t-23.5 83q6 39 40 69t75 30zM1022 463h-872l18 139h872zM541 190q47 0 76.5 -34t21.5 -80q-6 -43 -39 -72t-74 -29q-47 0 -76.5 34t-23.5 83q6 40 40 69t75 29z" />
    <glyph glyph-name="oslash" unicode="&#xf8;" horiz-adv-x="1112" 
d="M1085 819l-104 -92q74 -126 53 -285q-28 -193 -185 -330t-351 -137q-157 0 -273 95l-106 -95l-88 103l106 94q-77 130 -53 287q17 127 94.5 234.5t194 170t243.5 62.5q157 0 273 -95l102 91zM244 264l544 479q-72 56 -174 56q-148 0 -258.5 -103t-130.5 -254
q-14 -93 19 -178zM874 635l-548 -479q74 -54 174 -54q148 0 259.5 103t133.5 254q12 97 -19 176z" />
    <glyph glyph-name="ugrave" unicode="&#xf9;" horiz-adv-x="1044" 
d="M723 1126l-207 113q-76 41 -103.5 78t-19.5 88q4 32 32.5 53t59.5 21q41 0 76 -29t78 -88l131 -168zM829 0h-135l19 109q-51 -60 -127.5 -97t-159.5 -37q-63 0 -111 12.5t-87.5 42t-60 77.5t-28 119t7.5 167l72 508h137l-71 -516q-40 -283 166 -283q63 0 125 31
t111.5 99.5t62.5 160.5l71 508h135z" />
    <glyph glyph-name="uacute" unicode="&#xfa;" horiz-adv-x="1044" 
d="M487 1194l175 172q60 58 100 85.5t76 27.5q37 0 63.5 -26t20.5 -64q-6 -45 -41.5 -79.5t-122.5 -74.5l-240 -109zM829 0h-135l19 109q-51 -60 -127.5 -97t-159.5 -37q-63 0 -111 12.5t-87.5 42t-60 77.5t-28 119t7.5 167l72 508h137l-71 -516q-40 -283 166 -283
q63 0 125 31t111.5 99.5t62.5 160.5l71 508h135z" />
    <glyph glyph-name="ucircumflex" unicode="&#xfb;" horiz-adv-x="1044" 
d="M899 1200l-106 -63l-142 188l-198 -188l-95 63l308 279zM829 0h-135l19 109q-51 -60 -127.5 -97t-159.5 -37q-63 0 -111 12.5t-87.5 42t-60 77.5t-28 119t7.5 167l72 508h137l-71 -516q-40 -283 166 -283q63 0 125 31t111.5 99.5t62.5 160.5l71 508h135z" />
    <glyph glyph-name="udieresis" unicode="&#xfc;" horiz-adv-x="1044" 
d="M467 1401q46 0 75 -33.5t23 -79.5q-6 -41 -38 -69.5t-72 -28.5q-47 0 -76.5 34t-22.5 81q4 40 37 68t74 28zM836 1401q46 0 75 -33.5t23 -79.5q-6 -41 -38.5 -69.5t-72.5 -28.5q-47 0 -76 34t-22 81q4 40 37 68t74 28zM829 0h-135l19 109q-51 -60 -127.5 -97t-159.5 -37
q-63 0 -111 12.5t-87.5 42t-60 77.5t-28 119t7.5 167l72 508h137l-71 -516q-40 -283 166 -283q63 0 125 31t111.5 99.5t62.5 160.5l71 508h135z" />
    <glyph glyph-name="yacute" unicode="&#xfd;" horiz-adv-x="913" 
d="M422 1194l174 172q60 58 100 85.5t76 27.5q37 0 63.5 -26t20.5 -64q-6 -45 -41.5 -79.5t-122.5 -74.5l-239 -109zM182 -492h-151l315 560l-258 833h143l203 -672l375 672h152z" />
    <glyph glyph-name="thorn" unicode="&#xfe;" horiz-adv-x="1112" 
d="M453 1454l-97 -674q133 146 318 146q129 0 217 -67.5t122.5 -176.5t16.5 -240q-19 -127 -81 -232t-165.5 -170t-228.5 -65q-193 0 -287 150l-90 -617h-135l274 1946h136zM653 799q-123 0 -222.5 -104t-119.5 -253q-22 -142 45 -241t183 -99q125 0 226 99t124 258
q21 153 -47.5 246.5t-188.5 93.5z" />
    <glyph glyph-name="ydieresis" unicode="&#xff;" horiz-adv-x="913" 
d="M401 1401q46 0 75.5 -33.5t23.5 -79.5q-6 -41 -38.5 -69.5t-72.5 -28.5q-47 0 -76 34t-22 81q5 40 37 68t73 28zM770 1401q46 0 75 -33.5t23 -79.5q-6 -41 -38 -69.5t-72 -28.5q-47 0 -76.5 34t-22.5 81q4 40 37 68t74 28zM182 -492h-151l315 560l-258 833h143l203 -672
l375 672h152z" />
    <glyph glyph-name="Amacron" unicode="&#x100;" horiz-adv-x="1290" 
d="M1118 1614h-614l18 127h615zM950 387h-618l-217 -387h-168l839 1464l431 -1464h-160zM911 526l-166 596l-335 -596h501z" />
    <glyph glyph-name="amacron" unicode="&#x101;" 
d="M918 1221h-615l19 127h614zM877 0h-136l19 121q-133 -146 -318 -146q-129 0 -217 67.5t-122 176.5t-15 240q13 94 53 178.5t99.5 149t143 102t177.5 37.5q193 0 287 -150l20 125h136zM578 799q-125 0 -226.5 -99.5t-122.5 -257.5q-23 -153 45.5 -246.5t188.5 -93.5
q123 0 222.5 103.5t121.5 253.5q20 142 -46.5 241t-182.5 99z" />
    <glyph glyph-name="Abreve" unicode="&#x102;" horiz-adv-x="1290" 
d="M1040 1843l111 -8q-20 -135 -122.5 -224t-221.5 -89q-78 0 -145 40.5t-103.5 115.5t-23.5 165l112 -8q-13 -93 36 -149t122 -56q78 0 150 60t85 153zM950 387h-618l-217 -387h-168l839 1464l431 -1464h-160zM911 526l-166 596l-335 -596h501z" />
    <glyph glyph-name="abreve" unicode="&#x103;" 
d="M840 1450h112q-20 -135 -123.5 -224t-222.5 -89q-77 0 -145 43t-104 116.5t-23 153.5h115q-13 -93 35.5 -149t121.5 -56q74 0 147.5 62t86.5 143zM877 0h-136l19 121q-133 -146 -318 -146q-129 0 -217 67.5t-122 176.5t-15 240q13 94 53 178.5t99.5 149t143 102
t177.5 37.5q193 0 287 -150l20 125h136zM578 799q-125 0 -226.5 -99.5t-122.5 -257.5q-23 -153 45.5 -246.5t188.5 -93.5q123 0 222.5 103.5t121.5 253.5q20 142 -46.5 241t-182.5 99z" />
    <glyph glyph-name="Aogonek" unicode="&#x104;" horiz-adv-x="1290" 
d="M1253 -254l-26 -98l-51 -10q-68 -10 -127.5 -1t-96.5 49.5t-28 100.5q15 120 182 213h-49l-107 387h-618l-217 -387h-168l839 1464l431 -1464q-31 -21 -54.5 -39t-54 -46t-49.5 -58t-23 -60q-5 -41 30 -60.5t101 -6.5zM911 526l-166 596l-335 -596h501z" />
    <glyph glyph-name="aogonek" unicode="&#x105;" 
d="M1004 901l-127 -901q-31 -21 -54.5 -39t-54 -46t-49.5 -58t-23 -60q-5 -41 30 -60.5t101 -6.5l86 16l-26 -98l-51 -10q-68 -10 -127.5 -1t-96.5 49.5t-28 100.5q15 120 182 213h-25l19 121q-133 -146 -318 -146q-129 0 -217 67.5t-122 176.5t-15 240q13 94 53 178.5
t99.5 149t143 102t177.5 37.5q193 0 287 -150l20 125h136zM463 102q123 0 222.5 103.5t121.5 253.5q20 142 -46.5 241t-182.5 99q-125 0 -226.5 -99.5t-122.5 -257.5q-23 -153 45.5 -246.5t188.5 -93.5z" />
    <glyph glyph-name="Cacute" unicode="&#x106;" horiz-adv-x="1478" 
d="M836 1589l165 162q120 113 183 113q37 0 64.5 -26t21.5 -64q-6 -44 -45.5 -79t-128.5 -75l-228 -98zM1223 336l125 -109q-278 -252 -590 -252q-145 0 -273.5 59t-216 158t-129.5 238t-20 291q20 142 96 275.5t186.5 232.5t255 159t293.5 60q174 0 301.5 -68.5
t198.5 -183.5l-131 -92q-153 196 -375 196q-121 0 -237 -47.5t-205.5 -127.5t-151 -190t-78.5 -230q-22 -157 35.5 -291t178.5 -212.5t278 -78.5q242 0 459 213z" />
    <glyph glyph-name="cacute" unicode="&#x107;" horiz-adv-x="940" 
d="M492 1194l174 172q60 58 100 85.5t76 27.5q37 0 63.5 -26t20.5 -64q-6 -45 -41.5 -79.5t-122.5 -74.5l-240 -109zM745 227l86 -98q-161 -154 -362 -154q-88 0 -165.5 31t-135.5 89t-85 151t-11 207q17 117 72 211t130 149.5t155.5 84t158.5 28.5q184 0 303 -119l-94 -96
q-23 25 -43 41t-62.5 31.5t-95.5 15.5q-143 0 -256 -106t-135 -257q-21 -141 56 -237.5t220 -96.5q47 0 88 11t77.5 35t49.5 34.5t41 37.5q6 5 8 7z" />
    <glyph glyph-name="Cdotaccent" unicode="&#x10a;" horiz-adv-x="1478" 
d="M997 1792q45 0 74 -32.5t23 -76.5q-6 -39 -38 -66.5t-71 -27.5q-46 0 -73 32.5t-21 78.5q5 38 35.5 65t70.5 27zM1223 336l125 -109q-278 -252 -590 -252q-145 0 -273.5 59t-216 158t-129.5 238t-20 291q20 142 96 275.5t186.5 232.5t255 159t293.5 60q174 0 301.5 -68.5
t198.5 -183.5l-131 -92q-153 196 -375 196q-121 0 -237 -47.5t-205.5 -127.5t-151 -190t-78.5 -230q-22 -157 35.5 -291t178.5 -212.5t278 -78.5q242 0 459 213z" />
    <glyph glyph-name="cdotaccent" unicode="&#x10b;" horiz-adv-x="940" 
d="M653 1397q45 0 74 -32.5t23 -76.5q-6 -39 -38 -66.5t-71 -27.5q-46 0 -73.5 32.5t-20.5 78.5q5 38 35.5 65t70.5 27zM745 227l86 -98q-161 -154 -362 -154q-88 0 -165.5 31t-135.5 89t-85 151t-11 207q17 117 72 211t130 149.5t155.5 84t158.5 28.5q184 0 303 -119
l-94 -96q-23 25 -43 41t-62.5 31.5t-95.5 15.5q-143 0 -256 -106t-135 -257q-21 -141 56 -237.5t220 -96.5q47 0 88 11t77.5 35t49.5 34.5t41 37.5q6 5 8 7z" />
    <glyph glyph-name="Ccaron" unicode="&#x10c;" horiz-adv-x="1478" 
d="M1276 1804l-303 -282l-230 282l101 60l141 -193l199 193zM1223 336l125 -109q-278 -252 -590 -252q-145 0 -273.5 59t-216 158t-129.5 238t-20 291q20 142 96 275.5t186.5 232.5t255 159t293.5 60q174 0 301.5 -68.5t198.5 -183.5l-131 -92q-153 196 -375 196
q-121 0 -237 -47.5t-205.5 -127.5t-151 -190t-78.5 -230q-22 -157 35.5 -291t178.5 -212.5t278 -78.5q242 0 459 213z" />
    <glyph glyph-name="ccaron" unicode="&#x10d;" horiz-adv-x="940" 
d="M936 1415l-307 -278l-234 278l107 64l141 -189l199 189zM745 227l86 -98q-161 -154 -362 -154q-88 0 -165.5 31t-135.5 89t-85 151t-11 207q17 117 72 211t130 149.5t155.5 84t158.5 28.5q184 0 303 -119l-94 -96q-23 25 -43 41t-62.5 31.5t-95.5 15.5q-143 0 -256 -106
t-135 -257q-21 -141 56 -237.5t220 -96.5q47 0 88 11t77.5 35t49.5 34.5t41 37.5q6 5 8 7z" />
    <glyph glyph-name="Dcaron" unicode="&#x10e;" horiz-adv-x="1415" 
d="M1130 1804l-303 -282l-229 282l100 60l142 -193l198 193zM305 1423h440q139 0 261.5 -56t207.5 -151t125.5 -229.5t20.5 -281.5q-20 -140 -92.5 -269t-179 -225t-247 -153.5t-288.5 -57.5h-449zM432 1284l-160 -1145h293q146 0 286 78.5t236.5 213.5t118.5 290
q20 146 -33.5 275t-170.5 208.5t-269 79.5h-301z" />
    <glyph glyph-name="dcaron" unicode="&#x10f;" horiz-adv-x="1198" 
d="M866 0h-135l19 121q-133 -146 -318 -146q-129 0 -217 67.5t-122 176.5t-15 240q13 94 53 178.5t99.5 149t143 102t177.5 37.5q193 0 287 -150l98 678h135zM1085 1030l82 330q10 39 41 63.5t64 24.5q40 0 67 -28.5t21 -71.5q-7 -34 -27 -64l-205 -254h-43zM567 799
q-125 0 -226 -99t-122 -258q-23 -153 45.5 -246.5t188.5 -93.5q123 0 222.5 103.5t121.5 253.5q20 142 -47 241t-183 99z" />
    <glyph glyph-name="Dcroat" unicode="&#x110;" horiz-adv-x="1415" 
d="M309 1423h436q139 0 261.5 -56t207.5 -151t125.5 -229.5t20.5 -281.5q-20 -140 -92.5 -269t-179 -225t-247 -153.5t-288.5 -57.5h-444l92 651h-146l19 140h145zM276 139h289q146 0 286 78.5t236.5 213.5t118.5 290q20 146 -33.5 275t-170.5 208.5t-269 79.5h-297
l-69 -493h368l-18 -140h-369z" />
    <glyph glyph-name="dcroat" unicode="&#x111;" horiz-adv-x="1146" 
d="M1227 1143h-199l-162 -1143h-135l19 121q-133 -146 -318 -146q-129 0 -217 67.5t-122 176.5t-15 240q13 94 53 178.5t99.5 149t143 102t177.5 37.5q193 0 287 -150l53 367h-279l19 127h278l27 184h135l-27 -184h201zM797 459q20 142 -47 241t-183 99q-125 0 -226 -99
t-122 -258q-23 -153 45.5 -246.5t188.5 -93.5q123 0 222.5 103.5t121.5 253.5z" />
    <glyph glyph-name="Emacron" unicode="&#x112;" horiz-adv-x="1193" 
d="M1077 1614h-614l18 127h615zM1165 1284h-733l-65 -469h598l-19 -139h-598l-76 -537h740l-21 -139h-887l201 1423h881z" />
    <glyph glyph-name="emacron" unicode="&#x113;" horiz-adv-x="1003" 
d="M922 1221h-615l19 127h614zM772 252l113 -57q-63 -98 -169 -159t-231 -61q-69 0 -133.5 19.5t-119 60.5t-92.5 97.5t-53.5 135.5t-2.5 171q12 89 47 166t83.5 131.5t107.5 93.5t121 57.5t122 18.5q202 0 298.5 -127t64.5 -353q-2 -14 -6 -30h-709q-15 -143 60.5 -228.5
t209.5 -85.5q99 0 174.5 42t114.5 108zM238 547h565q14 104 -51 178t-183 74q-116 0 -204 -68.5t-127 -183.5z" />
    <glyph glyph-name="Edotaccent" unicode="&#x116;" horiz-adv-x="1193" 
d="M786 1792q45 0 74 -32.5t23 -76.5q-6 -39 -38 -66.5t-71 -27.5q-46 0 -73 32.5t-21 78.5q5 38 35.5 65t70.5 27zM1165 1284h-733l-65 -469h598l-19 -139h-598l-76 -537h740l-21 -139h-887l201 1423h881z" />
    <glyph glyph-name="edotaccent" unicode="&#x117;" horiz-adv-x="1003" 
d="M631 1397q44 0 73 -32.5t23 -76.5q-6 -39 -38 -66.5t-71 -27.5q-46 0 -73.5 32.5t-20.5 78.5q4 38 35.5 65t71.5 27zM772 252l113 -57q-63 -98 -169 -159t-231 -61q-69 0 -133.5 19.5t-119 60.5t-92.5 97.5t-53.5 135.5t-2.5 171q12 89 47 166t83.5 131.5t107.5 93.5
t121 57.5t122 18.5q202 0 298.5 -127t64.5 -353q-2 -14 -6 -30h-709q-15 -143 60.5 -228.5t209.5 -85.5q99 0 174.5 42t114.5 108zM238 547h565q14 104 -51 178t-183 74q-116 0 -204 -68.5t-127 -183.5z" />
    <glyph glyph-name="Eogonek" unicode="&#x118;" horiz-adv-x="1193" 
d="M432 1284l-65 -469h598l-19 -139h-598l-76 -537h740l-21 -139q-167 -114 -180 -203q-5 -41 30 -60.5t101 -6.5l86 16l-27 -98l-51 -10q-68 -10 -127.5 -1t-96.5 49.5t-28 100.5q15 119 183 213h-777l201 1423h881l-21 -139h-733z" />
    <glyph glyph-name="eogonek" unicode="&#x119;" horiz-adv-x="1003" 
d="M805 -260l-51 -10q-68 -10 -127.5 -1t-96.5 49.5t-28 100.5q5 50 43 101q-45 -5 -60 -5q-69 0 -133.5 19.5t-119 60.5t-92.5 97.5t-53.5 135.5t-2.5 171q12 89 47 166t83.5 131.5t107.5 93.5t121 57.5t122 18.5q202 0 298.5 -127t64.5 -353q-2 -14 -6 -30h-709
q-15 -143 60.5 -228.5t209.5 -85.5q99 0 174.5 42t114.5 108l113 -57q-61 -96 -160 -154q-101 -81 -111 -152q-5 -41 30 -60.5t101 -6.5l86 16zM238 547h565q14 104 -51 178t-183 74q-116 0 -204 -68.5t-127 -183.5z" />
    <glyph glyph-name="Ecaron" unicode="&#x11a;" horiz-adv-x="1193" 
d="M1065 1804l-303 -282l-230 282l101 60l141 -193l199 193zM1165 1284h-733l-65 -469h598l-19 -139h-598l-76 -537h740l-21 -139h-887l201 1423h881z" />
    <glyph glyph-name="ecaron" unicode="&#x11b;" horiz-adv-x="1003" 
d="M913 1415l-307 -278l-233 278l106 64l142 -189l198 189zM772 252l113 -57q-63 -98 -169 -159t-231 -61q-69 0 -133.5 19.5t-119 60.5t-92.5 97.5t-53.5 135.5t-2.5 171q12 89 47 166t83.5 131.5t107.5 93.5t121 57.5t122 18.5q202 0 298.5 -127t64.5 -353q-2 -14 -6 -30
h-709q-15 -143 60.5 -228.5t209.5 -85.5q99 0 174.5 42t114.5 108zM238 547h565q14 104 -51 178t-183 74q-116 0 -204 -68.5t-127 -183.5z" />
    <glyph glyph-name="Gbreve" unicode="&#x11e;" horiz-adv-x="1490" 
d="M1208 1843l111 -8q-20 -135 -122.5 -224t-221.5 -89q-58 0 -112 24.5t-93 66t-58.5 102.5t-9.5 128l113 -8q-13 -93 36 -149t122 -56q78 0 150 60t85 153zM1421 782l-10 -69l-65 -480q-45 -49 -101 -92t-129.5 -82t-166.5 -61.5t-193 -22.5q-145 0 -273.5 59t-216 158
t-129.5 238t-20 291q20 142 96 275.5t186.5 232.5t255 159t293.5 60q86 0 162.5 -17t131.5 -45t93 -55.5t66 -58.5l-144 -107q-49 57 -137 96t-178 39q-121 0 -237 -47.5t-205.5 -127.5t-151 -190t-78.5 -230q-22 -157 35.5 -291t178.5 -212.5t278 -78.5q135 0 250.5 51
t193.5 137l47 332h-411l20 139h559z" />
    <glyph glyph-name="gbreve" unicode="&#x11f;" 
d="M846 1450h112q-20 -135 -123.5 -224t-222.5 -89q-77 0 -145 43t-104 116.5t-23 153.5h115q-13 -93 35.5 -149t121.5 -56q74 0 147.5 62t86.5 143zM735 -41l25 162q-133 -146 -318 -146q-129 0 -217 67.5t-122 176.5t-15 240q13 94 53 178.5t99.5 149t143 102t177.5 37.5
q193 0 287 -150l20 125h136l-134 -942q-66 -475 -495 -475q-103 0 -208 62t-165 143l90 104q129 -182 307 -182q129 0 219.5 81.5t116.5 266.5zM578 799q-125 0 -226.5 -99.5t-122.5 -257.5q-23 -153 45.5 -246.5t188.5 -93.5q123 0 222.5 103.5t121.5 253.5
q20 142 -46.5 241t-182.5 99z" />
    <glyph glyph-name="Gdotaccent" unicode="&#x120;" horiz-adv-x="1490" 
d="M983 1589q-46 0 -73 32.5t-21 78.5q5 38 35.5 65t70.5 27q45 0 74 -32.5t23 -76.5q-6 -39 -38 -66.5t-71 -27.5zM1421 782l-10 -69l-65 -480q-45 -49 -101 -92t-129.5 -82t-166.5 -61.5t-193 -22.5q-145 0 -273.5 59t-216 158t-129.5 238t-20 291q20 142 96 275.5
t186.5 232.5t255 159t293.5 60q86 0 162.5 -17t131.5 -45t93 -55.5t66 -58.5l-144 -107q-49 57 -137 96t-178 39q-121 0 -237 -47.5t-205.5 -127.5t-151 -190t-78.5 -230q-22 -157 35.5 -291t178.5 -212.5t278 -78.5q135 0 250.5 51t193.5 137l47 332h-411l20 139h559z" />
    <glyph glyph-name="gdotaccent" unicode="&#x121;" 
d="M633 1397q44 0 73 -32.5t23 -76.5q-6 -39 -37.5 -66.5t-70.5 -27.5q-46 0 -74 32.5t-21 78.5q4 38 35.5 65t71.5 27zM735 -41l25 162q-133 -146 -318 -146q-129 0 -217 67.5t-122 176.5t-15 240q13 94 53 178.5t99.5 149t143 102t177.5 37.5q193 0 287 -150l20 125h136
l-134 -942q-66 -475 -495 -475q-103 0 -208 62t-165 143l90 104q129 -182 307 -182q129 0 219.5 81.5t116.5 266.5zM578 799q-125 0 -226.5 -99.5t-122.5 -257.5q-23 -153 45.5 -246.5t188.5 -93.5q123 0 222.5 103.5t121.5 253.5q20 142 -46.5 241t-182.5 99z" />
    <glyph glyph-name="Gcommaaccent" unicode="&#x122;" horiz-adv-x="1490" 
d="M1421 782l-10 -69l-65 -480q-45 -49 -101 -92t-129.5 -82t-166.5 -61.5t-193 -22.5q-145 0 -273.5 59t-216 158t-129.5 238t-20 291q20 142 96 275.5t186.5 232.5t255 159t293.5 60q86 0 162.5 -17t131.5 -45t93 -55.5t66 -58.5l-144 -107q-49 57 -137 96t-178 39
q-121 0 -237 -47.5t-205.5 -127.5t-151 -190t-78.5 -230q-22 -157 35.5 -291t178.5 -212.5t278 -78.5q135 0 250.5 51t193.5 137l47 332h-411l20 139h559zM563 -588l51 363q6 43 40 70.5t71 27.5q44 0 74 -31.5t24 -79.5q-5 -24 -28 -69l-185 -281h-47z" />
    <glyph glyph-name="gcommaaccent" unicode="&#x123;" 
d="M770 1489l-51 -363q-6 -43 -41 -70.5t-72 -27.5q-45 0 -74 31.5t-22 79.5q0 17 27 69l186 281h47zM735 -41l25 162q-133 -146 -318 -146q-129 0 -217 67.5t-122 176.5t-15 240q13 94 53 178.5t99.5 149t143 102t177.5 37.5q193 0 287 -150l20 125h136l-134 -942
q-66 -475 -495 -475q-103 0 -208 62t-165 143l90 104q129 -182 307 -182q129 0 219.5 81.5t116.5 266.5zM578 799q-125 0 -226.5 -99.5t-122.5 -257.5q-23 -153 45.5 -246.5t188.5 -93.5q123 0 222.5 103.5t121.5 253.5q20 142 -46.5 241t-182.5 99z" />
    <glyph glyph-name="Hbar" unicode="&#x126;" horiz-adv-x="1497" 
d="M1573 1049h-164l-147 -1049h-148l90 643h-854l-90 -643h-147l147 1049h-164l19 127h164l34 247h148l-35 -247h854l35 247h147l-35 -247h164zM1262 1049h-854l-37 -267h854z" />
    <glyph glyph-name="hbar" unicode="&#x127;" horiz-adv-x="1058" 
d="M414 1163l-54 -370q48 60 125 96.5t160 36.5q63 0 111 -12.5t87.5 -42t60 -77.5t28 -119t-7.5 -167l-72 -508h-135l71 516q40 283 -167 283q-63 0 -125 -31t-111.5 -99.5t-62.5 -160.5l-72 -508h-135l164 1163h-156l18 127h156l22 164h136l-23 -164h324l-19 -127h-323z
" />
    <glyph glyph-name="Imacron" unicode="&#x12a;" horiz-adv-x="489" 
d="M719 1614h-615l19 127h614zM260 0h-151l200 1423h152z" />
    <glyph glyph-name="imacron" unicode="&#x12b;" horiz-adv-x="452" 
d="M645 1221h-614l18 127h615zM236 0h-140l127 901h139z" />
    <glyph glyph-name="Iogonek" unicode="&#x12e;" horiz-adv-x="489" 
d="M461 1423l-201 -1423q-167 -114 -180 -203q-5 -41 30 -60.5t101 -6.5l86 16l-27 -98l-51 -10q-68 -10 -127.5 -1t-96.5 49.5t-28 100.5q15 119 183 213h-41l200 1423h152z" />
    <glyph glyph-name="iogonek" unicode="&#x12f;" horiz-adv-x="452" 
d="M354 1397q45 0 74 -32.5t23 -76.5q-6 -39 -38 -66.5t-71 -27.5q-46 0 -73.5 32.5t-20.5 78.5q5 38 35.5 65t70.5 27zM362 901l-126 -901q-31 -21 -54.5 -39t-54 -46t-49.5 -58t-23 -60q-5 -41 30 -60.5t101 -6.5l86 16l-26 -98l-51 -10q-68 -10 -127.5 -1t-96.5 49.5
t-28 100.5q15 120 182 213h-29l127 901h139z" />
    <glyph glyph-name="Idotaccent" unicode="&#x130;" horiz-adv-x="489" 
d="M428 1792q44 0 73 -32.5t23 -76.5q-6 -39 -37.5 -66.5t-70.5 -27.5q-46 0 -73 32.5t-21 78.5q5 38 35.5 65t70.5 27zM260 0h-151l200 1423h152z" />
    <glyph glyph-name="dotlessi" unicode="&#x131;" horiz-adv-x="452" 
d="M236 0h-140l127 901h139z" />
    <glyph glyph-name="IJ" unicode="&#x132;" horiz-adv-x="1069" 
d="M260 0h-151l200 1423h152zM1038 1423l-178 -1269q-39 -278 -206.5 -438t-407.5 -160l10 139q186 0 304 123t149 344l178 1261h151z" />
    <glyph glyph-name="ij" unicode="&#x133;" horiz-adv-x="923" 
d="M354 1401q46 0 75.5 -33.5t23.5 -79.5q-6 -41 -38.5 -69.5t-72.5 -28.5q-47 0 -76 34t-22 81q5 40 37 68t73 28zM825 1401q46 0 75.5 -33.5t23.5 -79.5q-6 -41 -38.5 -69.5t-72.5 -28.5q-47 0 -76 34t-22 81q5 40 37 68t73 28zM236 0h-140l127 901h139zM834 901
l-127 -905q-38 -262 -236 -438l-94 108q76 66 126.5 154t63.5 184l127 897h140z" />
    <glyph glyph-name="Kcommaaccent" unicode="&#x136;" horiz-adv-x="1302" 
d="M696 801l492 -801h-178l-424 696l-273 -258l-61 -438h-148l201 1423h148l-111 -778l821 778h191zM377 -588l51 363q6 43 40 70.5t71 27.5q44 0 74 -31.5t24 -79.5q-4 -21 -29 -69l-184 -281h-47z" />
    <glyph glyph-name="kcommaaccent" unicode="&#x137;" horiz-adv-x="974" 
d="M504 514l377 -514h-185l-381 514l-71 -514h-148l205 1454h148l-134 -940l441 387h194zM242 -588l51 363q6 43 39.5 70.5t70.5 27.5q45 0 75 -31.5t24 -79.5q-4 -21 -29 -69l-184 -281h-47z" />
    <glyph glyph-name="Lacute" unicode="&#x139;" horiz-adv-x="1077" 
d="M596 1589l166 162q120 113 182 113q37 0 64.5 -26t21.5 -64q-6 -44 -45.5 -79t-128.5 -75l-227 -98zM272 139h713l-20 -139h-861l201 1423h148z" />
    <glyph glyph-name="lacute" unicode="&#x13a;" horiz-adv-x="460" 
d="M252 1589l166 162q120 113 182 113q37 0 64.5 -26t21.5 -64q-6 -44 -45.5 -79t-128.5 -75l-227 -98zM240 0h-140l205 1454h139z" />
    <glyph glyph-name="Lcommaaccent" unicode="&#x13b;" horiz-adv-x="1077" 
d="M272 139h713l-20 -139h-861l201 1423h148zM326 -588l51 363q6 43 39.5 70.5t70.5 27.5q45 0 75 -31.5t24 -79.5q-4 -21 -29 -69l-184 -281h-47z" />
    <glyph glyph-name="lcommaaccent" unicode="&#x13c;" horiz-adv-x="460" 
d="M240 0h-140l205 1454h139zM-18 -588l51 363q6 43 39.5 70.5t70.5 27.5q45 0 75 -31.5t24 -79.5q-4 -21 -29 -69l-184 -281h-47z" />
    <glyph glyph-name="Lcaron" unicode="&#x13d;" horiz-adv-x="1077" 
d="M618 1030l82 330q10 39 41 63.5t64 24.5q40 0 67 -28.5t21 -71.5q-7 -34 -27 -64l-204 -254h-44zM272 139h713l-20 -139h-861l201 1423h148z" />
    <glyph glyph-name="lcaron" unicode="&#x13e;" horiz-adv-x="561" 
d="M229 0h-139l205 1454h139zM469 1030l82 330q10 39 40.5 63.5t63.5 24.5q40 0 67 -28.5t21 -71.5q-7 -36 -26 -64l-205 -254h-43z" />
    <glyph glyph-name="Ldot" unicode="&#x13f;" horiz-adv-x="1077" 
d="M272 139h713l-20 -139h-861l201 1423h148zM727 926q46 0 75 -33.5t23 -77.5q-6 -40 -38.5 -69t-71.5 -29q-47 0 -76 34t-23 80q5 38 37.5 66.5t73.5 28.5z" />
    <glyph glyph-name="ldot" unicode="&#x140;" horiz-adv-x="542" 
d="M229 0h-139l205 1454h139zM537 831q46 0 75 -33t23 -77q-6 -40 -38.5 -69t-72.5 -29q-47 0 -75.5 34t-22.5 80q5 38 37.5 66t73.5 28z" />
    <glyph glyph-name="Lslash" unicode="&#x141;" horiz-adv-x="1114" 
d="M1022 139l-21 -139h-858l93 653l-148 -35l21 148l147 35l88 622h148l-82 -585l270 65l-21 -147l-270 -66l-78 -551h711z" />
    <glyph glyph-name="lslash" unicode="&#x142;" horiz-adv-x="628" 
d="M625 764l-273 -68l-98 -696h-139l92 659l-156 -38l21 149l157 39l90 645h140l-86 -608l272 67z" />
    <glyph glyph-name="Nacute" unicode="&#x143;" horiz-adv-x="1511" 
d="M776 1589l166 162q120 113 182 113q37 0 64.5 -26t21.5 -64q-6 -44 -45.5 -79t-128.5 -75l-227 -98zM1171 336l156 1087h148l-205 -1464l-852 1128l-156 -1087h-147l204 1464z" />
    <glyph glyph-name="nacute" unicode="&#x144;" horiz-adv-x="1069" 
d="M500 1194l174 172q60 58 100 85.5t76 27.5q37 0 63.5 -26t20.5 -64q-6 -45 -41.5 -79.5t-122.5 -74.5l-240 -109zM367 901l-17 -108q48 60 125 96.5t160 36.5q63 0 111 -12.5t87.5 -42t59.5 -77.5t27.5 -119t-7.5 -167l-71 -508h-135l73 516q21 147 -25.5 215t-144.5 68
q-63 0 -125 -31t-111.5 -99.5t-62.5 -160.5l-71 -508h-136l127 901h136z" />
    <glyph glyph-name="Ncommaaccent" unicode="&#x145;" horiz-adv-x="1511" 
d="M1171 336l156 1087h148l-205 -1464l-852 1128l-156 -1087h-147l204 1464zM506 -588l51 363q6 43 40 70.5t71 27.5q44 0 74 -31.5t24 -79.5q-4 -21 -29 -69l-184 -281h-47z" />
    <glyph glyph-name="ncommaaccent" unicode="&#x146;" horiz-adv-x="1069" 
d="M367 901l-17 -108q48 60 125 96.5t160 36.5q63 0 111 -12.5t87.5 -42t59.5 -77.5t27.5 -119t-7.5 -167l-71 -508h-135l73 516q21 147 -25.5 215t-144.5 68q-63 0 -125 -31t-111.5 -99.5t-62.5 -160.5l-71 -508h-136l127 901h136zM285 -588l51 363q6 43 39.5 70.5
t70.5 27.5q45 0 75 -31.5t24 -79.5q-4 -21 -29 -69l-184 -281h-47z" />
    <glyph glyph-name="Ncaron" unicode="&#x147;" horiz-adv-x="1511" 
d="M1217 1804l-304 -282l-229 282l100 60l142 -193l198 193zM1171 336l156 1087h148l-205 -1464l-852 1128l-156 -1087h-147l204 1464z" />
    <glyph glyph-name="ncaron" unicode="&#x148;" horiz-adv-x="1069" 
d="M944 1415l-307 -278l-234 278l107 64l141 -189l199 189zM367 901l-17 -108q48 60 125 96.5t160 36.5q63 0 111 -12.5t87.5 -42t59.5 -77.5t27.5 -119t-7.5 -167l-71 -508h-135l73 516q21 147 -25.5 215t-144.5 68q-63 0 -125 -31t-111.5 -99.5t-62.5 -160.5l-71 -508
h-136l127 901h136z" />
    <glyph glyph-name="Eng" unicode="&#x14a;" horiz-adv-x="1511" 
d="M1475 1423l-179 -1269q-39 -278 -206.5 -438t-407.5 -160l10 139q179 0 296.5 114.5t152.5 319.5l-723 958l-156 -1087h-147l204 1464l852 -1128l156 1087h148z" />
    <glyph glyph-name="eng" unicode="&#x14b;" horiz-adv-x="1069" 
d="M367 901l-17 -108q48 60 125 96.5t160 36.5q63 0 111 -12.5t87.5 -42t59.5 -77.5t27.5 -119t-7.5 -167l-71 -508q-20 -134 -82 -247t-154 -195l-94 108q78 68 130 154t65 180l73 516q21 147 -25.5 215t-144.5 68q-63 0 -125 -31t-111.5 -99.5t-62.5 -160.5l-71 -508h-136
l127 901h136z" />
    <glyph glyph-name="Omacron" unicode="&#x14c;" horiz-adv-x="1648" 
d="M1298 1614h-614l18 127h615zM961 1448q145 0 273 -58.5t215 -157t129 -237t21 -290.5q-27 -193 -147 -359t-302 -266t-382 -105q-145 0 -273.5 59t-216 158t-129.5 238t-20 291q26 190 146.5 357.5t304 268.5t381.5 101zM954 1300q-161 0 -308 -80.5t-244 -217
t-119 -297.5q-22 -157 35 -291t178 -212.5t278 -78.5q120 0 235.5 47.5t205.5 128t152 191t79 231.5q16 117 -14.5 224t-96 185t-165 124t-216.5 46z" />
    <glyph glyph-name="omacron" unicode="&#x14d;" horiz-adv-x="1140" 
d="M987 1221h-614l18 127h615zM631 926q131 0 234.5 -65t154.5 -176.5t33 -242.5q-28 -193 -187.5 -330t-353.5 -137q-131 0 -234.5 65t-154 177t-31.5 242q17 127 96.5 234.5t197.5 170t245 62.5zM629 799q-148 0 -262 -103.5t-134 -253.5q-22 -143 58.5 -241.5
t222.5 -98.5q148 0 261.5 103.5t135.5 253.5q20 143 -60 241.5t-222 98.5z" />
    <glyph glyph-name="Ohungarumlaut" unicode="&#x150;" horiz-adv-x="1648" 
d="M668 1589l166 162q120 113 182 113q37 0 64.5 -26t21.5 -64q-6 -44 -45.5 -79t-128.5 -75l-228 -98zM1063 1589l166 162q120 113 182 113q37 0 64.5 -26t21.5 -64q-6 -44 -45.5 -79t-128.5 -75l-227 -98zM961 1448q145 0 273 -58.5t215 -157t129 -237t21 -290.5
q-27 -193 -147 -359t-302 -266t-382 -105q-145 0 -273.5 59t-216 158t-129.5 238t-20 291q26 190 146.5 357.5t304 268.5t381.5 101zM954 1300q-161 0 -308 -80.5t-244 -217t-119 -297.5q-22 -157 35 -291t178 -212.5t278 -78.5q120 0 235.5 47.5t205.5 128t152 191
t79 231.5q16 117 -14.5 224t-96 185t-165 124t-216.5 46z" />
    <glyph glyph-name="ohungarumlaut" unicode="&#x151;" horiz-adv-x="1140" 
d="M358 1204l166 162q120 113 183 113q37 0 63.5 -26t20.5 -64q-6 -44 -45 -79t-128 -75l-229 -98zM754 1204l166 162q120 113 182 113q37 0 63.5 -26t20.5 -64q-6 -45 -44.5 -80t-127.5 -74l-230 -98zM631 926q131 0 234.5 -65t154.5 -176.5t33 -242.5
q-28 -193 -187.5 -330t-353.5 -137q-131 0 -234.5 65t-154 177t-31.5 242q17 127 96.5 234.5t197.5 170t245 62.5zM629 799q-148 0 -262 -103.5t-134 -253.5q-22 -143 58.5 -241.5t222.5 -98.5q148 0 261.5 103.5t135.5 253.5q20 143 -60 241.5t-222 98.5z" />
    <glyph glyph-name="OE" unicode="&#x152;" horiz-adv-x="2441" 
d="M1679 1284l-65 -469h598l-19 -139h-598l-75 -537h739l-21 -139h-886l39 270q-121 -133 -283.5 -212t-339.5 -83q-145 0 -273.5 59t-216 158t-129.5 238t-20 291q26 190 146.5 357.5t304 268.5t381.5 101q175 0 320.5 -81.5t231.5 -221.5l39 278h881l-20 -139h-734z
M774 123q120 0 235.5 47.5t205.5 128t152 191t79 231.5q16 117 -14.5 224t-96 185t-165 124t-216.5 46q-161 0 -308 -80.5t-244 -217t-119 -297.5q-22 -157 35 -291t178 -212.5t278 -78.5z" />
    <glyph glyph-name="oe" unicode="&#x153;" horiz-adv-x="1839" 
d="M1546 252l113 -57q-63 -98 -168.5 -159t-230.5 -61q-119 0 -221 59.5t-150 166.5q-80 -103 -196.5 -164.5t-241.5 -61.5q-131 0 -234.5 65t-154 177t-31.5 242q17 127 96 234.5t197 170t245 62.5q126 0 226.5 -60.5t152.5 -163.5q71 107 177.5 165.5t213.5 58.5
q202 0 298.5 -127t64.5 -353q-2 -14 -6 -30h-709q-15 -143 60.5 -228.5t209.5 -85.5q99 0 174.5 42t114.5 108zM453 102q148 0 261.5 103.5t135.5 253.5q20 143 -60.5 241.5t-222.5 98.5q-148 0 -261.5 -103.5t-133.5 -253.5q-22 -143 58.5 -241.5t222.5 -98.5zM1012 547
h565q14 104 -51 178t-183 74q-116 0 -204 -68.5t-127 -183.5z" />
    <glyph glyph-name="Racute" unicode="&#x154;" horiz-adv-x="1271" 
d="M651 1589l166 162q120 113 182 113q37 0 64.5 -26t21.5 -64q-6 -44 -45.5 -79t-128.5 -75l-227 -98zM305 1423h496q196 0 301 -108t80 -283q-19 -130 -109 -225.5t-221 -128.5l244 -678h-164l-236 655h-352l-92 -655h-148zM432 1284l-67 -489h348q137 0 222.5 68
t102.5 186q17 117 -50 176t-200 59h-356z" />
    <glyph glyph-name="racute" unicode="&#x155;" horiz-adv-x="733" 
d="M315 1194l174 172q60 58 100.5 85.5t76.5 27.5q37 0 63.5 -26t20.5 -64q-6 -45 -41.5 -79.5t-122.5 -74.5l-240 -109zM358 901l-16 -108q48 60 125 96.5t160 36.5q36 0 78.5 -13.5t66.5 -31.5l-94 -109q-34 27 -86 27q-91 0 -180.5 -78t-108.5 -213l-72 -508h-135
l127 901h135z" />
    <glyph glyph-name="Rcommaaccent" unicode="&#x156;" horiz-adv-x="1271" 
d="M305 1423h496q196 0 301 -108t80 -283q-19 -130 -109 -225.5t-221 -128.5l244 -678h-164l-236 655h-352l-92 -655h-148zM432 1284l-67 -489h348q137 0 222.5 68t102.5 186q17 117 -50 176t-200 59h-356zM360 -588l52 363q6 43 39.5 70.5t70.5 27.5q45 0 75 -31.5
t24 -79.5q-4 -21 -29 -69l-184 -281h-48z" />
    <glyph glyph-name="rcommaaccent" unicode="&#x157;" horiz-adv-x="733" 
d="M358 901l-16 -108q48 60 125 96.5t160 36.5q36 0 78.5 -13.5t66.5 -31.5l-94 -109q-34 27 -86 27q-91 0 -180.5 -78t-108.5 -213l-72 -508h-135l127 901h135zM-25 -588l52 363q6 43 39.5 70.5t70.5 27.5q45 0 75 -31.5t24 -79.5q-4 -21 -29 -69l-184 -281h-48z" />
    <glyph glyph-name="Rcaron" unicode="&#x158;" horiz-adv-x="1271" 
d="M1092 1804l-304 -282l-229 282l100 60l142 -193l198 193zM305 1423h496q196 0 301 -108t80 -283q-19 -130 -109 -225.5t-221 -128.5l244 -678h-164l-236 655h-352l-92 -655h-148zM432 1284l-67 -489h348q137 0 222.5 68t102.5 186q17 117 -50 176t-200 59h-356z" />
    <glyph glyph-name="rcaron" unicode="&#x159;" horiz-adv-x="733" 
d="M760 1415l-307 -278l-234 278l107 64l141 -189l199 189zM358 901l-16 -108q48 60 125 96.5t160 36.5q36 0 78.5 -13.5t66.5 -31.5l-94 -109q-34 27 -86 27q-91 0 -180.5 -78t-108.5 -213l-72 -508h-135l127 901h135z" />
    <glyph glyph-name="Sacute" unicode="&#x15a;" horiz-adv-x="1169" 
d="M608 1589l166 162q120 113 182 113q37 0 64.5 -26t21.5 -64q-6 -44 -45.5 -79t-128.5 -75l-227 -98zM727 637l-205 80q-143 56 -209 143.5t-45 226.5q23 163 153 262t302 99q117 0 198 -32t181 -109l-94 -131q-154 124 -291 124q-71 0 -128.5 -23t-91 -59t-52 -73.5
t-23.5 -73.5q-21 -135 153 -205l220 -90q280 -117 237 -416q-17 -118 -89 -207t-172.5 -133.5t-211.5 -44.5q-126 0 -262.5 46.5t-245.5 128.5l94 131q86 -70 194.5 -114t225.5 -44q115 0 207.5 75.5t106.5 178.5q11 85 -27.5 154.5t-124.5 105.5z" />
    <glyph glyph-name="sacute" unicode="&#x15b;" horiz-adv-x="821" 
d="M387 1194l174 172q60 58 100 85.5t76 27.5q37 0 63.5 -26t20.5 -64q-6 -45 -41.5 -79.5t-122.5 -74.5l-239 -109zM16 84l76 109q52 -31 80.5 -46t82.5 -30t112 -15q84 0 139.5 43.5t64.5 108.5q9 87 -110 135l-164 70q-166 78 -145 235q8 57 39 103t73.5 73.5t87 41.5
t86.5 14q92 0 157.5 -21t143.5 -65l-77 -107q-106 66 -203 66q-70 0 -117.5 -38.5t-52.5 -82.5q-6 -40 12.5 -64.5t63.5 -44.5l159 -67q97 -41 146.5 -109t36.5 -155q-17 -121 -115 -192t-227 -71q-99 0 -180 27.5t-169 81.5z" />
    <glyph glyph-name="Scedilla" unicode="&#x15e;" horiz-adv-x="1169" 
d="M575 866l220 -90q280 -117 237 -416q-24 -165 -148.5 -268.5t-287.5 -114.5l-49 -71q16 4 39 4q70 0 114.5 -53.5t32.5 -135.5q-10 -76 -71.5 -124t-137.5 -48q-77 0 -128 41.5t-54 102.5h109q13 -55 69 -55q38 0 69.5 28.5t37.5 71.5q6 36 -13.5 62t-50.5 26
q-38 0 -67 -29h-127l116 183q-113 12 -227.5 56.5t-206.5 113.5l94 131q86 -70 194.5 -114t225.5 -44q115 0 207.5 75.5t106.5 178.5q11 85 -27.5 154.5t-124.5 105.5l-205 80q-143 56 -209 143.5t-45 226.5q23 163 153 262t302 99q117 0 198 -32t181 -109l-94 -131
q-154 124 -291 124q-71 0 -128.5 -23t-91 -59t-52 -73.5t-23.5 -73.5q-21 -135 153 -205z" />
    <glyph glyph-name="scedilla" unicode="&#x15f;" horiz-adv-x="821" 
d="M365 569l159 -67q97 -41 146.5 -109t36.5 -155q-10 -75 -55 -133.5t-110 -90t-141 -37.5l-49 -71q16 4 39 4q70 0 115 -53.5t33 -135.5q-10 -76 -71.5 -124t-137.5 -48q-77 0 -128.5 41.5t-54.5 102.5h109q13 -55 70 -55q38 0 69 28.5t37 71.5q6 36 -13 62t-50 26
q-39 0 -68 -29h-127l117 183q-123 14 -275 104l76 109q52 -31 80.5 -46t82.5 -30t112 -15q84 0 139.5 43.5t64.5 108.5q9 87 -110 135l-164 70q-166 78 -145 235q8 57 39 103t73.5 73.5t87 41.5t86.5 14q92 0 157.5 -21t143.5 -65l-77 -107q-106 66 -203 66
q-70 0 -117.5 -38.5t-52.5 -82.5q-6 -40 12.5 -64.5t63.5 -44.5z" />
    <glyph glyph-name="Scaron" unicode="&#x160;" horiz-adv-x="1169" 
d="M1049 1804l-304 -282l-229 282l100 60l142 -193l198 193zM727 637l-205 80q-143 56 -209 143.5t-45 226.5q23 163 153 262t302 99q117 0 198 -32t181 -109l-94 -131q-154 124 -291 124q-71 0 -128.5 -23t-91 -59t-52 -73.5t-23.5 -73.5q-21 -135 153 -205l220 -90
q280 -117 237 -416q-17 -118 -89 -207t-172.5 -133.5t-211.5 -44.5q-126 0 -262.5 46.5t-245.5 128.5l94 131q86 -70 194.5 -114t225.5 -44q115 0 207.5 75.5t106.5 178.5q11 85 -27.5 154.5t-124.5 105.5z" />
    <glyph glyph-name="scaron" unicode="&#x161;" horiz-adv-x="821" 
d="M831 1415l-307 -278l-233 278l106 64l142 -189l198 189zM16 84l76 109q52 -31 80.5 -46t82.5 -30t112 -15q84 0 139.5 43.5t64.5 108.5q9 87 -110 135l-164 70q-166 78 -145 235q8 57 39 103t73.5 73.5t87 41.5t86.5 14q92 0 157.5 -21t143.5 -65l-77 -107
q-106 66 -203 66q-70 0 -117.5 -38.5t-52.5 -82.5q-6 -40 12.5 -64.5t63.5 -44.5l159 -67q97 -41 146.5 -109t36.5 -155q-17 -121 -115 -192t-227 -71q-99 0 -180 27.5t-169 81.5z" />
    <glyph glyph-name="Tcedilla" unicode="&#x162;" horiz-adv-x="1028" 
d="M1137 1423l-21 -139h-409l-181 -1284h-16l-66 -94q16 4 39 4q70 0 115 -53.5t33 -135.5q-10 -76 -71.5 -124t-137.5 -48q-77 0 -128 41.5t-54 102.5h108q13 -55 70 -55q38 0 69 28.5t37 71.5q6 36 -13 62t-50 26q-39 0 -68 -29h-127l129 203h-16l180 1284h-409l20 139
h967z" />
    <glyph glyph-name="tcedilla" unicode="&#x163;" horiz-adv-x="669" 
d="M406 776l-80 -575q-7 -54 5 -76.5t44 -22.5q42 0 96 50l41 -111q-77 -64 -158 -66l-49 -69q16 4 39 4q70 0 115 -53.5t33 -135.5q-10 -76 -71.5 -124t-137.5 -48q-77 0 -128.5 41.5t-54.5 102.5h109q13 -55 70 -55q38 0 69 28.5t37 71.5q6 36 -13 62t-50 26
q-39 0 -68 -29h-127l127 201q-84 51 -64 203l80 575h-213l107 125h125l22 174l162 193l-49 -367h219l-18 -125h-219z" />
    <glyph glyph-name="Tcaron" unicode="&#x164;" horiz-adv-x="1028" 
d="M975 1804l-303 -282l-230 282l101 60l141 -193l199 193zM1116 1284h-409l-181 -1284h-147l180 1284h-409l20 139h967z" />
    <glyph glyph-name="tcaron" unicode="&#x165;" horiz-adv-x="669" 
d="M575 1030l82 330q10 39 41 63.5t64 24.5q40 0 67 -28.5t21 -71.5q-7 -34 -27 -64l-205 -254h-43zM455 901h219l-19 -125h-219l-80 -575q-7 -54 5.5 -76.5t44.5 -22.5q42 0 96 50l41 -111q-79 -66 -166 -66q-84 0 -128 56t-28 170l80 575h-213l107 125h124l23 174l162 193
z" />
    <glyph glyph-name="Tbar" unicode="&#x166;" horiz-adv-x="1028" 
d="M707 1284l-70 -489h235l-18 -127h-233l-95 -668h-147l94 668h-233l18 127h231l70 489h-409l20 139h967l-21 -139h-409z" />
    <glyph glyph-name="tbar" unicode="&#x167;" horiz-adv-x="649" 
d="M436 776l-24 -184h217l-19 -125h-217l-37 -266q-7 -54 5.5 -76.5t44.5 -22.5q42 0 96 50l41 -111q-79 -66 -166 -66q-84 0 -128 56t-28 170l37 266h-213l18 125h213l25 184h-213l107 125h124l23 174l162 193l-49 -367h219l-19 -125h-219z" />
    <glyph glyph-name="Umacron" unicode="&#x16a;" horiz-adv-x="1423" 
d="M1186 1614h-615l19 127h614zM1403 1423l-127 -901q-21 -149 -112 -275t-226.5 -199t-282.5 -73q-155 0 -273 76t-172.5 203.5t-33.5 275.5l125 893h148l-127 -901q-23 -168 75.5 -283.5t264.5 -115.5q172 0 308 121t160 286l125 893h148z" />
    <glyph glyph-name="umacron" unicode="&#x16b;" horiz-adv-x="1044" 
d="M940 1221h-614l18 127h614zM829 0h-135l19 109q-51 -60 -127.5 -97t-159.5 -37q-63 0 -111 12.5t-87.5 42t-60 77.5t-28 119t7.5 167l72 508h137l-71 -516q-40 -283 166 -283q63 0 125 31t111.5 99.5t62.5 160.5l71 508h135z" />
    <glyph glyph-name="Uring" unicode="&#x16e;" horiz-adv-x="1423" 
d="M901 1833q87 0 140.5 -63t41.5 -150q-11 -80 -76 -138.5t-147 -58.5q-88 0 -141.5 63t-42.5 150q12 81 77.5 139t147.5 58zM905 1741q-50 0 -88.5 -35.5t-46.5 -85.5q-5 -42 19 -71t67 -29q50 0 90.5 34.5t46.5 81.5q6 43 -19.5 74t-68.5 31zM1403 1423l-127 -901
q-21 -149 -112 -275t-226.5 -199t-282.5 -73q-155 0 -273 76t-172.5 203.5t-33.5 275.5l125 893h148l-127 -901q-23 -168 75.5 -283.5t264.5 -115.5q172 0 308 121t160 286l125 893h148z" />
    <glyph glyph-name="uring" unicode="&#x16f;" horiz-adv-x="1044" 
d="M664 1499q87 0 140.5 -63t41.5 -150q-11 -80 -76 -138t-147 -58q-89 0 -142 63t-41 150q11 80 76 138t148 58zM668 1407q-50 0 -89 -35.5t-47 -85.5q-5 -42 20 -71t69 -29q49 0 89 34.5t48 82.5q5 43 -21.5 73.5t-68.5 30.5zM829 0h-135l19 109q-51 -60 -127.5 -97
t-159.5 -37q-63 0 -111 12.5t-87.5 42t-60 77.5t-28 119t7.5 167l72 508h137l-71 -516q-40 -283 166 -283q63 0 125 31t111.5 99.5t62.5 160.5l71 508h135z" />
    <glyph glyph-name="Uhungarumlaut" unicode="&#x170;" horiz-adv-x="1423" 
d="M555 1589l166 162q120 113 182 113q37 0 64.5 -26t21.5 -64q-6 -44 -45.5 -79t-128.5 -75l-227 -98zM950 1589l166 162q120 113 182 113q37 0 64.5 -26t21.5 -64q-6 -44 -45.5 -79t-128.5 -75l-227 -98zM1403 1423l-127 -901q-21 -149 -112 -275t-226.5 -199t-282.5 -73
q-155 0 -273 76t-172.5 203.5t-33.5 275.5l125 893h148l-127 -901q-23 -168 75.5 -283.5t264.5 -115.5q172 0 308 121t160 286l125 893h148z" />
    <glyph glyph-name="uhungarumlaut" unicode="&#x171;" horiz-adv-x="1044" 
d="M311 1204l166 162q120 113 182 113q37 0 63.5 -26t20.5 -64q-6 -45 -44.5 -80t-127.5 -74l-229 -98zM707 1204l165 162q120 113 183 113q37 0 63.5 -26t20.5 -64q-6 -45 -44.5 -80t-127.5 -74l-230 -98zM829 0h-135l19 109q-51 -60 -127.5 -97t-159.5 -37
q-63 0 -111 12.5t-87.5 42t-60 77.5t-28 119t7.5 167l72 508h137l-71 -516q-40 -283 166 -283q63 0 125 31t111.5 99.5t62.5 160.5l71 508h135z" />
    <glyph glyph-name="Uogonek" unicode="&#x172;" horiz-adv-x="1423" 
d="M1403 1423l-127 -901q-20 -140 -101.5 -259.5t-203.5 -194.5q-134 -94 -146 -179q-5 -41 30 -60.5t101 -6.5l86 16l-26 -98l-51 -10q-68 -10 -127.5 -1t-96.5 49.5t-28 100.5q9 62 49 107q-64 -11 -107 -11q-155 0 -273 76t-172.5 203.5t-33.5 275.5l125 893h148
l-127 -901q-23 -168 75.5 -283.5t264.5 -115.5q172 0 308 121t160 286l125 893h148z" />
    <glyph glyph-name="uogonek" unicode="&#x173;" horiz-adv-x="1044" 
d="M956 901l-127 -901q-167 -114 -180 -203q-5 -41 30 -60.5t101 -6.5l86 16l-26 -98l-52 -10q-68 -10 -127 -1t-96 49t-28 101q15 120 182 213h-25l19 109q-51 -60 -127.5 -97t-159.5 -37q-63 0 -111 12.5t-87.5 42t-60 77.5t-28 119t7.5 167l72 508h137l-71 -516
q-40 -283 166 -283q63 0 125 31t111.5 99.5t62.5 160.5l71 508h135z" />
    <glyph glyph-name="Wcircumflex" unicode="&#x174;" horiz-adv-x="1966" 
d="M969 1522l-92 59l303 283l229 -283l-100 -59l-142 192zM1235 -41l-213 727l-418 -727l-432 1464h160l311 -1136l326 579l-164 557h156l104 -383l215 383h164l-326 -569l156 -567l635 1136h168z" />
    <glyph glyph-name="wcircumflex" unicode="&#x175;" horiz-adv-x="1318" 
d="M590 1137l-94 63l307 279l233 -279l-106 -63l-142 188zM799 -41l-137 455l-269 -455l-313 942h143l203 -649l190 309l-104 340h139l180 -649l392 649h151z" />
    <glyph glyph-name="Ycircumflex" unicode="&#x176;" horiz-adv-x="1198" 
d="M1026 1581l-100 -59l-142 192l-198 -192l-92 59l303 283zM705 645l-93 -645h-147l92 645l-389 778h172l307 -630l488 630h180z" />
    <glyph glyph-name="ycircumflex" unicode="&#x177;" horiz-adv-x="913" 
d="M834 1200l-107 -63l-141 188l-199 -188l-94 63l307 279zM182 -492h-151l315 560l-258 833h143l203 -672l375 672h152z" />
    <glyph glyph-name="Ydieresis" unicode="&#x178;" horiz-adv-x="1198" 
d="M602 1798q46 0 74 -33t22 -79q-6 -41 -38 -70t-72 -29q-47 0 -76 34t-23 81q6 40 39 68t74 28zM971 1798q46 0 74 -33t22 -79q-6 -41 -38.5 -70t-72.5 -29q-47 0 -75.5 34t-22.5 81q6 40 39 68t74 28zM705 645l-93 -645h-147l92 645l-389 778h172l307 -630l488 630h180z
" />
    <glyph glyph-name="Zacute" unicode="&#x179;" horiz-adv-x="1222" 
d="M645 1589l166 162q120 113 182 113q37 0 64.5 -26t21.5 -64q-6 -44 -45.5 -79t-128.5 -75l-227 -98zM279 139h841l-20 -139h-1102l1024 1284h-815l20 139h1076z" />
    <glyph glyph-name="zacute" unicode="&#x17a;" horiz-adv-x="813" 
d="M383 1194l174 172q60 58 100 85.5t76 27.5q37 0 63.5 -26t20.5 -64q-6 -45 -41.5 -79.5t-122.5 -74.5l-239 -109zM250 125h461l-19 -125h-694l569 776h-438l18 125h674z" />
    <glyph glyph-name="Zdotaccent" unicode="&#x17b;" horiz-adv-x="1222" 
d="M807 1792q44 0 73 -32.5t23 -76.5q-6 -39 -37.5 -66.5t-70.5 -27.5q-46 0 -73.5 32.5t-21.5 78.5q4 38 35.5 65t71.5 27zM279 139h841l-20 -139h-1102l1024 1284h-815l20 139h1076z" />
    <glyph glyph-name="zdotaccent" unicode="&#x17c;" horiz-adv-x="813" 
d="M545 1397q44 0 73 -32.5t23 -76.5q-6 -39 -38 -66.5t-71 -27.5q-46 0 -73.5 32.5t-20.5 78.5q4 38 35.5 65t71.5 27zM250 125h461l-19 -125h-694l569 776h-438l18 125h674z" />
    <glyph glyph-name="Zcaron" unicode="&#x17d;" horiz-adv-x="1222" 
d="M1085 1804l-303 -282l-229 282l100 60l142 -193l198 193zM279 139h841l-20 -139h-1102l1024 1284h-815l20 139h1076z" />
    <glyph glyph-name="zcaron" unicode="&#x17e;" horiz-adv-x="813" 
d="M827 1415l-307 -278l-233 278l106 64l142 -189l198 189zM250 125h461l-19 -125h-694l569 776h-438l18 125h674z" />
    <glyph glyph-name="florin" unicode="&#x192;" horiz-adv-x="737" 
d="M864 1479l-22 -133q-146 0 -245 -93.5t-151 -308.5l-10 -43h291l-18 -125h-303l-228 -930h-135l227 930h-200l106 125h125l21 88q60 237 191 363.5t351 126.5z" />
    <glyph glyph-name="Acaron" unicode="&#x1cd;" horiz-adv-x="1290" 
d="M803 1522l-230 282l101 60l141 -193l199 193l92 -60zM950 387h-618l-217 -387h-168l839 1464l431 -1464h-160zM911 526l-166 596l-335 -596h501z" />
    <glyph glyph-name="acaron" unicode="&#x1ce;" 
d="M909 1415l-307 -278l-233 278l106 64l141 -189l199 189zM877 0h-136l19 121q-133 -146 -318 -146q-129 0 -217 67.5t-122 176.5t-15 240q13 94 53 178.5t99.5 149t143 102t177.5 37.5q193 0 287 -150l20 125h136zM578 799q-125 0 -226.5 -99.5t-122.5 -257.5
q-23 -153 45.5 -246.5t188.5 -93.5q123 0 222.5 103.5t121.5 253.5q20 142 -46.5 241t-182.5 99z" />
    <glyph glyph-name="Icaron" unicode="&#x1cf;" horiz-adv-x="489" 
d="M707 1804l-304 -282l-229 282l100 60l142 -193l198 193zM260 0h-151l200 1423h152z" />
    <glyph glyph-name="icaron" unicode="&#x1d0;" horiz-adv-x="452" 
d="M637 1415l-307 -278l-234 278l107 64l141 -189l199 189zM236 0h-140l127 901h139z" />
    <glyph glyph-name="Ocaron" unicode="&#x1d1;" horiz-adv-x="1648" 
d="M1286 1804l-303 -282l-229 282l100 60l141 -193l199 193zM961 1448q145 0 273 -58.5t215 -157t129 -237t21 -290.5q-27 -193 -147 -359t-302 -266t-382 -105q-145 0 -273.5 59t-216 158t-129.5 238t-20 291q26 190 146.5 357.5t304 268.5t381.5 101zM954 1300
q-161 0 -308 -80.5t-244 -217t-119 -297.5q-22 -157 35 -291t178 -212.5t278 -78.5q120 0 235.5 47.5t205.5 128t152 191t79 231.5q16 117 -14.5 224t-96 185t-165 124t-216.5 46z" />
    <glyph glyph-name="ocaron" unicode="&#x1d2;" horiz-adv-x="1140" 
d="M979 1415l-307 -278l-234 278l107 64l141 -189l199 189zM631 926q131 0 234.5 -65t154.5 -176.5t33 -242.5q-28 -193 -187.5 -330t-353.5 -137q-131 0 -234.5 65t-154 177t-31.5 242q17 127 96.5 234.5t197.5 170t245 62.5zM629 799q-148 0 -262 -103.5t-134 -253.5
q-22 -143 58.5 -241.5t222.5 -98.5q148 0 261.5 103.5t135.5 253.5q20 143 -60 241.5t-222 98.5z" />
    <glyph glyph-name="Ucaron" unicode="&#x1d3;" horiz-adv-x="1423" 
d="M1174 1804l-304 -282l-229 282l100 60l142 -193l198 193zM1403 1423l-127 -901q-21 -149 -112 -275t-226.5 -199t-282.5 -73q-155 0 -273 76t-172.5 203.5t-33.5 275.5l125 893h148l-127 -901q-23 -168 75.5 -283.5t264.5 -115.5q172 0 308 121t160 286l125 893h148z" />
    <glyph glyph-name="ucaron" unicode="&#x1d4;" horiz-adv-x="1044" 
d="M932 1415l-307 -278l-234 278l107 64l141 -189l199 189zM829 0h-135l19 109q-51 -60 -127.5 -97t-159.5 -37q-63 0 -111 12.5t-87.5 42t-60 77.5t-28 119t7.5 167l72 508h137l-71 -516q-40 -283 166 -283q63 0 125 31t111.5 99.5t62.5 160.5l71 508h135z" />
    <glyph glyph-name="Udieresismacron" unicode="&#x1d5;" horiz-adv-x="1423" 
d="M1186 1614h-615l19 127h614zM666 1448q46 0 74 -33.5t22 -79.5q-6 -41 -38.5 -69.5t-72.5 -28.5q-47 0 -75.5 34t-22.5 81q6 40 39 68t74 28zM1034 1448q46 0 74 -33.5t22 -79.5q-6 -41 -38 -69.5t-72 -28.5q-47 0 -75.5 34t-22.5 81q6 40 38.5 68t73.5 28zM1403 1423
l-127 -901q-21 -149 -112 -275t-226.5 -199t-282.5 -73q-155 0 -273 76t-172.5 203.5t-33.5 275.5l125 893h148l-127 -901q-23 -168 75.5 -283.5t264.5 -115.5q172 0 308 121t160 286l125 893h148z" />
    <glyph glyph-name="udieresismacron" unicode="&#x1d6;" horiz-adv-x="1044" 
d="M954 1528h-614l18 127h615zM424 1298q46 0 75 -33t23 -79q-6 -41 -38 -70t-72 -29q-47 0 -76.5 34t-22.5 81q4 40 37 68t74 28zM793 1298q46 0 75 -33t23 -79q-6 -41 -38.5 -70t-72.5 -29q-47 0 -76 34t-22 81q4 40 37 68t74 28zM829 0h-135l19 109q-51 -60 -127.5 -97
t-159.5 -37q-63 0 -111 12.5t-87.5 42t-60 77.5t-28 119t7.5 167l72 508h137l-71 -516q-40 -283 166 -283q63 0 125 31t111.5 99.5t62.5 160.5l71 508h135z" />
    <glyph glyph-name="Udieresisacute" unicode="&#x1d7;" horiz-adv-x="1423" 
d="M795 1589l166 162q120 113 182 113q37 0 64.5 -26t21.5 -64q-6 -44 -45.5 -79t-128.5 -75l-228 -98zM666 1448q46 0 74 -33.5t22 -79.5q-6 -41 -38.5 -69.5t-72.5 -28.5q-47 0 -75.5 34t-22.5 81q6 40 39 68t74 28zM1034 1448q46 0 74 -33.5t22 -79.5q-6 -41 -38 -69.5
t-72 -28.5q-47 0 -75.5 34t-22.5 81q6 40 38.5 68t73.5 28zM1403 1423l-127 -901q-21 -149 -112 -275t-226.5 -199t-282.5 -73q-155 0 -273 76t-172.5 203.5t-33.5 275.5l125 893h148l-127 -901q-23 -168 75.5 -283.5t264.5 -115.5q172 0 308 121t160 286l125 893h148z" />
    <glyph glyph-name="udieresisacute" unicode="&#x1d8;" horiz-adv-x="1044" 
d="M545 1501l174 172q60 58 100 85.5t76 27.5q37 0 63.5 -26t20.5 -64q-6 -45 -41.5 -79.5t-122.5 -74.5l-240 -108zM424 1298q46 0 75 -33t23 -79q-6 -41 -38 -70t-72 -29q-47 0 -76.5 34t-22.5 81q4 40 37 68t74 28zM793 1298q46 0 75 -33t23 -79q-6 -41 -38.5 -70
t-72.5 -29q-47 0 -76 34t-22 81q4 40 37 68t74 28zM829 0h-135l19 109q-51 -60 -127.5 -97t-159.5 -37q-63 0 -111 12.5t-87.5 42t-60 77.5t-28 119t7.5 167l72 508h137l-71 -516q-40 -283 166 -283q63 0 125 31t111.5 99.5t62.5 160.5l71 508h135z" />
    <glyph glyph-name="Udieresiscaron" unicode="&#x1d9;" horiz-adv-x="1423" 
d="M1174 1804l-304 -282l-229 282l100 60l142 -193l198 193zM666 1448q46 0 74 -33.5t22 -79.5q-6 -41 -38.5 -69.5t-72.5 -28.5q-47 0 -75.5 34t-22.5 81q6 40 39 68t74 28zM1034 1448q46 0 74 -33.5t22 -79.5q-6 -41 -38 -69.5t-72 -28.5q-47 0 -75.5 34t-22.5 81
q6 40 38.5 68t73.5 28zM1403 1423l-127 -901q-21 -149 -112 -275t-226.5 -199t-282.5 -73q-155 0 -273 76t-172.5 203.5t-33.5 275.5l125 893h148l-127 -901q-23 -168 75.5 -283.5t264.5 -115.5q172 0 308 121t160 286l125 893h148z" />
    <glyph glyph-name="udieresiscaron" unicode="&#x1da;" horiz-adv-x="1044" 
d="M946 1722l-307 -278l-233 278l106 64l141 -189l199 189zM424 1298q46 0 75 -33t23 -79q-6 -41 -38 -70t-72 -29q-47 0 -76.5 34t-22.5 81q4 40 37 68t74 28zM793 1298q46 0 75 -33t23 -79q-6 -41 -38.5 -70t-72.5 -29q-47 0 -76 34t-22 81q4 40 37 68t74 28zM829 0h-135
l19 109q-51 -60 -127.5 -97t-159.5 -37q-63 0 -111 12.5t-87.5 42t-60 77.5t-28 119t7.5 167l72 508h137l-71 -516q-40 -283 166 -283q63 0 125 31t111.5 99.5t62.5 160.5l71 508h135z" />
    <glyph glyph-name="Udieresisgrave" unicode="&#x1db;" horiz-adv-x="1423" 
d="M952 1522l-196 102q-80 41 -112.5 78.5t-25.5 87.5q4 32 33 53t60 21q75 0 159 -117l127 -158zM666 1448q46 0 74 -33.5t22 -79.5q-6 -41 -38.5 -69.5t-72.5 -28.5q-47 0 -75.5 34t-22.5 81q6 40 39 68t74 28zM1034 1448q46 0 74 -33.5t22 -79.5q-6 -41 -38 -69.5
t-72 -28.5q-47 0 -75.5 34t-22.5 81q6 40 38.5 68t73.5 28zM1403 1423l-127 -901q-21 -149 -112 -275t-226.5 -199t-282.5 -73q-155 0 -273 76t-172.5 203.5t-33.5 275.5l125 893h148l-127 -901q-23 -168 75.5 -283.5t264.5 -115.5q172 0 308 121t160 286l125 893h148z" />
    <glyph glyph-name="udieresisgrave" unicode="&#x1dc;" horiz-adv-x="1044" 
d="M698 1434l-206 112q-76 41 -103.5 78t-19.5 88q4 32 32.5 53t59.5 21q41 0 75.5 -28.5t77.5 -88.5l131 -168zM424 1298q46 0 75 -33t23 -79q-6 -41 -38 -70t-72 -29q-47 0 -76.5 34t-22.5 81q4 40 37 68t74 28zM793 1298q46 0 75 -33t23 -79q-6 -41 -38.5 -70t-72.5 -29
q-47 0 -76 34t-22 81q4 40 37 68t74 28zM829 0h-135l19 109q-51 -60 -127.5 -97t-159.5 -37q-63 0 -111 12.5t-87.5 42t-60 77.5t-28 119t7.5 167l72 508h137l-71 -516q-40 -283 166 -283q63 0 125 31t111.5 99.5t62.5 160.5l71 508h135z" />
    <glyph glyph-name="Scommaaccent" unicode="&#x218;" horiz-adv-x="1169" 
d="M727 637l-205 80q-143 56 -209 143.5t-45 226.5q23 163 153 262t302 99q117 0 198 -32t181 -109l-94 -131q-154 124 -291 124q-71 0 -128.5 -23t-91 -59t-52 -73.5t-23.5 -73.5q-21 -135 153 -205l220 -90q280 -117 237 -416q-17 -118 -89 -207t-172.5 -133.5
t-211.5 -44.5q-126 0 -262.5 46.5t-245.5 128.5l94 131q86 -70 194.5 -114t225.5 -44q115 0 207.5 75.5t106.5 178.5q11 85 -27.5 154.5t-124.5 105.5zM367 -588l51 363q6 43 39.5 70.5t70.5 27.5q45 0 75 -31.5t24 -79.5q-4 -21 -29 -69l-184 -281h-47z" />
    <glyph glyph-name="scommaaccent" unicode="&#x219;" horiz-adv-x="821" 
d="M16 84l76 109q52 -31 80.5 -46t82.5 -30t112 -15q84 0 139.5 43.5t64.5 108.5q9 87 -110 135l-164 70q-166 78 -145 235q8 57 39 103t73.5 73.5t87 41.5t86.5 14q92 0 157.5 -21t143.5 -65l-77 -107q-106 66 -203 66q-70 0 -117.5 -38.5t-52.5 -82.5q-6 -40 12.5 -64.5
t63.5 -44.5l159 -67q97 -41 146.5 -109t36.5 -155q-17 -121 -115 -192t-227 -71q-99 0 -180 27.5t-169 81.5zM172 -588l51 363q6 43 40 70.5t71 27.5q44 0 74 -31.5t24 -79.5q-4 -21 -29 -69l-184 -281h-47z" />
    <glyph glyph-name="uni021A" unicode="&#x21a;" horiz-adv-x="1028" 
d="M1116 1284h-409l-181 -1284h-147l180 1284h-409l20 139h967zM264 -588l51 363q6 43 40 70.5t71 27.5q44 0 74 -31.5t24 -79.5q-5 -24 -28 -69l-185 -281h-47z" />
    <glyph glyph-name="uni021B" unicode="&#x21b;" horiz-adv-x="669" 
d="M424 901h219l-18 -125h-219l-80 -575q-7 -54 5 -76.5t44 -22.5q42 0 96 50l41 -111q-79 -66 -166 -66q-84 0 -128 56t-28 170l80 575h-213l107 125h125l22 174l162 193zM125 -588l51 363q6 43 40 70.5t71 27.5q44 0 74 -31.5t24 -79.5q-4 -21 -29 -69l-184 -281h-47z" />
    <glyph glyph-name="dotlessj" unicode="&#x237;" horiz-adv-x="471" 
d="M381 901l-127 -905q-38 -262 -236 -438l-94 108q76 67 127 155t64 183l127 897h139z" />
    <glyph glyph-name="circumflex" unicode="&#x2c6;" horiz-adv-x="880" 
d="M817 1200l-106 -63l-142 188l-198 -188l-95 63l308 279z" />
    <glyph glyph-name="caron" unicode="&#x2c7;" horiz-adv-x="880" 
d="M850 1415l-307 -278l-234 278l107 64l141 -189l199 189z" />
    <glyph glyph-name="breve" unicode="&#x2d8;" horiz-adv-x="960" 
d="M821 1450h113q-20 -135 -123.5 -224t-222.5 -89q-77 0 -145 43t-104.5 116.5t-23.5 153.5h115q-13 -93 36 -149t122 -56q74 0 147 62t86 143z" />
    <glyph glyph-name="dotaccent" unicode="&#x2d9;" horiz-adv-x="737" 
d="M496 1397q44 0 73 -32.5t23 -76.5q-6 -39 -38 -66.5t-71 -27.5q-46 0 -73.5 32.5t-20.5 78.5q4 38 35.5 65t71.5 27z" />
    <glyph glyph-name="ring" unicode="&#x2da;" horiz-adv-x="747" 
d="M516 1499q87 0 140.5 -63t41.5 -150q-11 -80 -76 -138t-147 -58q-88 0 -141 63t-41 150q11 80 76 138t147 58zM520 1407q-50 0 -88.5 -35.5t-46.5 -85.5q-5 -42 20 -71t68 -29q49 0 89 34.5t48 82.5q5 43 -21.5 73.5t-68.5 30.5z" />
    <glyph glyph-name="ogonek" unicode="&#x2db;" horiz-adv-x="673" 
d="M262 0h111q-167 -114 -180 -203q-5 -41 30 -60.5t101 -6.5l86 16l-27 -98l-51 -10q-68 -10 -127.5 -1t-96.5 49.5t-28 100.5q15 120 182 213z" />
    <glyph glyph-name="tilde" unicode="&#x2dc;" horiz-adv-x="999" 
d="M874 1413l84 -82q-35 -63 -94 -105t-121 -42q-46 0 -135.5 43t-128.5 43q-26 0 -48 -15.5t-33.5 -32.5t-26.5 -44l-86 82q46 68 94.5 106.5t109.5 38.5q44 0 97 -22t98.5 -44t69.5 -22q26 0 51 16.5t38 34t31 45.5z" />
    <glyph glyph-name="hungarumlaut" unicode="&#x2dd;" horiz-adv-x="1181" 
d="M299 1204l166 162q120 113 182 113q37 0 63.5 -26t20.5 -64q-6 -45 -44.5 -80t-127.5 -74l-229 -98zM694 1204l166 162q120 113 182 113q37 0 63.5 -26t20.5 -64q-6 -45 -44.5 -80t-127.5 -74l-229 -98z" />
    <glyph glyph-name="commaaccentcomb" unicode="&#x326;" horiz-adv-x="0" 
d="M563 -588l51 363q6 43 40 70.5t71 27.5q44 0 74 -31.5t24 -79.5q-5 -24 -28 -69l-185 -281h-47z" />
    <glyph glyph-name="Delta" unicode="&#x394;" horiz-adv-x="1288" 
d="M1214 0h-1267l839 1464zM195 139h821l-273 973z" />
    <glyph glyph-name="Omega" unicode="&#x3a9;" horiz-adv-x="1566" 
d="M88 139h225q-106 90 -159 241.5t-25 340.5q20 143 89.5 275.5t173 232.5t242 159.5t286.5 59.5q193 0 340.5 -99t216.5 -269.5t41 -374.5q-25 -181 -116.5 -329.5t-219.5 -236.5h215l-21 -139h-491l20 139q58 13 114 40.5t112.5 76t102 112.5t80.5 155t50 198
q21 158 -26.5 290t-158.5 210.5t-266 78.5q-120 0 -230 -47.5t-191.5 -128t-136.5 -189.5t-72 -230q-17 -107 -5.5 -193t38 -150t70 -110t91.5 -73t103 -40l-21 -139h-491z" />
    <glyph glyph-name="mu" unicode="&#x3bc;" horiz-adv-x="1048" 
d="M961 901l-72 -516q-16 -118 -50 -199.5t-85 -126.5t-110 -64.5t-136 -19.5q-87 0 -155.5 40t-102.5 102l-88 -609h-135l196 1393h135l-71 -516q-20 -136 42.5 -209.5t157.5 -73.5q103 0 173.5 71.5t91.5 219.5l73 508h136z" />
    <glyph glyph-name="pi" unicode="&#x3c0;" horiz-adv-x="1306" 
d="M1264 776h-226l-108 -776h-148l109 776h-447l-108 -776h-148l109 776h-225l18 125h1192z" />
    <glyph glyph-name="Wgrave" unicode="&#x1e80;" horiz-adv-x="1966" 
d="M1241 1522l-197 102q-80 41 -112 78.5t-25 87.5q4 32 32.5 53t59.5 21q76 0 160 -117l127 -158zM1235 -41l-213 727l-418 -727l-432 1464h160l311 -1136l326 579l-164 557h156l104 -383l215 383h164l-326 -569l156 -567l635 1136h168z" />
    <glyph glyph-name="wgrave" unicode="&#x1e81;" horiz-adv-x="1318" 
d="M860 1126l-207 113q-76 41 -103.5 78t-19.5 88q4 32 33 53t60 21q41 0 75.5 -28.5t77.5 -88.5l131 -168zM799 -41l-137 455l-269 -455l-313 942h143l203 -649l190 309l-104 340h139l180 -649l392 649h151z" />
    <glyph glyph-name="Wacute" unicode="&#x1e82;" horiz-adv-x="1966" 
d="M1036 1522l-32 67l165 162q120 113 183 113q37 0 64.5 -26t21.5 -64q-6 -44 -45.5 -79t-128.5 -75zM1235 -41l-213 727l-418 -727l-432 1464h160l311 -1136l326 579l-164 557h156l104 -383l215 383h164l-326 -569l156 -567l635 1136h168z" />
    <glyph glyph-name="wacute" unicode="&#x1e83;" horiz-adv-x="1318" 
d="M655 1126l-30 68l174 172q60 58 100 85.5t76 27.5q37 0 63.5 -26t20.5 -64q-6 -45 -41.5 -79.5t-122.5 -74.5zM799 -41l-137 455l-269 -455l-313 942h143l203 -649l190 309l-104 340h139l180 -649l392 649h151z" />
    <glyph glyph-name="Wdieresis" unicode="&#x1e84;" horiz-adv-x="1966" 
d="M971 1587q-47 0 -76 34t-23 81q6 40 39 68t74 28q46 0 74 -33t22 -79q-6 -41 -38 -70t-72 -29zM1339 1587q-47 0 -75.5 34t-22.5 81q6 40 39 68t74 28q46 0 74 -33t22 -79q-6 -41 -38.5 -70t-72.5 -29zM1235 -41l-213 727l-418 -727l-432 1464h160l311 -1136l326 579
l-164 557h156l104 -383l215 383h164l-326 -569l156 -567l635 1136h168z" />
    <glyph glyph-name="wdieresis" unicode="&#x1e85;" horiz-adv-x="1318" 
d="M592 1190q-47 0 -76 34t-22 81q5 40 37 68t73 28q46 0 75 -33.5t23 -79.5q-6 -41 -38 -69.5t-72 -28.5zM961 1190q-47 0 -76.5 34t-22.5 81q4 40 37 68t74 28q46 0 75 -33.5t23 -79.5q-6 -41 -38 -69.5t-72 -28.5zM799 -41l-137 455l-269 -455l-313 942h143l203 -649
l190 309l-104 340h139l180 -649l392 649h151z" />
    <glyph glyph-name="Ygrave" unicode="&#x1ef2;" horiz-adv-x="1198" 
d="M858 1522l-196 102q-80 41 -112.5 78.5t-25.5 87.5q4 32 32.5 53t59.5 21q76 0 160 -117l127 -158zM705 645l-93 -645h-147l92 645l-389 778h172l307 -630l488 630h180z" />
    <glyph glyph-name="ygrave" unicode="&#x1ef3;" horiz-adv-x="913" 
d="M657 1126l-206 113q-76 41 -103.5 78t-19.5 88q4 32 32.5 53t59.5 21q41 0 75.5 -28.5t77.5 -88.5l132 -168zM182 -492h-151l315 560l-258 833h143l203 -672l375 672h152z" />
    <glyph glyph-name="endash" unicode="&#x2013;" horiz-adv-x="1232" 
d="M1092 463h-942l18 139h942z" />
    <glyph glyph-name="emdash" unicode="&#x2014;" horiz-adv-x="2019" 
d="M1878 463h-1728l18 139h1728z" />
    <glyph glyph-name="quoteleft" unicode="&#x2018;" horiz-adv-x="479" 
d="M485 1423l-51 -362q-6 -43 -40.5 -70.5t-71.5 -27.5q-45 0 -74.5 31t-22.5 79q6 31 29 70l184 280h47z" />
    <glyph glyph-name="quoteright" unicode="&#x2019;" horiz-adv-x="479" 
d="M211 987l51 363q6 43 41 70.5t72 27.5q44 0 73 -31.5t23 -79.5q-4 -21 -29 -69l-184 -281h-47z" />
    <glyph glyph-name="quotesinglbase" unicode="&#x201a;" horiz-adv-x="479" 
d="M35 -274l51 362q6 43 41 70.5t72 27.5q45 0 74 -31t22 -79q0 -18 -27 -70l-186 -280h-47z" />
    <glyph glyph-name="quotedblleft" unicode="&#x201c;" horiz-adv-x="792" 
d="M485 1423l-51 -362q-6 -43 -40.5 -70.5t-71.5 -27.5q-45 0 -74.5 31t-22.5 79q6 31 29 70l184 280h47zM799 1423l-51 -362q-6 -43 -41 -70.5t-72 -27.5q-45 0 -74 31t-22 79q7 33 28 70l185 280h47z" />
    <glyph glyph-name="quotedblright" unicode="&#x201d;" horiz-adv-x="792" 
d="M213 987l51 363q6 43 41 70.5t72 27.5q44 0 73 -31.5t23 -79.5q-4 -21 -29 -69l-184 -281h-47zM526 987l52 363q6 43 40.5 70.5t71.5 27.5q44 0 73 -31.5t23 -79.5q-5 -24 -28 -69l-185 -281h-47z" />
    <glyph glyph-name="quotedblbase" unicode="&#x201e;" horiz-adv-x="792" 
d="M35 -274l51 362q6 43 41 70.5t72 27.5q45 0 74 -31t22 -79q0 -18 -27 -70l-186 -280h-47zM348 -274l51 362q6 43 41 70.5t72 27.5q45 0 74 -31t22 -79q0 -20 -26 -70l-187 -280h-47z" />
    <glyph glyph-name="dagger" unicode="&#x2020;" horiz-adv-x="1159" 
d="M1024 831h-315l-160 -1138h-148l160 1138h-315l20 140h316l63 452h148l-64 -452h315z" />
    <glyph glyph-name="daggerdbl" unicode="&#x2021;" horiz-adv-x="1159" 
d="M709 831l-76 -546h315l-20 -140h-316l-63 -452h-148l64 452h-315l20 140h315l76 546h-315l20 140h316l63 452h148l-64 -452h315l-20 -140h-315z" />
    <glyph glyph-name="bullet" unicode="&#x2022;" horiz-adv-x="747" 
d="M418 815q88 0 141.5 -62t40.5 -151q-10 -83 -75.5 -139.5t-147.5 -56.5q-88 0 -140.5 61.5t-39.5 150.5q9 83 73 140t148 57z" />
    <glyph glyph-name="ellipsis" unicode="&#x2026;" horiz-adv-x="1437" 
d="M186 186q46 0 75 -32.5t22 -77.5q-4 -41 -37.5 -71t-73.5 -30q-47 0 -75.5 34.5t-22.5 82.5q6 40 38.5 67t73.5 27zM676 186q46 0 74.5 -32.5t21.5 -77.5q-4 -41 -37 -71t-73 -30q-47 0 -76 34.5t-23 82.5q6 40 39 67t74 27zM1165 186q46 0 76 -32.5t23 -77.5
q-4 -41 -38.5 -71t-74.5 -30q-47 0 -75.5 34.5t-22.5 82.5q6 40 38.5 67t73.5 27z" />
    <glyph glyph-name="perthousand" unicode="&#x2030;" horiz-adv-x="2293" 
d="M528 1448q133 0 214.5 -91t62.5 -224q-19 -126 -120.5 -212.5t-227.5 -86.5q-131 0 -213 91t-64 224q19 126 120.5 212.5t227.5 86.5zM375 0h-152l1069 1423h152zM526 1329q-82 0 -149.5 -57.5t-77.5 -138.5q-10 -75 37.5 -128t122.5 -53q82 0 150.5 58t78.5 139
q10 74 -38 127t-124 53zM1208 590q133 0 214.5 -91.5t62.5 -224.5q-19 -126 -120.5 -212.5t-227.5 -86.5q-132 0 -214 92t-63 224q19 127 120 213t228 86zM1915 590q133 0 214 -91.5t62 -224.5q-19 -126 -120.5 -212.5t-227.5 -86.5q-132 0 -213.5 92t-62.5 224
q19 127 120 213t228 86zM1208 473q-82 0 -150.5 -59t-78.5 -140q-10 -75 37.5 -127.5t122.5 -52.5q82 0 150.5 58t78.5 139q10 75 -37.5 128.5t-122.5 53.5zM1915 473q-82 0 -150.5 -59t-78.5 -140q-10 -75 37 -127.5t122 -52.5q82 0 151 58t79 139q10 75 -37.5 128.5
t-122.5 53.5z" />
    <glyph glyph-name="guilsinglleft" unicode="&#x2039;" horiz-adv-x="661" 
d="M561 776l-303 -321l211 -314l-109 -78l-264 392l371 401z" />
    <glyph glyph-name="guilsinglright" unicode="&#x203a;" horiz-adv-x="661" 
d="M569 455l-368 -392l-95 78l300 314l-209 321l108 80z" />
    <glyph glyph-name="fraction" unicode="&#x2044;" horiz-adv-x="1034" 
d="M100 0h-145l1057 1423h145z" />
    <glyph glyph-name="foursuperior" unicode="&#x2074;" horiz-adv-x="690" 
d="M565 1008h82l-14 -103h-82l-23 -162h-100l23 162h-367l545 559zM307 1008h158l29 188z" />
    <glyph glyph-name="Euro" unicode="&#x20ac;" horiz-adv-x="1687" 
d="M907 496h-456q40 -164 171.5 -265.5t313.5 -101.5q267 0 481 223l139 -78q-273 -299 -626 -299q-238 0 -416 146.5t-219 374.5h-217l20 147h187q0 37 6 78q7 45 14 78h-184l20 147h219q103 218 313.5 360t448.5 142q163 0 299.5 -68.5t216.5 -189.5l-137 -88
q-70 90 -168 141t-217 51q-179 0 -337.5 -95.5t-250.5 -252.5h533l-49 -147h-549q-18 -70 -21 -94q-1 -10 -3 -31t-3 -31h518z" />
    <glyph glyph-name="trademark" unicode="&#x2122;" horiz-adv-x="1533" 
d="M1495 743h-100l71 492l-284 -264l-215 266l-72 -494h-98l100 725l295 -362l403 362zM750 1325h-224l-82 -582h-96l82 582h-221l14 98h541z" />
    <glyph glyph-name="partialdiff" unicode="&#x2202;" horiz-adv-x="1030" 
d="M664 1497l149 -8q86 -178 127.5 -480t11.5 -567q-17 -134 -95 -243t-184 -166.5t-216 -57.5q-83 0 -158.5 38.5t-127.5 103t-76.5 155t-10.5 187.5q26 190 175 328.5t316 138.5q79 0 145 -34.5t103 -80.5q-7 187 -55 383t-104 303zM573 799q-121 0 -224.5 -104.5
t-123.5 -252.5q-21 -141 49.5 -240.5t184.5 -99.5q132 0 231 102.5t121 254.5q21 147 -53.5 243.5t-184.5 96.5z" />
    <glyph glyph-name="emptyset" unicode="&#x2205;" horiz-adv-x="1409" 
d="M1413 1112l-162 -143q114 -165 84 -387q-22 -161 -121.5 -299t-250.5 -221t-318 -87q-214 0 -369 142l-161 -142l-78 91l162 141q-118 169 -88 391q17 118 80 228.5t155.5 193t212.5 132.5t244 50q106 0 202 -37t169 -104l161 141zM293 291l786 686q-117 102 -278 102
q-101 0 -198 -39.5t-172 -106.5t-127 -159t-66 -192q-21 -166 55 -291zM1155 885l-786 -686q115 -101 278 -101q134 0 256.5 67.5t204 182.5t100.5 250q21 161 -53 287z" />
    <glyph glyph-name="product" unicode="&#x220f;" horiz-adv-x="1378" 
d="M1483 1346h-162l-211 -1489h-147l211 1489h-711l-211 -1489h-148l211 1489h-165l20 139h1333z" />
    <glyph glyph-name="summation" unicode="&#x2211;" horiz-adv-x="1441" 
d="M1403 1346h-901l368 -705l-604 -707h965l-21 -139h-1265l745 846l-440 844h1173z" />
    <glyph glyph-name="minus" unicode="&#x2212;" horiz-adv-x="1204" 
d="M1063 463h-913l18 139h913z" />
    <glyph glyph-name="radical" unicode="&#x221a;" horiz-adv-x="1347" 
d="M496 -39l-246 698h-195l21 140h278v-4l178 -523l1035 1610h159z" />
    <glyph glyph-name="infinity" unicode="&#x221e;" horiz-adv-x="1646" 
d="M1268 1137q104 0 186.5 -46t124.5 -129.5t27 -185.5q-20 -149 -143 -246.5t-277 -97.5q-96 0 -194 66t-136 161q-63 -94 -176.5 -160.5t-202.5 -66.5q-104 0 -186.5 46t-124.5 129.5t-27 185.5q20 149 143 246.5t277 97.5q96 0 194 -66.5t136 -161.5q64 94 177 161
t202 67zM481 580q95 0 179.5 57t148.5 156q-33 93 -98 144.5t-156 51.5q-98 0 -174.5 -59.5t-89.5 -153.5q-12 -87 43.5 -141.5t146.5 -54.5zM1454 793q12 87 -43.5 141.5t-146.5 54.5q-95 0 -179.5 -57t-148.5 -156q33 -93 98 -144.5t156 -51.5q98 0 174.5 59.5t89.5 153.5
z" />
    <glyph glyph-name="integral" unicode="&#x222b;" horiz-adv-x="995" 
d="M455 614l92 375q120 490 540 490l-20 -133q-146 0 -244.5 -93.5t-150.5 -308.5l-82 -330l-90 -374q-120 -490 -541 -490l18 133q146 0 245.5 93.5t152.5 308.5z" />
    <glyph glyph-name="approxequal" unicode="&#x2248;" horiz-adv-x="1204" 
d="M1036 918l125 -62q-55 -101 -141.5 -163t-188.5 -62q-61 0 -116 19t-89 42.5t-78.5 42.5t-86.5 19q-62 0 -114 -29t-81 -88l-127 59q56 99 139.5 153t186.5 54q54 0 110.5 -19.5t96 -43t85.5 -43t81 -19.5q58 0 113.5 39t84.5 101zM985 549l125 -62q-55 -101 -141.5 -163
t-188.5 -62q-61 0 -116 19t-89 42.5t-78.5 42.5t-86.5 19q-62 0 -114 -29t-81 -88l-127 60q56 99 139.5 153t186.5 54q54 0 110.5 -19.5t95 -43t84 -43t80.5 -19.5q58 0 114 38.5t87 100.5z" />
    <glyph glyph-name="notequal" unicode="&#x2260;" horiz-adv-x="1249" 
d="M762 629l-129 -193h375l-19 -139h-452l-91 -133h-163l90 133h-297l18 139h375l129 193h-477l20 139h553l90 133h164l-90 -133h197l-21 -139h-272z" />
    <glyph glyph-name="lessequal" unicode="&#x2264;" horiz-adv-x="1165" 
d="M1112 952l-649 -290l565 -293l-22 -164l-848 457l977 456zM977 0h-914l21 147h913z" />
    <glyph glyph-name="greaterequal" unicode="&#x2265;" horiz-adv-x="1169" 
d="M1073 664l-979 -459l25 166l647 293l-565 290l22 164zM979 0h-913l20 147h913z" />
    <glyph glyph-name="lozenge" unicode="&#x25ca;" horiz-adv-x="1261" 
d="M1241 553l-674 -594l-514 594l674 594zM250 553l338 -397l456 397l-337 397z" />
    <glyph glyph-name="W.ss01" horiz-adv-x="1966" 
d="M1235 -41l-213 727l-418 -727l-432 1464h160l311 -1136l422 755l209 -755l635 1136h168z" />
    <glyph glyph-name="Wacute.ss01" horiz-adv-x="1966" 
d="M1036 1522l-32 67l165 162q120 113 183 113q37 0 64.5 -26t21.5 -64q-6 -44 -45.5 -79t-128.5 -75zM1235 -41l-213 727l-418 -727l-432 1464h160l311 -1136l422 755l209 -755l635 1136h168z" />
    <glyph glyph-name="Wcircumflex.ss01" horiz-adv-x="1966" 
d="M969 1522l-92 59l303 283l229 -283l-100 -59l-142 192zM1235 -41l-213 727l-418 -727l-432 1464h160l311 -1136l422 755l209 -755l635 1136h168z" />
    <glyph glyph-name="Wdieresis.ss01" horiz-adv-x="1966" 
d="M971 1587q-47 0 -76 34t-23 81q6 40 39 68t74 28q46 0 74 -33t22 -79q-6 -41 -38 -70t-72 -29zM1339 1587q-47 0 -75.5 34t-22.5 81q6 40 39 68t74 28q46 0 74 -33t22 -79q-6 -41 -38.5 -70t-72.5 -29zM1235 -41l-213 727l-418 -727l-432 1464h160l311 -1136l422 755
l209 -755l635 1136h168z" />
    <glyph glyph-name="Wgrave.ss01" horiz-adv-x="1966" 
d="M1241 1522l-197 102q-80 41 -112 78.5t-25 87.5q4 32 32.5 53t59.5 21q76 0 160 -117l127 -158zM1235 -41l-213 727l-418 -727l-432 1464h160l311 -1136l422 755l209 -755l635 1136h168z" />
    <glyph glyph-name="w.ss01" horiz-adv-x="1318" 
d="M799 -41l-137 455l-269 -455l-313 942h143l203 -649l281 453l124 -453l392 649h151z" />
    <glyph glyph-name="wacute.ss01" horiz-adv-x="1318" 
d="M655 1126l-30 68l174 172q60 58 100 85.5t76 27.5q37 0 63.5 -26t20.5 -64q-6 -45 -41.5 -79.5t-122.5 -74.5zM799 -41l-137 455l-269 -455l-313 942h143l203 -649l281 453l124 -453l392 649h151z" />
    <glyph glyph-name="wcircumflex.ss01" horiz-adv-x="1318" 
d="M590 1137l-94 63l307 279l233 -279l-106 -63l-142 188zM799 -41l-137 455l-269 -455l-313 942h143l203 -649l281 453l124 -453l392 649h151z" />
    <glyph glyph-name="wdieresis.ss01" horiz-adv-x="1318" 
d="M592 1190q-47 0 -76 34t-22 81q5 40 37 68t73 28q46 0 75 -33.5t23 -79.5q-6 -41 -38 -69.5t-72 -28.5zM961 1190q-47 0 -76.5 34t-22.5 81q4 40 37 68t74 28q46 0 75 -33.5t23 -79.5q-6 -41 -38 -69.5t-72 -28.5zM799 -41l-137 455l-269 -455l-313 942h143l203 -649
l281 453l124 -453l392 649h151z" />
    <glyph glyph-name="wgrave.ss01" horiz-adv-x="1318" 
d="M860 1126l-207 113q-76 41 -103.5 78t-19.5 88q4 32 33 53t60 21q41 0 75.5 -28.5t77.5 -88.5l131 -168zM799 -41l-137 455l-269 -455l-313 942h143l203 -649l281 453l124 -453l392 649h151z" />
    <glyph glyph-name="uni00660074" horiz-adv-x="1286" 
d="M1022 776l-80 -575q-7 -54 5 -76.5t44 -22.5q42 0 96 50l41 -111q-79 -66 -165 -66q-84 0 -128 56t-28 170l80 575h-469l-109 -776h-135l109 776h-213l106 125h125l12 86q70 492 492 492l-12 -133q-145 0 -232.5 -92.5t-118.5 -307.5l-6 -45h469l23 174l162 193l-50 -367
h220l-19 -125h-219z" />
    <glyph glyph-name="acute.case" horiz-adv-x="745" 
d="M332 1589l166 162q120 113 182 113q37 0 64.5 -26t21.5 -64q-6 -44 -45.5 -79t-128.5 -75l-227 -98z" />
    <glyph glyph-name="breve.case" horiz-adv-x="960" 
d="M877 1843l110 -8q-20 -135 -122.5 -224t-221.5 -89q-78 0 -145 40.5t-103.5 115.5t-23.5 165l112 -8q-13 -93 36 -149t122 -56q78 0 150.5 60t85.5 153z" />
    <glyph glyph-name="caron.case" horiz-adv-x="872" 
d="M897 1804l-303 -282l-229 282l100 60l141 -193l199 193z" />
    <glyph glyph-name="circumflex.case" horiz-adv-x="872" 
d="M862 1581l-100 -59l-141 192l-199 -192l-92 59l303 283z" />
    <glyph glyph-name="dieresis.case" horiz-adv-x="931" 
d="M467 1798q46 0 74 -33t22 -79q-6 -41 -38 -70t-72 -29q-47 0 -76 34t-23 81q6 40 39 68t74 28zM836 1798q46 0 74 -33t22 -79q-6 -41 -38.5 -70t-72.5 -29q-47 0 -75.5 34t-22.5 81q6 40 39 68t74 28z" />
    <glyph glyph-name="dotaccent.case" horiz-adv-x="737" 
d="M551 1792q44 0 73 -32.5t23 -76.5q-6 -39 -37.5 -66.5t-70.5 -27.5q-46 0 -73.5 32.5t-21.5 78.5q4 38 35.5 65t71.5 27z" />
    <glyph glyph-name="grave.case" horiz-adv-x="745" 
d="M694 1522l-196 102q-80 41 -112.5 78.5t-25.5 87.5q4 32 33 53t60 21q75 0 159 -117l127 -158z" />
    <glyph glyph-name="hungarumlaut.case" horiz-adv-x="1181" 
d="M352 1589l166 162q120 113 182 113q37 0 64.5 -26t21.5 -64q-6 -44 -45.5 -79t-128.5 -75l-227 -98zM748 1589l165 162q120 113 183 113q37 0 64.5 -26t21.5 -64q-6 -44 -45.5 -79t-128.5 -75l-228 -98z" />
    <glyph glyph-name="macron.case" horiz-adv-x="1136" 
d="M1042 1614h-614l18 127h615z" />
    <glyph glyph-name="ring.case" horiz-adv-x="747" 
d="M563 1833q87 0 140.5 -63t41.5 -150q-11 -80 -76 -138.5t-147 -58.5q-88 0 -141.5 63t-42.5 150q12 81 77.5 139t147.5 58zM567 1741q-50 0 -88.5 -35.5t-46.5 -85.5q-5 -42 19 -71t67 -29q50 0 90.5 34.5t46.5 81.5q6 43 -19.5 74t-68.5 31z" />
    <glyph glyph-name="tilde.case" horiz-adv-x="999" 
d="M932 1812l82 -81q-36 -63 -93.5 -105.5t-119.5 -42.5q-46 0 -135.5 43t-128.5 43q-62 0 -111 -92l-86 82q46 67 95 106t110 39q44 0 97 -22t98 -44t69 -22q63 0 123 96z" />
    </font>
</defs>
</svg>
