<?xml version="1.0" standalone="no"?>
<!DOCTYPE svg PUBLIC "-//W3C//DTD SVG 1.1//EN" "http://www.w3.org/Graphics/SVG/1.1/DTD/svg11.dtd" >
<svg xmlns="http://www.w3.org/2000/svg" xmlns:xlink="http://www.w3.org/1999/xlink" version="1.1">
<metadata>
Created by FontForge 20201107 at Wed Nov 18 02:59:31 2020
 By 
</metadata>
<defs>
<font id="QuirkRegular" horiz-adv-x="268" >
  <font-face 
    font-family="Quirk"
    font-weight="400"
    font-stretch="normal"
    units-per-em="1000"
    panose-1="0 0 0 0 0 0 0 0 0 0"
    ascent="800"
    descent="-200"
    x-height="699"
    cap-height="700"
    bbox="-110 -272 1205 887"
    underline-thickness="50"
    underline-position="-150"
    unicode-range="U+000A-F06C"
  />
<missing-glyph horiz-adv-x="527" 
d="M50 700h427v-700h-427v700zM78 680l185 -309l186 309h-371zM251 350l-180 300v-601zM264 329l-185 -308h370zM276 350l181 -303v605z" />
    <glyph glyph-name=".notdef" horiz-adv-x="527" 
d="M50 700h427v-700h-427v700zM78 680l185 -309l186 309h-371zM251 350l-180 300v-601zM264 329l-185 -308h370zM276 350l181 -303v605z" />
    <glyph glyph-name=".null" horiz-adv-x="0" 
 />
    <glyph glyph-name=".null" horiz-adv-x="0" 
 />
    <glyph glyph-name="nonmarkingreturn" horiz-adv-x="333" 
 />
    <glyph glyph-name="controlLF" unicode="&#xa;" horiz-adv-x="0" 
 />
    <glyph glyph-name="controlCR" unicode="&#xd;" horiz-adv-x="0" 
 />
    <glyph glyph-name="space" unicode=" " horiz-adv-x="322" 
 />
    <glyph glyph-name="exclam" unicode="!" horiz-adv-x="267" 
d="M192 187h-117v513h117v-513zM133 0q-27 0 -46 19t-19 46t19 46.5t46 19.5t46.5 -19.5t19.5 -46.5t-19.5 -46t-46.5 -19z" />
    <glyph glyph-name="quotedbl" unicode="&#x22;" horiz-adv-x="337" 
d="M129 730q15 0 15 -15v-53l-22 -188q-1 -14 -15 -14h-30q-13 0 -14 14l-22 188v53q0 15 15 15h73zM281 730q15 0 15 -15v-53l-22 -188q-1 -14 -15 -14h-30q-14 0 -15 14l-21 188v53q0 15 15 15h73z" />
    <glyph glyph-name="numbersign" unicode="#" horiz-adv-x="818" 
d="M768 538v-101h-150l-32 -165h129v-101h-149l-33 -171h-118l33 171h-151l-34 -171h-117l33 171h-129v101h149l31 165h-128v101h149l33 162h117l-33 -162h152l33 162h118l-33 -162h130zM469 272l31 165h-152l-31 -165h152z" />
    <glyph glyph-name="dollar" unicode="$" horiz-adv-x="643" 
d="M505 377q80 -52 80 -152q0 -95 -58.5 -152t-162.5 -66v-143h-88v144q-135 14 -221 104l71 105q63 -67 150 -86v182q-34 9 -58.5 18t-53.5 25t-47 36t-30 51t-12 69q0 82 55.5 137t145.5 67v133h88v-133q123 -12 205 -91l-72 -101q-56 53 -133 69v-162q94 -23 141 -54z
M276 455v140q-21 -4 -36.5 -14t-23.5 -25t-8 -34q0 -25 17.5 -40.5t50.5 -26.5zM364 128q38 6 63.5 27t25.5 54q0 31 -22.5 49.5t-66.5 31.5v-162z" />
    <glyph glyph-name="percent" unicode="%" horiz-adv-x="832" 
d="M341 557q0 -48 -20 -88t-54 -63.5t-74 -23.5q-61 0 -104.5 51.5t-43.5 123.5t43.5 123t104.5 51t104.5 -51t43.5 -123zM137 557q0 -17 4.5 -32t12 -26.5t18 -18t21.5 -6.5q23 0 39.5 24.5t16.5 58t-16.5 58t-39.5 24.5q-15 0 -28 -11t-20.5 -30t-7.5 -41zM638 349
q61 0 104 -51.5t43 -123.5t-43 -123t-104.5 -51t-104.5 51t-43 123q0 48 19.5 88t53.5 63.5t75 23.5zM637.5 92q22.5 0 39.5 24.5t17 58t-17 58t-39.5 24.5t-39.5 -24.5t-17 -58t17 -58t39.5 -24.5zM555 711h117l-396 -699h-117z" />
    <glyph glyph-name="ampersand" unicode="&#x26;" horiz-adv-x="717" 
d="M660 435q-4 -30 -26.5 -53.5t-52.5 -30.5q55 -53 60 -129t-43 -136q-62 -77 -187 -94q-75 -11 -148 7.5t-127 63.5q-67 58 -82.5 143.5t31.5 159.5q49 75 133 106q-28 17 -41.5 50t-6.5 66q3 16 10.5 31.5t18 28.5t24 24t28.5 19q57 30 133 24q69 -5 114 -37
q25 -18 40 -44.5t15 -54.5q0 -30 -18.5 -56t-46.5 -33q-30 -7 -58.5 9t-33.5 45q12 -4 24 2t17 18q9 24 -12 45q-17 16 -46 18q-25 2 -48 -8t-35 -30q-13 -20 -9 -45.5t23 -38.5q14 -11 68 -16q-2 -11 -7.5 -19t-14.5 -15t-16 -11t-21 -11t-21 -11q-71 -39 -104 -82
q-44 -57 -29 -126q14 -62 72 -101q53 -35 123 -36q77 -1 127 40q26 22 39 54t6 63q-7 33 -35 55.5t-62 20.5q-21 -2 -38 -14.5t-22 -31.5q-2 -12 3 -25t16.5 -21t24.5 -7q3 -8 -7 -18q-20 -20 -51.5 -22.5t-55.5 13.5q-24 15 -36 42.5t-8 56.5q4 27 21.5 51t43.5 39
q32 19 114.5 33t116.5 40q20 15 26 32q8 23 -6 38q17 6 34.5 1t29.5 -18q24 -26 19 -64z" />
    <glyph glyph-name="quotesingle" unicode="'" horiz-adv-x="185" 
d="M129 730q15 0 15 -15v-53l-22 -188q-1 -14 -15 -14h-30q-13 0 -14 14l-22 188v53q0 15 15 15h73z" />
    <glyph glyph-name="quotesingle" unicode="&#x2018;" horiz-adv-x="185" 
d="M129 730q15 0 15 -15v-53l-22 -188q-1 -14 -15 -14h-30q-13 0 -14 14l-22 188v53q0 15 15 15h73z" />
    <glyph glyph-name="parenleft" unicode="(" horiz-adv-x="362" 
d="M359 725q-86 -93 -132 -208.5t-46 -239t46 -239t132 -208.5l-87 -80q-101 110 -155 246t-54 282q0 96 24 189.5t71 179t114 158.5z" />
    <glyph glyph-name="parenright" unicode=")" horiz-adv-x="362" 
d="M89 805q102 -109 156 -245.5t54 -282t-54 -281.5t-156 -246l-86 80q86 93 132 208.5t46 239t-46 239t-132 208.5z" />
    <glyph glyph-name="asterisk" unicode="*" horiz-adv-x="455" 
d="M416 504l-49 -55l-84 55l8 -144l-72 13l5 103l-121 -82l-25 72l91 46l-131 65l49 57l86 -55l-10 142l73 -13l-4 -101l122 82l22 -72l-91 -46z" />
    <glyph glyph-name="plus" unicode="+" horiz-adv-x="649" 
d="M383 616v-224h224v-118h-224v-224h-118v224h-224v118h224v224h118z" />
    <glyph glyph-name="comma" unicode="," horiz-adv-x="225" 
d="M35 -115v37q0 8 6 11q59 17 76 68q-36 0 -60 21.5t-24 59.5q0 16 6 31t16.5 25.5t25 17t30.5 6.5q21 0 38.5 -9.5t29 -31t11.5 -52.5q0 -61 -39 -119.5t-105 -73.5q-11 -4 -11 9z" />
    <glyph glyph-name="hyphen" unicode="-" horiz-adv-x="324" 
d="M293 270h-263v118h263v-118z" />
    <glyph glyph-name="period" unicode="." horiz-adv-x="225" 
d="M191 79q0 -21 -10.5 -39.5t-29 -29t-39.5 -10.5q-33 0 -56 23t-23 56t23 56t56 23t56 -23t23 -56z" />
    <glyph glyph-name="slash" unicode="/" horiz-adv-x="440" 
d="M409 706l-257 -706h-118l257 706h118z" />
    <glyph glyph-name="zero" unicode="0" horiz-adv-x="672" 
d="M613 357q0 -87 -28 -165q-32 -89 -96 -143t-153 -54v0h-1q-60 0 -110 26.5t-83.5 69.5t-54.5 101q-28 78 -28 165q0 86 27 161h-1q15 42 37 76q25 39 58 66t72.5 40.5t82.5 13.5h1q66 0 121 -31t92 -89q23 -34 37 -76q27 -75 27 -161zM336 113q41 0 73.5 24t50 62
t26.5 78.5t9 79.5q0 56 -14.5 106t-46.5 87.5t-77 44.5h-3q-3 1 -7 1h-9l-1 0.5t-1.5 0.5t-1 -0.5t-1.5 -0.5h-9q-4 0 -7 -1h-2q-34 -6 -61.5 -28.5t-43.5 -56t-24.5 -73t-8.5 -80.5q0 -39 8.5 -79.5t26.5 -78.5t50 -62t74 -24z" />
    <glyph glyph-name="one" unicode="1" 
d="M193 6h-118v699h118v-699z" />
    <glyph glyph-name="two" unicode="2" horiz-adv-x="630" 
d="M552 127q9 -1 19 1v-120q-18 -1 -32 0l-6 1q-31 7 -91 23q-106 30 -157 29q-38 -1 -72.5 -15.5t-51.5 -43.5l-101 58h-2q0 88 49 159t139 113q16 8 48 22q69 29 97 49q68 49 41 114q-14 35 -51.5 57t-84.5 14q-57 -9 -85 -51t-30 -93l-117 3q1 50 17 94.5t44 78t67 56
t85 29.5q85 14 159 -26t105 -117q29 -70 7 -139t-89 -117q-38 -28 -119 -62q-31 -13 -45 -20q-45 -21 -74 -51q30 6 62 7q68 1 191 -33q53 -15 78 -20z" />
    <glyph glyph-name="three" unicode="3" horiz-adv-x="610" 
d="M421 435q60 -31 94 -85.5t32 -119.5q-1 -70 -43 -128t-109 -83q-44 -17 -96 -17q-98 0 -169 52q-86 64 -78 170l117 -9q-3 -41 31 -66q30 -22 74.5 -28t79.5 8q33 12 54 41t22 63q0 27 -13 50t-33 37t-45 21q-29 9 -82 9q-10 0 -29 -1h-4.5h-5h-3.5h-24l1 29q0 28 15 51
t40 35q6 3 33.5 15.5t41.5 19.5q7 3 14 8.5t15 14t12 13t13.5 16t10.5 13.5q-30 -8 -61 -10q-68 -4 -192 25q-40 9 -60 13v120q31 -5 87 -19q107 -25 158 -22q37 3 71.5 19t49.5 45l104 -54v-0.5v-1.5h2q0 -64 -26 -121q-32 -74 -99 -123z" />
    <glyph glyph-name="four" unicode="4" horiz-adv-x="668" 
d="M465 250q93 4 159 60v-128q-67 -35 -159 -37v-139h-118v153h-2q-2 1 -3 1q-18 5 -54 18q-58 20 -85 25q-22 3 -44 3q-25 -1 -55 -7l-51 51l62 390h117l-52 -329q11 0 43 -5q37 -7 104 -30q10 -4 20 -7v436h118v-455z" />
    <glyph glyph-name="five" unicode="5" horiz-adv-x="633" 
d="M189 459q47 6 79.5 7.5t77 -3t83.5 -24.5t71 -54q54 -57 59 -139.5t-42 -145.5q-55 -75 -157 -95q-82 -15 -159.5 17t-113.5 104q-14 27 -19 57q-2 11 -4.5 35.5t-0.5 24.5l111 18q-1 -21 4.5 -44t18.5 -44t29 -33q42 -30 104 -21t92 51q22 28 19.5 68t-27.5 66
q-44 47 -130 45q-22 0 -48.5 -2.5t-48 -5t-48.5 -5.5t-49 -4v380q0 2 31 -3.5t60 -11.5t37 -8q88 -21 140 -18q37 2 71.5 18t49.5 46q59 -31 102 -53q-41 -76 -131 -110q-41 -15 -88 -17.5t-84.5 3t-88.5 17.5v-116z" />
    <glyph glyph-name="six" unicode="6" horiz-adv-x="581" 
d="M392 410q53 -21 88 -64t46 -92t-4 -102t-57 -92q-47 -45 -113 -59.5t-131 4.5t-107 69q-39 45 -51 111t-3.5 125t30.5 121q38 110 118.5 180t195.5 94l25 -113q-159 -33 -220 -178q42 16 87 16q50 0 96 -20zM296 109q49 0 84 30t35 73q0 27 -16 51t-43.5 37.5t-59.5 13.5
t-59.5 -13.5t-43.5 -37.5t-16 -51q0 -43 35 -73t84 -30z" />
    <glyph glyph-name="seven" unicode="7" horiz-adv-x="578" 
d="M441 735q61 -32 103 -53q-5 -8 -11 -17l-243 -658h-125l204 553h1q-28 -5 -57.5 -6t-61 3t-56.5 8.5t-60 12.5q-53 13 -79 17q-9 0 -19 -2l-5 118q18 2 33 2l6 -1q31 -5 91 -19q107 -25 158 -22q24 1 46.5 8t43.5 21t31 35z" />
    <glyph glyph-name="eight" unicode="8" horiz-adv-x="693" 
d="M521 405q35 -21 60.5 -49t40 -62.5t14.5 -70.5q0 -95 -85 -162t-204.5 -67t-204.5 67t-85 162q0 55 31 102.5t84 79.5q-75 55 -75 134q0 77 73 132t176 55q68 0 125.5 -25.5t91 -68.5t33.5 -93q0 -79 -75 -134zM346 625q-49 0 -83.5 -25.5t-34.5 -61t34.5 -61t83.5 -25.5
t84 25.5t35 61t-35 61t-84 25.5zM346.5 115q57.5 0 98.5 31.5t41 76t-41 76.5t-98.5 32t-98.5 -32t-41 -76.5t41 -76t98.5 -31.5z" />
    <glyph glyph-name="nine" unicode="9" horiz-adv-x="581" 
d="M467 639q39 -46 51 -112.5t3 -126.5t-30 -122q-26 -74 -70.5 -130.5t-106 -93.5t-138.5 -53l-24 114q159 33 219 180q-41 -16 -86 -16q-51 0 -97 19q-52 22 -87 65.5t-46.5 93.5t3.5 103t57 93q47 45 113.5 60t131.5 -4.5t107 -69.5zM285 396q49 0 84 30.5t35 73.5
t-35 73t-84 30t-84 -30t-35 -73q0 -29 16 -52.5t43.5 -37.5t59.5 -14z" />
    <glyph glyph-name="colon" unicode=":" horiz-adv-x="253" 
d="M205 421q0 -32 -23 -55t-56 -23t-56 23t-23 55q0 33 23 57t56 24t56 -23.5t23 -57.5zM205 79q0 -33 -23 -56t-56 -23t-56 23t-23 56t23 56t56 23t56 -23t23 -56z" />
    <glyph glyph-name="semicolon" unicode=";" horiz-adv-x="254" 
d="M49 -78q0 8 6 11q59 17 76 68q-36 0 -60 21.5t-24 59.5q0 33 22.5 56.5t55.5 23.5t56 -24t23 -69q0 -61 -39 -119.5t-105 -73.5q-11 -4 -11 9v37zM206 424q0 -32 -23 -55t-56 -23t-56 23t-23 55q0 34 23 57.5t56 23.5t56 -23.5t23 -57.5z" />
    <glyph glyph-name="less" unicode="&#x3c;" horiz-adv-x="471" 
d="M418 286v-126l-373 117v140l373 142v-130l-206 -78z" />
    <glyph glyph-name="equal" unicode="=" horiz-adv-x="561" 
d="M518 385h-475v118h475v-118zM518 180h-475v118h475v-118z" />
    <glyph glyph-name="greater" unicode="&#x3e;" horiz-adv-x="471" 
d="M426 417v-140l-373 -117v126l206 65l-206 78v130z" />
    <glyph glyph-name="question" unicode="?" horiz-adv-x="554" 
d="M206 0q-27 0 -46 19t-19 46t19 46.5t46 19.5t46.5 -19.5t19.5 -46.5t-19.5 -46t-46.5 -19zM264 719q107 0 175 -56.5t68 -147.5q0 -24 -5 -45t-12.5 -37.5t-21 -31t-25 -24.5t-31.5 -20t-33 -16t-36.5 -13t-36 -10t-36.5 -9l-4 -1h-1v-108h-118v222l92 13q34 6 63 15
q39 12 59.5 29.5t20.5 45.5q0 38 -29 60t-79 22q-94 0 -169 -56q-25 34 -69 94q92 74 228 74z" />
    <glyph glyph-name="at" unicode="@" horiz-adv-x="1093" 
d="M546 775q99 0 189.5 -39t155.5 -104t104 -155.5t39 -189.5q0 -98 -24 -171q-23 -70 -66 -111q-60 -58 -153.5 -55t-153.5 64q-27 26 -42 62.5t-17 53t-2 28.5l1 52h-74v-83h-117v221q0 60 34 106q43 57 120 57q43 0 76 -19q58 -32 74 -107q5 -22 4 -64v-14q0 -73 -1 -112
q-1 -74 29 -100q24 -21 57.5 -26.5t62.5 8.5q37 16 56 75q18 56 18 135q0 75 -29.5 143.5t-79 118t-118 79t-143.5 29.5q-100 0 -185 -49.5t-134.5 -134.5t-49.5 -185.5t49.5 -185.5t134.5 -134.5t185 -49.5h13v-118h-13q-79 0 -153.5 24.5t-134 70t-105 105t-70 134
t-24.5 153.5q0 99 38.5 189.5t104 155.5t155.5 104t189 39zM503 348v-42h74v42q-1 16 -8 29q-8 17 -29 17t-30 -17q-6 -13 -7 -29z" />
    <glyph glyph-name="A" unicode="A" horiz-adv-x="643" 
d="M547 563q30 -65 30 -132v-430h-117v200h-277v-200h-118v430q0 67 30 132q21 46 54 77.5t76.5 48t95.5 16.5q78 0 136.5 -36.5t89.5 -105.5zM183 319h277v112q0 41 -20 83q-33 74 -119 74q-84 0 -118 -71q-18 -38 -20 -86v-112z" />
    <glyph glyph-name="A" unicode="&#xc3;" horiz-adv-x="643" 
d="M547 563q30 -65 30 -132v-430h-117v200h-277v-200h-118v430q0 67 30 132q21 46 54 77.5t76.5 48t95.5 16.5q78 0 136.5 -36.5t89.5 -105.5zM183 319h277v112q0 41 -20 83q-33 74 -119 74q-84 0 -118 -71q-18 -38 -20 -86v-112z" />
    <glyph glyph-name="A" unicode="&#xc1;" horiz-adv-x="643" 
d="M547 563q30 -65 30 -132v-430h-117v200h-277v-200h-118v430q0 67 30 132q21 46 54 77.5t76.5 48t95.5 16.5q78 0 136.5 -36.5t89.5 -105.5zM183 319h277v112q0 41 -20 83q-33 74 -119 74q-84 0 -118 -71q-18 -38 -20 -86v-112z" />
    <glyph glyph-name="B" unicode="B" horiz-adv-x="639" 
d="M537 351q57 -56 58 -144q0 -85 -56 -141q-66 -65 -179 -65h-4h-164h-118v699h84h172q102 2 166 -59q56 -54 56 -140q0 -75 -44 -127q16 -11 29 -23zM192 582v-163h135q59 0 88 29q19 19 19 52q0 36 -20 56q-28 27 -81 26h-2h-139zM456 150q21 21 21 57q0 38 -22 59
q-31 30 -91 29h-2h-170v-176h165q67 -1 99 31z" />
    <glyph glyph-name="C" unicode="C" horiz-adv-x="729" 
d="M594 233l102 -59q-44 -84 -126 -134.5t-181 -50.5q-70 0 -134 27.5t-110.5 74t-74 110.5t-27.5 135v26q0 94 46.5 173.5t126.5 126t173 46.5q65 0 124.5 -23t105.5 -64t75 -95l-102 -59q-19 37 -49.5 64.5t-70 43.5t-83.5 16q-94 0 -161 -67.5t-67 -161.5v-26
q0 -95 67 -162t161 -67q67 0 121.5 34.5t83.5 91.5z" />
    <glyph glyph-name="D" unicode="D" horiz-adv-x="703" 
d="M323 700q151 0 243.5 -96.5t92.5 -253.5t-92.5 -253.5t-243.5 -96.5h-248v700h248zM322 120q97 0 155 62.5t58 167.5q0 103 -59 166.5t-154 63.5h-126v-460h126z" />
    <glyph glyph-name="E" unicode="E" horiz-adv-x="536" 
d="M487 581h-294v-177h241v-118h-241v-168h294v-118h-412v700h412v-119z" />
    <glyph glyph-name="F" unicode="F" horiz-adv-x="517" 
d="M487 581h-294v-177h241v-119h-241v-285h-118v700h412v-119z" />
    <glyph glyph-name="G" unicode="G" horiz-adv-x="777" 
d="M716 384h4v-384h-98v80q-99 -90 -233 -90q-70 0 -134 27.5t-110.5 74t-74 110.5t-27.5 135v26q0 94 46.5 173.5t126.5 126t173 46.5q65 0 124.5 -23t105.5 -63.5t75 -95.5l-102 -59q-29 56 -83 90t-120 34q-94 0 -161 -67.5t-67 -161.5v-26q0 -95 67 -162t161 -67
q32 0 62.5 8.5t56 24t46.5 37.5t36 49q10 19 17 40h-232v118h341v-1z" />
    <glyph glyph-name="H" unicode="H" horiz-adv-x="700" 
d="M506 700h118v-700h-118v294h-313v-294h-118v700h118v-288h313v288z" />
    <glyph glyph-name="I" unicode="I" 
d="M193 0h-118v700h118v-700z" />
    <glyph glyph-name="J" unicode="J" horiz-adv-x="511" 
d="M329 700h118l-3 -397q0 -86 -12 -131q-14 -53 -50.5 -93.5t-88.5 -60.5q-41 -17 -87 -17q-71 0 -132 39q-35 23 -62 58q38 38 85 84q16 -27 41 -43q54 -34 113 -12q53 21 67 75q8 31 9 102z" />
    <glyph glyph-name="K" unicode="K" horiz-adv-x="622" 
d="M294 360l317 -360h-157l-232 264l-30 -39v-225h-118q1 359 0 700h118v-280l213 280h148z" />
    <glyph glyph-name="L" unicode="L" horiz-adv-x="534" 
d="M193 118h324v-118h-442v700h118v-582z" />
    <glyph glyph-name="M" unicode="M" horiz-adv-x="855" 
d="M702 700h79v-700h-118v443l-73 -102l-163 -228l-163 228l-72 102v-443h-118v700h79l111 -156l118 -165l45 -64l46 64l117 165z" />
    <glyph glyph-name="N" unicode="N" horiz-adv-x="667" 
d="M474 700h117v-700h-83l-315 442v-442h-118v700h79l320 -450v450z" />
    <glyph glyph-name="O" unicode="O" horiz-adv-x="804" 
d="M649 612q83 -77 105.5 -193.5t-23.5 -219.5q-42 -95 -133 -152.5t-196 -57.5q-68 0 -132 24.5t-113 69.5q-86 78 -108.5 197.5t26.5 223.5q44 93 133.5 148.5t193.5 55.5q68 0 132.5 -25t114.5 -71zM637 336q7 106 -62 179q-34 36 -80.5 55.5t-96.5 19.5q-72 0 -132 -38
q-60 -39 -88 -107.5t-16 -141.5t62 -124q34 -35 80 -53.5t94 -18.5q69 0 127 34q50 31 79.5 83t32.5 112z" />
    <glyph glyph-name="P" unicode="P" horiz-adv-x="542" 
d="M498 542q13 -37 12 -75.5t-13 -74t-35.5 -66t-55.5 -51.5q-66 -42 -170 -42q-19 0 -43 2v-236h-118v6v17v26v36v42v49v53v56v58v57v57v54v50v45v38v29v20v6q0 3 0.5 3h5.5q6 0 55 1q11 0 56 -1q79 0 112 -6q69 -11 121 -52t73 -101zM343 375q31 20 43.5 56.5t-0.5 72.5
q-11 32 -39.5 51t-62.5 24q-34 6 -91 4v-230q106 -6 150 22z" />
    <glyph glyph-name="Q" unicode="Q" horiz-adv-x="811" 
d="M759 362v-26q0 -99 -54 -183q16 -24 33 -73q3 -7 11 -43.5t6 -36.5h-118q1 0 -3.5 18.5t-6.5 22.5q-3 9 -9 20q-96 -72 -217 -72q-97 0 -179.5 46.5t-130.5 126.5t-48 174v26q0 94 48 173.5t130.5 126t179.5 46.5t179.5 -46.5t130.5 -126t48 -173.5zM398 107q78 0 142 45
q-16 10 -49 25q-40 15 -82 15q-79 0 -141 -48q59 -37 130 -37zM636 336v26q0 94 -70 161t-168.5 67t-168.5 -67t-70 -161v-26q0 -57 28 -107q96 81 222 81q93 0 151 -28q13 -6 24 -12q17 -10 34 -23q18 42 18 89z" />
    <glyph glyph-name="R" unicode="R" horiz-adv-x="568" 
d="M388 263l144 -263h-139l-127 232q-15 -1 -30 -1q-19 0 -43 1v-232h-118v699h61q11 1 56 0q79 0 112 -6q69 -11 121 -52.5t73 -100.5q13 -37 12 -76t-13 -74t-35.5 -65.5t-55.5 -51.5q-8 -5 -18 -10zM343 372q31 20 43.5 57t-0.5 73q-11 32 -39.5 51t-62.5 24q-34 6 -91 4
v-231q106 -5 150 22z" />
    <glyph glyph-name="S" unicode="S" horiz-adv-x="606" 
d="M486 362q79 -51 79 -150q0 -102 -68 -160t-188 -58q-168 0 -270 104l66 98q88 -90 211 -90q50 0 87.5 23.5t37.5 66.5q0 22 -10 38t-31.5 27.5t-43.5 18.5t-57 16l-5 1q-30 8 -46.5 12t-45.5 14t-45.5 19.5t-38 25.5t-32.5 34t-19.5 44.5t-8.5 56.5q0 91 68 147.5
t175 56.5q136 0 228 -74q-45 -62 -69 -94q-76 56 -169 56q-50 0 -79 -22t-29 -60q0 -16 8 -29.5t18.5 -21.5t32.5 -16.5t36.5 -12.5t44.5 -12q115 -27 163 -59z" />
    <glyph glyph-name="T" unicode="T" horiz-adv-x="515" 
d="M14 700h486v-109h-184v-591h-118v591h-184v109z" />
    <glyph glyph-name="U" unicode="U" horiz-adv-x="643" 
d="M460 700h117v-437q0 -67 -30 -132q-31 -69 -89.5 -105.5t-136.5 -36.5t-136.5 36.5t-89.5 105.5q-30 65 -30 132v437h118v-437q0 -43 20 -86q34 -70 118 -70q86 0 119 73q20 42 20 83v437z" />
    <glyph glyph-name="V" unicode="V" horiz-adv-x="622" 
d="M479 700h126l-222 -700h-145l-221 700h126l168 -500z" />
    <glyph glyph-name="W" unicode="W" horiz-adv-x="1021" 
d="M878 700h126l-222 -700h-145l-127 310l-127 -310h-145l-221 700h126l168 -545l134 313l65 152l65 -152l135 -313z" />
    <glyph glyph-name="X" unicode="X" horiz-adv-x="611" 
d="M373 380l221 -380h-136l-153 263l-152 -263h-136l220 380l-185 320h136l117 -203l117 203h136z" />
    <glyph glyph-name="Y" unicode="Y" horiz-adv-x="582" 
d="M439 700h136l-226 -362v-338h-117v338l-226 362h136l145 -250l4 -5l3 5z" />
    <glyph glyph-name="Z" unicode="Z" horiz-adv-x="570" 
d="M537 662l-47 -82l-289 -461h334v-119h-498v75l26 44l289 461h-315v120h500v-38z" />
    <glyph glyph-name="bracketleft" unicode="[" horiz-adv-x="365" 
d="M75 -250v972h255v-118h-137v-736h137v-118h-255z" />
    <glyph glyph-name="backslash" unicode="\" horiz-adv-x="440" 
d="M31 706h118l257 -706h-118z" />
    <glyph glyph-name="bracketright" unicode="]" horiz-adv-x="365" 
d="M290 722v-972h-255v118h137v736h-137v118h255z" />
    <glyph glyph-name="asciicircum" unicode="^" horiz-adv-x="470" 
d="M176 734h139l118 -373h-126l-65 206l-79 -206h-129z" />
    <glyph glyph-name="underscore" unicode="_" horiz-adv-x="629" 
d="M597 0h-566v118h566v-118z" />
    <glyph glyph-name="grave" unicode="`" horiz-adv-x="347" 
d="M196 832l75 -122h-77l-118 121h-1v1h121z" />
    <glyph glyph-name="a" unicode="a" horiz-adv-x="455" 
d="M388 617q21 -46 21 -92v-285h-104v120h-156v-120h-104v285q0 46 21 92q22 49 64 75.5t97.5 26.5t97 -26.5t63.5 -75.5zM161 576q-12 -26 -12 -52v-60h156v61q0 24 -11 49q-19 41 -67 41q-47 0 -66 -39z" />
    <glyph glyph-name="a" unicode="&#xe5;" horiz-adv-x="455" 
d="M388 617q21 -46 21 -92v-285h-104v120h-156v-120h-104v285q0 46 21 92q22 49 64 75.5t97.5 26.5t97 -26.5t63.5 -75.5zM161 576q-12 -26 -12 -52v-60h156v61q0 24 -11 49q-19 41 -67 41q-47 0 -66 -39z" />
    <glyph glyph-name="a" unicode="&#xe4;" horiz-adv-x="455" 
d="M388 617q21 -46 21 -92v-285h-104v120h-156v-120h-104v285q0 46 21 92q22 49 64 75.5t97.5 26.5t97 -26.5t63.5 -75.5zM161 576q-12 -26 -12 -52v-60h156v61q0 24 -11 49q-19 41 -67 41q-47 0 -66 -39z" />
    <glyph glyph-name="a" unicode="&#xe3;" horiz-adv-x="455" 
d="M388 617q21 -46 21 -92v-285h-104v120h-156v-120h-104v285q0 46 21 92q22 49 64 75.5t97.5 26.5t97 -26.5t63.5 -75.5zM161 576q-12 -26 -12 -52v-60h156v61q0 24 -11 49q-19 41 -67 41q-47 0 -66 -39z" />
    <glyph glyph-name="a" unicode="&#xe2;" horiz-adv-x="455" 
d="M388 617q21 -46 21 -92v-285h-104v120h-156v-120h-104v285q0 46 21 92q22 49 64 75.5t97.5 26.5t97 -26.5t63.5 -75.5zM161 576q-12 -26 -12 -52v-60h156v61q0 24 -11 49q-19 41 -67 41q-47 0 -66 -39z" />
    <glyph glyph-name="a" unicode="&#xe1;" horiz-adv-x="455" 
d="M388 617q21 -46 21 -92v-285h-104v120h-156v-120h-104v285q0 46 21 92q22 49 64 75.5t97.5 26.5t97 -26.5t63.5 -75.5zM161 576q-12 -26 -12 -52v-60h156v61q0 24 -11 49q-19 41 -67 41q-47 0 -66 -39z" />
    <glyph glyph-name="a" unicode="&#xe0;" horiz-adv-x="455" 
d="M388 617q21 -46 21 -92v-285h-104v120h-156v-120h-104v285q0 46 21 92q22 49 64 75.5t97.5 26.5t97 -26.5t63.5 -75.5zM161 576q-12 -26 -12 -52v-60h156v61q0 24 -11 49q-19 41 -67 41q-47 0 -66 -39z" />
    <glyph glyph-name="b" unicode="b" horiz-adv-x="455" 
d="M378 481q42 -39 42 -99q0 -59 -41 -97q-47 -45 -127 -45h-3h-199v462h182q73 2 119 -40q41 -38 41 -97q0 -43 -24 -76zM278 591q-14 14 -44 13h-1h-79v-77h76q34 -1 49 14q9 8 9 24q0 17 -10 26zM305 410q-16 15 -50 14h-2h-99v-85h96h1q38 0 55 16q10 9 10 26
q0 19 -11 29z" />
    <glyph glyph-name="c" unicode="c" horiz-adv-x="527" 
d="M406 415l91 -50l-6 -11q-32 -57 -89.5 -90.5t-124.5 -33.5q-100 0 -171 68t-71 164v16q0 96 71 164t171 68q66 0 123.5 -32.5t89.5 -89.5l6 -10l-90 -50l-7 11q-12 22 -30.5 38t-42.5 25t-49 9q-57 0 -97.5 -39t-40.5 -94v-16q0 -55 40.5 -93.5t97.5 -38.5q26 0 50 8.5
t43 25t30 39.5z" />
    <glyph glyph-name="c" unicode="&#xe7;" horiz-adv-x="527" 
d="M406 415l91 -50l-6 -11q-32 -57 -89.5 -90.5t-124.5 -33.5q-100 0 -171 68t-71 164v16q0 96 71 164t171 68q66 0 123.5 -32.5t89.5 -89.5l6 -10l-90 -50l-7 11q-12 22 -30.5 38t-42.5 25t-49 9q-57 0 -97.5 -39t-40.5 -94v-16q0 -55 40.5 -93.5t97.5 -38.5q26 0 50 8.5
t43 25t30 39.5z" />
    <glyph glyph-name="d" unicode="d" horiz-adv-x="497" 
d="M227 702q107 0 171 -61.5t64 -169.5t-64 -169.5t-171 -61.5h-177v462h177zM354 471q0 61 -34.5 93.5t-93.5 32.5h-70v-252h70q61 0 94.5 31.5t33.5 94.5z" />
    <glyph glyph-name="e" unicode="e" horiz-adv-x="389" 
d="M348 598h-194v-77h159v-105h-159v-71h194v-105h-298v462h298v-104z" />
    <glyph glyph-name="e" unicode="&#xeb;" horiz-adv-x="389" 
d="M348 598h-194v-77h159v-105h-159v-71h194v-105h-298v462h298v-104z" />
    <glyph glyph-name="e" unicode="&#xea;" horiz-adv-x="389" 
d="M348 598h-194v-77h159v-105h-159v-71h194v-105h-298v462h298v-104z" />
    <glyph glyph-name="e" unicode="&#xe9;" horiz-adv-x="389" 
d="M348 598h-194v-77h159v-105h-159v-71h194v-105h-298v462h298v-104z" />
    <glyph glyph-name="e" unicode="&#xe8;" horiz-adv-x="389" 
d="M348 598h-194v-77h159v-105h-159v-71h194v-105h-298v462h298v-104z" />
    <glyph glyph-name="f" unicode="f" horiz-adv-x="377" 
d="M348 597h-194v-78h159v-104h-159v-175h-104v461h298v-104z" />
    <glyph glyph-name="g" unicode="g" horiz-adv-x="545" 
d="M500 501h2v-265h-85v41q-64 -47 -143 -47q-99 0 -169 67.5t-70 163.5v17q0 62 32 115.5t87 84.5t120 31t121.5 -32.5t88.5 -89.5l4 -8l-84 -47l-5 9q-12 22 -31.5 39t-43.5 26t-50 9q-59 0 -100.5 -40.5t-41.5 -96.5v-17q0 -57 41.5 -97t100.5 -40q38 0 71.5 19t51.5 52
l6 12h-149v94h246z" />
    <glyph glyph-name="h" unicode="h" horiz-adv-x="489" 
d="M335 702h104v-462h-104v181h-181v-181h-104v462h104v-177h181v177z" />
    <glyph glyph-name="i" unicode="i" horiz-adv-x="204" 
d="M154 240h-104v461h104v-461z" />
    <glyph glyph-name="i" unicode="&#xef;" horiz-adv-x="204" 
d="M154 240h-104v461h104v-461z" />
    <glyph glyph-name="i" unicode="&#xee;" horiz-adv-x="204" 
d="M154 240h-104v461h104v-461z" />
    <glyph glyph-name="i" unicode="&#xed;" horiz-adv-x="204" 
d="M154 240h-104v461h104v-461z" />
    <glyph glyph-name="i" unicode="&#xec;" horiz-adv-x="204" 
d="M154 240h-104v461h104v-461z" />
    <glyph glyph-name="j" unicode="j" horiz-adv-x="377" 
d="M228 697h104l-2 -255q-1 -58 -9 -89q-10 -39 -36 -68t-63 -43q-30 -12 -62 -12q-52 0 -94 28q-26 16 -45 41l-7 9l8 8l56 56l12 12l8 -15q10 -15 24 -24q30 -19 62 -6q29 11 37 40q5 19 5 64z" />
    <glyph glyph-name="k" unicode="k" horiz-adv-x="456" 
d="M225 478l221 -238h-139l-147 158l-7 -9v-136v-12h-104v12q1 224 0 437v12h104v-12v-138l121 150h131z" />
    <glyph glyph-name="l" unicode="l" horiz-adv-x="385" 
d="M154 343h214v-103h-318v462h104v-359z" />
    <glyph glyph-name="m" unicode="m" horiz-adv-x="593" 
d="M471 701h72v-461h-104v250l-143 -188l-142 188v-250h-104v461h72l174 -231z" />
    <glyph glyph-name="n" unicode="n" horiz-adv-x="468" 
d="M313 701h104v-461h-75l-188 249v-249h-104v461h72l191 -254v254z" />
    <glyph glyph-name="n" unicode="&#xf1;" horiz-adv-x="468" 
d="M313 701h104v-461h-75l-188 249v-249h-104v461h72l191 -254v254z" />
    <glyph glyph-name="o" unicode="o" horiz-adv-x="570" 
d="M457 650q57 -52 73 -129.5t-16 -148.5q-29 -63 -92.5 -102.5t-136.5 -39.5q-99 0 -171 64q-59 52 -75 132t18 151q31 63 92.5 100.5t135.5 37.5q99 0 172 -65zM427 465q4 63 -37 105q-43 45 -108 45q-44 0 -80 -23q-56 -35 -64 -104t39 -115q43 -42 105 -42q42 0 77 20
q30 17 48 47.5t20 66.5z" />
    <glyph glyph-name="o" unicode="&#xf8;" horiz-adv-x="570" 
d="M457 650q57 -52 73 -129.5t-16 -148.5q-29 -63 -92.5 -102.5t-136.5 -39.5q-99 0 -171 64q-59 52 -75 132t18 151q31 63 92.5 100.5t135.5 37.5q99 0 172 -65zM427 465q4 63 -37 105q-43 45 -108 45q-44 0 -80 -23q-56 -35 -64 -104t39 -115q43 -42 105 -42q42 0 77 20
q30 17 48 47.5t20 66.5z" />
    <glyph glyph-name="o" unicode="&#xf6;" horiz-adv-x="570" 
d="M457 650q57 -52 73 -129.5t-16 -148.5q-29 -63 -92.5 -102.5t-136.5 -39.5q-99 0 -171 64q-59 52 -75 132t18 151q31 63 92.5 100.5t135.5 37.5q99 0 172 -65zM427 465q4 63 -37 105q-43 45 -108 45q-44 0 -80 -23q-56 -35 -64 -104t39 -115q43 -42 105 -42q42 0 77 20
q30 17 48 47.5t20 66.5z" />
    <glyph glyph-name="o" unicode="&#xf5;" horiz-adv-x="570" 
d="M457 650q57 -52 73 -129.5t-16 -148.5q-29 -63 -92.5 -102.5t-136.5 -39.5q-99 0 -171 64q-59 52 -75 132t18 151q31 63 92.5 100.5t135.5 37.5q99 0 172 -65zM427 465q4 63 -37 105q-43 45 -108 45q-44 0 -80 -23q-56 -35 -64 -104t39 -115q43 -42 105 -42q42 0 77 20
q30 17 48 47.5t20 66.5z" />
    <glyph glyph-name="o" unicode="&#xf4;" horiz-adv-x="570" 
d="M457 650q57 -52 73 -129.5t-16 -148.5q-29 -63 -92.5 -102.5t-136.5 -39.5q-99 0 -171 64q-59 52 -75 132t18 151q31 63 92.5 100.5t135.5 37.5q99 0 172 -65zM427 465q4 63 -37 105q-43 45 -108 45q-44 0 -80 -23q-56 -35 -64 -104t39 -115q43 -42 105 -42q42 0 77 20
q30 17 48 47.5t20 66.5z" />
    <glyph glyph-name="o" unicode="&#xf3;" horiz-adv-x="570" 
d="M457 650q57 -52 73 -129.5t-16 -148.5q-29 -63 -92.5 -102.5t-136.5 -39.5q-99 0 -171 64q-59 52 -75 132t18 151q31 63 92.5 100.5t135.5 37.5q99 0 172 -65zM427 465q4 63 -37 105q-43 45 -108 45q-44 0 -80 -23q-56 -35 -64 -104t39 -115q43 -42 105 -42q42 0 77 20
q30 17 48 47.5t20 66.5z" />
    <glyph glyph-name="o" unicode="&#xf2;" horiz-adv-x="570" 
d="M457 650q57 -52 73 -129.5t-16 -148.5q-29 -63 -92.5 -102.5t-136.5 -39.5q-99 0 -171 64q-59 52 -75 132t18 151q31 63 92.5 100.5t135.5 37.5q99 0 172 -65zM427 465q4 63 -37 105q-43 45 -108 45q-44 0 -80 -23q-56 -35 -64 -104t39 -115q43 -42 105 -42q42 0 77 20
q30 17 48 47.5t20 66.5z" />
    <glyph glyph-name="p" unicode="p" horiz-adv-x="392" 
d="M355 588q18 -53 -0.5 -107t-65 -84t-119.5 -30h-16v-127h-104v462h54h28h16q46 0 69 -4q49 -8 86.5 -37.5t51.5 -72.5zM233 484q17 11 24 31t0 40q-11 33 -57 41q-19 3 -45 2v-127q55 -2 78 13z" />
    <glyph glyph-name="q" unicode="q" horiz-adv-x="558" 
d="M518 481v-17q0 -64 -34 -119q10 -15 20 -43q1 -2 4 -14t6 -27.5t0 -19.5l-3 -4h-5h-77v10l-7 6q-3 -3 -2 -7q-2 10 -6 24l-1 1q-61 -41 -137 -41q-99 0 -170 68.5t-71 165.5v17q0 63 32.5 117t88 85.5t120.5 31.5q100 0 171 -68.5t71 -165.5zM419 481q0 28 -11.5 53.5
t-31 44t-46 29.5t-56.5 11q-60 0 -102.5 -40.5t-42.5 -97.5v-17q0 -28 12 -54q63 47 140 47q63 0 103 -19q8 -4 16 -9q6 -3 12 -7q7 20 7 42v17zM281 361q-39 0 -73 -20q31 -16 66 -16q40 0 74 19q-6 3 -17 8q-24 9 -50 9z" />
    <glyph glyph-name="r" unicode="r" horiz-adv-x="416" 
d="M287 412l100 -172h-122l-84 144h-27v-144h-104v461h13h41h29h14q46 0 69 -4q50 -7 87 -35t51 -69q19 -50 0 -101t-65 -80h-2zM233 495q17 10 23.5 29t-0.5 38q-11 31 -57 38q-18 3 -45 3v-120q55 -2 79 12z" />
    <glyph glyph-name="s" unicode="s" horiz-adv-x="446" 
d="M352 491q58 -37 58 -107q0 -47 -22 -81.5t-63 -53.5t-97 -19q-116 0 -188 71l-7 8l59 84l11 -11q54 -54 129 -54q28 0 49 12t21 33q0 19 -19 30t-65 22l-3 1q-20 5 -31 8t-31.5 10t-32.5 13.5t-27 17.5t-23.5 24t-14.5 32t-6 41q0 63 48.5 103.5t125.5 40.5q94 0 159 -51
l9 -8l-7 -10q-29 -39 -46 -60l-8 -10l-10 7q-46 34 -104 34q-27 0 -42.5 -10.5t-15.5 -29.5q0 -18 19 -27t64 -20q78 -18 111 -40z" />
    <glyph glyph-name="t" unicode="t" horiz-adv-x="382" 
d="M17 702h347v-98h-122v-364h-103v364h-122v98z" />
    <glyph glyph-name="u" unicode="u" horiz-adv-x="455" 
d="M305 701h104v-289q0 -47 -21 -92q-15 -33 -38.5 -55.5t-54.5 -34.5t-68 -12q-55 0 -97 26.5t-64 75.5q-21 45 -21 92v289h104v-289v-3t1 -8l2 -12t3.5 -13.5t5.5 -14.5q19 -39 66 -39q48 0 67 41q11 24 11 49v289z" />
    <glyph glyph-name="u" unicode="&#xfc;" horiz-adv-x="455" 
d="M305 701h104v-289q0 -47 -21 -92q-15 -33 -38.5 -55.5t-54.5 -34.5t-68 -12q-55 0 -97 26.5t-64 75.5q-21 45 -21 92v289h104v-289v-3t1 -8l2 -12t3.5 -13.5t5.5 -14.5q19 -39 66 -39q48 0 67 41q11 24 11 49v289z" />
    <glyph glyph-name="u" unicode="&#xfb;" horiz-adv-x="455" 
d="M305 701h104v-289q0 -47 -21 -92q-15 -33 -38.5 -55.5t-54.5 -34.5t-68 -12q-55 0 -97 26.5t-64 75.5q-21 45 -21 92v289h104v-289v-3t1 -8l2 -12t3.5 -13.5t5.5 -14.5q19 -39 66 -39q48 0 67 41q11 24 11 49v289z" />
    <glyph glyph-name="u" unicode="&#xfa;" horiz-adv-x="455" 
d="M305 701h104v-289q0 -47 -21 -92q-15 -33 -38.5 -55.5t-54.5 -34.5t-68 -12q-55 0 -97 26.5t-64 75.5q-21 45 -21 92v289h104v-289v-3t1 -8l2 -12t3.5 -13.5t5.5 -14.5q19 -39 66 -39q48 0 67 41q11 24 11 49v289z" />
    <glyph glyph-name="u" unicode="&#xf9;" horiz-adv-x="455" 
d="M305 701h104v-289q0 -47 -21 -92q-15 -33 -38.5 -55.5t-54.5 -34.5t-68 -12q-55 0 -97 26.5t-64 75.5q-21 45 -21 92v289h104v-289v-3t1 -8l2 -12t3.5 -13.5t5.5 -14.5q19 -39 66 -39q48 0 67 41q11 24 11 49v289z" />
    <glyph glyph-name="v" unicode="v" horiz-adv-x="458" 
d="M330 699h111l-155 -459h-115l-154 459h110l102 -288z" />
    <glyph glyph-name="w" unicode="w" horiz-adv-x="722" 
d="M593 701h111l-154 -461h-114l-75 172l-75 -172h-114l-155 461h111l103 -317l130 286l129 -286z" />
    <glyph glyph-name="x" unicode="x" horiz-adv-x="465" 
d="M292 490l153 -250h-120l-93 152l-93 -152h-120l153 250l-130 212h120l70 -114l70 114h120z" />
    <glyph glyph-name="y" unicode="y" horiz-adv-x="437" 
d="M309 701h121l-160 -242v-219h-103l-1 12v207l-159 242h121l90 -147z" />
    <glyph glyph-name="y" unicode="&#xff;" horiz-adv-x="437" 
d="M309 701h121l-160 -242v-219h-103l-1 12v207l-159 242h121l90 -147z" />
    <glyph glyph-name="y" unicode="&#xfd;" horiz-adv-x="437" 
d="M309 701h121l-160 -242v-219h-103l-1 12v207l-159 242h121l90 -147z" />
    <glyph glyph-name="z" unicode="z" horiz-adv-x="427" 
d="M401 701l-210 -366h205v-95h-370l210 366h-194v95h359z" />
    <glyph glyph-name="braceleft" unicode="{" horiz-adv-x="368" 
d="M325 -132v-118q-110 0 -158 82q-41 69 -41 221q0 82 -43 120q-13 11 -30 17v123q15 2 28.5 16t25 51t11.5 91q0 147 79 217q54 47 128 48v-118q-31 -1 -52 -20q-38 -34 -38 -127q0 -146 -65 -219q74 -72 74 -199q0 -39 2.5 -68.5t6 -49t10.5 -33t12.5 -20.5t15.5 -10
t16 -3.5t18 -0.5z" />
    <glyph glyph-name="verticalbar" unicode="|" 
d="M193 -77h-118v841h118v-841z" />
    <glyph glyph-name="braceright" unicode="}" horiz-adv-x="368" 
d="M43 -250v118q12 0 18 0.5t16 3.5t15.5 10t12.5 20.5t10.5 33t6 49t2.5 68.5q0 127 74 199q-66 73 -66 219q0 93 -38 127q-21 19 -51 20v118q74 -1 128 -48q79 -70 79 -217q0 -41 6 -72.5t16.5 -49t21 -26t21.5 -10.5v-123q-17 -6 -30 -17q-44 -38 -44 -120
q0 -152 -40 -221q-48 -82 -158 -82z" />
    <glyph glyph-name="asciitilde" unicode="~" horiz-adv-x="496" 
d="M453 433q6 0 8 -6q4 -75 -33 -121t-96 -46q-27 0 -53 13.5t-42.5 29.5t-37 29t-38.5 13q-51 0 -57 -72q-2 -7 -8 -7h-54q-6 0 -8 6q-4 75 33 121t96 46q27 0 53 -13.5t42.5 -29.5t37.5 -29t38 -13q52 0 58 72q1 7 7 7h54z" />
    <glyph glyph-name="nonbreakingspace" unicode="&#xa0;" horiz-adv-x="322" 
 />
    <glyph glyph-name="exclamdown" unicode="&#xa1;" horiz-adv-x="241" 
d="M94 384h53l32 -513h-117zM120 441q-27 0 -46 19t-19 46t19 46t46 19t46.5 -19t19.5 -46t-19.5 -46t-46.5 -19z" />
    <glyph glyph-name="cent" unicode="&#xa2;" horiz-adv-x="621" 
d="M179 53q-38 23 -66.5 58t-44 78.5t-15.5 90.5v18q0 111 78.5 190t189.5 79q14 0 30 -2l70 209l112 -37l-71 -210q61 -38 95 -101l9 -17l-107 -62l-10 18q-11 22 -28 38l-91 -268q39 3 71 24t50 56l9 19l107 -62l-8 -17q-35 -67 -99 -105.5t-139 -38.5q-15 0 -31 2
l-72 -213l-112 37zM177 298v-18q0 -61 43 -104l89 266q-36 -3 -66.5 -22.5t-48 -51.5t-17.5 -70z" />
    <glyph glyph-name="sterling" unicode="&#xa3;" horiz-adv-x="668" 
d="M153 0l-101 58h-2v8q26 34 60 55l10 6q78 57 86 120q6 41 -18 83h-114v80h79q-49 85 -11 177q31 76 105 115.5t159 25.5q93 -14 152 -84.5t61 -170.5l-117 -3q-2 50 -30 91.5t-85 50.5q-47 8 -84.5 -13.5t-51.5 -56.5q-7 -16 -7 -32q-4 -44 35 -100h179v-80h-143
q14 -48 8 -97q-4 -29 -15 -58q56 -3 158 -31q53 -15 78 -20q9 -1 19 1v-118q-18 -2 -32 0h-6q-31 7 -91 23q-106 30 -157 29q-40 -1 -73 -16q-12 -10 -23 -18l-2 3q-17 -12 -26 -28z" />
    <glyph glyph-name="currency" unicode="&#xa4;" horiz-adv-x="523" 
d="M422 252v1l52 -52l-62 -61l-51 51v1q-46 -29 -100 -29t-100 29l1 -1l-52 -51l-61 61l51 52l1 -1q-29 46 -29 100t29 100h-1l-51 51l61 62l52 -52q46 29 99.5 29t99.5 -29l51 52l62 -62l-52 -51q29 -46 29 -100t-29 -100zM261 248q43 0 74 30.5t31 74t-31 74t-74 30.5
t-73.5 -30.5t-30.5 -74t30.5 -74t73.5 -30.5z" />
    <glyph glyph-name="yen" unicode="&#xa5;" horiz-adv-x="653" 
d="M605 700l-219 -365v-11h182v-70h-182v-52h182v-71h-182v-131h-117v131h-174v71h174v52h-174v70h174v11l-226 365h136l145 -253l146 253h135z" />
    <glyph glyph-name="section" unicode="&#xa7;" horiz-adv-x="625" 
d="M478 104q21 -21 35 -44q22 -39 22 -82q0 -49 -28 -91.5t-79 -65.5q-50 -21 -107 -21q-101 0 -161 50q-61 51 -73 140l-3 23l131 18l4 -21q12 -53 36 -73q23 -20 65 -20q41 0 62 19q20 18 20 41q0 15 -12 29q-28 33 -158 111q-73 44 -103 69q-32 27 -51 64q-21 38 -21 80
q0 53 34 96q23 29 57 46q-18 21 -28 40q-17 32 -17 68q0 71 56 122q55 50 143 50q99 0 156 -47q57 -48 69 -136l3 -24l-135 -13l-4 21q-9 50 -28 67t-53 17q-36 0 -57 -18q-19 -17 -19 -34t12 -31q24 -29 142 -99q77 -46 105 -68q38 -31 56 -66q19 -35 19 -76
q0 -62 -42 -107q-16 -17 -48 -34zM292 231q58 -33 101 -63q22 13 34 29q13 17 13 32q0 19 -20 42q-23 27 -103 75q-55 34 -88 57q-25 -15 -36 -29q-12 -16 -12 -35q0 -21 17 -42q20 -23 94 -66z" />
    <glyph glyph-name="dieresis" unicode="&#xa8;" horiz-adv-x="447" 
d="M354 600q-27 0 -46.5 19t-19.5 46t19.5 46.5t46.5 19.5t46 -19.5t19 -46.5t-19 -46t-46 -19zM92 600q-27 0 -46 19t-19 46t19 46.5t46 19.5t46.5 -19.5t19.5 -46.5t-19.5 -46t-46.5 -19z" />
    <glyph glyph-name="copyright" unicode="&#xa9;" horiz-adv-x="945" 
d="M565 302l9 18l91 -52l-9 -17q-28 -52 -78 -82t-108 -30q-87 0 -149 61.5t-62 148.5v15q0 87 62 148.5t149 61.5q58 0 107.5 -29.5t77.5 -80.5l9 -17l-90 -52l-10 18q-14 26 -39 41.5t-55 15.5q-44 0 -75.5 -31t-31.5 -75v-15q0 -44 31.5 -75t75.5 -31q20 0 38.5 7
t33 20.5t23.5 31.5zM472.5 775q112.5 0 208 -55.5t151 -151t55.5 -208t-55.5 -208.5t-151 -151.5t-208 -55.5t-208.5 55.5t-151.5 151.5t-55.5 208.5t55.5 208t151.5 151t208.5 55.5zM472 63q123 0 210.5 87t87.5 210t-87.5 210.5t-210.5 87.5t-210 -87.5t-87 -210.5
t87 -210t210 -87z" />
    <glyph glyph-name="guillemotleft" unicode="&#xab;" horiz-adv-x="599" 
d="M325 570l-123 -215l122 -215h-135l-150 215l150 215h136zM558 570l-123 -215l122 -215h-134l-151 215l151 215h135z" />
    <glyph glyph-name="softhyphen" unicode="&#xad;" horiz-adv-x="0" 
 />
    <glyph glyph-name="registered" unicode="&#xae;" horiz-adv-x="945" 
d="M604 461q13 -39 0 -78.5t-46 -62.5l72 -133h-97l-60 110q-19 -1 -45 0v-111h-83v359h6h30h6h18h17q63 0 79 -3q37 -6 64.5 -28t38.5 -53zM510 389q11 7 15 19.5t0 25.5q-7 21 -37 26q-13 2 -60 2v-82q66 -1 82 9zM472.5 775q112.5 0 208 -55.5t151 -151t55.5 -208
t-55.5 -208.5t-151 -151.5t-208.5 -55.5q-84 0 -161 33t-132.5 88.5t-88.5 132.5t-33 161q0 113 55.5 208.5t151.5 151t208.5 55.5zM472 63q123 0 210.5 87t87.5 210t-87.5 210.5t-210.5 87.5t-210 -87.5t-87 -210.5t87 -210t210 -87z" />
    <glyph glyph-name="degree" unicode="&#xb0;" horiz-adv-x="357" 
d="M178.5 820q60.5 0 103 -42.5t42.5 -103t-42.5 -103t-103 -42.5t-103 42.5t-42.5 103t42.5 103t103 42.5zM178.5 594q33.5 0 57 23.5t23.5 57t-23.5 57t-57 23.5t-57 -23.5t-23.5 -57t23.5 -57t57 -23.5z" />
    <glyph glyph-name="plusminus" unicode="&#xb1;" horiz-adv-x="530" 
d="M219 137v170h-170v89h170v171h90v-171h170v-89h-170v-170h-90zM481 0h-427v89h427v-89z" />
    <glyph glyph-name="acute" unicode="&#xb4;" horiz-adv-x="219" 
d="M99 722h121v-1l-119 -121h-77z" />
    <glyph glyph-name="paragraph" unicode="&#xb6;" horiz-adv-x="690" 
d="M629 717q16 0 16 -16v-56q0 -16 -16 -16h-66v-772h-91v772h-74v-772h-91v446h-38q-94 0 -158 57.5t-64 149.5q0 94 64.5 150.5t158.5 56.5h359z" />
    <glyph glyph-name="cedilla" unicode="&#xb8;" horiz-adv-x="102" 
d="M58 -56q2 -1 7 -2q16 -5 24.5 -8.5t21 -11.5t19 -17.5t12 -26.5t5.5 -39q0 -49 -37 -80t-95 -31q-75 0 -125 41q24 32 38 51q41 -31 92 -31q27 0 43 12t16 33q0 27 -44 41q-16 5 -34 8l-50 7l64 121h80l-40 -66z" />
    <glyph glyph-name="guillemotright" unicode="&#xbb;" horiz-adv-x="599" 
d="M409 570l151 -215l-151 -215h-134l122 215l-123 215h135zM176 570l151 -215l-151 -215h-135l123 215l-123 215h135z" />
    <glyph glyph-name="questiondown" unicode="&#xbf;" horiz-adv-x="503" 
d="M341 445q-27 0 -46.5 19t-19.5 46t19.5 46t46.5 19t46 -19t19 -46t-19 -46t-46 -19zM441 24q26 -33 70 -93q-93 -75 -229 -75q-107 0 -174.5 57t-67.5 147q0 31 8 57t19.5 44t33 34t38 25.5t45.5 19.5t45.5 14.5t46.5 11.5l5 1l1 1v107h117v-221l-91 -14q-34 -5 -63 -14
q-39 -13 -59.5 -30t-20.5 -46q0 -38 29 -60t78 -22q94 0 169 56z" />
    <glyph glyph-name="Agrave" unicode="&#xc0;" horiz-adv-x="571" 
d="M354 694l196 -694h-123l-45 160h-194l-45 -160h-122l196 694h137zM221 277h128l-64 227zM166 875q-1 0 -1 1h122l75 -121h-77z" />
    <glyph glyph-name="Acircumflex" unicode="&#xc2;" horiz-adv-x="571" 
d="M354 694l196 -694h-123l-45 160h-194l-45 -160h-122l196 694h137zM221 277h128l-64 227zM280 817l-48 -62h-91l75 121h127l75 -121h-90z" />
    <glyph glyph-name="Adieresis" unicode="&#xc4;" horiz-adv-x="571" 
d="M354 694l196 -694h-123l-45 160h-194l-45 -160h-122l196 694h137zM221 277h128l-64 227zM191 739q-27 0 -46.5 19t-19.5 46.5t19.5 46.5t46.5 19t46 -19t19 -46.5t-19 -46.5t-46 -19zM378 739q-27 0 -46 19t-19 46.5t19 46.5t46 19t46 -19t19 -46.5t-19 -46.5t-46 -19z
" />
    <glyph glyph-name="Aring" unicode="&#xc5;" horiz-adv-x="569" 
d="M353 694l196 -694h-123l-45 160h-194l-45 -160h-122l195 693q-32 29 -32 72q0 41 29 69.5t69.5 28.5t69 -28.5t28.5 -69.5q0 -42 -31 -71h5zM281.5 798q-13.5 0 -23.5 -9.5t-10 -23t10 -23t23.5 -9.5t23 9.5t9.5 23t-9.5 23t-23 9.5zM220 277h128l-64 227z" />
    <glyph glyph-name="AE" unicode="&#xc6;" horiz-adv-x="930" 
d="M882 575h-292v-176h240v-118h-240v-167h292v-114h-456l-44 158h-194l-45 -158h-122l195 692h96v1h570v-118zM221 276h128l-64 226zM473 269v306h-87z" />
    <glyph glyph-name="Ccedilla" unicode="&#xc7;" horiz-adv-x="729" 
d="M389 106q67 0 121.5 34.5t83.5 91.5l102 -59q-44 -84 -126 -134.5t-180 -50.5h-1.5h-0.5q-2 -6 -12 -40q36 -1 51 -9q13 -7 24 -22q16 -25 15 -51q-1 -14 -7.5 -27t-17 -23.5t-24.5 -16.5q-37 -18 -92 -18q-28 0 -57 4l10 65q72 -11 110 7q12 6 12 13q1 4 -4 10v1
q-13 2 -59 2h-22l-10 13q-7 13 -6.5 19.5t6.5 24.5l17 55q-120 24 -199.5 119.5t-79.5 220.5v26q0 94 46.5 173.5t126.5 126t173 46.5q98 0 179.5 -49.5t125.5 -132.5l-102 -59q-29 56 -83 90t-120 34q-94 0 -161 -67.5t-67 -161.5v-26q0 -95 67 -162t161 -67z" />
    <glyph glyph-name="Egrave" unicode="&#xc8;" horiz-adv-x="533" 
d="M484 579h-291v-176h239v-118h-239v-167h291v-118h-409v696h409v-117zM152 874v0.5v0.5h121l75 -122h-77z" />
    <glyph glyph-name="Eacute" unicode="&#xc9;" horiz-adv-x="533" 
d="M484 579h-291v-176h239v-118h-239v-167h291v-118h-409v696h409v-117zM407 874l-118 -121h-77l75 122h121v-1h-1z" />
    <glyph glyph-name="Ecircumflex" unicode="&#xca;" horiz-adv-x="533" 
d="M484 579h-291v-176h239v-118h-239v-167h291v-118h-409v696h409v-117zM282 835l-61 -82h-77l88 122h101l88 -122h-77z" />
    <glyph glyph-name="Edieresis" unicode="&#xcb;" horiz-adv-x="533" 
d="M484 579h-291v-176h239v-118h-239v-167h291v-118h-409v696h409v-117zM186 738q-27 0 -46 19t-19 46t19 46t46 19t46 -19t19 -46t-19 -46t-46 -19zM373.5 738q-27.5 0 -46.5 19t-19 46t19 46t46.5 19t46.5 -19t19 -46t-19 -46t-46.5 -19z" />
    <glyph glyph-name="Igrave" unicode="&#xcc;" 
d="M192 0h-117v699h117v-699zM217 758h-77l-118 121h-1v1h121z" />
    <glyph glyph-name="Iacute" unicode="&#xcd;" 
d="M193 0h-118v699h118v-699zM177 880h121v-1h-1l-118 -121h-77z" />
    <glyph glyph-name="Icircumflex" unicode="&#xce;" 
d="M192 0h-117v699h117v-699zM134 834l-49 -76h-90l75 122h127l75 -122h-90z" />
    <glyph glyph-name="Idieresis" unicode="&#xcf;" horiz-adv-x="269" 
d="M40 743q-27 0 -46 19t-19 46t19 46.5t46 19.5t46.5 -19.5t19.5 -46.5t-19.5 -46t-46.5 -19zM228 743q-27 0 -46.5 19t-19.5 46t19.5 46.5t46.5 19.5t46 -19.5t19 -46.5t-19 -46t-46 -19zM193 0h-118v699h118v-699z" />
    <glyph glyph-name="Eth" unicode="&#xd0;" horiz-adv-x="767" 
d="M388 686q151 0 243.5 -94.5t92.5 -248.5t-92.5 -248.5t-243.5 -94.5h-248v286h-112v123h112v277h248zM387 117q97 0 155 61.5t58 164.5q0 50 -15.5 92.5t-43 71.5t-67.5 45.5t-87 16.5h-126v-160h151v-123h-151v-169h126z" />
    <glyph glyph-name="Ntilde" unicode="&#xd1;" horiz-adv-x="667" 
d="M474 699h117v-699h-83l-315 442v-437h-118v694h79l320 -449v449zM196 751q-4 0 -5 4q-3 51 21.5 81.5t64.5 30.5q23 0 44 -14.5t38.5 -28.5t31.5 -14q34 0 38 48q1 5 5 5h37q4 0 5 -4q2 -50 -22.5 -81t-63.5 -31q-23 0 -44 14.5t-38.5 28.5t-32.5 14q-34 0 -38 -48
q-1 -5 -5 -5h-36z" />
    <glyph glyph-name="Ograve" unicode="&#xd2;" horiz-adv-x="804" 
d="M246 882l-0.5 0.5l-0.5 0.5h122l75 -122h-77zM649 623q83 -77 105.5 -193.5t-23.5 -219.5q-42 -95 -133 -152.5t-196 -57.5q-68 0 -132 24.5t-113 69.5q-86 78 -108.5 197.5t26.5 223.5q44 93 133.5 148.5t193.5 55.5q34 0 67.5 -6.5t65 -18.5t60.5 -30t54 -41zM637 346
q7 107 -62 180q-34 36 -80.5 55.5t-96.5 19.5q-72 0 -132 -38q-60 -39 -88 -107.5t-16 -141.5t62 -124q34 -35 80 -53.5t94 -18.5q69 0 127 34q33 21 58 52t38.5 67t15.5 75z" />
    <glyph glyph-name="Oacute" unicode="&#xd3;" horiz-adv-x="804" 
d="M539 882l-119 -121h-77l75 122h122q0 -1 -1 -1zM649 623q83 -77 105.5 -193.5t-23.5 -219.5q-42 -95 -133 -152.5t-196 -57.5q-68 0 -132 24.5t-113 69.5q-86 78 -108.5 197.5t26.5 223.5q44 93 133.5 148.5t193.5 55.5q34 0 67.5 -6.5t65 -18.5t60.5 -30t54 -41z
M637 346q7 107 -62 180q-34 36 -80.5 55.5t-96.5 19.5q-72 0 -132 -38q-60 -39 -88 -107.5t-16 -141.5t62 -124q34 -35 80 -53.5t94 -18.5q69 0 127 34q50 31 79.5 83t32.5 111z" />
    <glyph glyph-name="Ocircumflex" unicode="&#xd4;" horiz-adv-x="804" 
d="M649 623q83 -77 105.5 -193.5t-23.5 -219.5q-42 -95 -133 -152.5t-196 -57.5q-68 0 -132 24.5t-113 69.5q-86 78 -108.5 197.5t26.5 223.5q44 93 133.5 148.5t193.5 55.5q68 0 132.5 -25t114.5 -71zM637 346q7 107 -62 180q-34 36 -80.5 55.5t-96.5 19.5q-72 0 -132 -38
q-60 -39 -88 -107.5t-16 -141.5t62 -124q34 -35 80 -53.5t94 -18.5q69 0 127 34q33 21 58 52t38.5 67t15.5 75zM402 837l-49 -76h-90l75 122h127l75 -122h-90z" />
    <glyph glyph-name="Otilde" unicode="&#xd5;" horiz-adv-x="804" 
d="M266 764q-4 0 -5 5q-3 53 23 85.5t68 32.5q19 0 37.5 -9t30.5 -20.5t26.5 -21t27.5 -9.5q36 0 40 51q1 5 6 5h38q4 0 6 -4q3 -54 -23.5 -86.5t-68.5 -32.5q-24 0 -46.5 15.5t-41 30.5t-33.5 15q-37 0 -41 -51q-1 -6 -5 -6h-39zM649 623q83 -77 105.5 -193.5t-23.5 -219.5
q-42 -95 -133 -152.5t-196 -57.5q-68 0 -132 24.5t-113 69.5q-86 78 -108.5 197.5t26.5 223.5q44 93 133.5 148.5t193.5 55.5q68 0 132.5 -25t114.5 -71zM637 346q7 107 -62 180q-22 24 -51 41t-60.5 25.5t-65.5 8.5q-72 0 -132 -38q-60 -39 -88 -107.5t-16 -141.5t62 -124
q34 -35 80 -53.5t94 -18.5q69 0 127 34q33 21 58 52t38.5 67t15.5 75z" />
    <glyph glyph-name="Odieresis" unicode="&#xd6;" horiz-adv-x="804" 
d="M304 750q-27 0 -46.5 19t-19.5 46t19.5 46.5t46.5 19.5t46 -19.5t19 -46.5t-19 -46t-46 -19zM491 750q-27 0 -46 19t-19 46t19 46.5t46 19.5t46.5 -19.5t19.5 -46.5t-19.5 -46t-46.5 -19zM649 623q83 -77 105.5 -193.5t-23.5 -219.5q-42 -95 -133 -152.5t-196 -57.5
q-68 0 -132 24.5t-113 69.5q-86 78 -108.5 197.5t26.5 223.5q44 93 133.5 148.5t193.5 55.5q68 0 132.5 -25t114.5 -71zM637 346q7 107 -62 180q-22 24 -51 41t-60.5 25.5t-65.5 8.5q-72 0 -132 -38q-60 -39 -88 -107.5t-16 -141.5t62 -124q34 -35 80 -53.5t94 -18.5
q69 0 127 34q50 31 79.5 83t32.5 111z" />
    <glyph glyph-name="Oslash" unicode="&#xd8;" horiz-adv-x="810" 
d="M687 754l91 -75l-101 -121q64 -90 64 -200v-27q0 -94 -46.5 -173.5t-126.5 -126t-174 -46.5q-84 0 -159 39l-108 -131l-91 75l105 127q-93 100 -93 236v27q0 94 46.5 173.5t126 126t173.5 46.5q110 0 199 -63zM217 187l301 363q-57 36 -124 36q-94 0 -161.5 -67
t-67.5 -161v-27q0 -81 52 -144zM623 331v27q0 55 -25 104l-285 -344q39 -15 81 -15q95 0 162 67t67 161z" />
    <glyph glyph-name="Ugrave" unicode="&#xd9;" horiz-adv-x="641" 
d="M459 704h117v-430q0 -67 -30 -132q-31 -69 -89.5 -105.5t-136.5 -36.5t-136.5 36.5t-89.5 105.5q-30 65 -30 132v430h118v-430q2 -48 20 -86q34 -70 118 -70q86 0 119 73q20 42 20 83v430zM187 878h-1v1h121l75 -122h-77z" />
    <glyph glyph-name="Uacute" unicode="&#xda;" horiz-adv-x="641" 
d="M459 704h117v-430q0 -67 -30 -132q-31 -69 -89.5 -105.5t-136.5 -36.5t-136.5 36.5t-89.5 105.5q-30 65 -30 132v430h118v-430q2 -48 20 -86q34 -70 118 -70q86 0 119 73q20 42 20 83v430zM454 878l-118 -121h-78l76 122h121v-1h-1z" />
    <glyph glyph-name="Ucircumflex" unicode="&#xdb;" horiz-adv-x="641" 
d="M459 704h117v-430q0 -67 -30 -132q-31 -69 -89.5 -105.5t-136.5 -36.5t-136.5 36.5t-89.5 105.5q-30 65 -30 132v430h118v-430q0 -43 20 -86q34 -70 118 -70q86 0 119 73q20 42 20 83v430zM320 824l-61 -82h-77l88 122h100l89 -122h-78z" />
    <glyph glyph-name="Udieresis" unicode="&#xdc;" horiz-adv-x="641" 
d="M459 704h117v-430q0 -67 -30 -132q-31 -69 -89.5 -105.5t-136.5 -36.5t-136.5 36.5t-89.5 105.5q-30 65 -30 132v430h118v-430q0 -43 20 -86q34 -70 118 -70q86 0 119 73q20 42 20 83v430zM231 753q-27 0 -46.5 19t-19.5 46t19.5 46.5t46.5 19.5t46 -19.5t19 -46.5
t-19 -46t-46 -19zM418 753q-27 0 -46 19t-19 46t19 46.5t46 19.5t46.5 -19.5t19.5 -46.5t-19.5 -46t-46.5 -19z" />
    <glyph glyph-name="Yacute" unicode="&#xdd;" horiz-adv-x="575" 
d="M433 700h135l-219 -365v-335h-117v335l-226 365h136l145 -253zM428 877l-119 -120h-77l75 121h122h-1v-1z" />
    <glyph glyph-name="Thorn" unicode="&#xde;" horiz-adv-x="633" 
d="M409 533q25 0 50.5 -5.5t51.5 -19.5t46 -34.5t32.5 -52t12.5 -70t-12.5 -70t-32.5 -52t-46 -34.5t-51.5 -20t-50.5 -6h-216v-169h-118v699h118v-166h216zM454 298q31 15 31 53t-31 54q-23 11 -45 11h-216v-129h216q24 1 45 11z" />
    <glyph glyph-name="germandbls" unicode="&#xdf;" horiz-adv-x="696" 
d="M628 278q39 -46 39 -108q0 -82 -61 -141q-60 -58 -153 -58q-73 0 -129 40q-55 39 -82 100l-7 15l113 52l7 -14q25 -47 49 -64q23 -16 48 -16q34 0 58 23q25 24 25 54q0 25 -14 42q-10 12 -57 44q-92 64 -115 97q-25 35 -25 73q0 23 8 48q8 23 37 72q27 46 35 69
q8 21 8 36q0 26 -24 47q-25 22 -68 22q-51 0 -83 -31t-32 -143v-552h-130v556q0 103 26 159q26 58 87 91q60 33 134 33q100 0 158 -51q59 -52 59 -121q0 -30 -10 -62q-11 -31 -36 -76q-25 -42 -31 -58q-5 -14 -5 -24q0 -12 9 -25q10 -15 61 -48q76 -49 101 -81z" />
    <glyph glyph-name="dotlessi" unicode="&#x131;" horiz-adv-x="201" 
d="M145 0h-89v522h89v-522z" />
    <glyph glyph-name="Lslash" unicode="&#x141;" horiz-adv-x="575" 
d="M234 118h324v-118h-442v248l-79 -64v122l79 64v330h118v-234l180 146v-122l-180 -146v-226z" />
    <glyph glyph-name="OE" unicode="&#x152;" horiz-adv-x="956" 
d="M907 595h-294v-177h241v-118h-241v-168h294v-118h-412v56q-71 -70 -171 -70v0h-1q-89 0 -152.5 54t-95.5 143q-28 78 -28 165q0 86 27 161h-1q15 42 37 76q25 39 58 65.5t72.5 40.5t82.5 14h1q100 0 171 -68v62h412v-118zM324 118q31 0 58 13.5t46.5 36t34 52t22.5 59.5
t10 60v47q-6 80 -46.5 142t-103.5 72h-3q-3 1 -7 1h-9h-1h-1h-1.5h-1.5h-9q-4 0 -7 -1h-1h-1q-45 -8 -77.5 -45t-46.5 -87t-14 -106q0 -31 5 -63t17 -65t30 -58.5t45.5 -41.5t61.5 -16z" />
    <glyph glyph-name="Scaron" unicode="&#x160;" horiz-adv-x="606" 
d="M487 368q79 -52 79 -150q0 -103 -68 -160.5t-188 -57.5q-168 0 -270 104l66 98q88 -90 211 -90q50 0 87.5 23.5t37.5 66.5q0 21 -10 37.5t-31.5 28t-43.5 18.5t-57 16l-5 1q-30 7 -46.5 11.5t-45.5 14.5t-45.5 19.5t-38 25.5t-32.5 34t-19.5 44t-8.5 57q0 90 68 147
t175 57q136 0 228 -75q-44 -59 -69 -93q-75 56 -169 56q-50 0 -79 -22t-29 -60q0 -17 8 -30t18.5 -21.5t32.5 -16.5t36.5 -12t44.5 -12q115 -28 163 -59zM353 745h-100l-89 122h78l61 -82l61 82h77z" />
    <glyph glyph-name="Ydieresis" unicode="&#x178;" horiz-adv-x="575" 
d="M433 700h135l-219 -365v-335h-117v335l-226 365h136l145 -253zM195 748q-27 0 -46.5 19t-19.5 46t19.5 46.5t46.5 19.5t46 -19.5t19 -46.5t-19 -46t-46 -19zM382 748q-27 0 -46 19t-19 46t19 46.5t46 19.5t46 -19.5t19 -46.5t-19 -46t-46 -19z" />
    <glyph glyph-name="Zcaron" unicode="&#x17d;" horiz-adv-x="571" 
d="M338 743h-101l-88 121h77l61 -82l62 82h77zM537 662l-47 -82l-289 -461h334v-119h-498v75l26 44l289 461h-315v120h500v-38z" />
    <glyph glyph-name="circumflex" unicode="&#x2c6;" horiz-adv-x="309" 
d="M204 715l84 -115q-16 0 -43.5 1t-35.5 1l-55 73l-54 -72q-43 0 -79 -2l83 114h100z" />
    <glyph glyph-name="caron" unicode="&#x2c7;" horiz-adv-x="288" 
d="M199 713q10 0 25 0.5t28.5 1t25.5 0.5l-84 -115h-100l-83 114q37 -2 79 -2l54 -73z" />
    <glyph glyph-name="ilde" unicode="&#x2dc;" horiz-adv-x="472" 
d="M446 773q6 0 8 -6q4 -75 -33 -121t-96 -46q-27 0 -53 13.5t-42.5 29.5t-37 29t-38.5 13q-51 0 -57 -72q-2 -7 -8 -7h-54q-6 0 -8 6q-4 75 33 121t96 46q27 0 53 -13.5t42.5 -29.5t37.5 -29t38 -13q52 0 58 72q1 7 7 7h54z" />
    <glyph glyph-name="endash" unicode="&#x2013;" horiz-adv-x="589" 
d="M562 295h-536v89h536v-89z" />
    <glyph glyph-name="emdash" unicode="&#x2014;" horiz-adv-x="1070" 
d="M1044 295h-1018v89h1018v-89z" />
    <glyph glyph-name="quoteright" unicode="&#x2019;" horiz-adv-x="223" 
d="M77 540v37q0 8 6 11q59 17 76 68q-36 0 -60 21.5t-24 59.5q0 33 22.5 56.5t55.5 23.5q21 0 38.5 -9.5t29 -31t11.5 -52.5q0 -61 -39 -119.5t-105 -73.5q-11 -4 -11 9z" />
    <glyph glyph-name="quotesinglbase" unicode="&#x201a;" horiz-adv-x="207" 
d="M159 85q26 -56 14 -104q-14 -56 -76 -88l-27 52q38 20 45 50q2 4 2 10q-10 -4 -21 -4q-27 0 -46 19.5t-19 46.5t19 46t46 19q23 0 40 -13.5t23 -33.5z" />
    <glyph glyph-name="quoteleftreversed" unicode="&#x201b;" horiz-adv-x="156" 
d="M168 774q0 -27 -19 -46.5t-46 -19.5q-11 0 -21 4q1 -6 2 -10q8 -30 46 -50l-27 -52q-62 32 -76 88q-12 48 13 104q6 20 23.5 33.5t39.5 13.5q27 0 46 -19t19 -46z" />
    <glyph glyph-name="quotedblleft" unicode="&#x201c;" horiz-adv-x="430" 
d="M113 620q36 1 60 -20.5t24 -59.5q0 -22 -10 -40.5t-28 -29t-39 -10.5q-34 0 -57 23.5t-23 69.5q0 61 39 119.5t105 73.5q12 3 12 -9v-37q0 -9 -7 -11q-59 -17 -76 -69zM305 620q36 1 60.5 -20.5t24.5 -59.5q0 -34 -22.5 -57t-55.5 -23q-22 0 -39.5 9.5t-29 31t-11.5 52.5
q0 61 39.5 119.5t105.5 73.5q11 3 11 -9v-37q0 -9 -7 -11q-59 -17 -76 -69z" />
    <glyph glyph-name="quotedblright" unicode="&#x201d;" horiz-adv-x="428" 
d="M310 747q34 0 57 -24t23 -69q0 -61 -39.5 -119.5t-105.5 -73.5q-11 -4 -11 9v37q0 8 7 11q58 17 76 68q-36 0 -60.5 21.5t-24.5 59.5q0 33 22.5 56.5t55.5 23.5zM118 747q33 0 56 -24t23 -69q0 -61 -39 -119.5t-105 -73.5q-11 -4 -11 9v37q0 8 6 11q59 17 76 68
q-36 0 -60 21.5t-24 59.5q0 33 22.5 56.5t55.5 23.5z" />
    <glyph glyph-name="quotedblbase" unicode="&#x201e;" horiz-adv-x="368" 
d="M96 132q23 0 40 -13.5t23 -33.5q26 -56 14 -104q-14 -56 -76 -88l-27 52q38 20 45 50q2 4 2 10q-10 -4 -21 -4q-27 0 -46 19.5t-19 46.5t19 46t46 19zM320 85q26 -56 14 -104q-14 -56 -76 -88l-27 52q38 20 46 50q1 4 1 10q-10 -4 -20 -4q-27 0 -46.5 19.5t-19.5 46.5
t19.5 46t46.5 19q22 0 39.5 -13.5t22.5 -33.5z" />
    <glyph glyph-name="dagger" unicode="&#x2020;" horiz-adv-x="602" 
d="M563 529v-90h-220v-652h-90v652h-215v90h215v221h90v-221h220z" />
    <glyph glyph-name="daggerdbl" unicode="&#x2021;" horiz-adv-x="630" 
d="M577 433h-220v-341h220v-89h-220v-222h-90v222h-215v89h215v341h-215v90h215v221h90v-221h220v-90z" />
    <glyph glyph-name="bullet" unicode="&#x2022;" horiz-adv-x="252" 
d="M217 370q0 -24 -12.5 -45t-33.5 -33t-46 -12q-24 0 -45 12t-33 33t-12 45q0 38 26.5 65t63.5 27q38 0 65 -27t27 -65z" />
    <glyph glyph-name="ellipsis" unicode="&#x2026;" horiz-adv-x="714" 
d="M357 0q-27 0 -46.5 19t-19.5 46t19.5 46.5t46.5 19.5t46 -19.5t19 -46.5t-19 -46t-46 -19zM618 0q-27 0 -46 19t-19 46t19 46.5t46 19.5t46.5 -19.5t19.5 -46.5t-19.5 -46t-46.5 -19zM95 0q-27 0 -46 19t-19 46t19 46.5t46 19.5t46.5 -19.5t19.5 -46.5t-19.5 -46
t-46.5 -19z" />
    <glyph glyph-name="perthousand" unicode="&#x2030;" horiz-adv-x="1182" 
d="M342 528q0 -48 -20 -88t-54 -63.5t-74 -23.5t-74 23.5t-54 63.5t-20 88q0 72 43.5 123t104.5 51t104.5 -51t43.5 -123zM138 528q0 -34 16.5 -58.5t39.5 -24.5q15 0 28 11t20.5 30.5t7.5 41.5q0 33 -16.5 57.5t-39.5 24.5q-15 0 -28 -11t-20.5 -30t-7.5 -41zM639 320
q61 0 104 -51.5t43 -123.5t-43 -123t-104.5 -51t-104.5 51t-43 123q0 48 19.5 88t53.5 63.5t75 23.5zM638.5 63q22.5 0 39.5 24.5t17 58t-17 58t-39.5 24.5t-39.5 -24.5t-17 -58t17 -58t39.5 -24.5zM989 320q30 0 57.5 -14t47 -37.5t31.5 -55.5t12 -68q0 -72 -43.5 -123
t-104.5 -51t-104.5 51t-43.5 123q0 48 19.5 88t54 63.5t74.5 23.5zM989 63q23 0 39.5 24.5t16.5 58t-16.5 58t-39.5 24.5t-40 -24.5t-17 -58t17 -58t40 -24.5zM556 682h117l-396 -699h-117z" />
    <glyph glyph-name="guilsinglleft" unicode="&#x2039;" horiz-adv-x="366" 
d="M202 355l122 -215h-135l-150 215l150 215h136z" />
    <glyph glyph-name="guilsinglright" unicode="&#x203a;" horiz-adv-x="366" 
d="M41 140l123 215l-123 215h135l151 -215l-151 -215h-135z" />
    <glyph glyph-name="fraction" unicode="&#x2044;" horiz-adv-x="689" 
d="M141 0h-118l527 699h117z" />
    <glyph glyph-name="Euro" unicode="&#x20ac;" horiz-adv-x="563" 
d="M451 0q-123 0 -218 77.5t-121 195.5h-63v71h56l-0.5 1l-0.5 1v27q0 10 1 23h-56v70h68q31 111 123.5 182t210.5 71q27 0 53 -4v-120q-26 6 -53 6q-69 0 -125.5 -37t-83.5 -98h191v-70h-210q-1 -12 -1 -23v-27v-1v-1h211v-71h-199q23 -68 82.5 -111.5t134.5 -43.5
q27 0 53 6v-120q-26 -4 -53 -4z" />
    <glyph glyph-name="trademark" unicode="&#x2122;" horiz-adv-x="736" 
d="M37 624v76h252v-76h-85v-275h-81v275h-86zM626 701h57v-352h-81v178l-96 -135l-97 135v-178h-81v352h57l121 -170z" />
    <glyph glyph-name="minus" unicode="&#x2212;" horiz-adv-x="507" 
d="M480 300h-453v89h453v-89z" />
    <glyph glyph-name="A.alt1" unicode="&#xf000;" horiz-adv-x="574" 
d="M356 701l197 -700h-123l-46 161h-195l-46 -161h-123l197 700h139zM222 281h129l-64 228z" />
    <glyph glyph-name="E.alt1" unicode="&#xf004;" horiz-adv-x="707" 
d="M663 582h-294v-151q18 -6 52 -12q37 -7 67 -7q31 0 74 12q19 5 32 12v-114q-52 -20 -129 -19q-42 0 -96 17v-201h294v-118h-413v356q-59 12 -120 -3t-106 -52v128q72 37 173 37q27 0 53 -4v237h413v-118z" />
    <glyph glyph-name="F.alt1" unicode="&#xf005;" horiz-adv-x="689" 
d="M663 582h-293v-151q18 -6 51 -12q37 -7 67 -7q31 0 74 12q19 5 32 12v-114q-52 -20 -129 -19q-41 0 -95 17v-319h-119v356q-60 12 -121 -3t-106 -52v128q72 37 173 37q27 0 54 -4v237h412v-118z" />
    <glyph glyph-name="G.alt1" unicode="&#xf006;" horiz-adv-x="775" 
d="M735 385v-1v-64q-5 -100 -62 -182v0q-48 -68 -122.5 -107.5t-161.5 -39.5q-70 0 -134 27.5t-110.5 74t-74 110.5t-27.5 134v27q0 94 46.5 173.5t126.5 126t173 46.5q65 0 124.5 -23t105.5 -64t75 -95l-102 -59q-29 56 -83 89.5t-120 33.5q-94 0 -161 -67t-67 -161v-27
q0 -94 67 -161t161 -67q43 0 82 15t69 41.5t50 61.5q10 20 17 41h-232v117h360z" />
    <glyph glyph-name="H.alt1" unicode="&#xf007;" horiz-adv-x="873" 
d="M681 700h118v-699h-118v239q-16 -5 -31 -9q-40 -10 -83 -13q-98 -5 -199 31v-248h-118v300l-36 18q-68 32 -98 39q-45 10 -94 6v112q59 4 114 -9q36 -9 77 -26q16 -7 37 -17v276h118v-333q66 -27 120 -34q71 -10 134 6q30 8 59 23v338z" />
    <glyph glyph-name="K.alt1" unicode="&#xf00a;" horiz-adv-x="594" 
d="M949 98q7 -15 22 -53q-93 -59 -204 -60q-41 -1 -83 7q-105 19 -202 88q-14 10 -30.5 22.5t-28.5 23t-29.5 25t-29.5 23.5q-58 46 -85 60q-39 20 -84 27l-3 -2v-258h-118q2 344 0 699h118v-279l213 279h135l-270 -342q29 -9 54 -23q33 -16 68 -42q22 -17 62 -51t60 -49
q65 -49 120 -71q67 -26 132 -25q88 1 161 51q14 -32 22 -50z" />
    <glyph glyph-name="L.alt1" unicode="&#xf00b;" horiz-adv-x="296" 
d="M192 110h455v-109h-573v699h118v-590z" />
    <glyph glyph-name="M.alt1" unicode="&#xf00c;" horiz-adv-x="824" 
d="M653 700h96v-699h-115v470l-141 -156q57 -70 57 -153q0 -74 -44 -117q-42 -40 -100 -40h-2h-6q-55 7 -94 48t-39 108q0 79 55 152l-130 145v-457h-116v699h85l247 -300zM409 125q20 3 20 37t-21 66q-22 -35 -22 -67q0 -30 23 -36z" />
    <glyph glyph-name="Q.alt1" unicode="&#xf010;" horiz-adv-x="945" 
d="M1183 50q7 -15 22 -51q-95 -57 -210 -58q-43 -1 -86 6q-108 19 -208 85q-27 18 -66 49q-101 -88 -235 -88q-97 0 -180 48t-131 130.5t-48 180t48 180t131 130.5t180 48t180 -48t131 -130.5t48 -179.5q0 -102 -54 -188q33 -26 56 -42q113 -74 233 -73q91 1 166 49
q14 -30 23 -48zM400 114q74 0 136 43q-24 15 -44 25q-60 28 -130.5 30t-134.5 -23q71 -75 173 -75zM609 238q28 53 29 114q0 98 -70 167.5t-168 69.5t-168 -69.5t-70 -167.5q0 -35 10 -69q87 38 185.5 37t180.5 -40q34 -16 71 -42z" />
    <glyph glyph-name="R.alt1" unicode="&#xf011;" horiz-adv-x="656" 
d="M956 69q6 -15 22 -52q-93 -59 -204 -60q-42 -1 -83 7q-106 19 -202 87q-19 13 -38 28.5t-43.5 36t-36.5 29.5q-58 47 -86 61q-40 21 -89 28h-4h-4v-233h-113v700h10q62 0 91.5 -0.5t77 -3t70.5 -8.5t55 -17.5t49.5 -28.5t35 -42t29.5 -59q25 -75 -1 -150.5t-91 -116.5
q-4 -3 -9 -6q6 -4 7 -5q22 -16 62 -50t59 -49q65 -49 121 -71q67 -26 131 -25q89 1 161 51q15 -32 23 -51zM338 374q31 20 43.5 56.5t-0.5 73.5q-10 31 -39 50t-62 25q-35 6 -92 4v-231q106 -6 150 22z" />
    <glyph glyph-name="W.alt1" unicode="&#xf016;" horiz-adv-x="1076" 
d="M933 700h126l-222 -699h-145l-144 351l-111 -351h-145l-280 699h126l227 -544l113 367l-73 177h126l234 -544z" />
    <glyph glyph-name="Y.alt1" unicode="&#xf018;" horiz-adv-x="582" 
d="M439 700h136l-226 -362v-337h-117v337l-226 362h136l145 -250l4 -5l3 5z" />
    <glyph glyph-name="Z.alt1" unicode="&#xf019;" horiz-adv-x="595" 
d="M231 121h335v-120h-541l69 120l263 459h-318v120h524l-68 -120z" />
    <glyph glyph-name="a.alt1" unicode="&#xf01a;" horiz-adv-x="418" 
d="M280 240l-22 82h-98l-23 -82h-115l130 462h113l131 -462h-116zM209 494l-26 -90h51z" />
    <glyph glyph-name="K.alt2" unicode="&#xf036;" horiz-adv-x="609" 
d="M745 158l68 -97q-7 -4 -13 -9q-72 -46 -154.5 -57.5t-162.5 17.5q-70 26 -156 104q-32 29 -64 63q-58 62 -56 65l-14 -19q0 -119 -1 -226h-118q2 351 0 698h118q1 -138 1 -276l210 276h149l-271 -357q-1 0 4 -6t12.5 -14.5t14.5 -16t13.5 -14.5t7.5 -8q29 -33 53 -58
q66 -67 114 -93q42 -24 91 -25t93 20q13 6 37.5 19t23.5 14z" />
    <glyph glyph-name="L.alt2" unicode="&#xf037;" horiz-adv-x="345" 
d="M237 22q-22 4 -44 3q-33 0 -73 -11q-30 -8 -45 -21v707h118v-570q32 1 64 -5q37 -6 104 -30q32 -11 48 -16q64 -18 132 -4.5t117 54.5v-128q-72 -37 -173 -37q-56 0 -109 16q-18 5 -54 17q-57 20 -85 25z" />
    <glyph glyph-name="R.alt2" unicode="&#xf038;" horiz-adv-x="643" 
d="M812 135l68 -97q-41 -28 -85 -46t-90.5 -25t-94.5 0.5t-91 29.5q-23 12 -49 31t-40 31.5t-43 39.5q-65 60 -119 129q-15 -1 -31 -1q-19 0 -44 2v-230h-118v699h118q67 2 112 -6q70 -11 122.5 -52.5t72.5 -101.5q26 -75 0 -151t-92 -117q-6 -4 -14 -9q48 -54 113 -111
q80 -71 152 -70q75 1 153 55zM344 369q32 21 44.5 58t-0.5 73q-11 32 -40 51t-62 25q-35 5 -93 4v-233q108 -6 151 22z" />
    <glyph glyph-name="a.alt2" unicode="&#xf039;" horiz-adv-x="481" 
d="M422 0h-364v110h364v-110zM401 615q21 -46 21 -93v-284h-104v119h-156v-119h-104v284q0 47 21 93q22 49 64 75t97.5 26t97 -26t63.5 -75zM318 461v61q0 24 -11 50q-19 40 -67 40q-47 0 -66 -39q-11 -24 -12 -51v-61h156z" />
    <glyph glyph-name="b.alt1" unicode="&#xf03a;" horiz-adv-x="479" 
d="M432 0h-370v110h370v-110zM264 237h-3h-199v462h182q73 2 119 -40q41 -37 41 -96q0 -44 -24 -77l10 -8q42 -39 42 -99q0 -59 -41 -97q-47 -45 -127 -45zM166 601v-77h76q34 0 49 14q9 8 9 24q0 18 -10 26q-14 14 -44 13h-1h-79zM166 421v-85h96h1q38 0 55 16q10 9 10 27
t-11 28q-16 15 -50 14h-2h-99z" />
    <glyph glyph-name="c.alt1" unicode="&#xf03b;" horiz-adv-x="552" 
d="M509 0h-462v110h462v-110zM289 228q-33 0 -64.5 8.5t-58 23.5t-48.5 36.5t-38 47t-24.5 55.5t-8.5 61v17q0 95 71 163t171 68q66 0 123.5 -32.5t89.5 -88.5l6 -11l-90 -50l-7 12q-9 16 -22 29.5t-28.5 22.5t-34 14t-37.5 5q-57 0 -97.5 -39t-40.5 -93v-17
q0 -55 40.5 -93.5t97.5 -38.5q39 0 72.5 19.5t50.5 53.5l6 12l91 -50l-6 -11q-32 -57 -89.5 -90.5t-124.5 -33.5z" />
    <glyph glyph-name="d.alt1" unicode="&#xf03c;" horiz-adv-x="521" 
d="M474 0h-412v110h412v-110zM474 468.5q0 -108.5 -64 -169.5t-171 -61h-177v462h177q107 0 171 -61.5t64 -170zM168 595v-252h70q61 0 94.5 31.5t33.5 93.5q0 31 -9.5 55t-26 39.5t-40 24t-52.5 8.5h-70z" />
    <glyph glyph-name="e.alt1" unicode="&#xf03d;" horiz-adv-x="414" 
d="M360 0h-298v110h298v-110zM360 595h-194v-77h159v-105h-159v-71h194v-104h-298v461h298v-104z" />
    <glyph glyph-name="f.alt1" unicode="&#xf03e;" horiz-adv-x="401" 
d="M360 0h-298v110h298v-110zM62 699h298v-105h-194v-77h159v-105h-159v-174h-104v461z" />
    <glyph glyph-name="g.alt1" unicode="&#xf03f;" horiz-adv-x="569" 
d="M513 0h-466v110h466v-110zM512 503h2v-265h-85v40q-64 -46 -143 -46q-99 0 -169 67.5t-70 163.5v16q0 63 32 116.5t87 84t120 30.5t121.5 -32.5t88.5 -88.5l4 -8l-84 -47l-5 8q-19 35 -52.5 54.5t-72.5 19.5q-59 0 -100.5 -40t-41.5 -97v-16q0 -57 41.5 -97t100.5 -40
q38 0 71.5 19t51.5 52q3 5 6 11h-149v95h246z" />
    <glyph glyph-name="h.alt1" unicode="&#xf040;" horiz-adv-x="513" 
d="M451 0h-389v110h389v-110zM347 699h104v-461h-104v181h-181v-181h-104v461h104v-176h181v176z" />
    <glyph glyph-name="i.alt1" unicode="&#xf041;" horiz-adv-x="350" 
d="M330 0h-311v110h311v-110zM227 238h-104v461h104v-461z" />
    <glyph glyph-name="j.alt1" unicode="&#xf042;" horiz-adv-x="401" 
d="M78 260q-26 16 -45 41l-7 9l8 8l56 56l12 11l8 -14q10 -15 24 -24q30 -19 62 -7q29 12 37 41q5 19 5 64l2 254h104l-2 -255q-1 -58 -9 -90q-10 -38 -36 -67t-63 -43q-30 -12 -62 -12q-52 0 -94 28zM344 0h-318v110h318v-110z" />
    <glyph glyph-name="k.alt1" unicode="&#xf043;" horiz-adv-x="484" 
d="M62 250q1 225 0 437v12h104v-12v-138l121 150h131l-180 -224l221 -237h-139l-147 158l-7 -9v-137v-12h-104v12zM459 0h-397v110h397v-110z" />
    <glyph glyph-name="l.alt1" unicode="&#xf044;" horiz-adv-x="409" 
d="M166 341h214v-103h-318v462h104v-359zM380 0h-318v110h318v-110z" />
    <glyph glyph-name="m.alt1" unicode="&#xf045;" horiz-adv-x="617" 
d="M483 699h72v-461h-104v250l-143 -189l-142 189v-250h-104v461h72l174 -231zM555 0h-493v110h493v-110z" />
    <glyph glyph-name="n.alt1" unicode="&#xf046;" horiz-adv-x="492" 
d="M325 699h104v-461h-75l-188 249v-249h-104v461h72l191 -254v254zM429 0h-367v110h367v-110z" />
    <glyph glyph-name="o.alt1" unicode="&#xf047;" horiz-adv-x="594" 
d="M126 289q-59 52 -75 132.5t18 151.5q20 42 55 73t79.5 48t93.5 17q99 0 172 -65q57 -52 73 -129.5t-16 -148.5q-29 -64 -92.5 -103t-136.5 -39q-99 0 -171 63zM150 484q-8 -69 39 -115q43 -42 105 -42q42 0 77 20q30 17 48 47.5t20 66.5q4 62 -37 105q-43 44 -108 44
q-44 0 -80 -22q-56 -35 -64 -104zM547 0h-501v110h501v-110z" />
    <glyph glyph-name="p.alt1" unicode="&#xf048;" horiz-adv-x="416" 
d="M166 365v-127h-104v462h54h28l16 -1q46 0 69 -4q49 -8 86.5 -37.5t51.5 -71.5q11 -37 7.5 -73t-23 -67.5t-50.5 -51.5q-46 -30 -119 -30q-7 0 -16 1zM166 596l1 -127q55 -2 78 13q17 10 24 30t0 40q-11 33 -57 41q-19 3 -46 3zM376 0h-314v110h314v-110z" />
    <glyph glyph-name="q.alt1" unicode="&#xf049;" horiz-adv-x="583" 
d="M530 0h-483v110h483v-110zM530 476v-17q0 -63 -34 -118q7 -11 12 -22t8 -21t6 -19.5t4 -16.5t2 -12.5t1 -8.5l1 -3h-97l-1 4q-1 3 -2 9q-3 11 -4 14q0 1 -1 2q-61 -42 -137 -42q-65 0 -120.5 31.5t-88 85.5t-32.5 117v17q0 64 32.5 117.5t88 85t120.5 31.5
q100 0 171 -68.5t71 -165.5zM286 321q40 0 74 19q-6 3 -17 8q-24 9 -50 9q-39 0 -73 -21q31 -15 66 -15zM431 459v17q0 57 -42.5 98t-102.5 41t-102.5 -41t-42.5 -98v-17q0 -28 12 -54q63 47 140 47q63 0 103 -19l16 -8l12 -8q7 21 7 42z" />
    <glyph glyph-name="r.alt1" unicode="&#xf04a;" horiz-adv-x="440" 
d="M166 382v-144h-104v461h13h41h29h14q46 0 69 -4q50 -8 87 -35.5t51 -68.5q19 -50 0 -101.5t-65 -79.5l-2 -1l100 -171h-122l-84 144h-27zM166 601v-120q55 -2 79 12q17 10 23.5 29t-0.5 38q-11 31 -57 38q-18 3 -45 3zM399 0h-337v110h337v-110z" />
    <glyph glyph-name="s.alt1" unicode="&#xf04b;" horiz-adv-x="471" 
d="M245 324q13 0 25.5 2.5t22.5 8t16 14.5t6 20q0 19 -19 30t-65 22l-3 1q-20 5 -31 7.5t-31.5 9.5t-32.5 13.5t-27 18t-23.5 24.5t-14.5 31.5t-6 40.5q0 64 48.5 104t125.5 40q94 0 159 -51l9 -7l-7 -10q-29 -39 -46 -60l-8 -11l-10 8q-46 34 -104 34q-27 0 -42.5 -11
t-15.5 -30q0 -12 11 -20.5t26 -13.5t46 -12q78 -19 111 -40q58 -37 58 -108t-49 -112t-133 -41q-116 0 -188 71l-7 7l59 85l11 -11q54 -54 129 -54zM423 0h-377v110h377v-110z" />
    <glyph glyph-name="t.alt1" unicode="&#xf04c;" horiz-adv-x="406" 
d="M29 700h347v-98h-122v-364h-103v364h-122v98zM376 0h-347v110h347v-110z" />
    <glyph glyph-name="u.alt1" unicode="&#xf04d;" horiz-adv-x="481" 
d="M318 699h104v-288q0 -47 -21 -92q-22 -49 -63.5 -75.5t-97 -26.5t-97.5 26.5t-64 75.5q-21 45 -21 92v288h104v-288v-3t1 -8l2 -12t3.5 -13.5t5.5 -14.5q19 -39 66 -39q48 0 67 41q11 24 11 49v288zM422 0h-364v110h364v-110z" />
    <glyph glyph-name="v.alt1" unicode="&#xf04e;" horiz-adv-x="484" 
d="M299 239h-115l-154 460h110l102 -288l101 288h111zM454 0h-424v110h424v-110z" />
    <glyph glyph-name="w.alt1" unicode="&#xf04f;" horiz-adv-x="748" 
d="M299 238h-115l-154 461h111l103 -316l130 286l129 -286l103 316h111l-154 -461h-114l-75 173zM717 0h-687v110h687v-110z" />
    <glyph glyph-name="x.alt1" unicode="&#xf050;" horiz-adv-x="489" 
d="M151 238h-120l153 249l-130 212h120l70 -114l70 114h120l-130 -212l153 -249h-120l-93 152zM457 0h-426v110h426v-110z" />
    <glyph glyph-name="y.alt1" unicode="&#xf051;" horiz-adv-x="467" 
d="M445 0h-423v110h423v-110zM181 251v206l-159 242h121l90 -147l91 147h121l-160 -242v-219h-103z" />
    <glyph glyph-name="z.alt1" unicode="&#xf052;" horiz-adv-x="453" 
d="M408 238h-370l210 366h-194v96h359l-210 -366h205v-96zM413 0h-375v110h375v-110z" />
    <glyph glyph-name="a.alt3" unicode="&#xf053;" horiz-adv-x="481" 
d="M422 590h-364v109h364v-109zM240 478q56 0 97.5 -26t63.5 -75q21 -46 21 -93v-284h-104v119h-156v-119h-104v284q0 47 21 93q15 33 38.5 55.5t54.5 34t68 11.5zM318 223v61q0 24 -11 50q-19 40 -67 40q-47 0 -66 -39q-11 -24 -12 -51v-61h156z" />
    <glyph glyph-name="b.alt2" unicode="&#xf054;" horiz-adv-x="478" 
d="M431 590h-370v110h370v-110zM379 248l10 -8q42 -38 42 -99q0 -58 -41 -96q-47 -45 -127 -45h-3h-199v462h182q73 2 119 -40q41 -38 41 -97q0 -44 -24 -77zM244 363h-79v-76h76q34 -1 49 14q9 8 9 24q0 17 -10 26q-14 13 -44 12h-1zM317 115q10 9 10 26q0 19 -11 28
q-16 16 -50 15h-2h-99v-85h96h1q38 0 55 16z" />
    <glyph glyph-name="c.alt2" unicode="&#xf055;" horiz-adv-x="550" 
d="M508 599h-462v110h462v-110zM411 173l6 11l91 -49l-6 -11q-32 -57 -89.5 -90.5t-124.5 -33.5q-100 0 -171 68t-71 164v16q0 96 71 164t171 68q66 0 123.5 -33t89.5 -89l6 -11l-90 -49l-7 11q-12 22 -30.5 38t-42.5 24.5t-49 8.5q-57 0 -97.5 -38.5t-40.5 -93.5v-16
q0 -55 40.5 -94t97.5 -39q39 0 72.5 20t50.5 54z" />
    <glyph glyph-name="d.alt2" unicode="&#xf056;" horiz-adv-x="521" 
d="M474 590h-412v109h412v-109zM239 462q70 0 123 -27t82.5 -80t29.5 -124q0 -108 -64 -169.5t-171 -61.5h-177v462h177zM238 105q40 0 68 13.5t44 42t16 70.5q0 61 -34.5 93.5t-93.5 32.5h-70v-252h70z" />
    <glyph glyph-name="e.alt2" unicode="&#xf057;" horiz-adv-x="414" 
d="M360 590h-298v110h298v-110zM62 0v461h298v-104h-194v-77h159v-104h-159v-72h194v-104h-298z" />
    <glyph glyph-name="f.alt2" unicode="&#xf058;" horiz-adv-x="401" 
d="M360 590h-298v109h298v-109zM62 0v461h298v-105h-194v-77h159v-104h-159v-175h-104z" />
    <glyph glyph-name="g.alt2" unicode="&#xf059;" horiz-adv-x="567" 
d="M512 596h-466v110h466v-110zM511 271h1v-265h-84v41q-64 -47 -143 -47q-99 0 -169 68t-70 163v17q0 95 70 163t169 68q43 0 83.5 -14.5t73 -42t53.5 -65.5l4 -8l-84 -47l-5 9q-19 34 -52.5 54t-72.5 20q-59 0 -100.5 -40.5t-41.5 -96.5v-17q0 -57 41.5 -97t100.5 -40
q38 0 71.5 19t51.5 52l6 12h-149v94h246z" />
    <glyph glyph-name="h.alt2" unicode="&#xf05a;" horiz-adv-x="513" 
d="M451 590h-389v109h389v-109zM347 285v177h104v-462h-104v181h-181v-181h-104v462h104v-177h181z" />
    <glyph glyph-name="i.alt2" unicode="&#xf05b;" horiz-adv-x="350" 
d="M330 590h-311v109h311v-109zM227 0h-104v461h104v-461z" />
    <glyph glyph-name="j.alt2" unicode="&#xf05c;" horiz-adv-x="399" 
d="M237 213l2 254h104l-2 -255q-1 -58 -9 -90q-10 -38 -36 -67t-63 -43q-30 -12 -62 -12q-52 0 -94 28q-26 16 -45 41l-7 9l8 8l56 56l12 11l8 -14q10 -15 24 -24q30 -19 62 -7q29 12 37 41q5 19 5 64zM343 596h-318v109h318v-109z" />
    <glyph glyph-name="k.alt2" unicode="&#xf05d;" horiz-adv-x="484" 
d="M418 462l-180 -225l221 -237h-139l-147 158l-7 -9v-137v-12h-104v12q1 225 0 437v13h104v-13v-138l121 151h131zM459 590h-397v109h397v-109z" />
    <glyph glyph-name="l.alt2" unicode="&#xf05e;" horiz-adv-x="409" 
d="M166 462v-358h214v-104h-318v462h104zM380 590h-318v110h318v-110z" />
    <glyph glyph-name="m.alt2" unicode="&#xf05f;" horiz-adv-x="617" 
d="M308 230l175 231h72v-461h-104v250l-143 -189l-142 189v-250h-104v461h72zM555 590h-493v109h493v-109z" />
    <glyph glyph-name="n.alt2" unicode="&#xf060;" horiz-adv-x="492" 
d="M325 207v255h104v-462h-75l-188 250v-250h-104v462h72zM429 590h-367v110h367v-110z" />
    <glyph glyph-name="o.alt2" unicode="&#xf061;" horiz-adv-x="592" 
d="M468 420q57 -52 73 -129.5t-16 -148.5q-29 -64 -92.5 -103t-136.5 -39q-99 0 -171 63q-59 52 -75 132.5t18 151.5q31 63 92.5 100.5t135.5 37.5q99 0 172 -65zM438 235q4 62 -37 105q-43 44 -108 44q-44 0 -80 -23q-56 -34 -64 -103t39 -115q43 -43 105 -43q42 0 77 21
q30 17 48 47t20 67zM546 602h-501v109h501v-109z" />
    <glyph glyph-name="p.alt2" unicode="&#xf062;" horiz-adv-x="416" 
d="M229 458q49 -8 86.5 -37.5t51.5 -72.5q18 -53 -0.5 -107.5t-65 -84t-119.5 -29.5h-16v-127h-104v462h54h28h16q46 0 69 -4zM245 244q17 11 24 31t0 40q-11 33 -57 40q-19 3 -46 3v-127q56 -2 79 13zM376 590h-314v110h314v-110z" />
    <glyph glyph-name="q.alt2" unicode="&#xf063;" horiz-adv-x="580" 
d="M529 602h-483v110h483v-110zM287.5 485q99.5 0 170.5 -68.5t71 -165.5v-17q0 -64 -34 -118q14 -23 22 -49t10 -40l2 -15h-97l-1 5q-1 2 -2 9q-3 11 -4 14q0 1 -1 1q-61 -41 -137 -41q-99 0 -170 68.5t-71 165.5v17q0 97 71 165.5t170.5 68.5zM285 95q40 0 74 20
q-6 3 -17 7q-24 9 -50 9q-39 0 -73 -20q31 -16 66 -16zM430 234v17q0 57 -42.5 97.5t-102.5 40.5t-102.5 -40.5t-42.5 -97.5v-17q0 -28 12 -54q63 47 140 47q63 0 103 -19l16 -8l12 -8q7 20 7 42z" />
    <glyph glyph-name="r.alt2" unicode="&#xf064;" horiz-adv-x="440" 
d="M301 173q0 -1 -2 -1l100 -172h-122l-84 145q-13 -1 -27 0v-145h-104v461h13q20 0 41 1q9 0 29 -1h14q46 0 69 -4q50 -7 87 -35t51 -68q19 -51 0 -102t-65 -79zM245 255q17 11 23.5 29.5t-0.5 37.5q-11 31 -57 39q-18 2 -45 2v-120q55 -2 79 12zM399 590h-337v110h337
v-110z" />
    <glyph glyph-name="s.alt2" unicode="&#xf065;" horiz-adv-x="468" 
d="M363 261q58 -37 58 -108t-49 -112t-133 -41q-116 0 -188 71l-7 7l59 85l11 -11q54 -54 129 -54q28 0 49 11.5t21 33.5q0 13 -9.5 22.5t-26.5 16t-48 13.5l-3 1q-20 5 -31 7.5t-31.5 9.5t-32.5 13.5t-27 18t-23.5 24.5t-14.5 31.5t-6 40.5q0 42 22 75t61.5 51t90.5 18
q94 0 159 -51l9 -7l-7 -10q-29 -39 -46 -61l-8 -10l-10 8q-46 34 -104 34q-27 0 -42.5 -11t-15.5 -30q0 -17 19 -26t64 -20q78 -19 111 -40zM421 602h-377v109h377v-109z" />
    <glyph glyph-name="t.alt2" unicode="&#xf066;" horiz-adv-x="406" 
d="M29 364v98h347v-98h-122v-364h-103v364h-122zM376 590h-347v109h347v-109z" />
    <glyph glyph-name="u.alt2" unicode="&#xf067;" horiz-adv-x="476" 
d="M316 194v288h104v-288q0 -47 -21 -93q-22 -49 -63.5 -75t-97 -26t-97.5 26t-64 75q-21 46 -21 93v288h104v-288q1 -27 12 -51q19 -39 66 -39q48 0 67 41q11 23 11 49zM420 611h-364v109h364v-109z" />
    <glyph glyph-name="v.alt2" unicode="&#xf068;" horiz-adv-x="484" 
d="M242 172l101 288h111l-155 -460h-115l-154 460h110zM454 589h-424v109h424v-109z" />
    <glyph glyph-name="w.alt2" unicode="&#xf069;" horiz-adv-x="748" 
d="M503 145l103 317h111l-154 -462h-114l-75 173l-75 -173h-115l-154 462h111l103 -317l130 286zM717 590h-687v109h687v-109z" />
    <glyph glyph-name="x.alt2" unicode="&#xf06a;" horiz-adv-x="489" 
d="M434 462l-130 -212l153 -250h-120l-93 152l-93 -152h-120l153 250l-130 212h120l70 -114l70 114h120zM457 590h-426v110h426v-110z" />
    <glyph glyph-name="y.alt2" unicode="&#xf06b;" horiz-adv-x="465" 
d="M444 590h-423v109h423v-109zM232 314l91 147h121l-160 -242v-219h-103l-1 12v207l-159 242h121z" />
    <glyph glyph-name="z.alt2" unicode="&#xf06c;" horiz-adv-x="452" 
d="M53 461h359l-210 -366h205v-95h-370l210 366h-194v95zM412 589h-375v110h375v-110z" />
    </font>
</defs>
</svg>
